<?xml version="1.0" encoding="UTF-8" standalone="no"?>
<!-- Created with Inkscape (http://www.inkscape.org/) -->

<svg
   xmlns:ns0="http://www.iki.fi/pav/software/textext/"
   xmlns:dc="http://purl.org/dc/elements/1.1/"
   xmlns:cc="http://creativecommons.org/ns#"
   xmlns:rdf="http://www.w3.org/1999/02/22-rdf-syntax-ns#"
   xmlns:svg="http://www.w3.org/2000/svg"
   xmlns="http://www.w3.org/2000/svg"
   xmlns:sodipodi="http://sodipodi.sourceforge.net/DTD/sodipodi-0.dtd"
   xmlns:inkscape="http://www.inkscape.org/namespaces/inkscape"
   width="85.065788"
   height="77.562553"
   id="svg3500"
   version="1.1"
   inkscape:version="0.48.4 r9939"
   sodipodi:docname="LC_oscillator_annotated.svg">
  <sodipodi:namedview
     id="base"
     pagecolor="#ffffff"
     bordercolor="#666666"
     borderopacity="1.0"
     inkscape:pageopacity="0.0"
     inkscape:pageshadow="2"
     inkscape:zoom="8.261959"
     inkscape:cx="13.728365"
     inkscape:cy="38.987152"
     inkscape:document-units="px"
     inkscape:current-layer="g6202"
     showgrid="false"
     fit-margin-top="0"
     fit-margin-left="0"
     fit-margin-right="0"
     fit-margin-bottom="0"
     inkscape:window-width="1855"
     inkscape:window-height="1056"
     inkscape:window-x="65"
     inkscape:window-y="24"
     inkscape:window-maximized="1" />
  <defs
     id="defs3502">
    <marker
       style="overflow:visible"
       id="Arrow2Send"
       refX="0"
       refY="0"
       orient="auto"
       inkscape:stockid="Arrow2Send">
      <path
         transform="matrix(-0.3,0,0,-0.3,0.69,0)"
         d="M 8.7185878,4.0337352 -2.2072895,0.01601326 8.7185884,-4.0017078 c -1.7454984,2.3720609 -1.7354408,5.6174519 -6e-7,8.035443 z"
         style="fill-rule:evenodd;stroke-width:0.625;stroke-linejoin:round"
         id="path3812"
         inkscape:connector-curvature="0" />
    </marker>
  </defs>
  <metadata
     id="metadata3505">
    <rdf:RDF>
      <cc:Work
         rdf:about="">
        <dc:format>image/svg+xml</dc:format>
        <dc:type
           rdf:resource="http://purl.org/dc/dcmitype/StillImage" />
        <dc:title />
      </cc:Work>
    </rdf:RDF>
  </metadata>
  <g
     transform="translate(-130.0588,-454.88044)"
     id="layer1"
     inkscape:groupmode="layer"
     inkscape:label="Layer 1">
    <g
       transform="matrix(0.38742049,0,0,0.38742049,126.00265,449.50812)"
       id="g10678">
      <g
         id="g6202">
        <g
           transform="translate(-61.428571,-143.57143)"
           id="g3945">
          <g
             id="g3854"
             transform="matrix(0.34754735,0,0,0.36467736,97.709488,155.6799)"
             style="stroke-width:8.42674541;stroke-miterlimit:4;stroke-dasharray:none">
            <path
               sodipodi:open="true"
               sodipodi:end="5.4105207"
               sodipodi:start="0.87266463"
               transform="matrix(0.94137935,0,0,0.90999999,2.4285698,12.798306)"
               d="M 109.48691,276.62123 C 91.959533,291.8356 65.82823,289.47057 51.121014,271.3388 36.413797,253.20703 38.69999,226.17464 56.227368,210.96028 c 15.401341,-13.36889 37.858203,-13.36889 53.259542,0"
               sodipodi:ry="42.857143"
               sodipodi:rx="41.42857"
               sodipodi:cy="243.79076"
               sodipodi:cx="82.85714"
               id="path2985-1"
               style="fill:none;stroke:#000000;stroke-width:13.87671757;stroke-linecap:round;stroke-linejoin:round;stroke-miterlimit:4;stroke-opacity:1;stroke-dasharray:none;stroke-dashoffset:0"
               sodipodi:type="arc" />
            <path
               sodipodi:open="true"
               sodipodi:end="4.712389"
               sodipodi:start="0.87266463"
               transform="matrix(0.94137935,0,0,0.90999999,2.4285701,-46.058833)"
               d="M 109.48691,276.62123 C 91.959533,291.8356 65.82823,289.47057 51.121014,271.3388 36.413797,253.20703 38.69999,226.17464 56.227368,210.96028 63.688616,204.48366 73.117174,200.93361 82.85714,200.93361"
               sodipodi:ry="42.857143"
               sodipodi:rx="41.42857"
               sodipodi:cy="243.79076"
               sodipodi:cx="82.85714"
               id="path2985-1-7"
               style="fill:none;stroke:#000000;stroke-width:13.87671757;stroke-linecap:round;stroke-linejoin:round;stroke-miterlimit:4;stroke-opacity:1;stroke-dasharray:none;stroke-dashoffset:0"
               sodipodi:type="arc" />
            <path
               sodipodi:open="true"
               sodipodi:end="5.4105207"
               sodipodi:start="0.87266463"
               transform="matrix(0.94137935,0,0,0.90999999,2.4285698,70.977024)"
               d="M 109.48691,276.62123 C 91.959533,291.8356 65.82823,289.47057 51.121014,271.3388 36.413797,253.20703 38.69999,226.17464 56.227368,210.96028 c 15.401341,-13.36889 37.858203,-13.36889 53.259542,0"
               sodipodi:ry="42.857143"
               sodipodi:rx="41.42857"
               sodipodi:cy="243.79076"
               sodipodi:cx="82.85714"
               id="path2985-1-4-0"
               style="fill:none;stroke:#000000;stroke-width:13.87671757;stroke-linecap:round;stroke-linejoin:round;stroke-miterlimit:4;stroke-opacity:1;stroke-dasharray:none;stroke-dashoffset:0"
               sodipodi:type="arc" />
            <path
               sodipodi:open="true"
               sodipodi:end="5.4105207"
               sodipodi:start="1.5707963"
               transform="matrix(0.94137935,0,0,0.90999999,2.4281158,128.82448)"
               d="m 82.857141,286.6479 c -22.880368,0 -41.428571,-19.1878 -41.428571,-42.85714 -10e-7,-23.66935 18.548201,-42.85715 41.428568,-42.85715 9.739967,0 19.168522,3.55005 26.629772,10.02667"
               sodipodi:ry="42.857143"
               sodipodi:rx="41.42857"
               sodipodi:cy="243.79076"
               sodipodi:cx="82.85714"
               id="path2985-1-4-9"
               style="fill:none;stroke:#000000;stroke-width:13.87671757;stroke-linecap:round;stroke-linejoin:round;stroke-miterlimit:4;stroke-opacity:1;stroke-dasharray:none;stroke-dashoffset:0"
               sodipodi:type="arc" />
            <path
               inkscape:connector-curvature="0"
               id="path3834"
               d="m 80.533543,136.29075 0,-45.35714"
               style="fill:none;stroke:#000000;stroke-width:12.84369087;stroke-linecap:round;stroke-linejoin:miter;stroke-miterlimit:4;stroke-opacity:1;stroke-dasharray:none" />
            <path
               inkscape:connector-curvature="0"
               id="path3834-4"
               d="m 80.533543,435.74335 0,-45.35714"
               style="fill:none;stroke:#000000;stroke-width:12.84369087;stroke-linecap:round;stroke-linejoin:miter;stroke-miterlimit:4;stroke-opacity:1;stroke-dasharray:none" />
          </g>
          <g
             id="g3016"
             transform="matrix(0.6561,0,0,0.6561,54.937908,75.826246)">
            <path
               inkscape:connector-curvature="0"
               id="path3863"
               d="m 178.62039,257.18706 78.57142,0"
               style="fill:none;stroke:#000000;stroke-width:6.96917152;stroke-linecap:round;stroke-linejoin:miter;stroke-miterlimit:4;stroke-opacity:1;stroke-dasharray:none" />
            <path
               inkscape:connector-curvature="0"
               id="path3863-8"
               d="m 178.62039,278.97278 78.57142,0"
               style="fill:none;stroke:#000000;stroke-width:6.96917152;stroke-linecap:round;stroke-linejoin:miter;stroke-miterlimit:4;stroke-opacity:1;stroke-dasharray:none" />
          </g>
          <path
             style="fill:none;stroke:#000000;stroke-width:4.57247353;stroke-linecap:round;stroke-linejoin:miter;stroke-miterlimit:4;stroke-opacity:1;stroke-dasharray:none"
             d="m 197.9061,188.99689 0,55.64222"
             id="path3863-82"
             inkscape:connector-curvature="0" />
          <path
             style="fill:none;stroke:#000000;stroke-width:4.57247305;stroke-linecap:round;stroke-linejoin:miter;stroke-miterlimit:4;stroke-opacity:1;stroke-dasharray:none"
             d="m 197.9061,260.74796 0,53.70635"
             id="path3863-82-4"
             inkscape:connector-curvature="0" />
          <path
             style="fill:none;stroke:#000000;stroke-width:4.572474;stroke-linecap:round;stroke-linejoin:miter;stroke-miterlimit:4;stroke-opacity:1;stroke-dasharray:none"
             d="m 125.85872,188.80802 72.00492,0"
             id="path3925"
             inkscape:connector-curvature="0" />
          <path
             style="fill:none;stroke:#000000;stroke-width:4.572474;stroke-linecap:round;stroke-linejoin:miter;stroke-miterlimit:4;stroke-opacity:1;stroke-dasharray:none"
             d="m 125.73862,314.58563 72.13617,0"
             id="path3925-5"
             inkscape:connector-curvature="0" />
        </g>
        <g
           id="g3025"
           transform="translate(0,-17.049134)">
          <path
             sodipodi:type="star"
             style="fill:none;stroke:#000000;stroke-width:4.57247353;stroke-linecap:round;stroke-linejoin:round;stroke-miterlimit:4;stroke-opacity:1;stroke-dasharray:none;stroke-dashoffset:0"
             id="path3962"
             sodipodi:sides="3"
             sodipodi:cx="80"
             sodipodi:cy="251.6479"
             sodipodi:r1="15.681785"
             sodipodi:r2="7.8408914"
             sodipodi:arg1="-0.52479577"
             sodipodi:arg2="0.52240178"
             inkscape:flatsided="false"
             inkscape:rounded="0"
             inkscape:randomized="0"
             d="m 93.571429,243.79076 -6.77633,11.76946 -6.776328,11.76946 -6.804484,-11.75321 -6.804487,-11.7532 13.580814,-0.0163 z"
             inkscape:transform-center-x="0.0093855149"
             inkscape:transform-center-y="3.9123152"
             transform="translate(21.172593,-38.497384)" />
          <path
             style="fill:none;stroke:#000000;stroke-width:4.57247305;stroke-linecap:round;stroke-linejoin:miter;stroke-miterlimit:4;stroke-opacity:1;stroke-dasharray:none"
             d="m 101.16321,189.70349 0,14.08381"
             id="path3863-82-4-5"
             inkscape:connector-curvature="0" />
        </g>
      </g>
    </g>
    <g
       ns0:preamble="/home/danielsank/lib/textext_preamble.tex"
       ns0:text="$L$"
       word-spacing="normal"
       letter-spacing="normal"
       font-size-adjust="none"
       font-stretch="normal"
       font-weight="normal"
       font-variant="normal"
       font-style="normal"
       stroke-miterlimit="10.433"
       xml:space="preserve"
       transform="matrix(1.7218688,0,0,-1.7218688,-255.32987,1621.8843)"
       id="content"
       style="font-style:normal;font-variant:normal;font-weight:normal;font-stretch:normal;letter-spacing:normal;word-spacing:normal;text-anchor:start;fill:none;stroke:#000000;stroke-linecap:butt;stroke-linejoin:miter;stroke-miterlimit:10.43299961;stroke-opacity:1;stroke-dasharray:none;stroke-dashoffset:0"><path
         id="path3028"
         d="m 227.15,663.24 0.01,0.04 0.01,0.03 0.01,0.03 0.01,0.03 0,0.03 0.01,0.02 0.01,0.03 0.01,0.02 0.02,0.02 0.01,0.02 0.01,0.02 0.02,0.02 0.02,0.02 0.02,0.01 0.02,0.02 0.02,0.01 0.03,0.02 0.03,0.01 0.03,0.01 0.04,0.01 0.02,0 0.01,0.01 0.03,0 0.02,0.01 0.02,0 0.02,0 0.03,0.01 0.02,0 0.03,0 0.02,0 0.03,0.01 0.03,0 0.03,0 0.03,0 0.03,0.01 0.04,0 0.03,0 0.04,0 0.03,0 0.04,0 0.04,0 0.04,0 0.04,0 0.05,0 c 0.3,0 0.38,0 0.38,0.19 0,0.12 -0.11,0.12 -0.16,0.12 -0.33,0 -1.15,-0.03 -1.48,-0.03 -0.29,0 -1.02,0.03 -1.32,0.03 -0.07,0 -0.19,0 -0.19,-0.2 0,-0.11 0.09,-0.11 0.28,-0.11 0.02,0 0.21,0 0.38,-0.02 0.18,-0.02 0.27,-0.03 0.27,-0.16 0,-0.04 -0.01,-0.07 -0.04,-0.19 l -1.34,-5.33 c -0.09,-0.39 -0.11,-0.47 -0.9,-0.47 -0.17,0 -0.27,0 -0.27,-0.2 0,-0.11 0.09,-0.11 0.27,-0.11 h 4.61 c 0.23,0 0.24,0 0.3,0.17 l 0.79,2.15 c 0.04,0.11 0.04,0.13 0.04,0.14 0,0.04 -0.03,0.11 -0.12,0.11 -0.09,0 -0.1,-0.05 -0.17,-0.21 -0.34,-0.92 -0.78,-2.05 -2.5,-2.05 h -0.93 c -0.14,0 -0.16,0 -0.22,0.01 -0.1,0.01 -0.13,0.02 -0.13,0.1 0,0.03 0,0.05 0.05,0.23 z"
         inkscape:connector-curvature="0"
         style="fill:#000000;stroke-width:0" /></g>    <g
       id="g3103"
       transform="matrix(1.7218688,0,0,-1.7218688,-194.8779,1621.8929)"
       xml:space="preserve"
       stroke-miterlimit="10.433"
       font-style="normal"
       font-variant="normal"
       font-weight="normal"
       font-stretch="normal"
       font-size-adjust="none"
       letter-spacing="normal"
       word-spacing="normal"
       ns0:text="$C$"
       ns0:preamble="/home/danielsank/lib/textext_preamble.tex"
       style="font-style:normal;font-variant:normal;font-weight:normal;font-stretch:normal;letter-spacing:normal;word-spacing:normal;text-anchor:start;fill:none;stroke:#000000;stroke-linecap:butt;stroke-linejoin:miter;stroke-miterlimit:10.43299961;stroke-opacity:1;stroke-dasharray:none;stroke-dashoffset:0"><path
         style="fill:#000000;stroke-width:0"
         inkscape:connector-curvature="0"
         d="m 230.99,664.14 0,0 0,0.01 0,0 0,0 0,0.01 0,0 0,0 0,0.01 0,0 0,0.01 -0.01,0 0,0 0,0.01 0,0 -0.01,0.01 0,0 0,0 0,0.01 -0.01,0 0,0 -0.01,0.01 0,0 -0.01,0 0,0.01 -0.01,0 0,0 0,0 -0.01,0 0,0 0,0 -0.01,0 0,0.01 0,0 -0.01,0 0,0 0,0 -0.01,0 0,0 -0.01,0 c -0.03,0 -0.04,-0.01 -0.14,-0.12 l -0.7,-0.77 c -0.09,0.14 -0.55,0.89 -1.65,0.89 -2.22,0 -4.46,-2.2 -4.46,-4.5 0,-1.64 1.17,-2.72 2.7,-2.72 0.86,0 1.62,0.39 2.14,0.85 0.93,0.81 1.1,1.72 1.1,1.75 0,0.1 -0.1,0.1 -0.12,0.1 -0.06,0 -0.11,-0.02 -0.13,-0.1 -0.09,-0.29 -0.32,-0.99 -1,-1.57 -0.69,-0.56 -1.32,-0.73 -1.83,-0.73 -0.9,0 -1.95,0.52 -1.95,2.07 0,0.57 0.2,2.18 1.2,3.34 0.61,0.7 1.54,1.2 2.43,1.2 1.01,0 1.6,-0.77 1.6,-1.92 0,-0.39 -0.03,-0.4 -0.03,-0.5 0,-0.1 0.11,-0.1 0.15,-0.1 0.13,0 0.13,0.02 0.18,0.2 z"
         id="path3105" /></g>    <path
       sodipodi:nodetypes="ccc"
       inkscape:connector-curvature="0"
       id="path3134"
       d="m 186.56066,487.07676 c -0.11852,-2.33866 1.89921,-15.71914 -2.20572,-21.06968 -3.09005,-3.80736 -12.29592,-3.21421 -12.29592,-3.21421"
       style="fill:none;stroke:#000000;stroke-width:1px;stroke-linecap:round;stroke-linejoin:miter;stroke-opacity:1;marker-end:url(#Arrow2Send)" />
    <g
       style="font-style:normal;font-variant:normal;font-weight:normal;font-stretch:normal;letter-spacing:normal;word-spacing:normal;text-anchor:start;fill:none;stroke:#000000;stroke-linecap:butt;stroke-linejoin:miter;stroke-miterlimit:10.43299961;stroke-opacity:1;stroke-dasharray:none;stroke-dashoffset:0"
       ns0:preamble="/home/danielsank/lib/textext_preamble.tex"
       ns0:text="$I = -\\dot{Q}$"
       word-spacing="normal"
       letter-spacing="normal"
       font-size-adjust="none"
       font-stretch="normal"
       font-weight="normal"
       font-variant="normal"
       font-style="normal"
       stroke-miterlimit="10.433"
       xml:space="preserve"
       transform="matrix(0.91507167,0,0,-0.91507167,-20.039676,1064.6842)"
       id="g4272"><path
         id="path4274"
         d="m 227.15,663.26 0.01,0.03 0.01,0.03 0.01,0.03 0.01,0.03 0,0.02 0.01,0.03 0.01,0.02 0.01,0.03 0.01,0.02 0.01,0.02 0.02,0.02 0.01,0.02 0.02,0.01 0.01,0.02 0.02,0.01 0.02,0.02 0.03,0.01 0.02,0.01 0.03,0.01 0.03,0.01 0.03,0.01 0.02,0 0.02,0.01 0.02,0 0.02,0 0.02,0.01 0.02,0 0.02,0 0.02,0.01 0.03,0 0.02,0 0.03,0 0.02,0 0.03,0.01 0.03,0 0.03,0 0.03,0 0.03,0 0.03,0 0.03,0 0.04,0 0.03,0 0.04,0 c 0.24,0 0.32,0 0.32,0.19 0,0.12 -0.11,0.12 -0.15,0.12 -0.29,0 -1.03,-0.03 -1.32,-0.03 -0.29,0 -1.02,0.03 -1.32,0.03 -0.07,0 -0.2,0 -0.2,-0.2 0,-0.11 0.09,-0.11 0.28,-0.11 0.42,0 0.69,0 0.69,-0.19 0,-0.05 0,-0.07 -0.02,-0.16 l -1.35,-5.35 c -0.09,-0.37 -0.11,-0.47 -0.9,-0.47 -0.23,0 -0.32,0 -0.32,-0.2 0,-0.11 0.12,-0.11 0.15,-0.11 0.29,0 1.01,0.04 1.3,0.04 0.3,0 1.04,-0.04 1.34,-0.04 0.08,0 0.2,0 0.2,0.19 0,0.12 -0.08,0.12 -0.3,0.12 -0.18,0 -0.23,0 -0.43,0.02 -0.21,0.02 -0.25,0.06 -0.25,0.17 0,0.08 0.02,0.16 0.04,0.23 z"
         inkscape:connector-curvature="0"
         style="fill:#000000;stroke-width:0" /><path
         id="path4276"
         d="m 238.2,660.48 0.02,0 0.03,0 0.03,0 0.02,0.01 0.01,0 0.02,0 0.01,0 0.01,0 0.02,0 0.01,0.01 0.02,0 0.01,0 0.01,0.01 0.01,0 0.01,0.01 0.02,0 0.01,0.01 0.01,0.01 0.01,0.01 0,0.01 0.01,0.01 0.01,0 0,0.01 0,0 0.01,0.01 0,0.01 0,0 0,0.01 0.01,0.01 0,0 0,0.01 0,0.01 0,0.01 0,0.01 0,0 0,0.01 0,0.01 c 0,0.2 -0.18,0.2 -0.32,0.2 h -5.96 c -0.14,0 -0.33,0 -0.33,-0.2 0,-0.2 0.19,-0.2 0.34,-0.2 z"
         inkscape:connector-curvature="0"
         style="fill:#000000;stroke-width:0" /><path
         id="path4278"
         d="m 238.21,658.56 0.01,0 0.01,0 0.03,0 0.03,0 0.01,0 0.02,0 0.01,0 0.01,0 0.02,0 0.01,0.01 0.01,0 0.02,0 0.01,0.01 0.01,0 0.01,0.01 0.02,0 0.01,0.01 0.01,0 0.01,0.01 0.01,0.01 0,0.01 0.01,0 0,0.01 0.01,0.01 0,0 0,0.01 0.01,0 0,0.01 0,0.01 0,0 0.01,0.01 0,0.01 0,0 0,0.01 0,0.01 0,0.01 0,0.01 0,0.01 0,0.01 c 0,0.19 -0.18,0.19 -0.33,0.19 h -5.94 c -0.15,0 -0.34,0 -0.34,-0.19 0,-0.2 0.19,-0.2 0.33,-0.2 z"
         inkscape:connector-curvature="0"
         style="fill:#000000;stroke-width:0" /><path
         id="path4280"
         d="m 248.43,659.52 0.04,0 0.03,0 0.03,0 0.01,0 0.02,0 0.01,0 0.02,0.01 0.01,0 0.02,0 0.01,0 0.02,0.01 0.01,0 0.01,0 0.01,0.01 0.02,0.01 0.01,0 0.01,0.01 0.01,0.01 0.01,0 0,0.01 0.01,0.01 0,0.01 0.01,0 0,0.01 0,0.01 0.01,0 0,0.01 0,0.01 0,0 0.01,0.01 0,0.01 0,0.01 0,0 0,0.01 0,0.01 0,0.01 0,0.01 c 0,0.2 -0.18,0.2 -0.35,0.2 h -5.38 c -0.17,0 -0.35,0 -0.35,-0.2 0,-0.2 0.18,-0.2 0.35,-0.2 z"
         inkscape:connector-curvature="0"
         style="fill:#000000;stroke-width:0" /><path
         id="path4282"
         d="m 254.92,665.87 0,0.03 0,0.02 -0.01,0.03 0,0.02 -0.01,0.03 0,0.02 -0.01,0.02 -0.01,0.03 -0.01,0.02 -0.01,0.02 -0.01,0.03 -0.02,0.02 -0.01,0.02 -0.02,0.02 -0.01,0.02 -0.02,0.02 -0.02,0.02 -0.02,0.01 -0.02,0.02 -0.02,0.01 -0.02,0.02 -0.02,0.01 -0.03,0.01 -0.02,0.02 -0.02,0.01 -0.03,0 -0.02,0.01 -0.03,0.01 -0.03,0 -0.02,0.01 -0.03,0 -0.03,0 c -0.34,0 -0.53,-0.28 -0.53,-0.53 0,-0.27 0.23,-0.52 0.52,-0.52 0.34,0 0.54,0.27 0.54,0.52 z"
         inkscape:connector-curvature="0"
         style="fill:#000000;stroke-width:0" /><path
         id="path4284"
         d="m 253.98,657.29 0.15,0.06 0.14,0.07 0.14,0.07 0.14,0.08 0.14,0.08 0.14,0.09 0.14,0.1 0.13,0.1 0.13,0.11 0.13,0.11 0.13,0.12 0.12,0.12 0.12,0.13 0.12,0.13 0.11,0.13 0.1,0.14 0.11,0.14 0.09,0.15 0.1,0.15 0.08,0.16 0.08,0.15 0.08,0.16 0.07,0.17 0.06,0.16 0.06,0.17 0.05,0.17 0.05,0.17 0.03,0.18 0.03,0.17 0.02,0.18 0.01,0.18 0.01,0.18 c 0,1.59 -1.06,2.67 -2.54,2.67 l -0.06,-0.25 c 1,0 1.72,-0.77 1.72,-2.11 0,-0.99 -0.51,-3.31 -2.18,-4.25 -0.05,0.35 -0.15,1.08 -0.87,1.08 v -0.22 c 0.42,0 0.6,-0.24 0.6,-0.85 0,-0.15 -0.01,-0.16 -0.11,-0.2 -0.25,-0.11 -0.55,-0.17 -0.83,-0.17 h 0 c -0.14,0 -0.46,0 -0.46,0.42 0,0.4 0.38,0.8 0.8,0.8 v 0.22 c -0.53,0 -1.02,-0.5 -1.02,-1.02 0,-0.2 0.06,-0.31 0.06,-0.32 h 0 c -0.77,0.31 -1.11,1.09 -1.11,1.98 0,0.69 0.26,2.1 1.01,3.17 0.73,1.01 1.66,1.47 2.39,1.47 l 0.06,0.25 c -2.15,0 -4.34,-2.26 -4.34,-4.57 0,-1.65 1.12,-2.65 2.55,-2.65 0.25,0 0.59,0.04 0.97,0.14 -0.03,-0.61 -0.03,-0.63 -0.03,-0.76 0,-0.32 0,-1.09 0.82,-1.09 1.18,0 1.66,1.82 1.66,1.92 0,0.07 -0.07,0.1 -0.11,0.1 -0.08,0 -0.1,-0.05 -0.12,-0.11 -0.24,-0.7 -0.81,-0.95 -1.16,-0.95 -0.46,0 -0.61,0.27 -0.71,1.02 z"
         inkscape:connector-curvature="0"
         style="fill:#000000;stroke-width:0" /></g>  </g>
</svg>
