<?xml version="1.0" standalone="no"?>
<!DOCTYPE svg PUBLIC "-//W3C//DTD SVG 1.1//EN"
  "http://www.w3.org/Graphics/SVG/1.1/DTD/svg11.dtd">
<!-- Created with matplotlib (http://matplotlib.sourceforge.net/) -->
<svg width="1152pt" height="867pt" viewBox="0 0 1152 867"
   xmlns="http://www.w3.org/2000/svg"
   xmlns:xlink="http://www.w3.org/1999/xlink"
   version="1.1"
   id="svg1">
<g id="figure1">
<g id="patch1">
<path style="fill: #ffffff; stroke: #ffffff; stroke-width: 1.000000; stroke-linejoin: round; stroke-linecap: square;  opacity: 1.000000"  d="M0.000000 867.600000L1152.000000 867.600000L1152.000000 0.000000
L0.000000 0.000000L0.000000 867.600000"/>
</g>
<g id="axes1">
<g id="patch2">
<path style="fill: #ffffff; opacity: 1.000000"  d="M144.000000 780.840000L1036.800000 780.840000L1036.800000 86.760000
L144.000000 86.760000L144.000000 780.840000"/>
</g>
<g id="line2d1">
<defs>
  <clipPath id="p796b25e0651809e735f26453ac9c5861">
<rect x="144.000000" y="86.760000" width="892.800000" height="694.080000"/>
  </clipPath>
</defs><path style="fill: none; stroke: #0000ff; stroke-width: 5.000000; stroke-linejoin: round; stroke-linecap: square;  opacity: 1.000000" clip-path="url(#p796b25e0651809e735f26453ac9c5861)" d="M1031.544159 740.967697L1022.849121 690.874862L1014.154084 670.063775
L1005.459046 654.051621L996.764008 640.515762L988.068971 628.557220
L979.373933 617.715238L970.678895 607.716259L961.983858 598.382125
L953.288820 589.589134L944.593782 581.247244L935.898744 573.288490
L927.203707 565.660076L918.508669 558.320013L909.813631 551.234250
L901.118594 544.374716L892.423556 537.717943L883.728518 531.244065
L875.033481 524.936090L866.338443 518.779345L857.643405 512.761049
L848.948367 506.869989L840.253330 501.096257L831.558292 495.431047
L822.863254 489.866486L814.168217 484.395498L805.473179 479.011697
L796.778141 473.709288L788.083104 468.482995L779.388066 463.327995
L770.693028 458.239865L761.997990 453.214532L753.302953 448.248234
L744.607915 443.337488L735.912877 438.479060L727.217840 433.669936
L718.522802 428.907304L709.827764 424.188529L701.132727 419.511143
L692.437689 414.872822L683.742651 410.271379L675.047613 405.704746
L666.352576 401.170968L657.657538 396.668192L648.962500 392.194659
L640.267463 387.748693L631.572425 383.328698L622.877387 378.933151
L614.182350 374.560594L605.487312 370.209631L596.792274 365.878924
L588.097236 361.567185L579.402199 357.273176L570.707161 352.995704
L562.012123 348.733617L553.317086 344.485802L544.622048 340.251182
L535.927010 336.028712L527.231973 331.817379L518.536935 327.616200
L509.841897 323.424215L501.146859 319.240491L492.451822 315.064118
L483.756784 310.894207L475.061746 306.729888L466.366709 302.570311
L457.671671 298.414640L448.976633 294.262058L440.281596 290.111760
L431.586558 285.962956L422.891520 281.814867L414.196482 277.666725
L405.501445 273.517774L396.806407 269.367266L388.111369 265.214462
L379.416332 261.058630L370.721294 256.899046L362.026256 252.734991
L353.331219 248.565753L344.636181 244.390623L335.941143 240.208897
L327.246105 236.019875L318.551068 231.822858L309.856030 227.617150
L301.160992 223.402059L292.465955 219.176889L283.770917 214.940950
L275.075879 210.693549L266.380842 206.433992L257.685804 202.161585
L248.990766 197.875633L240.295728 193.575438L231.600691 189.260299
L222.905653 184.929514L214.210615 180.582376L205.515578 176.218173
L196.820540 171.836191L188.125502 167.435709L179.430465 163.016002
L170.735427 158.576338"/>
</g>
<g id="matplotlib.axis1">
<g id="xtick1">
<g id="line2d2">
<path style="fill: none; stroke: #000000; stroke-width: 0.500000; stroke-linejoin: round; stroke-linecap: butt; stroke-dasharray: 1.000000,3.000000; stroke-dashoffset: 0.000000; opacity: 1.000000" clip-path="url(#p796b25e0651809e735f26453ac9c5861)" d="M145.417523 780.840000L145.417523 86.760000"/>
</g>
<g id="line2d3">
<defs><path id="m30e32995789d870ad79a2e54c91cf9c6" d="M0.000000 0.000000L0.000000 -4.000000"/></defs>
<g ><use style="fill: none; stroke: #000000; stroke-width: 0.500000; stroke-linejoin: round; stroke-linecap: butt;  opacity: 1.000000" xlink:href="#m30e32995789d870ad79a2e54c91cf9c6" x="145.417523" y="780.840000"/>
</g></g>
<g id="line2d4">
<defs><path id="m9281cae24120827b11d5ea8a7ad3e96b" d="M0.000000 0.000000L0.000000 4.000000"/></defs>
<g ><use style="fill: none; stroke: #000000; stroke-width: 0.500000; stroke-linejoin: round; stroke-linecap: butt;  opacity: 1.000000" xlink:href="#m9281cae24120827b11d5ea8a7ad3e96b" x="145.417523" y="86.760000"/>
</g></g>
<g id="text1">
<defs>
<path id="c_7a2040fe3b94fcd41d0a72c84e93b115" d="M31.781250 -66.406250q-7.609375 0.000000 -11.453125 7.500000q-3.828125 7.484375 -3.828125 22.531250q0.000000 14.984375 3.828125 22.484375q3.843750 7.500000 11.453125 7.500000q7.671875 0.000000 11.500000 -7.500000q3.843750 -7.500000 3.843750 -22.484375q0.000000 -15.046875 -3.843750 -22.531250q-3.828125 -7.500000 -11.500000 -7.500000M31.781250 -74.218750q12.265625 0.000000 18.734375 9.703125q6.468750 9.687500 6.468750 28.140625q0.000000 18.406250 -6.468750 28.109375q-6.468750 9.687500 -18.734375 9.687500q-12.250000 0.000000 -18.718750 -9.687500q-6.468750 -9.703125 -6.468750 -28.109375q0.000000 -18.453125 6.468750 -28.140625q6.468750 -9.703125 18.718750 -9.703125"/>
<path id="c_ed3e21196fb739f392806f09ca0594ef" d="M10.687500 -12.406250l10.312500 0.000000l0.000000 12.406250l-10.312500 0.000000z"/>
<path id="c_cc8d6d580d1b10c8632f7a42cd53db8a" d="M33.015625 -40.375000q-6.640625 0.000000 -10.531250 4.546875q-3.875000 4.531250 -3.875000 12.437500q0.000000 7.859375 3.875000 12.437500q3.890625 4.562500 10.531250 4.562500q6.640625 0.000000 10.515625 -4.562500q3.875000 -4.578125 3.875000 -12.437500q0.000000 -7.906250 -3.875000 -12.437500q-3.875000 -4.546875 -10.515625 -4.546875M52.593750 -71.296875l0.000000 8.984375q-3.718750 -1.750000 -7.500000 -2.671875q-3.781250 -0.937500 -7.500000 -0.937500q-9.765625 0.000000 -14.921875 6.593750q-5.140625 6.593750 -5.875000 19.921875q2.875000 -4.250000 7.218750 -6.515625q4.359375 -2.265625 9.578125 -2.265625q10.984375 0.000000 17.359375 6.671875q6.375000 6.656250 6.375000 18.125000q0.000000 11.234375 -6.640625 18.031250q-6.640625 6.781250 -17.671875 6.781250q-12.656250 0.000000 -19.343750 -9.687500q-6.687500 -9.703125 -6.687500 -28.109375q0.000000 -17.281250 8.203125 -27.562500q8.203125 -10.281250 22.015625 -10.281250q3.718750 0.000000 7.500000 0.734375q3.781250 0.734375 7.890625 2.187500"/>
<path id="c_1260a2df50f305f3db244e29828f968e" d="M10.796875 -72.906250l38.718750 0.000000l0.000000 8.312500l-29.687500 0.000000l0.000000 17.859375q2.140625 -0.734375 4.281250 -1.093750q2.156250 -0.359375 4.312500 -0.359375q12.203125 0.000000 19.328125 6.687500q7.140625 6.687500 7.140625 18.109375q0.000000 11.765625 -7.328125 18.296875q-7.328125 6.515625 -20.656250 6.515625q-4.593750 0.000000 -9.359375 -0.781250q-4.750000 -0.781250 -9.828125 -2.343750l0.000000 -9.921875q4.390625 2.390625 9.078125 3.562500q4.687500 1.171875 9.906250 1.171875q8.453125 0.000000 13.375000 -4.437500q4.937500 -4.437500 4.937500 -12.062500q0.000000 -7.609375 -4.937500 -12.046875q-4.921875 -4.453125 -13.375000 -4.453125q-3.953125 0.000000 -7.890625 0.875000q-3.921875 0.875000 -8.015625 2.734375z"/>
</defs>
<g style="fill: #000000; opacity: 1.000000" transform="translate(114.315960,807.105625)scale(0.300000)">
<use xlink:href="#c_7a2040fe3b94fcd41d0a72c84e93b115"/>
<use xlink:href="#c_ed3e21196fb739f392806f09ca0594ef" x="63.623047"/>
<use xlink:href="#c_cc8d6d580d1b10c8632f7a42cd53db8a" x="95.410156"/>
<use xlink:href="#c_1260a2df50f305f3db244e29828f968e" x="159.033203"/>
</g>
</g>
</g>
<g id="xtick2">
<g id="line2d5">
<path style="fill: none; stroke: #000000; stroke-width: 0.500000; stroke-linejoin: round; stroke-linecap: butt; stroke-dasharray: 1.000000,3.000000; stroke-dashoffset: 0.000000; opacity: 1.000000" clip-path="url(#p796b25e0651809e735f26453ac9c5861)" d="M272.007042 780.840000L272.007042 86.760000"/>
</g>
<g id="line2d6">
<g ><use style="fill: none; stroke: #000000; stroke-width: 0.500000; stroke-linejoin: round; stroke-linecap: butt;  opacity: 1.000000" xlink:href="#m30e32995789d870ad79a2e54c91cf9c6" x="272.007042" y="780.840000"/>
</g></g>
<g id="line2d7">
<g ><use style="fill: none; stroke: #000000; stroke-width: 0.500000; stroke-linejoin: round; stroke-linecap: butt;  opacity: 1.000000" xlink:href="#m9281cae24120827b11d5ea8a7ad3e96b" x="272.007042" y="86.760000"/>
</g></g>
<g id="text2">
<defs>
<path id="c_956f18cfdaf972f35a6c2b4aaac2532b" d="M8.203125 -72.906250l46.875000 0.000000l0.000000 4.203125l-26.468750 68.703125l-10.296875 0.000000l24.906250 -64.593750l-35.015625 0.000000z"/>
</defs>
<g style="fill: #000000; opacity: 1.000000" transform="translate(240.592980,807.105625)scale(0.300000)">
<use xlink:href="#c_7a2040fe3b94fcd41d0a72c84e93b115"/>
<use xlink:href="#c_ed3e21196fb739f392806f09ca0594ef" x="63.623047"/>
<use xlink:href="#c_956f18cfdaf972f35a6c2b4aaac2532b" x="95.410156"/>
<use xlink:href="#c_7a2040fe3b94fcd41d0a72c84e93b115" x="159.033203"/>
</g>
</g>
</g>
<g id="xtick3">
<g id="line2d8">
<path style="fill: none; stroke: #000000; stroke-width: 0.500000; stroke-linejoin: round; stroke-linecap: butt; stroke-dasharray: 1.000000,3.000000; stroke-dashoffset: 0.000000; opacity: 1.000000" clip-path="url(#p796b25e0651809e735f26453ac9c5861)" d="M398.596562 780.840000L398.596562 86.760000"/>
</g>
<g id="line2d9">
<g ><use style="fill: none; stroke: #000000; stroke-width: 0.500000; stroke-linejoin: round; stroke-linecap: butt;  opacity: 1.000000" xlink:href="#m30e32995789d870ad79a2e54c91cf9c6" x="398.596562" y="780.840000"/>
</g></g>
<g id="line2d10">
<g ><use style="fill: none; stroke: #000000; stroke-width: 0.500000; stroke-linejoin: round; stroke-linecap: butt;  opacity: 1.000000" xlink:href="#m9281cae24120827b11d5ea8a7ad3e96b" x="398.596562" y="86.760000"/>
</g></g>
<g id="text3">
<g style="fill: #000000; opacity: 1.000000" transform="translate(367.494999,807.105625)scale(0.300000)">
<use xlink:href="#c_7a2040fe3b94fcd41d0a72c84e93b115"/>
<use xlink:href="#c_ed3e21196fb739f392806f09ca0594ef" x="63.623047"/>
<use xlink:href="#c_956f18cfdaf972f35a6c2b4aaac2532b" x="95.410156"/>
<use xlink:href="#c_1260a2df50f305f3db244e29828f968e" x="159.033203"/>
</g>
</g>
</g>
<g id="xtick4">
<g id="line2d11">
<path style="fill: none; stroke: #000000; stroke-width: 0.500000; stroke-linejoin: round; stroke-linecap: butt; stroke-dasharray: 1.000000,3.000000; stroke-dashoffset: 0.000000; opacity: 1.000000" clip-path="url(#p796b25e0651809e735f26453ac9c5861)" d="M525.186081 780.840000L525.186081 86.760000"/>
</g>
<g id="line2d12">
<g ><use style="fill: none; stroke: #000000; stroke-width: 0.500000; stroke-linejoin: round; stroke-linecap: butt;  opacity: 1.000000" xlink:href="#m30e32995789d870ad79a2e54c91cf9c6" x="525.186081" y="780.840000"/>
</g></g>
<g id="line2d13">
<g ><use style="fill: none; stroke: #000000; stroke-width: 0.500000; stroke-linejoin: round; stroke-linecap: butt;  opacity: 1.000000" xlink:href="#m9281cae24120827b11d5ea8a7ad3e96b" x="525.186081" y="86.760000"/>
</g></g>
<g id="text4">
<defs>
<path id="c_bef35738d52871942e50b9de9b122bab" d="M31.781250 -34.625000q-7.031250 0.000000 -11.062500 3.765625q-4.015625 3.765625 -4.015625 10.343750q0.000000 6.593750 4.015625 10.359375q4.031250 3.765625 11.062500 3.765625q7.031250 0.000000 11.078125 -3.781250q4.062500 -3.796875 4.062500 -10.343750q0.000000 -6.578125 -4.031250 -10.343750q-4.015625 -3.765625 -11.109375 -3.765625M21.921875 -38.812500q-6.343750 -1.562500 -9.890625 -5.906250q-3.531250 -4.359375 -3.531250 -10.609375q0.000000 -8.734375 6.218750 -13.812500q6.234375 -5.078125 17.062500 -5.078125q10.890625 0.000000 17.093750 5.078125q6.203125 5.078125 6.203125 13.812500q0.000000 6.250000 -3.546875 10.609375q-3.531250 4.343750 -9.828125 5.906250q7.125000 1.656250 11.093750 6.500000q3.984375 4.828125 3.984375 11.796875q0.000000 10.609375 -6.468750 16.281250q-6.468750 5.656250 -18.531250 5.656250q-12.046875 0.000000 -18.531250 -5.656250q-6.468750 -5.671875 -6.468750 -16.281250q0.000000 -6.968750 4.000000 -11.796875q4.015625 -4.843750 11.140625 -6.500000M18.312500 -54.390625q0.000000 5.656250 3.531250 8.828125q3.546875 3.171875 9.937500 3.171875q6.359375 0.000000 9.937500 -3.171875q3.593750 -3.171875 3.593750 -8.828125q0.000000 -5.671875 -3.593750 -8.843750q-3.578125 -3.171875 -9.937500 -3.171875q-6.390625 0.000000 -9.937500 3.171875q-3.531250 3.171875 -3.531250 8.843750"/>
</defs>
<g style="fill: #000000; opacity: 1.000000" transform="translate(493.772019,807.105625)scale(0.300000)">
<use xlink:href="#c_7a2040fe3b94fcd41d0a72c84e93b115"/>
<use xlink:href="#c_ed3e21196fb739f392806f09ca0594ef" x="63.623047"/>
<use xlink:href="#c_bef35738d52871942e50b9de9b122bab" x="95.410156"/>
<use xlink:href="#c_7a2040fe3b94fcd41d0a72c84e93b115" x="159.033203"/>
</g>
</g>
</g>
<g id="xtick5">
<g id="line2d14">
<path style="fill: none; stroke: #000000; stroke-width: 0.500000; stroke-linejoin: round; stroke-linecap: butt; stroke-dasharray: 1.000000,3.000000; stroke-dashoffset: 0.000000; opacity: 1.000000" clip-path="url(#p796b25e0651809e735f26453ac9c5861)" d="M651.775601 780.840000L651.775601 86.760000"/>
</g>
<g id="line2d15">
<g ><use style="fill: none; stroke: #000000; stroke-width: 0.500000; stroke-linejoin: round; stroke-linecap: butt;  opacity: 1.000000" xlink:href="#m30e32995789d870ad79a2e54c91cf9c6" x="651.775601" y="780.840000"/>
</g></g>
<g id="line2d16">
<g ><use style="fill: none; stroke: #000000; stroke-width: 0.500000; stroke-linejoin: round; stroke-linecap: butt;  opacity: 1.000000" xlink:href="#m9281cae24120827b11d5ea8a7ad3e96b" x="651.775601" y="86.760000"/>
</g></g>
<g id="text5">
<g style="fill: #000000; opacity: 1.000000" transform="translate(620.674038,807.105625)scale(0.300000)">
<use xlink:href="#c_7a2040fe3b94fcd41d0a72c84e93b115"/>
<use xlink:href="#c_ed3e21196fb739f392806f09ca0594ef" x="63.623047"/>
<use xlink:href="#c_bef35738d52871942e50b9de9b122bab" x="95.410156"/>
<use xlink:href="#c_1260a2df50f305f3db244e29828f968e" x="159.033203"/>
</g>
</g>
</g>
<g id="xtick6">
<g id="line2d17">
<path style="fill: none; stroke: #000000; stroke-width: 0.500000; stroke-linejoin: round; stroke-linecap: butt; stroke-dasharray: 1.000000,3.000000; stroke-dashoffset: 0.000000; opacity: 1.000000" clip-path="url(#p796b25e0651809e735f26453ac9c5861)" d="M778.365120 780.840000L778.365120 86.760000"/>
</g>
<g id="line2d18">
<g ><use style="fill: none; stroke: #000000; stroke-width: 0.500000; stroke-linejoin: round; stroke-linecap: butt;  opacity: 1.000000" xlink:href="#m30e32995789d870ad79a2e54c91cf9c6" x="778.365120" y="780.840000"/>
</g></g>
<g id="line2d19">
<g ><use style="fill: none; stroke: #000000; stroke-width: 0.500000; stroke-linejoin: round; stroke-linecap: butt;  opacity: 1.000000" xlink:href="#m9281cae24120827b11d5ea8a7ad3e96b" x="778.365120" y="86.760000"/>
</g></g>
<g id="text6">
<defs>
<path id="c_cd96f817f3cab988d24a2b49a5577fe6" d="M10.984375 -1.515625l0.000000 -8.984375q3.718750 1.765625 7.515625 2.687500q3.812500 0.921875 7.484375 0.921875q9.765625 0.000000 14.906250 -6.562500q5.156250 -6.562500 5.890625 -19.953125q-2.828125 4.203125 -7.187500 6.453125q-4.343750 2.250000 -9.609375 2.250000q-10.937500 0.000000 -17.312500 -6.609375q-6.375000 -6.625000 -6.375000 -18.109375q0.000000 -11.218750 6.640625 -18.000000q6.640625 -6.796875 17.671875 -6.796875q12.656250 0.000000 19.312500 9.703125q6.671875 9.687500 6.671875 28.140625q0.000000 17.234375 -8.187500 27.515625q-8.171875 10.281250 -21.984375 10.281250q-3.718750 0.000000 -7.531250 -0.734375q-3.796875 -0.734375 -7.906250 -2.203125M30.609375 -32.421875q6.640625 0.000000 10.515625 -4.531250q3.890625 -4.546875 3.890625 -12.468750q0.000000 -7.859375 -3.890625 -12.421875q-3.875000 -4.562500 -10.515625 -4.562500q-6.640625 0.000000 -10.515625 4.562500q-3.875000 4.562500 -3.875000 12.421875q0.000000 7.921875 3.875000 12.468750q3.875000 4.531250 10.515625 4.531250"/>
</defs>
<g style="fill: #000000; opacity: 1.000000" transform="translate(746.951058,807.105625)scale(0.300000)">
<use xlink:href="#c_7a2040fe3b94fcd41d0a72c84e93b115"/>
<use xlink:href="#c_ed3e21196fb739f392806f09ca0594ef" x="63.623047"/>
<use xlink:href="#c_cd96f817f3cab988d24a2b49a5577fe6" x="95.410156"/>
<use xlink:href="#c_7a2040fe3b94fcd41d0a72c84e93b115" x="159.033203"/>
</g>
</g>
</g>
<g id="xtick7">
<g id="line2d20">
<path style="fill: none; stroke: #000000; stroke-width: 0.500000; stroke-linejoin: round; stroke-linecap: butt; stroke-dasharray: 1.000000,3.000000; stroke-dashoffset: 0.000000; opacity: 1.000000" clip-path="url(#p796b25e0651809e735f26453ac9c5861)" d="M904.954640 780.840000L904.954640 86.760000"/>
</g>
<g id="line2d21">
<g ><use style="fill: none; stroke: #000000; stroke-width: 0.500000; stroke-linejoin: round; stroke-linecap: butt;  opacity: 1.000000" xlink:href="#m30e32995789d870ad79a2e54c91cf9c6" x="904.954640" y="780.840000"/>
</g></g>
<g id="line2d22">
<g ><use style="fill: none; stroke: #000000; stroke-width: 0.500000; stroke-linejoin: round; stroke-linecap: butt;  opacity: 1.000000" xlink:href="#m9281cae24120827b11d5ea8a7ad3e96b" x="904.954640" y="86.760000"/>
</g></g>
<g id="text7">
<g style="fill: #000000; opacity: 1.000000" transform="translate(873.853077,807.105625)scale(0.300000)">
<use xlink:href="#c_7a2040fe3b94fcd41d0a72c84e93b115"/>
<use xlink:href="#c_ed3e21196fb739f392806f09ca0594ef" x="63.623047"/>
<use xlink:href="#c_cd96f817f3cab988d24a2b49a5577fe6" x="95.410156"/>
<use xlink:href="#c_1260a2df50f305f3db244e29828f968e" x="159.033203"/>
</g>
</g>
</g>
<g id="xtick8">
<g id="line2d23">
<path style="fill: none; stroke: #000000; stroke-width: 0.500000; stroke-linejoin: round; stroke-linecap: butt; stroke-dasharray: 1.000000,3.000000; stroke-dashoffset: 0.000000; opacity: 1.000000" clip-path="url(#p796b25e0651809e735f26453ac9c5861)" d="M1031.544159 780.840000L1031.544159 86.760000"/>
</g>
<g id="line2d24">
<g ><use style="fill: none; stroke: #000000; stroke-width: 0.500000; stroke-linejoin: round; stroke-linecap: butt;  opacity: 1.000000" xlink:href="#m30e32995789d870ad79a2e54c91cf9c6" x="1031.544159" y="780.840000"/>
</g></g>
<g id="line2d25">
<g ><use style="fill: none; stroke: #000000; stroke-width: 0.500000; stroke-linejoin: round; stroke-linecap: butt;  opacity: 1.000000" xlink:href="#m9281cae24120827b11d5ea8a7ad3e96b" x="1031.544159" y="86.760000"/>
</g></g>
<g id="text8">
<defs>
<path id="c_42baa63129a918535c52adb20d687ea7" d="M12.406250 -8.296875l16.109375 0.000000l0.000000 -55.625000l-17.531250 3.515625l0.000000 -8.984375l17.437500 -3.515625l9.859375 0.000000l0.000000 64.609375l16.109375 0.000000l0.000000 8.296875l-41.984375 0.000000z"/>
</defs>
<g style="fill: #000000; opacity: 1.000000" transform="translate(1000.786347,807.105625)scale(0.300000)">
<use xlink:href="#c_42baa63129a918535c52adb20d687ea7"/>
<use xlink:href="#c_ed3e21196fb739f392806f09ca0594ef" x="63.623047"/>
<use xlink:href="#c_7a2040fe3b94fcd41d0a72c84e93b115" x="95.410156"/>
<use xlink:href="#c_7a2040fe3b94fcd41d0a72c84e93b115" x="159.033203"/>
</g>
</g>
</g>
<g id="text9">
<defs>
<path id="c_322d44ed1377de836f22e8890a965a87" d="M9.718750 16.500000q1.859375 1.421875 4.484375 1.421875q3.578125 0.000000 5.812500 -7.906250q0.937500 -3.812500 5.078125 -25.109375l4.593750 -24.500000l-8.593750 0.000000q-0.968750 0.000000 -0.968750 -1.328125q0.390625 -2.187500 1.265625 -2.187500l8.937500 0.000000l1.171875 -6.500000q0.578125 -3.031250 1.062500 -5.203125q0.500000 -2.171875 1.062500 -4.015625q0.562500 -1.859375 1.671875 -4.156250q1.718750 -3.281250 4.625000 -5.406250q2.906250 -2.125000 6.265625 -2.125000q2.203125 0.000000 4.281250 0.812500q2.078125 0.812500 3.390625 2.421875q1.312500 1.609375 1.312500 3.796875q0.000000 2.546875 -1.687500 4.437500q-1.671875 1.875000 -4.062500 1.875000q-1.625000 0.000000 -2.765625 -1.000000q-1.140625 -1.015625 -1.140625 -2.625000q0.000000 -2.187500 1.484375 -3.828125q1.484375 -1.640625 3.687500 -1.875000q-1.859375 -1.421875 -4.593750 -1.421875q-1.515625 0.000000 -2.859375 1.421875q-1.343750 1.406250 -1.734375 3.015625q-0.625000 2.546875 -2.781250 13.781250l-1.218750 6.593750l10.296875 0.000000q0.984375 0.000000 0.984375 1.312500q-0.046875 0.250000 -0.203125 0.859375q-0.140625 0.609375 -0.406250 0.984375q-0.265625 0.359375 -0.656250 0.359375l-10.703125 0.000000l-4.640625 24.406250q-0.875000 5.328125 -2.031250 10.828125q-1.140625 5.484375 -3.218750 11.265625q-2.062500 5.796875 -5.296875 9.703125q-3.218750 3.906250 -7.609375 3.906250q-3.375000 0.000000 -6.031250 -1.937500q-2.656250 -1.921875 -2.656250 -5.093750q0.000000 -2.546875 1.625000 -4.437500q1.640625 -1.875000 4.125000 -1.875000q1.671875 0.000000 2.781250 1.000000q1.125000 1.015625 1.125000 2.625000q0.000000 2.140625 -1.593750 3.921875q-1.578125 1.781250 -3.671875 1.781250"/>
<path id="c_1a459ac34855d27ec37ccb0e66298d36" d="M9.281250 -0.000000l0.000000 -3.515625q12.500000 0.000000 12.500000 -3.171875l0.000000 -52.500000q-5.171875 2.500000 -13.093750 2.500000l0.000000 -3.515625q12.265625 0.000000 18.515625 -6.406250l1.406250 0.000000q0.343750 0.000000 0.656250 0.281250q0.328125 0.265625 0.328125 0.609375l0.000000 59.031250q0.000000 3.171875 12.500000 3.171875l0.000000 3.515625z"/>
<path id="c_f47f2818876b2f1a61c47f270461e46e" d="M25.000000 2.203125q-12.250000 0.000000 -16.671875 -10.078125q-4.421875 -10.093750 -4.421875 -24.015625q0.000000 -8.687500 1.578125 -16.343750q1.593750 -7.671875 6.296875 -13.015625q4.718750 -5.359375 13.218750 -5.359375q6.593750 0.000000 10.781250 3.234375q4.203125 3.218750 6.406250 8.328125q2.203125 5.093750 3.000000 10.937500q0.812500 5.828125 0.812500 12.218750q0.000000 8.593750 -1.593750 16.093750q-1.578125 7.500000 -6.218750 12.750000q-4.640625 5.250000 -13.187500 5.250000M25.000000 -0.390625q5.562500 0.000000 8.296875 -5.703125q2.734375 -5.718750 3.375000 -12.656250q0.640625 -6.937500 0.640625 -14.750000q0.000000 -7.515625 -0.640625 -13.859375q-0.640625 -6.359375 -3.359375 -11.500000q-2.703125 -5.156250 -8.312500 -5.156250q-5.656250 0.000000 -8.390625 5.187500q-2.734375 5.171875 -3.375000 11.500000q-0.640625 6.312500 -0.640625 13.828125q0.000000 5.562500 0.265625 10.500000q0.281250 4.937500 1.453125 10.187500q1.171875 5.250000 3.781250 8.843750q2.609375 3.578125 6.906250 3.578125"/>
<path id="c_62db141412f5d9d8ddcda81385ac812d" d="M5.609375 23.000000q0.000000 -0.296875 0.109375 -0.390625l34.765625 -96.390625q0.187500 -0.578125 0.671875 -0.890625q0.500000 -0.328125 1.125000 -0.328125q0.890625 0.000000 1.437500 0.546875q0.562500 0.531250 0.562500 1.453125l0.000000 0.390625l-34.765625 96.390625q-0.578125 1.218750 -1.890625 1.218750q-0.843750 0.000000 -1.437500 -0.593750q-0.578125 -0.578125 -0.578125 -1.406250"/>
<path id="c_01bd98e0cf1b355b13e73042b8c9bdee" d="M9.906250 18.015625q0.000000 -0.437500 0.390625 -0.828125q3.625000 -3.468750 5.625000 -8.015625q2.000000 -4.531250 2.000000 -9.562500l0.000000 -1.218750q-1.609375 1.609375 -4.000000 1.609375q-2.296875 0.000000 -3.906250 -1.609375q-1.609375 -1.609375 -1.609375 -3.906250q0.000000 -2.343750 1.609375 -3.906250q1.609375 -1.562500 3.906250 -1.562500q3.562500 0.000000 5.078125 3.296875q1.515625 3.296875 1.515625 7.296875q0.000000 5.562500 -2.234375 10.562500q-2.218750 5.015625 -6.265625 9.015625q-0.390625 0.203125 -0.640625 0.203125q-0.484375 0.000000 -0.984375 -0.453125q-0.484375 -0.437500 -0.484375 -0.921875"/>
<path id="c_560614b1ec0287947e12f151dc8b925e" d="M7.718750 -1.703125q0.000000 -0.593750 0.093750 -0.890625l7.468750 -29.828125q0.734375 -2.781250 0.734375 -4.890625q0.000000 -4.296875 -2.921875 -4.296875q-3.125000 0.000000 -4.640625 3.750000q-1.515625 3.734375 -2.937500 9.437500q0.000000 0.296875 -0.296875 0.468750q-0.281250 0.171875 -0.531250 0.171875l-1.171875 0.000000q-0.343750 0.000000 -0.593750 -0.359375q-0.234375 -0.375000 -0.234375 -0.671875q1.078125 -4.343750 2.078125 -7.359375q1.000000 -3.031250 3.125000 -5.515625q2.125000 -2.500000 5.296875 -2.500000q3.750000 0.000000 6.625000 2.375000q2.890625 2.359375 2.890625 6.015625q2.984375 -3.906250 6.984375 -6.140625q4.000000 -2.250000 8.500000 -2.250000q4.734375 0.000000 8.171875 2.421875q3.453125 2.406250 3.453125 6.859375q3.062500 -4.359375 7.187500 -6.812500q4.140625 -2.468750 9.015625 -2.468750q5.171875 0.000000 8.312500 2.812500q3.156250 2.796875 3.156250 7.968750q0.000000 4.109375 -1.828125 9.921875q-1.828125 5.812500 -4.562500 12.984375q-1.421875 3.468750 -1.421875 6.000000q0.000000 2.984375 2.343750 2.984375q3.906250 0.000000 6.500000 -4.187500q2.593750 -4.203125 3.656250 -9.000000q0.296875 -0.578125 0.843750 -0.578125l1.171875 0.000000q0.390625 0.000000 0.656250 0.265625q0.265625 0.265625 0.265625 0.609375q0.000000 0.093750 -0.093750 0.296875q-1.375000 5.656250 -4.765625 10.453125q-3.390625 4.781250 -8.468750 4.781250q-3.515625 0.000000 -6.015625 -2.421875q-2.484375 -2.421875 -2.484375 -5.875000q0.000000 -1.765625 0.828125 -3.906250q2.828125 -7.531250 4.703125 -13.437500q1.890625 -5.906250 1.890625 -10.390625q0.000000 -2.796875 -1.125000 -4.750000q-1.125000 -1.953125 -3.750000 -1.953125q-5.468750 0.000000 -9.484375 3.359375q-4.000000 3.343750 -6.921875 8.859375q-0.203125 0.968750 -0.296875 1.515625l-6.453125 25.671875q-0.343750 1.375000 -1.546875 2.343750q-1.187500 0.984375 -2.640625 0.984375q-1.171875 0.000000 -2.078125 -0.781250q-0.906250 -0.781250 -0.906250 -2.046875q0.000000 -0.593750 0.093750 -0.890625l6.406250 -25.484375q1.015625 -4.093750 1.015625 -6.828125q0.000000 -2.796875 -1.156250 -4.750000q-1.140625 -1.953125 -3.875000 -1.953125q-3.656250 0.000000 -6.734375 1.625000q-3.078125 1.609375 -5.375000 4.265625q-2.296875 2.656250 -4.187500 6.328125l-6.796875 27.187500q-0.343750 1.375000 -1.546875 2.343750q-1.187500 0.984375 -2.656250 0.984375q-1.218750 0.000000 -2.093750 -0.781250q-0.875000 -0.781250 -0.875000 -2.046875"/>
<path id="c_93c5d2a957e9d9c519042af352de3d6d" d="M17.390625 1.125000q-6.312500 0.000000 -9.953125 -4.765625q-3.625000 -4.765625 -3.625000 -11.250000q0.000000 -6.406250 3.312500 -13.281250q3.328125 -6.890625 8.968750 -11.453125q5.640625 -4.562500 12.125000 -4.562500q2.984375 0.000000 5.328125 1.609375q2.343750 1.609375 3.656250 4.390625q1.125000 -4.000000 4.406250 -4.000000q1.265625 0.000000 2.109375 0.765625q0.859375 0.750000 0.859375 2.015625q0.000000 0.296875 -0.031250 0.453125q-0.015625 0.140625 -0.062500 0.328125l-6.984375 27.937500q-0.687500 2.968750 -0.687500 4.875000q0.000000 4.296875 2.890625 4.296875q3.125000 0.000000 4.750000 -3.968750q1.640625 -3.984375 2.765625 -9.218750q0.187500 -0.578125 0.781250 -0.578125l1.218750 0.000000q0.390625 0.000000 0.625000 0.343750q0.250000 0.343750 0.250000 0.625000q-1.750000 6.984375 -3.828125 11.218750q-2.078125 4.218750 -6.765625 4.218750q-3.359375 0.000000 -5.953125 -1.968750q-2.593750 -1.984375 -3.218750 -5.265625q-6.453125 7.234375 -12.937500 7.234375M17.484375 -1.515625q3.609375 0.000000 7.000000 -2.703125q3.390625 -2.718750 5.843750 -6.375000q0.093750 -0.093750 0.093750 -0.296875l5.375000 -21.734375l0.093750 -0.281250q-0.593750 -3.562500 -2.578125 -6.125000q-1.968750 -2.578125 -5.328125 -2.578125q-3.375000 0.000000 -6.281250 2.765625q-2.906250 2.765625 -4.906250 6.515625q-1.953125 4.000000 -3.734375 10.984375q-1.781250 6.984375 -1.781250 10.843750q0.000000 3.468750 1.484375 6.234375q1.500000 2.750000 4.718750 2.750000"/>
<path id="c_277960698c3e9ebfcde4d2161536ce57" d="M7.812500 -2.875000q1.765625 1.359375 4.984375 1.359375q3.125000 0.000000 5.515625 -3.000000q2.390625 -3.000000 3.265625 -6.562500l4.546875 -17.734375q1.078125 -4.828125 1.078125 -6.593750q0.000000 -2.484375 -1.390625 -4.343750q-1.390625 -1.859375 -3.890625 -1.859375q-3.171875 0.000000 -5.953125 1.984375q-2.781250 1.984375 -4.687500 5.031250q-1.906250 3.046875 -2.687500 6.171875q-0.187500 0.640625 -0.781250 0.640625l-1.218750 0.000000q-0.781250 0.000000 -0.781250 -0.937500l0.000000 -0.281250q0.968750 -3.718750 3.312500 -7.250000q2.343750 -3.546875 5.734375 -5.734375q3.406250 -2.203125 7.265625 -2.203125q3.656250 0.000000 6.609375 1.953125q2.953125 1.953125 4.171875 5.312500q1.718750 -3.062500 4.375000 -5.156250q2.656250 -2.109375 5.828125 -2.109375q2.156250 0.000000 4.390625 0.765625q2.250000 0.750000 3.671875 2.312500q1.421875 1.562500 1.421875 3.906250q0.000000 2.531250 -1.640625 4.375000q-1.640625 1.828125 -4.171875 1.828125q-1.609375 0.000000 -2.687500 -1.031250q-1.078125 -1.031250 -1.078125 -2.593750q0.000000 -2.093750 1.437500 -3.671875q1.453125 -1.593750 3.453125 -1.890625q-1.812500 -1.421875 -4.984375 -1.421875q-3.218750 0.000000 -5.593750 2.984375q-2.359375 2.984375 -3.343750 6.640625l-4.390625 17.671875q-1.078125 4.015625 -1.078125 6.593750q0.000000 2.546875 1.437500 4.375000q1.437500 1.828125 3.843750 1.828125q4.687500 0.000000 8.359375 -4.125000q3.687500 -4.125000 4.859375 -9.062500q0.203125 -0.578125 0.781250 -0.578125l1.234375 0.000000q0.390625 0.000000 0.625000 0.265625q0.250000 0.265625 0.250000 0.609375q0.000000 0.093750 -0.093750 0.296875q-1.421875 5.953125 -5.968750 10.593750q-4.531250 4.640625 -10.250000 4.640625q-3.656250 0.000000 -6.609375 -1.968750q-2.953125 -1.984375 -4.187500 -5.359375q-1.562500 2.937500 -4.328125 5.140625q-2.750000 2.187500 -5.875000 2.187500q-2.140625 0.000000 -4.421875 -0.765625q-2.265625 -0.750000 -3.687500 -2.312500q-1.406250 -1.562500 -1.406250 -3.953125q0.000000 -2.343750 1.625000 -4.265625q1.640625 -1.937500 4.093750 -1.937500q1.656250 0.000000 2.781250 1.000000q1.125000 1.000000 1.125000 2.609375q0.000000 2.109375 -1.406250 3.671875q-1.390625 1.562500 -3.484375 1.953125"/>
</defs>
<g id="mathtext1">
<g style="fill: #000000" transform="translate(509.900000,854.527500)">
<use xlink:href="#c_322d44ed1377de836f22e8890a965a87" transform="translate(0.000000,-15.000000)scale(0.360000)"/>
<use xlink:href="#c_1a459ac34855d27ec37ccb0e66298d36" transform="translate(17.595703,-5.816625)scale(0.252000)"/>
<use xlink:href="#c_f47f2818876b2f1a61c47f270461e46e" transform="translate(30.195703,-5.816625)scale(0.252000)"/>
<use xlink:href="#c_62db141412f5d9d8ddcda81385ac812d" transform="translate(42.795703,-15.000000)scale(0.360000)"/>
<use xlink:href="#c_322d44ed1377de836f22e8890a965a87" transform="translate(60.795703,-15.000000)scale(0.360000)"/>
<use xlink:href="#c_1a459ac34855d27ec37ccb0e66298d36" transform="translate(78.391406,-5.816625)scale(0.252000)"/>
<use xlink:href="#c_f47f2818876b2f1a61c47f270461e46e" transform="translate(90.991406,-5.816625)scale(0.252000)"/>
<use xlink:href="#c_01bd98e0cf1b355b13e73042b8c9bdee" transform="translate(103.591406,-5.816625)scale(0.252000)"/>
<use xlink:href="#c_560614b1ec0287947e12f151dc8b925e" transform="translate(111.067734,-5.816625)scale(0.252000)"/>
<use xlink:href="#c_93c5d2a957e9d9c519042af352de3d6d" transform="translate(133.191563,-5.816625)scale(0.252000)"/>
<use xlink:href="#c_277960698c3e9ebfcde4d2161536ce57" transform="translate(146.492930,-5.816625)scale(0.252000)"/>
</g>
</g>
</g>
</g>
<g id="matplotlib.axis2">
<g id="ytick1">
<g id="line2d26">
<path style="fill: none; stroke: #000000; stroke-width: 0.500000; stroke-linejoin: round; stroke-linecap: butt; stroke-dasharray: 1.000000,3.000000; stroke-dashoffset: 0.000000; opacity: 1.000000" clip-path="url(#p796b25e0651809e735f26453ac9c5861)" d="M144.000000 740.967697L1036.800000 740.967697"/>
</g>
<g id="line2d27">
<defs><path id="m3400efa6b1638b3fea9e19e898273957" d="M0.000000 0.000000L4.000000 0.000000"/></defs>
<g ><use style="fill: none; stroke: #000000; stroke-width: 0.500000; stroke-linejoin: round; stroke-linecap: butt;  opacity: 1.000000" xlink:href="#m3400efa6b1638b3fea9e19e898273957" x="144.000000" y="740.967697"/>
</g></g>
<g id="line2d28">
<defs><path id="m20b58b2501143cb5e0a5e8f1ef6f1643" d="M0.000000 0.000000L-4.000000 0.000000"/></defs>
<g ><use style="fill: none; stroke: #000000; stroke-width: 0.500000; stroke-linejoin: round; stroke-linecap: butt;  opacity: 1.000000" xlink:href="#m20b58b2501143cb5e0a5e8f1ef6f1643" x="1036.800000" y="740.967697"/>
</g></g>
<g id="text10">
<g style="fill: #000000; opacity: 1.000000" transform="translate(96.265625,751.889572)scale(0.300000)">
<use xlink:href="#c_7a2040fe3b94fcd41d0a72c84e93b115"/>
<use xlink:href="#c_ed3e21196fb739f392806f09ca0594ef" x="63.623047"/>
<use xlink:href="#c_7a2040fe3b94fcd41d0a72c84e93b115" x="95.410156"/>
</g>
</g>
</g>
<g id="ytick2">
<g id="line2d29">
<path style="fill: none; stroke: #000000; stroke-width: 0.500000; stroke-linejoin: round; stroke-linecap: butt; stroke-dasharray: 1.000000,3.000000; stroke-dashoffset: 0.000000; opacity: 1.000000" clip-path="url(#p796b25e0651809e735f26453ac9c5861)" d="M144.000000 605.042880L1036.800000 605.042880"/>
</g>
<g id="line2d30">
<g ><use style="fill: none; stroke: #000000; stroke-width: 0.500000; stroke-linejoin: round; stroke-linecap: butt;  opacity: 1.000000" xlink:href="#m3400efa6b1638b3fea9e19e898273957" x="144.000000" y="605.042880"/>
</g></g>
<g id="line2d31">
<g ><use style="fill: none; stroke: #000000; stroke-width: 0.500000; stroke-linejoin: round; stroke-linecap: butt;  opacity: 1.000000" xlink:href="#m20b58b2501143cb5e0a5e8f1ef6f1643" x="1036.800000" y="605.042880"/>
</g></g>
<g id="text11">
<g style="fill: #000000; opacity: 1.000000" transform="translate(96.890625,615.964755)scale(0.300000)">
<use xlink:href="#c_7a2040fe3b94fcd41d0a72c84e93b115"/>
<use xlink:href="#c_ed3e21196fb739f392806f09ca0594ef" x="63.623047"/>
<use xlink:href="#c_1260a2df50f305f3db244e29828f968e" x="95.410156"/>
</g>
</g>
</g>
<g id="ytick3">
<g id="line2d32">
<path style="fill: none; stroke: #000000; stroke-width: 0.500000; stroke-linejoin: round; stroke-linecap: butt; stroke-dasharray: 1.000000,3.000000; stroke-dashoffset: 0.000000; opacity: 1.000000" clip-path="url(#p796b25e0651809e735f26453ac9c5861)" d="M144.000000 469.118063L1036.800000 469.118063"/>
</g>
<g id="line2d33">
<g ><use style="fill: none; stroke: #000000; stroke-width: 0.500000; stroke-linejoin: round; stroke-linecap: butt;  opacity: 1.000000" xlink:href="#m3400efa6b1638b3fea9e19e898273957" x="144.000000" y="469.118063"/>
</g></g>
<g id="line2d34">
<g ><use style="fill: none; stroke: #000000; stroke-width: 0.500000; stroke-linejoin: round; stroke-linecap: butt;  opacity: 1.000000" xlink:href="#m20b58b2501143cb5e0a5e8f1ef6f1643" x="1036.800000" y="469.118063"/>
</g></g>
<g id="text12">
<g style="fill: #000000; opacity: 1.000000" transform="translate(97.578125,480.039938)scale(0.300000)">
<use xlink:href="#c_42baa63129a918535c52adb20d687ea7"/>
<use xlink:href="#c_ed3e21196fb739f392806f09ca0594ef" x="63.623047"/>
<use xlink:href="#c_7a2040fe3b94fcd41d0a72c84e93b115" x="95.410156"/>
</g>
</g>
</g>
<g id="ytick4">
<g id="line2d35">
<path style="fill: none; stroke: #000000; stroke-width: 0.500000; stroke-linejoin: round; stroke-linecap: butt; stroke-dasharray: 1.000000,3.000000; stroke-dashoffset: 0.000000; opacity: 1.000000" clip-path="url(#p796b25e0651809e735f26453ac9c5861)" d="M144.000000 333.193245L1036.800000 333.193245"/>
</g>
<g id="line2d36">
<g ><use style="fill: none; stroke: #000000; stroke-width: 0.500000; stroke-linejoin: round; stroke-linecap: butt;  opacity: 1.000000" xlink:href="#m3400efa6b1638b3fea9e19e898273957" x="144.000000" y="333.193245"/>
</g></g>
<g id="line2d37">
<g ><use style="fill: none; stroke: #000000; stroke-width: 0.500000; stroke-linejoin: round; stroke-linecap: butt;  opacity: 1.000000" xlink:href="#m20b58b2501143cb5e0a5e8f1ef6f1643" x="1036.800000" y="333.193245"/>
</g></g>
<g id="text13">
<g style="fill: #000000; opacity: 1.000000" transform="translate(98.203125,343.919808)scale(0.300000)">
<use xlink:href="#c_42baa63129a918535c52adb20d687ea7"/>
<use xlink:href="#c_ed3e21196fb739f392806f09ca0594ef" x="63.623047"/>
<use xlink:href="#c_1260a2df50f305f3db244e29828f968e" x="95.410156"/>
</g>
</g>
</g>
<g id="ytick5">
<g id="line2d38">
<path style="fill: none; stroke: #000000; stroke-width: 0.500000; stroke-linejoin: round; stroke-linecap: butt; stroke-dasharray: 1.000000,3.000000; stroke-dashoffset: 0.000000; opacity: 1.000000" clip-path="url(#p796b25e0651809e735f26453ac9c5861)" d="M144.000000 197.268428L1036.800000 197.268428"/>
</g>
<g id="line2d39">
<g ><use style="fill: none; stroke: #000000; stroke-width: 0.500000; stroke-linejoin: round; stroke-linecap: butt;  opacity: 1.000000" xlink:href="#m3400efa6b1638b3fea9e19e898273957" x="144.000000" y="197.268428"/>
</g></g>
<g id="line2d40">
<g ><use style="fill: none; stroke: #000000; stroke-width: 0.500000; stroke-linejoin: round; stroke-linecap: butt;  opacity: 1.000000" xlink:href="#m20b58b2501143cb5e0a5e8f1ef6f1643" x="1036.800000" y="197.268428"/>
</g></g>
<g id="text14">
<defs>
<path id="c_ed3f3ed3ebfbd18bcb9c012009a68ad1" d="M19.187500 -8.296875l34.421875 0.000000l0.000000 8.296875l-46.281250 0.000000l0.000000 -8.296875q5.609375 -5.812500 15.296875 -15.593750q9.703125 -9.796875 12.187500 -12.640625q4.734375 -5.312500 6.609375 -9.000000q1.890625 -3.687500 1.890625 -7.250000q0.000000 -5.812500 -4.078125 -9.468750q-4.078125 -3.671875 -10.625000 -3.671875q-4.640625 0.000000 -9.796875 1.609375q-5.140625 1.609375 -11.000000 4.890625l0.000000 -9.968750q5.953125 -2.390625 11.125000 -3.609375q5.187500 -1.218750 9.484375 -1.218750q11.328125 0.000000 18.062500 5.671875q6.734375 5.656250 6.734375 15.125000q0.000000 4.500000 -1.687500 8.531250q-1.671875 4.015625 -6.125000 9.484375q-1.218750 1.421875 -7.765625 8.187500q-6.531250 6.765625 -18.453125 18.921875"/>
</defs>
<g style="fill: #000000; opacity: 1.000000" transform="translate(96.484375,208.190303)scale(0.300000)">
<use xlink:href="#c_ed3f3ed3ebfbd18bcb9c012009a68ad1"/>
<use xlink:href="#c_ed3e21196fb739f392806f09ca0594ef" x="63.623047"/>
<use xlink:href="#c_7a2040fe3b94fcd41d0a72c84e93b115" x="95.410156"/>
</g>
</g>
</g>
<g id="text15">
<defs>
<path id="c_3b2782178f56e47d3a01df1c4507d260" d="M17.390625 1.125000q-6.312500 0.000000 -9.953125 -4.765625q-3.625000 -4.765625 -3.625000 -11.250000q0.000000 -6.406250 3.312500 -13.281250q3.328125 -6.890625 8.968750 -11.453125q5.640625 -4.562500 12.125000 -4.562500q2.937500 0.000000 5.296875 1.640625q2.375000 1.625000 3.687500 4.359375l5.625000 -22.312500q0.390625 -1.703125 0.484375 -2.687500q0.000000 -1.609375 -6.500000 -1.609375q-1.015625 0.000000 -1.015625 -1.312500q0.046875 -0.250000 0.218750 -0.875000q0.171875 -0.640625 0.437500 -0.984375q0.265625 -0.343750 0.750000 -0.343750l13.484375 -1.078125q1.218750 0.000000 1.218750 1.281250l-14.406250 57.515625q-0.687500 1.656250 -0.687500 4.781250q0.000000 4.296875 2.890625 4.296875q3.125000 0.000000 4.750000 -3.968750q1.640625 -3.984375 2.765625 -9.218750q0.187500 -0.578125 0.781250 -0.578125l1.218750 0.000000q0.390625 0.000000 0.625000 0.343750q0.250000 0.343750 0.250000 0.625000q-1.750000 6.984375 -3.828125 11.218750q-2.078125 4.218750 -6.765625 4.218750q-3.359375 0.000000 -5.953125 -1.968750q-2.593750 -1.984375 -3.218750 -5.265625q-6.453125 7.234375 -12.937500 7.234375M17.484375 -1.515625q3.609375 0.000000 7.000000 -2.703125q3.390625 -2.718750 5.843750 -6.375000q0.093750 -0.093750 0.093750 -0.390625l5.468750 -22.031250q-0.593750 -3.515625 -2.593750 -6.046875q-2.000000 -2.546875 -5.312500 -2.546875q-3.375000 0.000000 -6.281250 2.765625q-2.906250 2.765625 -4.906250 6.515625q-1.953125 4.000000 -3.734375 10.984375q-1.781250 6.984375 -1.781250 10.843750q0.000000 3.468750 1.484375 6.234375q1.500000 2.750000 4.718750 2.750000"/>
<path id="c_96be6d54ac7f2203c423d2cc81eba021" d="M18.609375 -0.000000l0.000000 -3.515625q12.781250 0.000000 12.781250 -3.171875l0.000000 -7.234375q-9.609375 -0.921875 -16.890625 -5.750000q-3.812500 -2.593750 -6.359375 -6.406250q-2.531250 -3.812500 -2.531250 -8.109375q0.000000 -4.234375 2.531250 -8.062500q2.546875 -3.843750 6.359375 -6.328125q3.765625 -2.546875 7.937500 -3.937500q4.171875 -1.390625 8.953125 -1.875000l0.000000 -7.234375q0.000000 -3.171875 -12.781250 -3.171875l0.000000 -3.515625l34.265625 0.000000l0.000000 3.515625q-12.781250 0.000000 -12.781250 3.171875l0.000000 7.234375q4.140625 0.000000 8.781250 1.546875q4.640625 1.531250 8.593750 4.171875q3.953125 2.625000 6.484375 6.406250q2.546875 3.781250 2.546875 8.078125q0.000000 4.296875 -2.546875 8.062500q-2.531250 3.765625 -6.609375 6.500000q-4.078125 2.734375 -8.718750 4.218750q-4.625000 1.484375 -8.531250 1.484375l0.000000 7.234375q0.000000 3.171875 12.781250 3.171875l0.000000 3.515625zM40.093750 -16.500000q8.046875 -1.031250 12.031250 -5.390625q3.984375 -4.375000 3.984375 -12.296875q0.000000 -7.953125 -4.031250 -12.296875q-4.031250 -4.343750 -11.984375 -5.328125zM31.390625 -16.609375l0.000000 -35.093750q-15.375000 2.140625 -15.375000 17.515625q0.000000 15.437500 15.375000 17.578125"/>
<path id="c_d41d8cd98f00b204e9800998ecf8427e" d=""/>
<path id="c_1a1d9ef1e4ddee695bd67a282879f099" d="M8.593750 -75.984375l20.703125 0.000000l0.000000 6.984375l-11.718750 0.000000l0.000000 75.203125l11.718750 0.000000l0.000000 6.984375l-20.703125 0.000000z"/>
<path id="c_5bcf09947f6bf611091602c6fea1d302" d="M30.421875 -75.984375l0.000000 89.171875l-20.703125 0.000000l0.000000 -6.984375l11.671875 0.000000l0.000000 -75.203125l-11.671875 0.000000l0.000000 -6.984375z"/>
</defs>
<g id="mathtext2">
<g style="fill: #000000" transform="translate(91.265625,596.800000)rotate(-90.0)">
<use xlink:href="#c_3b2782178f56e47d3a01df1c4507d260" transform="translate(0.000000,-15.640625)scale(0.360000)"/>
<use xlink:href="#c_322d44ed1377de836f22e8890a965a87" transform="translate(18.720703,-15.640625)scale(0.360000)"/>
<use xlink:href="#c_1a459ac34855d27ec37ccb0e66298d36" transform="translate(36.316406,-6.457250)scale(0.252000)"/>
<use xlink:href="#c_f47f2818876b2f1a61c47f270461e46e" transform="translate(48.916406,-6.457250)scale(0.252000)"/>
<use xlink:href="#c_62db141412f5d9d8ddcda81385ac812d" transform="translate(61.516406,-15.640625)scale(0.360000)"/>
<use xlink:href="#c_3b2782178f56e47d3a01df1c4507d260" transform="translate(79.516406,-15.640625)scale(0.360000)"/>
<use xlink:href="#c_96be6d54ac7f2203c423d2cc81eba021" transform="translate(98.237109,-15.640625)scale(0.360000)"/>
<use xlink:href="#c_d41d8cd98f00b204e9800998ecf8427e" transform="translate(124.235156,-15.640625)scale(0.360000)"/>
<use xlink:href="#c_1a1d9ef1e4ddee695bd67a282879f099" transform="translate(135.678516,-15.640625)scale(0.360000)"/>
<use xlink:href="#c_322d44ed1377de836f22e8890a965a87" transform="translate(149.723437,-15.640625)scale(0.360000)"/>
<use xlink:href="#c_1a459ac34855d27ec37ccb0e66298d36" transform="translate(167.319141,-6.457250)scale(0.252000)"/>
<use xlink:href="#c_f47f2818876b2f1a61c47f270461e46e" transform="translate(179.919141,-6.457250)scale(0.252000)"/>
<use xlink:href="#c_01bd98e0cf1b355b13e73042b8c9bdee" transform="translate(192.519141,-6.457250)scale(0.252000)"/>
<use xlink:href="#c_560614b1ec0287947e12f151dc8b925e" transform="translate(199.995469,-6.457250)scale(0.252000)"/>
<use xlink:href="#c_93c5d2a957e9d9c519042af352de3d6d" transform="translate(222.119297,-6.457250)scale(0.252000)"/>
<use xlink:href="#c_277960698c3e9ebfcde4d2161536ce57" transform="translate(235.420664,-6.457250)scale(0.252000)"/>
<use xlink:href="#c_62db141412f5d9d8ddcda81385ac812d" transform="translate(249.804844,-15.640625)scale(0.360000)"/>
<use xlink:href="#c_96be6d54ac7f2203c423d2cc81eba021" transform="translate(267.804844,-15.640625)scale(0.360000)"/>
<use xlink:href="#c_f47f2818876b2f1a61c47f270461e46e" transform="translate(293.802891,-6.457250)scale(0.252000)"/>
<use xlink:href="#c_5bcf09947f6bf611091602c6fea1d302" transform="translate(311.802891,-15.640625)scale(0.360000)"/>
</g>
</g>
</g>
</g>
<g id="patch3">
<path style="fill: none; stroke: #000000; stroke-width: 1.000000; stroke-linejoin: round; stroke-linecap: square;  opacity: 1.000000"  d="M144.000000 86.760000L1036.800000 86.760000"/>
</g>
<g id="patch4">
<path style="fill: none; stroke: #000000; stroke-width: 1.000000; stroke-linejoin: round; stroke-linecap: square;  opacity: 1.000000"  d="M1036.800000 780.840000L1036.800000 86.760000"/>
</g>
<g id="patch5">
<path style="fill: none; stroke: #000000; stroke-width: 1.000000; stroke-linejoin: round; stroke-linecap: square;  opacity: 1.000000"  d="M144.000000 780.840000L1036.800000 780.840000"/>
</g>
<g id="patch6">
<path style="fill: none; stroke: #000000; stroke-width: 1.000000; stroke-linejoin: round; stroke-linecap: square;  opacity: 1.000000"  d="M144.000000 780.840000L144.000000 86.760000"/>
</g>
</g>
</g>
</svg>
