<?xml version="1.0" standalone="no"?>
<!DOCTYPE svg PUBLIC "-//W3C//DTD SVG 1.1//EN"
  "http://www.w3.org/Graphics/SVG/1.1/DTD/svg11.dtd">
<!-- Created with matplotlib (http://matplotlib.sourceforge.net/) -->
<svg width="1512pt" height="864pt" viewBox="0 0 1512 864"
   xmlns="http://www.w3.org/2000/svg"
   xmlns:xlink="http://www.w3.org/1999/xlink"
   version="1.1"
   id="svg1">
<g id="figure1">
<g id="patch1">
<path style="fill: #ffffff; stroke: #ffffff; stroke-width: 1.000000; stroke-linejoin: round; stroke-linecap: square;  opacity: 1.000000"  d="M0.000000 864.000000L1512.000000 864.000000L1512.000000 0.000000
L0.000000 0.000000L0.000000 864.000000"/>
</g>
<g id="axes1">
<g id="patch2">
<path style="fill: #ffffff; opacity: 1.000000"  d="M189.000000 777.600000L1360.800000 777.600000L1360.800000 86.400000
L189.000000 86.400000L189.000000 777.600000"/>
</g>
<g id="line2d1">
<defs>
  <clipPath id="pccc95fea6a0ef8aebd1083906daeebf1">
<rect x="189.000000" y="86.400000" width="1171.800000" height="691.200000"/>
  </clipPath>
</defs><path style="fill: none; stroke: #0000ff; stroke-width: 5.000000; stroke-linejoin: round; stroke-linecap: square;  opacity: 1.000000" clip-path="url(#pccc95fea6a0ef8aebd1083906daeebf1)" d="M189.000000 431.999912L381.034114 431.697037L420.224749 430.971328
L443.739130 429.943734L463.334448 428.431616L479.010702 426.553612
L490.767893 424.603619L502.525084 422.053998L514.282274 418.760736
L526.039465 414.560371L533.877592 411.167797L541.715719 407.235799
L549.553846 402.706564L557.391973 397.522182L565.230100 391.626133
L573.068227 384.965050L580.906355 377.490717L588.744482 369.162280
L596.582609 359.948619L604.420736 349.830815L612.258863 338.804628
L620.096990 326.882887L631.854181 307.397058L643.611371 286.172441
L655.368562 263.524353L674.963880 223.845617L694.559197 184.142895
L706.316388 161.664385L714.154515 147.705680L721.992642 134.829611
L729.830769 123.250309L737.668896 113.166759L745.507023 104.757013
L749.426087 101.228412L753.345151 98.172870L757.264214 95.604494
L761.183278 93.535218L765.102341 91.974704L769.021405 90.930266
L772.940468 90.406815L776.859532 90.406815L780.778595 90.930266
L784.697659 91.974704L788.616722 93.535218L792.535786 95.604494
L796.454849 98.172870L800.373913 101.228412L804.292977 104.757013
L812.131104 113.166759L819.969231 123.250309L827.807358 134.829611
L835.645485 147.705680L843.483612 161.664385L855.240803 184.142895
L870.917057 215.808348L894.431438 263.524353L906.188629 286.172441
L917.945819 307.397058L929.703010 326.882887L937.541137 338.804628
L945.379264 349.830815L953.217391 359.948619L961.055518 369.162280
L968.893645 377.490717L976.731773 384.965050L984.569900 391.626133
L992.408027 397.522182L1000.246154 402.706564L1008.084281 407.235799
L1015.922408 411.167797L1023.760535 414.560371L1035.517726 418.760736
L1047.274916 422.053998L1059.032107 424.603619L1070.789298 426.553612
L1086.465552 428.431616L1106.060870 429.943734L1129.575251 430.971328
L1160.927759 431.610689L1215.794649 431.936445L1360.800000 431.999912
L1360.800000 431.999912"/>
</g>
<g id="line2d2">
<path style="fill: none; stroke: #ff0000; stroke-width: 5.000000; stroke-linejoin: round; stroke-linecap: square;  opacity: 1.000000" clip-path="url(#pccc95fea6a0ef8aebd1083906daeebf1)" d="M189.000000 432.000865L326.167224 432.347422L361.438796 433.029245
L384.953177 434.057502L404.548495 435.583994L420.224749 437.498149
L431.981940 439.502990L443.739130 442.145950L455.496321 445.589349
L463.334448 448.421031L471.172575 451.752117L479.010702 455.647258
L486.848829 460.173710L494.686957 465.399904L502.525084 471.393591
L510.363211 478.219545L518.201338 485.936805L526.039465 494.595464
L533.877592 504.233046L541.715719 514.870534L549.553846 526.508156
L557.391973 539.121056L569.149164 559.741480L580.906355 582.099349
L596.582609 613.684351L616.177926 653.366256L627.935117 675.430826
L635.773244 688.653722L643.611371 700.225217L647.530435 705.265420
L651.449498 709.741562L655.368562 713.604266L659.287625 716.805393
L663.206689 719.298474L667.125753 721.039163L671.044816 721.985685
L674.963880 722.099287L678.882943 721.344675L682.802007 719.690444
L686.721070 717.109486L690.640134 713.579379L694.559197 709.082740
L698.478261 703.607550L702.397324 697.147437L706.316388 689.701915
L710.235452 681.276577L714.154515 671.883237L721.992642 650.271346
L729.830769 625.086909L737.668896 596.649435L745.507023 565.371409
L753.345151 531.748636L765.102341 478.171479L796.454849 332.251364
L804.292977 298.628591L812.131104 267.350565L819.969231 238.913091
L827.807358 213.728654L835.645485 192.116763L839.564548 182.723423
L843.483612 174.298085L847.402676 166.852563L851.321739 160.392450
L855.240803 154.917260L859.159866 150.420621L863.078930 146.890514
L866.997993 144.309556L870.917057 142.655325L874.836120 141.900713
L878.755184 142.014315L882.674247 142.960837L886.593311 144.701526
L890.512375 147.194607L894.431438 150.395734L898.350502 154.258438
L902.269565 158.734580L910.107692 169.328872L917.945819 181.776440
L925.783946 195.675020L937.541137 218.394076L976.731773 296.977430
L988.488963 318.222444L996.327090 331.304652L1004.165217 343.434757
L1012.003344 354.573750L1019.841472 364.709858L1027.679599 373.854225
L1035.517726 382.036619L1043.355853 389.301325L1051.193980 395.703337
L1059.032107 401.304936L1066.870234 406.172699L1074.708361 410.374977
L1082.546488 413.979817L1090.384615 417.053327L1102.141806 420.803930
L1113.898997 423.694420L1125.656187 425.895495L1141.332441 428.005778
L1157.008696 429.424493L1176.604013 430.539765L1204.037458 431.360743
L1247.147157 431.835923L1345.123746 431.995366L1360.800000 431.999135
L1360.800000 431.999135"/>
</g>
<g id="line2d3">
<path style="fill: none; stroke: #008000; stroke-width: 5.000000; stroke-linejoin: round; stroke-linecap: square;  opacity: 1.000000" clip-path="url(#pccc95fea6a0ef8aebd1083906daeebf1)" d="M189.000000 431.994214L283.057525 431.523713L318.329097 430.658042
L341.843478 429.391847L357.519732 427.993010L373.195987 425.919137
L384.953177 423.758677L396.710368 420.921279L408.467559 417.235858
L416.305686 414.211493L424.143813 410.658953L431.981940 406.510336
L439.820067 401.695242L447.658194 396.142450L455.496321 389.782100
L463.334448 382.548419L471.172575 374.383037L479.010702 365.238864
L486.848829 355.084523L494.686957 343.909235L502.525084 331.728063
L510.363211 318.587320L522.120401 297.269650L533.877592 274.449283
L565.230100 212.387090L573.068227 198.431224L580.906355 185.941994
L588.744482 175.395490L592.663545 171.003165L596.582609 167.279477
L600.501672 164.284506L604.420736 162.076856L608.339799 160.713013
L612.258863 160.246678L616.177926 160.728089L620.096990 162.203321
L624.016054 164.713600L627.935117 168.294612L631.854181 172.975834
L635.773244 178.779887L639.692308 185.721934L643.611371 193.809108
L647.530435 203.040013L651.449498 213.404274L655.368562 224.882176
L663.206689 251.051720L671.044816 281.195641L678.882943 314.803438
L686.721070 351.212903L698.478261 409.295588L718.073579 507.251351
L725.911706 543.741040L733.749833 577.084745L741.587960 606.280647
L745.507023 619.037499L749.426087 630.430982L753.345151 640.371300
L757.264214 648.779578L761.183278 655.588722L765.102341 660.744146
L769.021405 664.204377L772.940468 665.941508L776.859532 665.941508
L780.778595 664.204377L784.697659 660.744146L788.616722 655.588722
L792.535786 648.779578L796.454849 640.371300L800.373913 630.430982
L804.292977 619.037499L808.212040 606.280647L816.050167 577.084745
L823.888294 543.741040L831.726421 507.251351L843.483612 448.954954
L863.078930 351.212903L870.917057 314.803438L878.755184 281.195641
L886.593311 251.051720L894.431438 224.882176L898.350502 213.404274
L902.269565 203.040013L906.188629 193.809108L910.107692 185.721934
L914.026756 178.779887L917.945819 172.975834L921.864883 168.294612
L925.783946 164.713600L929.703010 162.203321L933.622074 160.728089
L937.541137 160.246678L941.460201 160.713013L945.379264 162.076856
L949.298328 164.284506L953.217391 167.279477L957.136455 171.003165
L961.055518 175.395490L964.974582 180.395509L972.812709 191.973973
L980.650836 205.254731L988.488963 219.772870L1004.165217 250.826678
L1023.760535 289.800415L1035.517726 311.681451L1047.274916 331.728063
L1055.113043 343.909235L1062.951171 355.084523L1070.789298 365.238864
L1078.627425 374.383037L1086.465552 382.548419L1094.303679 389.782100
L1102.141806 396.142450L1109.979933 401.695242L1117.818060 406.510336
L1125.656187 410.658953L1133.494314 414.211493L1141.332441 417.235858
L1153.089632 420.921279L1164.846823 423.758677L1176.604013 425.919137
L1192.280268 427.993010L1207.956522 429.391847L1227.551839 430.498524
L1254.985284 431.324057L1298.094983 431.817723L1360.800000 431.994214
L1360.800000 431.994214"/>
</g>
<g id="matplotlib.axis1">
<g id="xtick1">
<g id="line2d4">
<path style="fill: none; stroke: #000000; stroke-width: 2.000000; stroke-linejoin: round; stroke-linecap: butt; stroke-dasharray: 1.000000,3.000000; stroke-dashoffset: 0.000000; opacity: 1.000000" clip-path="url(#pccc95fea6a0ef8aebd1083906daeebf1)" d="M189.000000 777.600000L189.000000 86.400000"/>
</g>
<g id="line2d5">
<defs><path id="mf3bf6e449e6d98f300e3edcf31c0c1df" d="M0.000000 0.000000L0.000000 -15.000000"/></defs>
<g ><use style="fill: none; stroke: #000000; stroke-width: 10.000000; stroke-linejoin: round; stroke-linecap: butt;  opacity: 1.000000" xlink:href="#mf3bf6e449e6d98f300e3edcf31c0c1df" x="189.000000" y="777.600000"/>
</g></g>
<g id="line2d6">
<defs><path id="m05bb747abfe7180f4ba21e22e2409223" d="M0.000000 0.000000L0.000000 15.000000"/></defs>
<g ><use style="fill: none; stroke: #000000; stroke-width: 10.000000; stroke-linejoin: round; stroke-linecap: butt;  opacity: 1.000000" xlink:href="#m05bb747abfe7180f4ba21e22e2409223" x="189.000000" y="86.400000"/>
</g></g>
<g id="text1">
<defs>
<path id="c_6a8d56c819c37117ab4cf023bec22a5a" d="M10.593750 -35.500000l62.593750 0.000000l0.000000 8.296875l-62.593750 0.000000z"/>
<path id="c_42baa63129a918535c52adb20d687ea7" d="M12.406250 -8.296875l16.109375 0.000000l0.000000 -55.625000l-17.531250 3.515625l0.000000 -8.984375l17.437500 -3.515625l9.859375 0.000000l0.000000 64.609375l16.109375 0.000000l0.000000 8.296875l-41.984375 0.000000z"/>
<path id="c_ed3e21196fb739f392806f09ca0594ef" d="M10.687500 -12.406250l10.312500 0.000000l0.000000 12.406250l-10.312500 0.000000z"/>
<path id="c_7a2040fe3b94fcd41d0a72c84e93b115" d="M31.781250 -66.406250q-7.609375 0.000000 -11.453125 7.500000q-3.828125 7.484375 -3.828125 22.531250q0.000000 14.984375 3.828125 22.484375q3.843750 7.500000 11.453125 7.500000q7.671875 0.000000 11.500000 -7.500000q3.843750 -7.500000 3.843750 -22.484375q0.000000 -15.046875 -3.843750 -22.531250q-3.828125 -7.500000 -11.500000 -7.500000M31.781250 -74.218750q12.265625 0.000000 18.734375 9.703125q6.468750 9.687500 6.468750 28.140625q0.000000 18.406250 -6.468750 28.109375q-6.468750 9.687500 -18.734375 9.687500q-12.250000 0.000000 -18.718750 -9.687500q-6.468750 -9.703125 -6.468750 -28.109375q0.000000 -18.453125 6.468750 -28.140625q6.468750 -9.703125 18.718750 -9.703125"/>
</defs>
<g style="fill: #000000; opacity: 1.000000" transform="translate(121.320313,826.131250)scale(0.600000)">
<use xlink:href="#c_6a8d56c819c37117ab4cf023bec22a5a"/>
<use xlink:href="#c_42baa63129a918535c52adb20d687ea7" x="83.789063"/>
<use xlink:href="#c_ed3e21196fb739f392806f09ca0594ef" x="147.412109"/>
<use xlink:href="#c_7a2040fe3b94fcd41d0a72c84e93b115" x="179.199219"/>
</g>
</g>
</g>
<g id="xtick2">
<g id="line2d7">
<path style="fill: none; stroke: #000000; stroke-width: 2.000000; stroke-linejoin: round; stroke-linecap: butt; stroke-dasharray: 1.000000,3.000000; stroke-dashoffset: 0.000000; opacity: 1.000000" clip-path="url(#pccc95fea6a0ef8aebd1083906daeebf1)" d="M481.950000 777.600000L481.950000 86.400000"/>
</g>
<g id="line2d8">
<g ><use style="fill: none; stroke: #000000; stroke-width: 10.000000; stroke-linejoin: round; stroke-linecap: butt;  opacity: 1.000000" xlink:href="#mf3bf6e449e6d98f300e3edcf31c0c1df" x="481.950000" y="777.600000"/>
</g></g>
<g id="line2d9">
<g ><use style="fill: none; stroke: #000000; stroke-width: 10.000000; stroke-linejoin: round; stroke-linecap: butt;  opacity: 1.000000" xlink:href="#m05bb747abfe7180f4ba21e22e2409223" x="481.950000" y="86.400000"/>
</g></g>
<g id="text2">
<defs>
<path id="c_1260a2df50f305f3db244e29828f968e" d="M10.796875 -72.906250l38.718750 0.000000l0.000000 8.312500l-29.687500 0.000000l0.000000 17.859375q2.140625 -0.734375 4.281250 -1.093750q2.156250 -0.359375 4.312500 -0.359375q12.203125 0.000000 19.328125 6.687500q7.140625 6.687500 7.140625 18.109375q0.000000 11.765625 -7.328125 18.296875q-7.328125 6.515625 -20.656250 6.515625q-4.593750 0.000000 -9.359375 -0.781250q-4.750000 -0.781250 -9.828125 -2.343750l0.000000 -9.921875q4.390625 2.390625 9.078125 3.562500q4.687500 1.171875 9.906250 1.171875q8.453125 0.000000 13.375000 -4.437500q4.937500 -4.437500 4.937500 -12.062500q0.000000 -7.609375 -4.937500 -12.046875q-4.921875 -4.453125 -13.375000 -4.453125q-3.953125 0.000000 -7.890625 0.875000q-3.921875 0.875000 -8.015625 2.734375z"/>
</defs>
<g style="fill: #000000; opacity: 1.000000" transform="translate(414.895312,826.131250)scale(0.600000)">
<use xlink:href="#c_6a8d56c819c37117ab4cf023bec22a5a"/>
<use xlink:href="#c_7a2040fe3b94fcd41d0a72c84e93b115" x="83.789063"/>
<use xlink:href="#c_ed3e21196fb739f392806f09ca0594ef" x="147.412109"/>
<use xlink:href="#c_1260a2df50f305f3db244e29828f968e" x="179.199219"/>
</g>
</g>
</g>
<g id="xtick3">
<g id="line2d10">
<path style="fill: none; stroke: #000000; stroke-width: 2.000000; stroke-linejoin: round; stroke-linecap: butt; stroke-dasharray: 1.000000,3.000000; stroke-dashoffset: 0.000000; opacity: 1.000000" clip-path="url(#pccc95fea6a0ef8aebd1083906daeebf1)" d="M774.900000 777.600000L774.900000 86.400000"/>
</g>
<g id="line2d11">
<g ><use style="fill: none; stroke: #000000; stroke-width: 10.000000; stroke-linejoin: round; stroke-linecap: butt;  opacity: 1.000000" xlink:href="#mf3bf6e449e6d98f300e3edcf31c0c1df" x="774.900000" y="777.600000"/>
</g></g>
<g id="line2d12">
<g ><use style="fill: none; stroke: #000000; stroke-width: 10.000000; stroke-linejoin: round; stroke-linecap: butt;  opacity: 1.000000" xlink:href="#m05bb747abfe7180f4ba21e22e2409223" x="774.900000" y="86.400000"/>
</g></g>
<g id="text3">
<g style="fill: #000000; opacity: 1.000000" transform="translate(731.157812,826.131250)scale(0.600000)">
<use xlink:href="#c_7a2040fe3b94fcd41d0a72c84e93b115"/>
<use xlink:href="#c_ed3e21196fb739f392806f09ca0594ef" x="63.623047"/>
<use xlink:href="#c_7a2040fe3b94fcd41d0a72c84e93b115" x="95.410156"/>
</g>
</g>
</g>
<g id="xtick4">
<g id="line2d13">
<path style="fill: none; stroke: #000000; stroke-width: 2.000000; stroke-linejoin: round; stroke-linecap: butt; stroke-dasharray: 1.000000,3.000000; stroke-dashoffset: 0.000000; opacity: 1.000000" clip-path="url(#pccc95fea6a0ef8aebd1083906daeebf1)" d="M1067.850000 777.600000L1067.850000 86.400000"/>
</g>
<g id="line2d14">
<g ><use style="fill: none; stroke: #000000; stroke-width: 10.000000; stroke-linejoin: round; stroke-linecap: butt;  opacity: 1.000000" xlink:href="#mf3bf6e449e6d98f300e3edcf31c0c1df" x="1067.850000" y="777.600000"/>
</g></g>
<g id="line2d15">
<g ><use style="fill: none; stroke: #000000; stroke-width: 10.000000; stroke-linejoin: round; stroke-linecap: butt;  opacity: 1.000000" xlink:href="#m05bb747abfe7180f4ba21e22e2409223" x="1067.850000" y="86.400000"/>
</g></g>
<g id="text4">
<g style="fill: #000000; opacity: 1.000000" transform="translate(1024.732812,826.131250)scale(0.600000)">
<use xlink:href="#c_7a2040fe3b94fcd41d0a72c84e93b115"/>
<use xlink:href="#c_ed3e21196fb739f392806f09ca0594ef" x="63.623047"/>
<use xlink:href="#c_1260a2df50f305f3db244e29828f968e" x="95.410156"/>
</g>
</g>
</g>
<g id="xtick5">
<g id="line2d16">
<path style="fill: none; stroke: #000000; stroke-width: 2.000000; stroke-linejoin: round; stroke-linecap: butt; stroke-dasharray: 1.000000,3.000000; stroke-dashoffset: 0.000000; opacity: 1.000000" clip-path="url(#pccc95fea6a0ef8aebd1083906daeebf1)" d="M1360.800000 777.600000L1360.800000 86.400000"/>
</g>
<g id="line2d17">
<g ><use style="fill: none; stroke: #000000; stroke-width: 10.000000; stroke-linejoin: round; stroke-linecap: butt;  opacity: 1.000000" xlink:href="#mf3bf6e449e6d98f300e3edcf31c0c1df" x="1360.800000" y="777.600000"/>
</g></g>
<g id="line2d18">
<g ><use style="fill: none; stroke: #000000; stroke-width: 10.000000; stroke-linejoin: round; stroke-linecap: butt;  opacity: 1.000000" xlink:href="#m05bb747abfe7180f4ba21e22e2409223" x="1360.800000" y="86.400000"/>
</g></g>
<g id="text5">
<g style="fill: #000000; opacity: 1.000000" transform="translate(1318.378125,826.131250)scale(0.600000)">
<use xlink:href="#c_42baa63129a918535c52adb20d687ea7"/>
<use xlink:href="#c_ed3e21196fb739f392806f09ca0594ef" x="63.623047"/>
<use xlink:href="#c_7a2040fe3b94fcd41d0a72c84e93b115" x="95.410156"/>
</g>
</g>
</g>
</g>
<g id="matplotlib.axis2">
<g id="ytick1">
<g id="line2d19">
<path style="fill: none; stroke: #000000; stroke-width: 2.000000; stroke-linejoin: round; stroke-linecap: butt; stroke-dasharray: 1.000000,3.000000; stroke-dashoffset: 0.000000; opacity: 1.000000" clip-path="url(#pccc95fea6a0ef8aebd1083906daeebf1)" d="M189.000000 777.600000L1360.800000 777.600000"/>
</g>
<g id="line2d20">
<defs><path id="ma363433763d55d4438846680f9262277" d="M0.000000 0.000000L15.000000 0.000000"/></defs>
<g ><use style="fill: none; stroke: #000000; stroke-width: 10.000000; stroke-linejoin: round; stroke-linecap: butt;  opacity: 1.000000" xlink:href="#ma363433763d55d4438846680f9262277" x="189.000000" y="777.600000"/>
</g></g>
<g id="line2d21">
<defs><path id="mfe71629ef845999a4b1c271008d0147f" d="M0.000000 0.000000L-15.000000 0.000000"/></defs>
<g ><use style="fill: none; stroke: #000000; stroke-width: 10.000000; stroke-linejoin: round; stroke-linecap: butt;  opacity: 1.000000" xlink:href="#mfe71629ef845999a4b1c271008d0147f" x="1360.800000" y="777.600000"/>
</g></g>
<g id="text6">
<g style="fill: #000000; opacity: 1.000000" transform="translate(12.718750,799.443750)scale(0.600000)">
<use xlink:href="#c_6a8d56c819c37117ab4cf023bec22a5a"/>
<use xlink:href="#c_7a2040fe3b94fcd41d0a72c84e93b115" x="83.789063"/>
<use xlink:href="#c_ed3e21196fb739f392806f09ca0594ef" x="147.412109"/>
<use xlink:href="#c_42baa63129a918535c52adb20d687ea7" x="179.199219"/>
<use xlink:href="#c_1260a2df50f305f3db244e29828f968e" x="242.822266"/>
</g>
</g>
</g>
<g id="ytick2">
<g id="line2d22">
<path style="fill: none; stroke: #000000; stroke-width: 2.000000; stroke-linejoin: round; stroke-linecap: butt; stroke-dasharray: 1.000000,3.000000; stroke-dashoffset: 0.000000; opacity: 1.000000" clip-path="url(#pccc95fea6a0ef8aebd1083906daeebf1)" d="M189.000000 662.400000L1360.800000 662.400000"/>
</g>
<g id="line2d23">
<g ><use style="fill: none; stroke: #000000; stroke-width: 10.000000; stroke-linejoin: round; stroke-linecap: butt;  opacity: 1.000000" xlink:href="#ma363433763d55d4438846680f9262277" x="189.000000" y="662.400000"/>
</g></g>
<g id="line2d24">
<g ><use style="fill: none; stroke: #000000; stroke-width: 10.000000; stroke-linejoin: round; stroke-linecap: butt;  opacity: 1.000000" xlink:href="#mfe71629ef845999a4b1c271008d0147f" x="1360.800000" y="662.400000"/>
</g></g>
<g id="text7">
<g style="fill: #000000; opacity: 1.000000" transform="translate(11.468750,684.243750)scale(0.600000)">
<use xlink:href="#c_6a8d56c819c37117ab4cf023bec22a5a"/>
<use xlink:href="#c_7a2040fe3b94fcd41d0a72c84e93b115" x="83.789063"/>
<use xlink:href="#c_ed3e21196fb739f392806f09ca0594ef" x="147.412109"/>
<use xlink:href="#c_42baa63129a918535c52adb20d687ea7" x="179.199219"/>
<use xlink:href="#c_7a2040fe3b94fcd41d0a72c84e93b115" x="242.822266"/>
</g>
</g>
</g>
<g id="ytick3">
<g id="line2d25">
<path style="fill: none; stroke: #000000; stroke-width: 2.000000; stroke-linejoin: round; stroke-linecap: butt; stroke-dasharray: 1.000000,3.000000; stroke-dashoffset: 0.000000; opacity: 1.000000" clip-path="url(#pccc95fea6a0ef8aebd1083906daeebf1)" d="M189.000000 547.200000L1360.800000 547.200000"/>
</g>
<g id="line2d26">
<g ><use style="fill: none; stroke: #000000; stroke-width: 10.000000; stroke-linejoin: round; stroke-linecap: butt;  opacity: 1.000000" xlink:href="#ma363433763d55d4438846680f9262277" x="189.000000" y="547.200000"/>
</g></g>
<g id="line2d27">
<g ><use style="fill: none; stroke: #000000; stroke-width: 10.000000; stroke-linejoin: round; stroke-linecap: butt;  opacity: 1.000000" xlink:href="#mfe71629ef845999a4b1c271008d0147f" x="1360.800000" y="547.200000"/>
</g></g>
<g id="text8">
<g style="fill: #000000; opacity: 1.000000" transform="translate(12.718750,569.043750)scale(0.600000)">
<use xlink:href="#c_6a8d56c819c37117ab4cf023bec22a5a"/>
<use xlink:href="#c_7a2040fe3b94fcd41d0a72c84e93b115" x="83.789063"/>
<use xlink:href="#c_ed3e21196fb739f392806f09ca0594ef" x="147.412109"/>
<use xlink:href="#c_7a2040fe3b94fcd41d0a72c84e93b115" x="179.199219"/>
<use xlink:href="#c_1260a2df50f305f3db244e29828f968e" x="242.822266"/>
</g>
</g>
</g>
<g id="ytick4">
<g id="line2d28">
<path style="fill: none; stroke: #000000; stroke-width: 2.000000; stroke-linejoin: round; stroke-linecap: butt; stroke-dasharray: 1.000000,3.000000; stroke-dashoffset: 0.000000; opacity: 1.000000" clip-path="url(#pccc95fea6a0ef8aebd1083906daeebf1)" d="M189.000000 432.000000L1360.800000 432.000000"/>
</g>
<g id="line2d29">
<g ><use style="fill: none; stroke: #000000; stroke-width: 10.000000; stroke-linejoin: round; stroke-linecap: butt;  opacity: 1.000000" xlink:href="#ma363433763d55d4438846680f9262277" x="189.000000" y="432.000000"/>
</g></g>
<g id="line2d30">
<g ><use style="fill: none; stroke: #000000; stroke-width: 10.000000; stroke-linejoin: round; stroke-linecap: butt;  opacity: 1.000000" xlink:href="#mfe71629ef845999a4b1c271008d0147f" x="1360.800000" y="432.000000"/>
</g></g>
<g id="text9">
<g style="fill: #000000; opacity: 1.000000" transform="translate(59.343750,453.843750)scale(0.600000)">
<use xlink:href="#c_7a2040fe3b94fcd41d0a72c84e93b115"/>
<use xlink:href="#c_ed3e21196fb739f392806f09ca0594ef" x="63.623047"/>
<use xlink:href="#c_7a2040fe3b94fcd41d0a72c84e93b115" x="95.410156"/>
<use xlink:href="#c_7a2040fe3b94fcd41d0a72c84e93b115" x="159.033203"/>
</g>
</g>
</g>
<g id="ytick5">
<g id="line2d31">
<path style="fill: none; stroke: #000000; stroke-width: 2.000000; stroke-linejoin: round; stroke-linecap: butt; stroke-dasharray: 1.000000,3.000000; stroke-dashoffset: 0.000000; opacity: 1.000000" clip-path="url(#pccc95fea6a0ef8aebd1083906daeebf1)" d="M189.000000 316.800000L1360.800000 316.800000"/>
</g>
<g id="line2d32">
<g ><use style="fill: none; stroke: #000000; stroke-width: 10.000000; stroke-linejoin: round; stroke-linecap: butt;  opacity: 1.000000" xlink:href="#ma363433763d55d4438846680f9262277" x="189.000000" y="316.800000"/>
</g></g>
<g id="line2d33">
<g ><use style="fill: none; stroke: #000000; stroke-width: 10.000000; stroke-linejoin: round; stroke-linecap: butt;  opacity: 1.000000" xlink:href="#mfe71629ef845999a4b1c271008d0147f" x="1360.800000" y="316.800000"/>
</g></g>
<g id="text10">
<g style="fill: #000000; opacity: 1.000000" transform="translate(60.593750,338.643750)scale(0.600000)">
<use xlink:href="#c_7a2040fe3b94fcd41d0a72c84e93b115"/>
<use xlink:href="#c_ed3e21196fb739f392806f09ca0594ef" x="63.623047"/>
<use xlink:href="#c_7a2040fe3b94fcd41d0a72c84e93b115" x="95.410156"/>
<use xlink:href="#c_1260a2df50f305f3db244e29828f968e" x="159.033203"/>
</g>
</g>
</g>
<g id="ytick6">
<g id="line2d34">
<path style="fill: none; stroke: #000000; stroke-width: 2.000000; stroke-linejoin: round; stroke-linecap: butt; stroke-dasharray: 1.000000,3.000000; stroke-dashoffset: 0.000000; opacity: 1.000000" clip-path="url(#pccc95fea6a0ef8aebd1083906daeebf1)" d="M189.000000 201.600000L1360.800000 201.600000"/>
</g>
<g id="line2d35">
<g ><use style="fill: none; stroke: #000000; stroke-width: 10.000000; stroke-linejoin: round; stroke-linecap: butt;  opacity: 1.000000" xlink:href="#ma363433763d55d4438846680f9262277" x="189.000000" y="201.600000"/>
</g></g>
<g id="line2d36">
<g ><use style="fill: none; stroke: #000000; stroke-width: 10.000000; stroke-linejoin: round; stroke-linecap: butt;  opacity: 1.000000" xlink:href="#mfe71629ef845999a4b1c271008d0147f" x="1360.800000" y="201.600000"/>
</g></g>
<g id="text11">
<g style="fill: #000000; opacity: 1.000000" transform="translate(59.343750,223.443750)scale(0.600000)">
<use xlink:href="#c_7a2040fe3b94fcd41d0a72c84e93b115"/>
<use xlink:href="#c_ed3e21196fb739f392806f09ca0594ef" x="63.623047"/>
<use xlink:href="#c_42baa63129a918535c52adb20d687ea7" x="95.410156"/>
<use xlink:href="#c_7a2040fe3b94fcd41d0a72c84e93b115" x="159.033203"/>
</g>
</g>
</g>
<g id="ytick7">
<g id="line2d37">
<path style="fill: none; stroke: #000000; stroke-width: 2.000000; stroke-linejoin: round; stroke-linecap: butt; stroke-dasharray: 1.000000,3.000000; stroke-dashoffset: 0.000000; opacity: 1.000000" clip-path="url(#pccc95fea6a0ef8aebd1083906daeebf1)" d="M189.000000 86.400000L1360.800000 86.400000"/>
</g>
<g id="line2d38">
<g ><use style="fill: none; stroke: #000000; stroke-width: 10.000000; stroke-linejoin: round; stroke-linecap: butt;  opacity: 1.000000" xlink:href="#ma363433763d55d4438846680f9262277" x="189.000000" y="86.400000"/>
</g></g>
<g id="line2d39">
<g ><use style="fill: none; stroke: #000000; stroke-width: 10.000000; stroke-linejoin: round; stroke-linecap: butt;  opacity: 1.000000" xlink:href="#mfe71629ef845999a4b1c271008d0147f" x="1360.800000" y="86.400000"/>
</g></g>
<g id="text12">
<g style="fill: #000000; opacity: 1.000000" transform="translate(60.593750,108.243750)scale(0.600000)">
<use xlink:href="#c_7a2040fe3b94fcd41d0a72c84e93b115"/>
<use xlink:href="#c_ed3e21196fb739f392806f09ca0594ef" x="63.623047"/>
<use xlink:href="#c_42baa63129a918535c52adb20d687ea7" x="95.410156"/>
<use xlink:href="#c_1260a2df50f305f3db244e29828f968e" x="159.033203"/>
</g>
</g>
</g>
</g>
<g id="patch3">
<path style="fill: none; stroke: #000000; stroke-width: 1.000000; stroke-linejoin: round; stroke-linecap: square;  opacity: 1.000000"  d="M189.000000 86.400000L1360.800000 86.400000"/>
</g>
<g id="patch4">
<path style="fill: none; stroke: #000000; stroke-width: 1.000000; stroke-linejoin: round; stroke-linecap: square;  opacity: 1.000000"  d="M1360.800000 777.600000L1360.800000 86.400000"/>
</g>
<g id="patch5">
<path style="fill: none; stroke: #000000; stroke-width: 1.000000; stroke-linejoin: round; stroke-linecap: square;  opacity: 1.000000"  d="M189.000000 777.600000L1360.800000 777.600000"/>
</g>
<g id="patch6">
<path style="fill: none; stroke: #000000; stroke-width: 1.000000; stroke-linejoin: round; stroke-linecap: square;  opacity: 1.000000"  d="M189.000000 777.600000L189.000000 86.400000"/>
</g>
</g>
</g>
</svg>
