<?xml version="1.0" encoding="UTF-8" standalone="no"?>
<!-- Created with Inkscape (http://www.inkscape.org/) -->

<svg
   xmlns:ns1="http://www.iki.fi/pav/software/textext/"
   xmlns:dc="http://purl.org/dc/elements/1.1/"
   xmlns:cc="http://creativecommons.org/ns#"
   xmlns:rdf="http://www.w3.org/1999/02/22-rdf-syntax-ns#"
   xmlns:svg="http://www.w3.org/2000/svg"
   xmlns="http://www.w3.org/2000/svg"
   xmlns:sodipodi="http://sodipodi.sourceforge.net/DTD/sodipodi-0.dtd"
   xmlns:inkscape="http://www.inkscape.org/namespaces/inkscape"
   width="88mm"
   height="100mm"
   viewBox="0 0 88 100"
   version="1.1"
   id="svg8"
   inkscape:version="0.92.3 (2405546, 2018-03-11)"
   sodipodi:docname="legendre.svg">
  <sodipodi:namedview
     id="base"
     pagecolor="#ffffff"
     bordercolor="#666666"
     borderopacity="1.0"
     inkscape:pageopacity="0.0"
     inkscape:pageshadow="2"
     inkscape:zoom="1.2979167"
     inkscape:cx="273.19422"
     inkscape:cy="137.69173"
     inkscape:document-units="mm"
     inkscape:current-layer="layer1"
     showgrid="false"
     inkscape:window-width="1875"
     inkscape:window-height="1139"
     inkscape:window-x="45"
     inkscape:window-y="26"
     inkscape:window-maximized="1" />
  <defs
     id="defs2">
    <marker
       inkscape:stockid="Arrow2Mend"
       orient="auto"
       refY="0.0"
       refX="0.0"
       id="marker2483"
       style="overflow:visible;"
       inkscape:isstock="true">
      <path
         id="path2481"
         style="fill-rule:evenodd;stroke-width:0.625;stroke-linejoin:round;stroke:#000000;stroke-opacity:1;fill:#000000;fill-opacity:1"
         d="M 8.7185878,4.0337352 L -2.2072895,0.016013256 L 8.7185884,-4.0017078 C 6.9730900,-1.6296469 6.9831476,1.6157441 8.7185878,4.0337352 z "
         transform="scale(0.6) rotate(180) translate(0,0)" />
    </marker>
    <marker
       inkscape:stockid="Arrow2Mend"
       orient="auto"
       refY="0.0"
       refX="0.0"
       id="marker2459"
       style="overflow:visible;"
       inkscape:isstock="true">
      <path
         id="path2457"
         style="fill-rule:evenodd;stroke-width:0.625;stroke-linejoin:round;stroke:#000000;stroke-opacity:1;fill:#000000;fill-opacity:1"
         d="M 8.7185878,4.0337352 L -2.2072895,0.016013256 L 8.7185884,-4.0017078 C 6.9730900,-1.6296469 6.9831476,1.6157441 8.7185878,4.0337352 z "
         transform="scale(0.6) rotate(180) translate(0,0)" />
    </marker>
    <marker
       inkscape:isstock="true"
       style="overflow:visible;"
       id="Arrow2Mend"
       refX="0.0"
       refY="0.0"
       orient="auto"
       inkscape:stockid="Arrow2Mend">
      <path
         transform="scale(0.6) rotate(180) translate(0,0)"
         d="M 8.7185878,4.0337352 L -2.2072895,0.016013256 L 8.7185884,-4.0017078 C 6.9730900,-1.6296469 6.9831476,1.6157441 8.7185878,4.0337352 z "
         style="fill-rule:evenodd;stroke-width:0.625;stroke-linejoin:round;stroke:#000000;stroke-opacity:1;fill:#000000;fill-opacity:1"
         id="path1202" />
    </marker>
    <marker
       inkscape:isstock="true"
       style="overflow:visible"
       id="Arrow2Mend-0"
       refX="0"
       refY="0"
       orient="auto"
       inkscape:stockid="Arrow2Mend">
      <path
         transform="scale(-0.6)"
         d="M 8.7185878,4.0337352 -2.2072895,0.01601326 8.7185884,-4.0017078 c -1.7454984,2.3720609 -1.7354408,5.6174519 -6e-7,8.035443 z"
         style="fill:#000000;fill-opacity:1;fill-rule:evenodd;stroke:#000000;stroke-width:0.625;stroke-linejoin:round;stroke-opacity:1"
         id="path1202-2"
         inkscape:connector-curvature="0" />
    </marker>
  </defs>
  <metadata
     id="metadata5">
    <rdf:RDF>
      <cc:Work
         rdf:about="">
        <dc:format>image/svg+xml</dc:format>
        <dc:type
           rdf:resource="http://purl.org/dc/dcmitype/StillImage" />
        <dc:title></dc:title>
      </cc:Work>
    </rdf:RDF>
  </metadata>
  <g
     id="layer1"
     inkscape:groupmode="layer"
     inkscape:label="Layer 1"
     transform="translate(0,-197)">
    <ellipse
       ry="13.148476"
       rx="13.963882"
       cy="271.62952"
       cx="22.089951"
       id="path815"
       style="fill:none;fill-opacity:0.6;stroke:#000000;stroke-width:1.05833328;stroke-linecap:round;stroke-miterlimit:4;stroke-dasharray:none;stroke-dashoffset:0;stroke-opacity:1" />
    <path
       inkscape:connector-curvature="0"
       id="path817"
       d="M 53.891484,246.19483 H 79.746931"
       style="fill:none;stroke:#000000;stroke-width:0.79375005;stroke-linecap:round;stroke-linejoin:miter;stroke-miterlimit:4;stroke-dasharray:none;stroke-opacity:1" />
    <g
       id="g829"
       ns1:jacobian_sqrt="0.507691"
       ns1:alignment="middle center"
       ns1:scale="1.43912268214"
       ns1:preamble="/usr/local/google/home/danielsank/.config/inkscape/extensions/default_packages.tex"
       ns1:text="$\\mathbb{R}$"
       ns1:pdfconverter="pdf2svg"
       ns1:texconverter="pdflatex"
       ns1:version="0.8.1"
       transform="matrix(0.507691,0,0,0.507691,1.9149786,182.79125)">
      <g
         id="surface1">
        <g
           id="g826"
           style="fill:#000000;fill-opacity:1">
          <path
             id="path824"
             transform="translate(148.712,134.765)"
             d="M 2.671875,-3.125 H 3.03125 l 1.5,2.3125 C 4.625,-0.65625 4.859375,-0.265625 4.96875,-0.125 5.046875,0 5.078125,0 5.296875,0 h 1.375 c 0.1875,0 0.34375,0 0.34375,-0.171875 0,-0.09375 -0.0625,-0.15625 -0.15625,-0.171875 C 6.484375,-0.421875 6,-1.09375 5.765625,-1.40625 5.6875,-1.5 5.1875,-2.15625 4.53125,-3.234375 5.40625,-3.40625 6.265625,-3.78125 6.265625,-4.96875 6.265625,-6.34375 4.8125,-6.828125 3.625,-6.828125 H 0.5 c -0.1875,0 -0.34375,0 -0.34375,0.171875 0,0.171875 0.1875,0.171875 0.265625,0.171875 0.578125,0 0.625,0.078125 0.625,0.578125 v 4.984375 c 0,0.5 -0.046875,0.578125 -0.625,0.578125 -0.078125,0 -0.265625,0 -0.265625,0.171875 C 0.15625,0 0.3125,0 0.5,0 H 3.234375 C 3.40625,0 3.5625,0 3.5625,-0.171875 c 0,-0.171875 -0.171875,-0.171875 -0.28125,-0.171875 -0.5625,0 -0.609375,-0.078125 -0.609375,-0.578125 z m 1.921875,-0.5 c 0.28125,-0.359375 0.3125,-0.890625 0.3125,-1.328125 0,-0.484375 -0.0625,-1.015625 -0.375,-1.421875 0.40625,0.09375 1.390625,0.40625 1.390625,1.40625 0,0.65625 -0.296875,1.15625 -1.328125,1.34375 z M 2.671875,-5.9375 c 0,-0.21875 0,-0.546875 0.625,-0.546875 0.84375,0 1.265625,0.359375 1.265625,1.53125 0,1.28125 -0.3125,1.46875 -1.890625,1.46875 z M 1.3125,-0.34375 C 1.390625,-0.53125 1.390625,-0.8125 1.390625,-0.890625 V -5.9375 c 0,-0.09375 0,-0.359375 -0.078125,-0.546875 h 1.140625 c -0.125,0.171875 -0.125,0.359375 -0.125,0.515625 v 5.078125 c 0,0.09375 0,0.359375 0.078125,0.546875 z M 3.4375,-3.125 c 0.078125,-0.015625 0.109375,-0.03125 0.1875,-0.03125 0.15625,0 0.375,-0.015625 0.515625,-0.03125 0.15625,0.234375 1.234375,2.015625 2.0625,2.84375 h -0.96875 z m 0,0"
             style="stroke:none;stroke-width:0"
             inkscape:connector-curvature="0" />
        </g>
      </g>
    </g>
    <g
       transform="matrix(0.507691,0,0,0.507691,-58.184755,224.06772)"
       ns1:version="0.8.1"
       ns1:texconverter="pdflatex"
       ns1:pdfconverter="pdf2svg"
       ns1:text="$\\Phi, \\dot \\Phi$"
       ns1:preamble="/usr/local/google/home/danielsank/.config/inkscape/extensions/default_packages.tex"
       ns1:scale="1.43912265379"
       ns1:alignment="middle center"
       ns1:jacobian_sqrt="0.507691"
       id="g893">
      <g
         id="g891">
        <g
           style="fill:#000000;fill-opacity:1"
           id="g877">
          <path
             inkscape:connector-curvature="0"
             style="stroke:none;stroke-width:0"
             d="M 3.984375,-1.34375 C 5.515625,-1.46875 6.625,-2.390625 6.625,-3.40625 6.625,-4.4375 5.5,-5.34375 3.984375,-5.46875 v -0.546875 c 0,-0.34375 0,-0.484375 0.9375,-0.484375 H 5.25 v -0.3125 c -0.359375,0.03125 -1.265625,0.03125 -1.6875,0.03125 -0.40625,0 -1.328125,0 -1.6875,-0.03125 V -6.5 h 0.328125 c 0.953125,0 0.953125,0.125 0.953125,0.484375 V -5.46875 C 1.625,-5.3125 0.5625,-4.390625 0.5625,-3.40625 c 0,1.03125 1.109375,1.90625 2.59375,2.0625 v 0.5625 c 0,0.328125 0,0.46875 -0.953125,0.46875 H 1.875 V 0 c 0.359375,-0.03125 1.28125,-0.03125 1.6875,-0.03125 0.40625,0 1.328125,0 1.6875,0.03125 V -0.3125 H 4.921875 c -0.9375,0 -0.9375,-0.125 -0.9375,-0.46875 z M 3.15625,-1.578125 C 1.734375,-1.765625 1.5625,-2.78125 1.5625,-3.40625 c 0,-0.515625 0.09375,-1.625 1.59375,-1.828125 z M 3.984375,-5.25 c 1.375,0.171875 1.640625,1.078125 1.640625,1.84375 0,0.59375 -0.140625,1.65625 -1.640625,1.84375 z m 0,0"
             transform="translate(148.712,134.765)"
             id="path875" />
        </g>
        <g
           style="fill:#000000;fill-opacity:1"
           id="g881">
          <path
             inkscape:connector-curvature="0"
             style="stroke:none;stroke-width:0"
             d="m 2.03125,-0.015625 c 0,-0.65625 -0.25,-1.046875 -0.640625,-1.046875 -0.328125,0 -0.53125,0.25 -0.53125,0.53125 C 0.859375,-0.265625 1.0625,0 1.390625,0 1.5,0 1.640625,-0.046875 1.734375,-0.125 1.765625,-0.15625 1.78125,-0.15625 1.78125,-0.15625 c 0.015625,0 0.015625,0 0.015625,0.140625 0,0.75 -0.34375,1.34375 -0.671875,1.671875 -0.109375,0.109375 -0.109375,0.125 -0.109375,0.15625 0,0.078125 0.046875,0.109375 0.09375,0.109375 0.109375,0 0.921875,-0.765625 0.921875,-1.9375 z m 0,0"
             transform="translate(155.908,134.765)"
             id="path879" />
        </g>
        <g
           style="fill:#000000;fill-opacity:1"
           id="g885">
          <path
             inkscape:connector-curvature="0"
             style="stroke:none;stroke-width:0"
             d="m 1.90625,-6.140625 c 0,-0.265625 -0.21875,-0.53125 -0.515625,-0.53125 -0.34375,0 -0.546875,0.28125 -0.546875,0.53125 0,0.265625 0.234375,0.53125 0.53125,0.53125 0.34375,0 0.53125,-0.28125 0.53125,-0.53125 z m 0,0"
             transform="translate(162.549,132.246)"
             id="path883" />
        </g>
        <g
           style="fill:#000000;fill-opacity:1"
           id="g889">
          <path
             inkscape:connector-curvature="0"
             style="stroke:none;stroke-width:0"
             d="M 3.984375,-1.34375 C 5.515625,-1.46875 6.625,-2.390625 6.625,-3.40625 6.625,-4.4375 5.5,-5.34375 3.984375,-5.46875 v -0.546875 c 0,-0.34375 0,-0.484375 0.9375,-0.484375 H 5.25 v -0.3125 c -0.359375,0.03125 -1.265625,0.03125 -1.6875,0.03125 -0.40625,0 -1.328125,0 -1.6875,-0.03125 V -6.5 h 0.328125 c 0.953125,0 0.953125,0.125 0.953125,0.484375 V -5.46875 C 1.625,-5.3125 0.5625,-4.390625 0.5625,-3.40625 c 0,1.03125 1.109375,1.90625 2.59375,2.0625 v 0.5625 c 0,0.328125 0,0.46875 -0.953125,0.46875 H 1.875 V 0 c 0.359375,-0.03125 1.28125,-0.03125 1.6875,-0.03125 0.40625,0 1.328125,0 1.6875,0.03125 V -0.3125 H 4.921875 c -0.9375,0 -0.9375,-0.125 -0.9375,-0.46875 z M 3.15625,-1.578125 C 1.734375,-1.765625 1.5625,-2.78125 1.5625,-3.40625 c 0,-0.515625 0.09375,-1.625 1.59375,-1.828125 z M 3.984375,-5.25 c 1.375,0.171875 1.640625,1.078125 1.640625,1.84375 0,0.59375 -0.140625,1.65625 -1.640625,1.84375 z m 0,0"
             transform="translate(160.335,134.765)"
             id="path887" />
        </g>
      </g>
    </g>
    <g
       id="g1048"
       transform="translate(0.48160131,-1.2621857)">
      <ellipse
         style="fill:none;fill-opacity:0.6;stroke:#000000;stroke-width:1.05833328;stroke-linecap:round;stroke-miterlimit:4;stroke-dasharray:none;stroke-dashoffset:0;stroke-opacity:1"
         id="path815-3"
         cx="26.704655"
         cy="222.1862"
         rx="13.963882"
         ry="13.148476" />
      <g
         transform="matrix(0.507691,0,0,0.507691,-53.761541,137.12124)"
         ns1:version="0.8.1"
         ns1:texconverter="pdflatex"
         ns1:pdfconverter="pdf2svg"
         ns1:text="$\\Phi, Q$"
         ns1:preamble="/usr/local/google/home/danielsank/.config/inkscape/extensions/default_packages.tex"
         ns1:scale="1.43912262544"
         ns1:alignment="middle center"
         ns1:jacobian_sqrt="0.507691"
         id="g1007">
        <g
           id="g1005">
          <g
             style="fill:#000000;fill-opacity:1"
             id="g995">
            <path
               inkscape:connector-curvature="0"
               style="stroke:none;stroke-width:0"
               d="M 3.984375,-1.34375 C 5.515625,-1.46875 6.625,-2.390625 6.625,-3.40625 6.625,-4.4375 5.5,-5.34375 3.984375,-5.46875 v -0.546875 c 0,-0.34375 0,-0.484375 0.9375,-0.484375 H 5.25 v -0.3125 c -0.359375,0.03125 -1.265625,0.03125 -1.6875,0.03125 -0.40625,0 -1.328125,0 -1.6875,-0.03125 V -6.5 h 0.328125 c 0.953125,0 0.953125,0.125 0.953125,0.484375 V -5.46875 C 1.625,-5.3125 0.5625,-4.390625 0.5625,-3.40625 c 0,1.03125 1.109375,1.90625 2.59375,2.0625 v 0.5625 c 0,0.328125 0,0.46875 -0.953125,0.46875 H 1.875 V 0 c 0.359375,-0.03125 1.28125,-0.03125 1.6875,-0.03125 0.40625,0 1.328125,0 1.6875,0.03125 V -0.3125 H 4.921875 c -0.9375,0 -0.9375,-0.125 -0.9375,-0.46875 z M 3.15625,-1.578125 C 1.734375,-1.765625 1.5625,-2.78125 1.5625,-3.40625 c 0,-0.515625 0.09375,-1.625 1.59375,-1.828125 z M 3.984375,-5.25 c 1.375,0.171875 1.640625,1.078125 1.640625,1.84375 0,0.59375 -0.140625,1.65625 -1.640625,1.84375 z m 0,0"
               transform="translate(148.712,134.765)"
               id="path993" />
          </g>
          <g
             style="fill:#000000;fill-opacity:1"
             id="g999">
            <path
               inkscape:connector-curvature="0"
               style="stroke:none;stroke-width:0"
               d="m 2.03125,-0.015625 c 0,-0.65625 -0.25,-1.046875 -0.640625,-1.046875 -0.328125,0 -0.53125,0.25 -0.53125,0.53125 C 0.859375,-0.265625 1.0625,0 1.390625,0 1.5,0 1.640625,-0.046875 1.734375,-0.125 1.765625,-0.15625 1.78125,-0.15625 1.78125,-0.15625 c 0.015625,0 0.015625,0 0.015625,0.140625 0,0.75 -0.34375,1.34375 -0.671875,1.671875 -0.109375,0.109375 -0.109375,0.125 -0.109375,0.15625 0,0.078125 0.046875,0.109375 0.09375,0.109375 0.109375,0 0.921875,-0.765625 0.921875,-1.9375 z m 0,0"
               transform="translate(155.908,134.765)"
               id="path997" />
          </g>
          <g
             style="fill:#000000;fill-opacity:1"
             id="g1003">
            <path
               inkscape:connector-curvature="0"
               style="stroke:none;stroke-width:0"
               d="M 4.359375,-0.0625 C 5.90625,-0.640625 7.375,-2.421875 7.375,-4.34375 c 0,-1.609375 -1.0625,-2.6875 -2.546875,-2.6875 -2.140625,0 -4.34375,2.265625 -4.34375,4.59375 0,1.65625 1.125,2.65625 2.5625,2.65625 0.25,0 0.578125,-0.046875 0.96875,-0.15625 -0.03125,0.625 -0.03125,0.640625 -0.03125,0.78125 0,0.3125 0,1.09375 0.828125,1.09375 1.171875,0 1.65625,-1.828125 1.65625,-1.9375 0,-0.0625 -0.0625,-0.09375 -0.109375,-0.09375 -0.078125,0 -0.09375,0.046875 -0.125,0.109375 C 6,0.71875 5.421875,0.96875 5.078125,0.96875 c -0.46875,0 -0.609375,-0.265625 -0.71875,-1.03125 z m -1.875,-0.078125 c -0.78125,-0.3125 -1.125,-1.078125 -1.125,-1.984375 0,-0.6875 0.265625,-2.109375 1.015625,-3.171875 C 3.109375,-6.3125 4.046875,-6.78125 4.78125,-6.78125 5.765625,-6.78125 6.5,-6 6.5,-4.671875 c 0,1 -0.515625,3.34375 -2.1875,4.265625 -0.046875,-0.34375 -0.140625,-1.0625 -0.875,-1.0625 -0.53125,0 -1.015625,0.484375 -1.015625,1.015625 0,0.1875 0.0625,0.296875 0.0625,0.3125 z M 3.09375,-0.03125 c -0.140625,0 -0.453125,0 -0.453125,-0.421875 0,-0.40625 0.375,-0.796875 0.796875,-0.796875 0.421875,0 0.609375,0.234375 0.609375,0.84375 0,0.140625 -0.015625,0.15625 -0.109375,0.203125 C 3.671875,-0.09375 3.375,-0.03125 3.09375,-0.03125 Z m 0,0"
               transform="translate(160.33936,134.765)"
               id="path1001" />
          </g>
        </g>
      </g>
    </g>
    <g
       transform="matrix(0.507691,0,0,0.507691,-38.431157,185.82407)"
       ns1:version="0.8.1"
       ns1:texconverter="pdflatex"
       ns1:pdfconverter="pdf2svg"
       ns1:text="$\\mathcal{L}$"
       ns1:preamble="/usr/local/google/home/danielsank/.config/inkscape/extensions/default_packages.tex"
       ns1:scale="1.43912262544"
       ns1:alignment="middle center"
       ns1:jacobian_sqrt="0.507691"
       id="g1136">
      <g
         id="g1134">
        <g
           style="fill:#000000;fill-opacity:1"
           id="g1132">
          <path
             inkscape:connector-curvature="0"
             style="stroke:none;stroke-width:0"
             d="M 1.796875,-0.921875 C 2.328125,-1.765625 2.5,-2.40625 2.625,-2.9375 2.984375,-4.3125 3.359375,-5.5 3.984375,-6.1875 4.09375,-6.3125 4.171875,-6.40625 4.5,-6.40625 c 0.6875,0 0.703125,0.6875 0.703125,0.828125 0,0.171875 -0.046875,0.3125 -0.046875,0.359375 0,0.078125 0.0625,0.078125 0.0625,0.078125 0.171875,0 0.4375,-0.109375 0.6875,-0.296875 0.171875,-0.140625 0.265625,-0.234375 0.265625,-0.640625 0,-0.546875 -0.28125,-0.953125 -0.84375,-0.953125 -0.3125,0 -1.1875,0.078125 -2.171875,1.0625 -0.796875,0.828125 -1.265625,2.625 -1.453125,3.359375 -0.171875,0.703125 -0.25,1 -0.5625,1.609375 -0.0625,0.109375 -0.328125,0.546875 -0.46875,0.6875 C 0.40625,-0.0625 0.3125,0.109375 0.3125,0.15625 c 0,0.015625 0.015625,0.0625 0.09375,0.0625 0.03125,0 0.234375,-0.046875 0.5,-0.203125 0.171875,-0.109375 0.1875,-0.125 0.421875,-0.359375 0.5,0 0.84375,0.09375 1.46875,0.28125 0.515625,0.125 1.015625,0.28125 1.53125,0.28125 0.8125,0 1.625,-0.609375 1.9375,-1.046875 C 6.46875,-1.09375 6.53125,-1.34375 6.53125,-1.375 c 0,-0.078125 -0.0625,-0.078125 -0.078125,-0.078125 -0.15625,0 -0.390625,0.125 -0.5625,0.234375 C 5.625,-1.046875 5.609375,-0.984375 5.546875,-0.8125 5.5,-0.65625 5.4375,-0.578125 5.390625,-0.515625 5.3125,-0.40625 5.296875,-0.40625 5.15625,-0.40625 4.671875,-0.40625 4.171875,-0.546875 3.515625,-0.734375 3.234375,-0.8125 2.6875,-0.96875 2.1875,-0.96875 c -0.125,0 -0.265625,0.015625 -0.390625,0.046875 z m 0,0"
             transform="translate(148.712,134.765)"
             id="path1130" />
        </g>
      </g>
    </g>
    <path
       inkscape:connector-curvature="0"
       id="path1173"
       d="m 29.632487,274.53716 c 0,0 11.823435,5.09631 19.162119,-2.24237 7.338682,-7.33869 15.900479,-21.20064 15.900479,-21.20064"
       style="fill:none;stroke:#000000;stroke-width:0.5291667;stroke-linecap:butt;stroke-linejoin:miter;stroke-miterlimit:4;stroke-dasharray:none;stroke-opacity:1;marker-end:url(#Arrow2Mend)" />
    <path
       inkscape:connector-curvature="0"
       id="path1173-3"
       d="m 29.431181,218.95207 c 0,0 11.823435,-5.09631 19.162119,2.24237 7.338683,7.33869 15.90048,21.20064 15.90048,21.20064"
       style="fill:none;stroke:#000000;stroke-width:0.52916676;stroke-linecap:butt;stroke-linejoin:miter;stroke-miterlimit:4;stroke-dasharray:none;stroke-opacity:1;marker-end:url(#Arrow2Mend-0)" />
    <g
       id="g2363"
       ns1:jacobian_sqrt="0.507691"
       ns1:alignment="middle center"
       ns1:scale="1.43912259709"
       ns1:preamble="/usr/local/google/home/danielsank/.config/inkscape/extensions/default_packages.tex"
       ns1:text="$\\tilde{\\mathcal{H}} \\equiv \\frac{\\partial \\mathcal{L}}{\\partial \\dot \\Phi} \\dot \\Phi - \\mathcal{L}$"
       ns1:pdfconverter="pdf2svg"
       ns1:texconverter="pdflatex"
       ns1:version="0.8.1"
       transform="matrix(0.507691,0,0,0.507691,-23.96029,208.88883)">
      <g
         id="g2361">
        <g
           id="g2313"
           style="fill:#000000;fill-opacity:1">
          <path
             id="path2311"
             transform="translate(151.584,132.246)"
             d="M 4.140625,-6.515625 3.984375,-6.65625 c 0,0 -0.375,0.46875 -0.8125,0.46875 -0.234375,0 -0.484375,-0.140625 -0.65625,-0.25 C 2.25,-6.59375 2.078125,-6.65625 1.90625,-6.65625 c -0.375,0 -0.578125,0.21875 -1.078125,0.78125 l 0.15625,0.140625 c 0,0 0.375,-0.46875 0.8125,-0.46875 0.234375,0 0.484375,0.140625 0.65625,0.234375 0.265625,0.171875 0.453125,0.234375 0.625,0.234375 0.375,0 0.5625,-0.21875 1.0625,-0.78125 z m 0,0"
             style="stroke:none;stroke-width:0"
             inkscape:connector-curvature="0" />
        </g>
        <g
           id="g2317"
           style="fill:#000000;fill-opacity:1">
          <path
             id="path2315"
             transform="translate(148.712,134.765)"
             d="M 3.296875,-3.34375 C 3.421875,-3.8125 3.5625,-4.3125 3.65625,-4.796875 3.78125,-5.46875 3.84375,-6.125 3.84375,-6.25 c 0,-0.5625 -0.546875,-0.5625 -0.65625,-0.5625 -0.765625,0 -1.4375,0.28125 -1.90625,0.609375 C 0.46875,-5.65625 0.203125,-5 0.203125,-4.9375 c 0,0.0625 0.078125,0.0625 0.109375,0.0625 0.078125,0 0.546875,-0.125 0.75,-0.5 0.265625,-0.5 0.5625,-0.890625 1.453125,-0.890625 C 2.9375,-6.265625 3,-5.984375 3,-5.828125 3,-5.8125 2.96875,-5.34375 2.84375,-4.65625 2.796875,-4.375 2.765625,-4.203125 2.5625,-3.34375 H 2.203125 c -0.28125,0.015625 -0.734375,0.328125 -0.734375,0.484375 0,0.0625 0,0.0625 0.21875,0.0625 h 0.71875 c -0.203125,0.703125 -0.484375,1.65625 -0.9375,2.875 C 1.375,0.3125 1.375,0.328125 1.375,0.34375 c 0,0.0625 0.078125,0.0625 0.09375,0.0625 0.140625,0 0.453125,-0.125 0.65625,-0.328125 C 2.171875,0.015625 2.1875,0 2.234375,-0.09375 2.578125,-0.984375 2.875,-1.875 3.140625,-2.796875 h 2.25 c 0.109375,0 0.296875,0 0.453125,-0.09375 -0.109375,0.421875 -0.515625,2.046875 -0.515625,2.828125 0,0.296875 0.171875,0.546875 0.59375,0.546875 1.328125,0 2.0625,-0.828125 2.0625,-1.140625 0,-0.0625 -0.046875,-0.078125 -0.09375,-0.078125 -0.078125,0 -0.609375,0.140625 -0.765625,0.53125 C 7.09375,-0.125 7.078125,-0.125 6.890625,-0.09375 6.78125,-0.0625 6.59375,-0.0625 6.578125,-0.0625 c -0.171875,0 -0.40625,-0.109375 -0.40625,-0.421875 0,-0.125 0.0625,-0.671875 0.09375,-0.890625 C 6.4375,-2.484375 6.921875,-4.359375 7.78125,-6.625 7.8125,-6.703125 7.8125,-6.71875 7.8125,-6.734375 7.8125,-6.8125 7.75,-6.8125 7.71875,-6.8125 c -0.15625,0 -0.4375,0.140625 -0.625,0.3125 -0.015625,0.015625 -0.078125,0.0625 -0.109375,0.15625 -0.40625,0.984375 -0.71875,1.984375 -1.015625,3 z m 0,0"
             style="stroke:none;stroke-width:0"
             inkscape:connector-curvature="0" />
        </g>
        <g
           id="g2321"
           style="fill:#000000;fill-opacity:1">
          <path
             id="path2319"
             transform="translate(159.98468,134.765)"
             d="m 6.84375,-4.234375 c 0.171875,0 0.359375,0 0.359375,-0.1875 C 7.203125,-4.625 7.015625,-4.625 6.84375,-4.625 H 0.890625 c -0.15625,0 -0.34375,0 -0.34375,0.203125 0,0.1875 0.203125,0.1875 0.359375,0.1875 z m 0,3.875 c 0.171875,0 0.359375,0 0.359375,-0.203125 0,-0.1875 -0.1875,-0.1875 -0.359375,-0.1875 h -5.9375 c -0.15625,0 -0.359375,0 -0.359375,0.1875 0,0.203125 0.1875,0.203125 0.34375,0.203125 z m 0,-1.9375 c 0.171875,0 0.359375,0 0.359375,-0.203125 0,-0.1875 -0.1875,-0.1875 -0.359375,-0.1875 H 0.890625 c -0.15625,0 -0.34375,0 -0.34375,0.1875 0,0.203125 0.1875,0.203125 0.34375,0.203125 z m 0,0"
             style="stroke:none;stroke-width:0"
             inkscape:connector-curvature="0" />
        </g>
        <g
           id="g2325"
           style="fill:#000000;fill-opacity:1">
          <path
             id="path2323"
             transform="translate(171.784,130.842)"
             d="m 3.65625,-2.359375 c -0.09375,-0.40625 -0.40625,-0.8125 -1.0625,-0.8125 -0.984375,0 -1.78125,0.71875 -2.03125,1.359375 -0.046875,0.109375 -0.140625,0.390625 -0.140625,0.671875 0,0.484375 0.375,1.28125 1.453125,1.28125 1.8125,0 2.546875,-2.25 2.546875,-3.234375 0,-1.203125 -0.78125,-1.875 -1.71875,-1.875 C 1.5625,-4.96875 1.25,-4.0625 1.25,-3.859375 c 0,0.0625 0.046875,0.25 0.28125,0.25 0.25,0 0.390625,-0.203125 0.390625,-0.375 0,-0.1875 -0.140625,-0.25 -0.265625,-0.265625 C 2,-4.78125 2.578125,-4.78125 2.6875,-4.78125 c 0.53125,0 1.140625,0.328125 1.140625,1.328125 0,0.296875 -0.03125,0.546875 -0.15625,1.09375 z m -1.765625,2.28125 c -0.78125,0 -0.875,-0.59375 -0.875,-0.8125 0,-0.265625 0.1875,-0.953125 0.265625,-1.125 0.125,-0.328125 0.546875,-0.96875 1.34375,-0.96875 0.671875,0 0.890625,0.53125 0.890625,0.953125 0,0.46875 -0.453125,1.953125 -1.625,1.953125 z m 0,0"
             style="stroke:none;stroke-width:0"
             inkscape:connector-curvature="0" />
        </g>
        <g
           id="g2329"
           style="fill:#000000;fill-opacity:1">
          <path
             id="path2327"
             transform="translate(176.467,130.842)"
             d="M 1.484375,-0.6875 C 1.859375,-1.1875 2,-1.703125 2.0625,-2 2.25,-2.671875 2.578125,-3.796875 3.140625,-4.328125 3.234375,-4.421875 3.375,-4.4375 3.5,-4.4375 c 0.34375,0 0.5625,0.25 0.5625,0.59375 0,0.109375 -0.03125,0.1875 -0.03125,0.203125 0,0.046875 0.03125,0.0625 0.078125,0.0625 0.0625,0 0.25,-0.046875 0.4375,-0.1875 0.15625,-0.109375 0.234375,-0.1875 0.234375,-0.453125 0,-0.296875 -0.1875,-0.6875 -0.703125,-0.6875 -0.59375,0 -1.25,0.390625 -1.640625,0.84375 C 1.796875,-3.34375 1.515625,-2.296875 1.328125,-1.546875 1.125,-0.765625 0.71875,-0.328125 0.6875,-0.28125 0.625,-0.234375 0.359375,0 0.359375,0.09375 c 0,0.046875 0.0625,0.046875 0.078125,0.046875 0.046875,0 0.3125,-0.03125 0.65625,-0.390625 0.359375,0 0.640625,0.0625 1.234375,0.203125 0.390625,0.09375 0.78125,0.1875 1.1875,0.1875 0.46875,0 0.875,-0.234375 1.09375,-0.40625 0.5,-0.375 0.53125,-0.703125 0.53125,-0.71875 0,-0.03125 -0.015625,-0.0625 -0.078125,-0.0625 -0.09375,0 -0.546875,0.171875 -0.640625,0.4375 -0.09375,0.28125 -0.171875,0.28125 -0.34375,0.28125 -0.375,0 -0.890625,-0.125 -1.109375,-0.171875 C 2.5625,-0.609375 2.15625,-0.703125 1.75,-0.703125 c -0.078125,0 -0.171875,0 -0.265625,0.015625 z m 0,0"
             style="stroke:none;stroke-width:0"
             inkscape:connector-curvature="0" />
        </g>
        <path
           id="path2331"
           transform="matrix(1,0,0,-1,171.701,132.274)"
           d="M -0.00178125,5.625e-4 H 10.369313"
           style="fill:none;stroke:#000000;stroke-width:0.398;stroke-linecap:butt;stroke-linejoin:miter;stroke-miterlimit:10;stroke-opacity:1"
           inkscape:connector-curvature="0" />
        <g
           id="g2335"
           style="fill:#000000;fill-opacity:1">
          <path
             id="path2333"
             transform="translate(171.701,139.325)"
             d="m 3.65625,-2.359375 c -0.09375,-0.40625 -0.40625,-0.8125 -1.0625,-0.8125 -0.984375,0 -1.78125,0.71875 -2.03125,1.359375 -0.046875,0.109375 -0.140625,0.390625 -0.140625,0.671875 0,0.484375 0.375,1.28125 1.453125,1.28125 1.8125,0 2.546875,-2.25 2.546875,-3.234375 0,-1.203125 -0.78125,-1.875 -1.71875,-1.875 C 1.5625,-4.96875 1.25,-4.0625 1.25,-3.859375 c 0,0.0625 0.046875,0.25 0.28125,0.25 0.25,0 0.390625,-0.203125 0.390625,-0.375 0,-0.1875 -0.140625,-0.25 -0.265625,-0.265625 C 2,-4.78125 2.578125,-4.78125 2.6875,-4.78125 c 0.53125,0 1.140625,0.328125 1.140625,1.328125 0,0.296875 -0.03125,0.546875 -0.15625,1.09375 z m -1.765625,2.28125 c -0.78125,0 -0.875,-0.59375 -0.875,-0.8125 0,-0.265625 0.1875,-0.953125 0.265625,-1.125 0.125,-0.328125 0.546875,-0.96875 1.34375,-0.96875 0.671875,0 0.890625,0.53125 0.890625,0.953125 0,0.46875 -0.453125,1.953125 -1.625,1.953125 z m 0,0"
             style="stroke:none;stroke-width:0"
             inkscape:connector-curvature="0" />
        </g>
        <g
           id="g2339"
           style="fill:#000000;fill-opacity:1">
          <path
             id="path2337"
             transform="translate(178.1,137.562)"
             d="m 1.515625,-4.296875 c 0,-0.21875 -0.171875,-0.40625 -0.390625,-0.40625 -0.234375,0 -0.40625,0.203125 -0.40625,0.40625 0,0.21875 0.1875,0.40625 0.40625,0.40625 0.234375,0 0.390625,-0.203125 0.390625,-0.40625 z m 0,0"
             style="stroke:none;stroke-width:0"
             inkscape:connector-curvature="0" />
        </g>
        <g
           id="g2343"
           style="fill:#000000;fill-opacity:1">
          <path
             id="path2341"
             transform="translate(176.384,139.325)"
             d="m 3.125,-0.96875 c 1.140625,-0.078125 2.0625,-0.6875 2.0625,-1.40625 0,-0.75 -0.953125,-1.34375 -2.0625,-1.421875 V -4.1875 c 0,-0.234375 0,-0.328125 0.65625,-0.328125 h 0.234375 v -0.25 C 3.875,-4.75 3.078125,-4.734375 2.8125,-4.734375 c -0.40625,0 -1.140625,-0.015625 -1.203125,-0.03125 v 0.25 h 0.25 c 0.65625,0 0.65625,0.09375 0.65625,0.328125 v 0.40625 c -1.21875,0.09375 -2.03125,0.734375 -2.03125,1.390625 0,0.703125 0.84375,1.3125 2.03125,1.421875 v 0.390625 c 0,0.234375 0,0.328125 -0.65625,0.328125 h -0.25 V 0 C 1.765625,0 2.5625,-0.03125 2.8125,-0.03125 3.21875,-0.03125 3.953125,0 4.015625,0 V -0.25 H 3.78125 C 3.125,-0.25 3.125,-0.34375 3.125,-0.578125 Z M 2.515625,-1.171875 C 1.9375,-1.21875 1.203125,-1.484375 1.203125,-2.375 c 0,-0.921875 0.75,-1.15625 1.3125,-1.21875 z M 3.125,-3.59375 c 0.625,0.046875 1.34375,0.328125 1.34375,1.203125 0,0.921875 -0.765625,1.171875 -1.34375,1.21875 z m 0,0"
             style="stroke:none;stroke-width:0"
             inkscape:connector-curvature="0" />
        </g>
        <g
           id="g2347"
           style="fill:#000000;fill-opacity:1">
          <path
             id="path2345"
             transform="translate(185.481,132.246)"
             d="m 1.90625,-6.140625 c 0,-0.265625 -0.21875,-0.53125 -0.515625,-0.53125 -0.34375,0 -0.546875,0.28125 -0.546875,0.53125 0,0.265625 0.234375,0.53125 0.53125,0.53125 0.34375,0 0.53125,-0.28125 0.53125,-0.53125 z m 0,0"
             style="stroke:none;stroke-width:0"
             inkscape:connector-curvature="0" />
        </g>
        <g
           id="g2351"
           style="fill:#000000;fill-opacity:1">
          <path
             id="path2349"
             transform="translate(183.267,134.765)"
             d="M 3.984375,-1.34375 C 5.515625,-1.46875 6.625,-2.390625 6.625,-3.40625 6.625,-4.4375 5.5,-5.34375 3.984375,-5.46875 v -0.546875 c 0,-0.34375 0,-0.484375 0.9375,-0.484375 H 5.25 v -0.3125 c -0.359375,0.03125 -1.265625,0.03125 -1.6875,0.03125 -0.40625,0 -1.328125,0 -1.6875,-0.03125 V -6.5 h 0.328125 c 0.953125,0 0.953125,0.125 0.953125,0.484375 V -5.46875 C 1.625,-5.3125 0.5625,-4.390625 0.5625,-3.40625 c 0,1.03125 1.109375,1.90625 2.59375,2.0625 v 0.5625 c 0,0.328125 0,0.46875 -0.953125,0.46875 H 1.875 V 0 c 0.359375,-0.03125 1.28125,-0.03125 1.6875,-0.03125 0.40625,0 1.328125,0 1.6875,0.03125 V -0.3125 H 4.921875 c -0.9375,0 -0.9375,-0.125 -0.9375,-0.46875 z M 3.15625,-1.578125 C 1.734375,-1.765625 1.5625,-2.78125 1.5625,-3.40625 c 0,-0.515625 0.09375,-1.625 1.59375,-1.828125 z M 3.984375,-5.25 c 1.375,0.171875 1.640625,1.078125 1.640625,1.84375 0,0.59375 -0.140625,1.65625 -1.640625,1.84375 z m 0,0"
             style="stroke:none;stroke-width:0"
             inkscape:connector-curvature="0" />
        </g>
        <g
           id="g2355"
           style="fill:#000000;fill-opacity:1">
          <path
             id="path2353"
             transform="translate(192.676,134.765)"
             d="m 6.5625,-2.296875 c 0.171875,0 0.359375,0 0.359375,-0.203125 0,-0.1875 -0.1875,-0.1875 -0.359375,-0.1875 H 1.171875 c -0.171875,0 -0.34375,0 -0.34375,0.1875 0,0.203125 0.171875,0.203125 0.34375,0.203125 z m 0,0"
             style="stroke:none;stroke-width:0"
             inkscape:connector-curvature="0" />
        </g>
        <g
           id="g2359"
           style="fill:#000000;fill-opacity:1">
          <path
             id="path2357"
             transform="translate(202.63661,134.765)"
             d="M 1.796875,-0.921875 C 2.328125,-1.765625 2.5,-2.40625 2.625,-2.9375 2.984375,-4.3125 3.359375,-5.5 3.984375,-6.1875 4.09375,-6.3125 4.171875,-6.40625 4.5,-6.40625 c 0.6875,0 0.703125,0.6875 0.703125,0.828125 0,0.171875 -0.046875,0.3125 -0.046875,0.359375 0,0.078125 0.0625,0.078125 0.0625,0.078125 0.171875,0 0.4375,-0.109375 0.6875,-0.296875 0.171875,-0.140625 0.265625,-0.234375 0.265625,-0.640625 0,-0.546875 -0.28125,-0.953125 -0.84375,-0.953125 -0.3125,0 -1.1875,0.078125 -2.171875,1.0625 -0.796875,0.828125 -1.265625,2.625 -1.453125,3.359375 -0.171875,0.703125 -0.25,1 -0.5625,1.609375 -0.0625,0.109375 -0.328125,0.546875 -0.46875,0.6875 C 0.40625,-0.0625 0.3125,0.109375 0.3125,0.15625 c 0,0.015625 0.015625,0.0625 0.09375,0.0625 0.03125,0 0.234375,-0.046875 0.5,-0.203125 0.171875,-0.109375 0.1875,-0.125 0.421875,-0.359375 0.5,0 0.84375,0.09375 1.46875,0.28125 0.515625,0.125 1.015625,0.28125 1.53125,0.28125 0.8125,0 1.625,-0.609375 1.9375,-1.046875 C 6.46875,-1.09375 6.53125,-1.34375 6.53125,-1.375 c 0,-0.078125 -0.0625,-0.078125 -0.078125,-0.078125 -0.15625,0 -0.390625,0.125 -0.5625,0.234375 C 5.625,-1.046875 5.609375,-0.984375 5.546875,-0.8125 5.5,-0.65625 5.4375,-0.578125 5.390625,-0.515625 5.3125,-0.40625 5.296875,-0.40625 5.15625,-0.40625 4.671875,-0.40625 4.171875,-0.546875 3.515625,-0.734375 3.234375,-0.8125 2.6875,-0.96875 2.1875,-0.96875 c -0.125,0 -0.265625,0.015625 -0.390625,0.046875 z m 0,0"
             style="stroke:none;stroke-width:0"
             inkscape:connector-curvature="0" />
        </g>
      </g>
    </g>
    <path
       style="fill:none;stroke:#000000;stroke-width:0.5291667;stroke-linecap:butt;stroke-linejoin:miter;stroke-miterlimit:4;stroke-dasharray:none;stroke-opacity:1;marker-end:url(#marker2459)"
       d="m 28.409373,268.62545 c 0,0 -1.019262,-6.72713 6.930978,-10.39647 7.950242,-3.66934 18.754985,-7.75325 18.754985,-7.75325"
       id="path2455"
       inkscape:connector-curvature="0"
       sodipodi:nodetypes="csc" />
    <path
       style="fill:none;stroke:#000000;stroke-width:0.5291667;stroke-linecap:butt;stroke-linejoin:miter;stroke-miterlimit:4;stroke-dasharray:none;stroke-opacity:1;marker-end:url(#marker2483)"
       d="m 13.120447,267.40233 c 0,0 -8.3579468,-10.39646 -4.4847526,-18.95826 3.8731956,-8.5618 12.8426996,-20.38523 12.8426996,-20.38523"
       id="path2479"
       inkscape:connector-curvature="0" />
    <g
       transform="matrix(0.507691,0,0,0.507691,-63.761236,181.92701)"
       ns1:version="0.8.1"
       ns1:texconverter="pdflatex"
       ns1:pdfconverter="pdf2svg"
       ns1:text="$\\mathcal{T}$"
       ns1:preamble="/usr/local/google/home/danielsank/.config/inkscape/extensions/default_packages.tex"
       ns1:scale="1.43912259709"
       ns1:alignment="middle center"
       ns1:jacobian_sqrt="0.507691"
       id="g2617">
      <g
         id="g2615">
        <g
           style="fill:#000000;fill-opacity:1"
           id="g2613">
          <path
             inkscape:connector-curvature="0"
             style="stroke:none;stroke-width:0"
             d="M 4.84375,-6.1875 H 6.5 c 1.3125,0 1.8125,-0.765625 1.8125,-0.890625 0,-0.046875 -0.03125,-0.0625 -0.09375,-0.0625 -0.109375,0 -0.359375,0.09375 -0.609375,0.265625 C 7.53125,-6.8125 7.5,-6.8125 7.3125,-6.8125 H 2.953125 c -1.234375,0 -2.609375,1.078125 -2.609375,1.890625 0,0.0625 0,0.109375 0.078125,0.109375 0.234375,0 0.859375,-0.328125 0.890625,-0.5625 0,-0.171875 0.015625,-0.359375 0.21875,-0.609375 0.109375,-0.125 0.1875,-0.203125 0.625,-0.203125 h 1.984375 c -0.171875,0.109375 -0.21875,0.25 -0.234375,0.359375 L 2.765625,-1.3125 C 2.65625,-0.828125 2.4375,-0.203125 2.15625,0.453125 2.09375,0.5625 2.09375,0.59375 2.09375,0.609375 c 0,0.0625 0.046875,0.0625 0.09375,0.0625 0.1875,0 0.6875,-0.265625 0.828125,-0.46875 0.0625,-0.109375 0.5,-1.125 0.71875,-1.953125 z m 0,0"
             transform="translate(148.712,134.765)"
             id="path2611" />
        </g>
      </g>
    </g>
    <g
       id="g2811"
       ns1:jacobian_sqrt="0.507691"
       ns1:alignment="middle center"
       ns1:scale="1.43912259709"
       ns1:preamble="/usr/local/google/home/danielsank/.config/inkscape/extensions/default_packages.tex"
       ns1:text="$\\mathcal{H} \\equiv \\tilde{\\mathcal{H}} \\circ \\mathcal{T}^{-1}$"
       ns1:pdfconverter="pdf2svg"
       ns1:texconverter="pdflatex"
       ns1:version="0.8.1"
       transform="matrix(0.507691,0,0,0.507691,-29.451673,147.52873)">
      <g
         id="g2809">
        <g
           id="g2779"
           style="fill:#000000;fill-opacity:1">
          <path
             id="path2777"
             transform="translate(148.712,134.765)"
             d="M 3.296875,-3.34375 C 3.421875,-3.8125 3.5625,-4.3125 3.65625,-4.796875 3.78125,-5.46875 3.84375,-6.125 3.84375,-6.25 c 0,-0.5625 -0.546875,-0.5625 -0.65625,-0.5625 -0.765625,0 -1.4375,0.28125 -1.90625,0.609375 C 0.46875,-5.65625 0.203125,-5 0.203125,-4.9375 c 0,0.0625 0.078125,0.0625 0.109375,0.0625 0.078125,0 0.546875,-0.125 0.75,-0.5 0.265625,-0.5 0.5625,-0.890625 1.453125,-0.890625 C 2.9375,-6.265625 3,-5.984375 3,-5.828125 3,-5.8125 2.96875,-5.34375 2.84375,-4.65625 2.796875,-4.375 2.765625,-4.203125 2.5625,-3.34375 H 2.203125 c -0.28125,0.015625 -0.734375,0.328125 -0.734375,0.484375 0,0.0625 0,0.0625 0.21875,0.0625 h 0.71875 c -0.203125,0.703125 -0.484375,1.65625 -0.9375,2.875 C 1.375,0.3125 1.375,0.328125 1.375,0.34375 c 0,0.0625 0.078125,0.0625 0.09375,0.0625 0.140625,0 0.453125,-0.125 0.65625,-0.328125 C 2.171875,0.015625 2.1875,0 2.234375,-0.09375 2.578125,-0.984375 2.875,-1.875 3.140625,-2.796875 h 2.25 c 0.109375,0 0.296875,0 0.453125,-0.09375 -0.109375,0.421875 -0.515625,2.046875 -0.515625,2.828125 0,0.296875 0.171875,0.546875 0.59375,0.546875 1.328125,0 2.0625,-0.828125 2.0625,-1.140625 0,-0.0625 -0.046875,-0.078125 -0.09375,-0.078125 -0.078125,0 -0.609375,0.140625 -0.765625,0.53125 C 7.09375,-0.125 7.078125,-0.125 6.890625,-0.09375 6.78125,-0.0625 6.59375,-0.0625 6.578125,-0.0625 c -0.171875,0 -0.40625,-0.109375 -0.40625,-0.421875 0,-0.125 0.0625,-0.671875 0.09375,-0.890625 C 6.4375,-2.484375 6.921875,-4.359375 7.78125,-6.625 7.8125,-6.703125 7.8125,-6.71875 7.8125,-6.734375 7.8125,-6.8125 7.75,-6.8125 7.71875,-6.8125 c -0.15625,0 -0.4375,0.140625 -0.625,0.3125 -0.015625,0.015625 -0.078125,0.0625 -0.109375,0.15625 -0.40625,0.984375 -0.71875,1.984375 -1.015625,3 z m 0,0"
             style="stroke:none;stroke-width:0"
             inkscape:connector-curvature="0" />
        </g>
        <g
           id="g2783"
           style="fill:#000000;fill-opacity:1">
          <path
             id="path2781"
             transform="translate(159.98468,134.765)"
             d="m 6.84375,-4.234375 c 0.171875,0 0.359375,0 0.359375,-0.1875 C 7.203125,-4.625 7.015625,-4.625 6.84375,-4.625 H 0.890625 c -0.15625,0 -0.34375,0 -0.34375,0.203125 0,0.1875 0.203125,0.1875 0.359375,0.1875 z m 0,3.875 c 0.171875,0 0.359375,0 0.359375,-0.203125 0,-0.1875 -0.1875,-0.1875 -0.359375,-0.1875 h -5.9375 c -0.15625,0 -0.359375,0 -0.359375,0.1875 0,0.203125 0.1875,0.203125 0.34375,0.203125 z m 0,-1.9375 c 0.171875,0 0.359375,0 0.359375,-0.203125 0,-0.1875 -0.1875,-0.1875 -0.359375,-0.1875 H 0.890625 c -0.15625,0 -0.34375,0 -0.34375,0.1875 0,0.203125 0.1875,0.203125 0.34375,0.203125 z m 0,0"
             style="stroke:none;stroke-width:0"
             inkscape:connector-curvature="0" />
        </g>
        <g
           id="g2787"
           style="fill:#000000;fill-opacity:1">
          <path
             id="path2785"
             transform="translate(173.377,132.246)"
             d="M 4.140625,-6.515625 3.984375,-6.65625 c 0,0 -0.375,0.46875 -0.8125,0.46875 -0.234375,0 -0.484375,-0.140625 -0.65625,-0.25 C 2.25,-6.59375 2.078125,-6.65625 1.90625,-6.65625 c -0.375,0 -0.578125,0.21875 -1.078125,0.78125 l 0.15625,0.140625 c 0,0 0.375,-0.46875 0.8125,-0.46875 0.234375,0 0.484375,0.140625 0.65625,0.234375 0.265625,0.171875 0.453125,0.234375 0.625,0.234375 0.375,0 0.5625,-0.21875 1.0625,-0.78125 z m 0,0"
             style="stroke:none;stroke-width:0"
             inkscape:connector-curvature="0" />
        </g>
        <g
           id="g2791"
           style="fill:#000000;fill-opacity:1">
          <path
             id="path2789"
             transform="translate(170.506,134.765)"
             d="M 3.296875,-3.34375 C 3.421875,-3.8125 3.5625,-4.3125 3.65625,-4.796875 3.78125,-5.46875 3.84375,-6.125 3.84375,-6.25 c 0,-0.5625 -0.546875,-0.5625 -0.65625,-0.5625 -0.765625,0 -1.4375,0.28125 -1.90625,0.609375 C 0.46875,-5.65625 0.203125,-5 0.203125,-4.9375 c 0,0.0625 0.078125,0.0625 0.109375,0.0625 0.078125,0 0.546875,-0.125 0.75,-0.5 0.265625,-0.5 0.5625,-0.890625 1.453125,-0.890625 C 2.9375,-6.265625 3,-5.984375 3,-5.828125 3,-5.8125 2.96875,-5.34375 2.84375,-4.65625 2.796875,-4.375 2.765625,-4.203125 2.5625,-3.34375 H 2.203125 c -0.28125,0.015625 -0.734375,0.328125 -0.734375,0.484375 0,0.0625 0,0.0625 0.21875,0.0625 h 0.71875 c -0.203125,0.703125 -0.484375,1.65625 -0.9375,2.875 C 1.375,0.3125 1.375,0.328125 1.375,0.34375 c 0,0.0625 0.078125,0.0625 0.09375,0.0625 0.140625,0 0.453125,-0.125 0.65625,-0.328125 C 2.171875,0.015625 2.1875,0 2.234375,-0.09375 2.578125,-0.984375 2.875,-1.875 3.140625,-2.796875 h 2.25 c 0.109375,0 0.296875,0 0.453125,-0.09375 -0.109375,0.421875 -0.515625,2.046875 -0.515625,2.828125 0,0.296875 0.171875,0.546875 0.59375,0.546875 1.328125,0 2.0625,-0.828125 2.0625,-1.140625 0,-0.0625 -0.046875,-0.078125 -0.09375,-0.078125 -0.078125,0 -0.609375,0.140625 -0.765625,0.53125 C 7.09375,-0.125 7.078125,-0.125 6.890625,-0.09375 6.78125,-0.0625 6.59375,-0.0625 6.578125,-0.0625 c -0.171875,0 -0.40625,-0.109375 -0.40625,-0.421875 0,-0.125 0.0625,-0.671875 0.09375,-0.890625 C 6.4375,-2.484375 6.921875,-4.359375 7.78125,-6.625 7.8125,-6.703125 7.8125,-6.71875 7.8125,-6.734375 7.8125,-6.8125 7.75,-6.8125 7.71875,-6.8125 c -0.15625,0 -0.4375,0.140625 -0.625,0.3125 -0.015625,0.015625 -0.078125,0.0625 -0.109375,0.15625 -0.40625,0.984375 -0.71875,1.984375 -1.015625,3 z m 0,0"
             style="stroke:none;stroke-width:0"
             inkscape:connector-curvature="0" />
        </g>
        <g
           id="g2795"
           style="fill:#000000;fill-opacity:1">
          <path
             id="path2793"
             transform="translate(181.23074,134.765)"
             d="m 4.421875,-2.5 c 0,-1.0625 -0.890625,-1.921875 -1.921875,-1.921875 -1.078125,0 -1.953125,0.890625 -1.953125,1.921875 0,1.0625 0.875,1.9375 1.953125,1.9375 1.03125,0 1.921875,-0.859375 1.921875,-1.9375 z M 2.5,-0.953125 c -0.875,0 -1.546875,-0.703125 -1.546875,-1.546875 0,-0.828125 0.6875,-1.53125 1.546875,-1.53125 0.8125,0 1.53125,0.6875 1.53125,1.53125 0,0.859375 -0.71875,1.546875 -1.53125,1.546875 z m 0,0"
             style="stroke:none;stroke-width:0"
             inkscape:connector-curvature="0" />
        </g>
        <g
           id="g2799"
           style="fill:#000000;fill-opacity:1">
          <path
             id="path2797"
             transform="translate(188.42374,134.765)"
             d="M 4.84375,-6.1875 H 6.5 c 1.3125,0 1.8125,-0.765625 1.8125,-0.890625 0,-0.046875 -0.03125,-0.0625 -0.09375,-0.0625 -0.109375,0 -0.359375,0.09375 -0.609375,0.265625 C 7.53125,-6.8125 7.5,-6.8125 7.3125,-6.8125 H 2.953125 c -1.234375,0 -2.609375,1.078125 -2.609375,1.890625 0,0.0625 0,0.109375 0.078125,0.109375 0.234375,0 0.859375,-0.328125 0.890625,-0.5625 0,-0.171875 0.015625,-0.359375 0.21875,-0.609375 0.109375,-0.125 0.1875,-0.203125 0.625,-0.203125 h 1.984375 c -0.171875,0.109375 -0.21875,0.25 -0.234375,0.359375 L 2.765625,-1.3125 C 2.65625,-0.828125 2.4375,-0.203125 2.15625,0.453125 2.09375,0.5625 2.09375,0.59375 2.09375,0.609375 c 0,0.0625 0.046875,0.0625 0.09375,0.0625 0.1875,0 0.6875,-0.265625 0.828125,-0.46875 0.0625,-0.109375 0.5,-1.125 0.71875,-1.953125 z m 0,0"
             style="stroke:none;stroke-width:0"
             inkscape:connector-curvature="0" />
        </g>
        <g
           id="g2803"
           style="fill:#000000;fill-opacity:1">
          <path
             id="path2801"
             transform="translate(196.383,131.149)"
             d="m 5.1875,-1.578125 c 0.109375,0 0.28125,0 0.28125,-0.15625 0,-0.1875 -0.171875,-0.1875 -0.28125,-0.1875 H 1.03125 c -0.109375,0 -0.28125,0 -0.28125,0.171875 0,0.171875 0.15625,0.171875 0.28125,0.171875 z m 0,0"
             style="stroke:none;stroke-width:0"
             inkscape:connector-curvature="0" />
        </g>
        <g
           id="g2807"
           style="fill:#000000;fill-opacity:1">
          <path
             id="path2805"
             transform="translate(202.609,131.149)"
             d="m 2.328125,-4.4375 c 0,-0.1875 0,-0.1875 -0.203125,-0.1875 -0.453125,0.4375 -1.078125,0.4375 -1.359375,0.4375 v 0.25 c 0.15625,0 0.625,0 1,-0.1875 v 3.546875 c 0,0.234375 0,0.328125 -0.6875,0.328125 H 0.8125 V 0 c 0.125,0 0.984375,-0.03125 1.234375,-0.03125 0.21875,0 1.09375,0.03125 1.25,0.03125 V -0.25 H 3.03125 c -0.703125,0 -0.703125,-0.09375 -0.703125,-0.328125 z m 0,0"
             style="stroke:none;stroke-width:0"
             inkscape:connector-curvature="0" />
        </g>
      </g>
    </g>
  </g>
</svg>
