<?xml version="1.0" encoding="utf-8" standalone="no"?>
<!DOCTYPE svg PUBLIC "-//W3C//DTD SVG 1.1//EN"
  "http://www.w3.org/Graphics/SVG/1.1/DTD/svg11.dtd">
<!-- Created with matplotlib (http://matplotlib.org/) -->
<svg height="783.36pt" version="1.1" viewBox="0 0 957.6 783.36" width="957.6pt" xmlns="http://www.w3.org/2000/svg" xmlns:xlink="http://www.w3.org/1999/xlink">
 <defs>
  <style type="text/css">
*{stroke-linecap:butt;stroke-linejoin:round;}
  </style>
 </defs>
 <g id="figure_1">
  <g id="patch_1">
   <path d="M 0 783.36 
L 957.6 783.36 
L 957.6 0 
L 0 0 
z
" style="fill:#ffffff;"/>
  </g>
  <g id="axes_1">
   <g id="patch_2">
    <path d="M 119.7 697.1904 
L 861.84 697.1904 
L 861.84 94.0032 
L 119.7 94.0032 
z
" style="fill:#ffffff;"/>
   </g>
   <g id="matplotlib.axis_1">
    <g id="xtick_1">
     <g id="line2d_1">
      <path clip-path="url(#p3c3c14fd34)" d="M 220.900909 697.1904 
L 220.900909 94.0032 
" style="fill:none;stroke:#000000;stroke-linecap:square;stroke-width:2;"/>
     </g>
     <g id="line2d_2">
      <defs>
       <path d="M 0 0 
L 0 4 
" id="m7d02e5dc97" style="stroke:#000000;stroke-width:4;"/>
      </defs>
      <g>
       <use style="stroke:#000000;stroke-width:4;" x="220.900909" xlink:href="#m7d02e5dc97" y="697.1904"/>
      </g>
     </g>
     <g id="text_1">
      <!-- 9.6 -->
      <defs>
       <path d="M 10.984375 1.515625 
L 10.984375 10.5 
Q 14.703125 8.734375 18.5 7.8125 
Q 22.3125 6.890625 25.984375 6.890625 
Q 35.75 6.890625 40.890625 13.453125 
Q 46.046875 20.015625 46.78125 33.40625 
Q 43.953125 29.203125 39.59375 26.953125 
Q 35.25 24.703125 29.984375 24.703125 
Q 19.046875 24.703125 12.671875 31.3125 
Q 6.296875 37.9375 6.296875 49.421875 
Q 6.296875 60.640625 12.9375 67.421875 
Q 19.578125 74.21875 30.609375 74.21875 
Q 43.265625 74.21875 49.921875 64.515625 
Q 56.59375 54.828125 56.59375 36.375 
Q 56.59375 19.140625 48.40625 8.859375 
Q 40.234375 -1.421875 26.421875 -1.421875 
Q 22.703125 -1.421875 18.890625 -0.6875 
Q 15.09375 0.046875 10.984375 1.515625 
z
M 30.609375 32.421875 
Q 37.25 32.421875 41.125 36.953125 
Q 45.015625 41.5 45.015625 49.421875 
Q 45.015625 57.28125 41.125 61.84375 
Q 37.25 66.40625 30.609375 66.40625 
Q 23.96875 66.40625 20.09375 61.84375 
Q 16.21875 57.28125 16.21875 49.421875 
Q 16.21875 41.5 20.09375 36.953125 
Q 23.96875 32.421875 30.609375 32.421875 
z
" id="DejaVuSans-39"/>
       <path d="M 10.6875 12.40625 
L 21 12.40625 
L 21 0 
L 10.6875 0 
z
" id="DejaVuSans-2e"/>
       <path d="M 33.015625 40.375 
Q 26.375 40.375 22.484375 35.828125 
Q 18.609375 31.296875 18.609375 23.390625 
Q 18.609375 15.53125 22.484375 10.953125 
Q 26.375 6.390625 33.015625 6.390625 
Q 39.65625 6.390625 43.53125 10.953125 
Q 47.40625 15.53125 47.40625 23.390625 
Q 47.40625 31.296875 43.53125 35.828125 
Q 39.65625 40.375 33.015625 40.375 
z
M 52.59375 71.296875 
L 52.59375 62.3125 
Q 48.875 64.0625 45.09375 64.984375 
Q 41.3125 65.921875 37.59375 65.921875 
Q 27.828125 65.921875 22.671875 59.328125 
Q 17.53125 52.734375 16.796875 39.40625 
Q 19.671875 43.65625 24.015625 45.921875 
Q 28.375 48.1875 33.59375 48.1875 
Q 44.578125 48.1875 50.953125 41.515625 
Q 57.328125 34.859375 57.328125 23.390625 
Q 57.328125 12.15625 50.6875 5.359375 
Q 44.046875 -1.421875 33.015625 -1.421875 
Q 20.359375 -1.421875 13.671875 8.265625 
Q 6.984375 17.96875 6.984375 36.375 
Q 6.984375 53.65625 15.1875 63.9375 
Q 23.390625 74.21875 37.203125 74.21875 
Q 40.921875 74.21875 44.703125 73.484375 
Q 48.484375 72.75 52.59375 71.296875 
z
" id="DejaVuSans-36"/>
      </defs>
      <g transform="translate(195.455909 729.0054)scale(0.32 -0.32)">
       <use xlink:href="#DejaVuSans-39"/>
       <use x="63.623047" xlink:href="#DejaVuSans-2e"/>
       <use x="95.410156" xlink:href="#DejaVuSans-36"/>
      </g>
     </g>
    </g>
    <g id="xtick_2">
     <g id="line2d_3">
      <path clip-path="url(#p3c3c14fd34)" d="M 355.835455 697.1904 
L 355.835455 94.0032 
" style="fill:none;stroke:#000000;stroke-linecap:square;stroke-width:2;"/>
     </g>
     <g id="line2d_4">
      <g>
       <use style="stroke:#000000;stroke-width:4;" x="355.835455" xlink:href="#m7d02e5dc97" y="697.1904"/>
      </g>
     </g>
     <g id="text_2">
      <!-- 9.8 -->
      <defs>
       <path d="M 31.78125 34.625 
Q 24.75 34.625 20.71875 30.859375 
Q 16.703125 27.09375 16.703125 20.515625 
Q 16.703125 13.921875 20.71875 10.15625 
Q 24.75 6.390625 31.78125 6.390625 
Q 38.8125 6.390625 42.859375 10.171875 
Q 46.921875 13.96875 46.921875 20.515625 
Q 46.921875 27.09375 42.890625 30.859375 
Q 38.875 34.625 31.78125 34.625 
z
M 21.921875 38.8125 
Q 15.578125 40.375 12.03125 44.71875 
Q 8.5 49.078125 8.5 55.328125 
Q 8.5 64.0625 14.71875 69.140625 
Q 20.953125 74.21875 31.78125 74.21875 
Q 42.671875 74.21875 48.875 69.140625 
Q 55.078125 64.0625 55.078125 55.328125 
Q 55.078125 49.078125 51.53125 44.71875 
Q 48 40.375 41.703125 38.8125 
Q 48.828125 37.15625 52.796875 32.3125 
Q 56.78125 27.484375 56.78125 20.515625 
Q 56.78125 9.90625 50.3125 4.234375 
Q 43.84375 -1.421875 31.78125 -1.421875 
Q 19.734375 -1.421875 13.25 4.234375 
Q 6.78125 9.90625 6.78125 20.515625 
Q 6.78125 27.484375 10.78125 32.3125 
Q 14.796875 37.15625 21.921875 38.8125 
z
M 18.3125 54.390625 
Q 18.3125 48.734375 21.84375 45.5625 
Q 25.390625 42.390625 31.78125 42.390625 
Q 38.140625 42.390625 41.71875 45.5625 
Q 45.3125 48.734375 45.3125 54.390625 
Q 45.3125 60.0625 41.71875 63.234375 
Q 38.140625 66.40625 31.78125 66.40625 
Q 25.390625 66.40625 21.84375 63.234375 
Q 18.3125 60.0625 18.3125 54.390625 
z
" id="DejaVuSans-38"/>
      </defs>
      <g transform="translate(330.390455 729.0054)scale(0.32 -0.32)">
       <use xlink:href="#DejaVuSans-39"/>
       <use x="63.623047" xlink:href="#DejaVuSans-2e"/>
       <use x="95.410156" xlink:href="#DejaVuSans-38"/>
      </g>
     </g>
    </g>
    <g id="xtick_3">
     <g id="line2d_5">
      <path clip-path="url(#p3c3c14fd34)" d="M 490.77 697.1904 
L 490.77 94.0032 
" style="fill:none;stroke:#000000;stroke-linecap:square;stroke-width:2;"/>
     </g>
     <g id="line2d_6">
      <g>
       <use style="stroke:#000000;stroke-width:4;" x="490.77" xlink:href="#m7d02e5dc97" y="697.1904"/>
      </g>
     </g>
     <g id="text_3">
      <!-- 10.0 -->
      <defs>
       <path d="M 12.40625 8.296875 
L 28.515625 8.296875 
L 28.515625 63.921875 
L 10.984375 60.40625 
L 10.984375 69.390625 
L 28.421875 72.90625 
L 38.28125 72.90625 
L 38.28125 8.296875 
L 54.390625 8.296875 
L 54.390625 0 
L 12.40625 0 
z
" id="DejaVuSans-31"/>
       <path d="M 31.78125 66.40625 
Q 24.171875 66.40625 20.328125 58.90625 
Q 16.5 51.421875 16.5 36.375 
Q 16.5 21.390625 20.328125 13.890625 
Q 24.171875 6.390625 31.78125 6.390625 
Q 39.453125 6.390625 43.28125 13.890625 
Q 47.125 21.390625 47.125 36.375 
Q 47.125 51.421875 43.28125 58.90625 
Q 39.453125 66.40625 31.78125 66.40625 
z
M 31.78125 74.21875 
Q 44.046875 74.21875 50.515625 64.515625 
Q 56.984375 54.828125 56.984375 36.375 
Q 56.984375 17.96875 50.515625 8.265625 
Q 44.046875 -1.421875 31.78125 -1.421875 
Q 19.53125 -1.421875 13.0625 8.265625 
Q 6.59375 17.96875 6.59375 36.375 
Q 6.59375 54.828125 13.0625 64.515625 
Q 19.53125 74.21875 31.78125 74.21875 
z
" id="DejaVuSans-30"/>
      </defs>
      <g transform="translate(455.145 729.0054)scale(0.32 -0.32)">
       <use xlink:href="#DejaVuSans-31"/>
       <use x="63.623047" xlink:href="#DejaVuSans-30"/>
       <use x="127.246094" xlink:href="#DejaVuSans-2e"/>
       <use x="159.033203" xlink:href="#DejaVuSans-30"/>
      </g>
     </g>
    </g>
    <g id="xtick_4">
     <g id="line2d_7">
      <path clip-path="url(#p3c3c14fd34)" d="M 625.704545 697.1904 
L 625.704545 94.0032 
" style="fill:none;stroke:#000000;stroke-linecap:square;stroke-width:2;"/>
     </g>
     <g id="line2d_8">
      <g>
       <use style="stroke:#000000;stroke-width:4;" x="625.704545" xlink:href="#m7d02e5dc97" y="697.1904"/>
      </g>
     </g>
     <g id="text_4">
      <!-- 10.2 -->
      <defs>
       <path d="M 19.1875 8.296875 
L 53.609375 8.296875 
L 53.609375 0 
L 7.328125 0 
L 7.328125 8.296875 
Q 12.9375 14.109375 22.625 23.890625 
Q 32.328125 33.6875 34.8125 36.53125 
Q 39.546875 41.84375 41.421875 45.53125 
Q 43.3125 49.21875 43.3125 52.78125 
Q 43.3125 58.59375 39.234375 62.25 
Q 35.15625 65.921875 28.609375 65.921875 
Q 23.96875 65.921875 18.8125 64.3125 
Q 13.671875 62.703125 7.8125 59.421875 
L 7.8125 69.390625 
Q 13.765625 71.78125 18.9375 73 
Q 24.125 74.21875 28.421875 74.21875 
Q 39.75 74.21875 46.484375 68.546875 
Q 53.21875 62.890625 53.21875 53.421875 
Q 53.21875 48.921875 51.53125 44.890625 
Q 49.859375 40.875 45.40625 35.40625 
Q 44.1875 33.984375 37.640625 27.21875 
Q 31.109375 20.453125 19.1875 8.296875 
z
" id="DejaVuSans-32"/>
      </defs>
      <g transform="translate(590.079545 729.0054)scale(0.32 -0.32)">
       <use xlink:href="#DejaVuSans-31"/>
       <use x="63.623047" xlink:href="#DejaVuSans-30"/>
       <use x="127.246094" xlink:href="#DejaVuSans-2e"/>
       <use x="159.033203" xlink:href="#DejaVuSans-32"/>
      </g>
     </g>
    </g>
    <g id="xtick_5">
     <g id="line2d_9">
      <path clip-path="url(#p3c3c14fd34)" d="M 760.639091 697.1904 
L 760.639091 94.0032 
" style="fill:none;stroke:#000000;stroke-linecap:square;stroke-width:2;"/>
     </g>
     <g id="line2d_10">
      <g>
       <use style="stroke:#000000;stroke-width:4;" x="760.639091" xlink:href="#m7d02e5dc97" y="697.1904"/>
      </g>
     </g>
     <g id="text_5">
      <!-- 10.4 -->
      <defs>
       <path d="M 37.796875 64.3125 
L 12.890625 25.390625 
L 37.796875 25.390625 
z
M 35.203125 72.90625 
L 47.609375 72.90625 
L 47.609375 25.390625 
L 58.015625 25.390625 
L 58.015625 17.1875 
L 47.609375 17.1875 
L 47.609375 0 
L 37.796875 0 
L 37.796875 17.1875 
L 4.890625 17.1875 
L 4.890625 26.703125 
z
" id="DejaVuSans-34"/>
      </defs>
      <g transform="translate(725.014091 729.0054)scale(0.32 -0.32)">
       <use xlink:href="#DejaVuSans-31"/>
       <use x="63.623047" xlink:href="#DejaVuSans-30"/>
       <use x="127.246094" xlink:href="#DejaVuSans-2e"/>
       <use x="159.033203" xlink:href="#DejaVuSans-34"/>
      </g>
     </g>
    </g>
    <g id="text_6">
     <!-- $\omega_b'$ -->
     <defs>
      <path d="M 21.390625 -1.421875 
Q 1.125 -1.421875 6.78125 27.59375 
Q 8.984375 39.0625 19.625 54.6875 
L 29.296875 54.6875 
Q 19.234375 39.0625 17 27.34375 
Q 12.796875 6.203125 23.734375 6.203125 
Q 33.84375 6.203125 38.71875 32.46875 
L 47.015625 32.46875 
Q 41.703125 6.0625 51.8125 6.203125 
Q 62.703125 6.296875 66.796875 27.34375 
Q 69.046875 39.0625 65.140625 54.6875 
L 74.8125 54.6875 
Q 79.296875 39.0625 77.09375 27.59375 
Q 71.53125 -1.46875 51.21875 -1.421875 
Q 37.9375 -1.375 39.109375 13.1875 
Q 34.28125 -1.421875 21.390625 -1.421875 
z
" id="DejaVuSans-Oblique-3c9"/>
      <path d="M 3.515625 5.421875 
Q 2.875 5.609375 2.875 6.390625 
L 15.09375 51.8125 
Q 15.671875 53.65625 17.078125 54.78125 
Q 18.5 55.90625 20.3125 55.90625 
Q 22.65625 55.90625 24.4375 54.359375 
Q 26.21875 52.828125 26.21875 50.484375 
Q 26.21875 49.46875 25.6875 48.1875 
L 7.625 4.984375 
Q 7.28125 4.296875 6.6875 4.296875 
Q 6.15625 4.296875 5 4.78125 
Q 3.859375 5.28125 3.515625 5.421875 
z
" id="Cmsy10-30"/>
      <path d="M 49.515625 33.40625 
Q 49.515625 40.484375 46.265625 44.484375 
Q 43.015625 48.484375 37.3125 48.484375 
Q 33.15625 48.484375 29.515625 46.453125 
Q 25.875 44.4375 23.1875 40.578125 
Q 20.359375 36.53125 18.71875 31.171875 
Q 17.09375 25.828125 17.09375 20.515625 
Q 17.09375 13.765625 20.28125 9.9375 
Q 23.484375 6.109375 29.109375 6.109375 
Q 33.34375 6.109375 36.953125 8.078125 
Q 40.578125 10.0625 43.3125 13.921875 
Q 46.09375 17.921875 47.796875 23.234375 
Q 49.515625 28.5625 49.515625 33.40625 
z
M 21.578125 46.390625 
Q 24.90625 50.875 29.90625 53.4375 
Q 34.90625 56 40.375 56 
Q 48.78125 56 53.734375 50.328125 
Q 58.6875 44.671875 58.6875 35.015625 
Q 58.6875 27.09375 55.78125 19.671875 
Q 52.875 12.25 47.515625 6.5 
Q 44 2.6875 39.40625 0.625 
Q 34.8125 -1.421875 29.78125 -1.421875 
Q 24.46875 -1.421875 20.5625 1.015625 
Q 16.65625 3.46875 14.203125 8.296875 
L 12.59375 0 
L 3.609375 0 
L 18.40625 75.984375 
L 27.390625 75.984375 
z
" id="DejaVuSans-Oblique-62"/>
     </defs>
     <g transform="translate(467.19 767.7404)scale(0.36 -0.36)">
      <use transform="translate(0 0.520313)" xlink:href="#DejaVuSans-Oblique-3c9"/>
      <use transform="translate(88.20638 38.865625)scale(0.7)" xlink:href="#Cmsy10-30"/>
      <use transform="translate(83.740234 -26.823437)scale(0.7)" xlink:href="#DejaVuSans-Oblique-62"/>
     </g>
    </g>
   </g>
   <g id="matplotlib.axis_2">
    <g id="ytick_1">
     <g id="line2d_11">
      <path clip-path="url(#p3c3c14fd34)" d="M 119.7 606.802692 
L 861.84 606.802692 
" style="fill:none;stroke:#000000;stroke-linecap:square;stroke-width:2;"/>
     </g>
     <g id="line2d_12">
      <defs>
       <path d="M 0 0 
L -4 0 
" id="m98fd518685" style="stroke:#000000;stroke-width:4;"/>
      </defs>
      <g>
       <use style="stroke:#000000;stroke-width:4;" x="119.7" xlink:href="#m98fd518685" y="606.802692"/>
      </g>
     </g>
     <g id="text_7">
      <!-- 9.6 -->
      <g transform="translate(61.31 618.960192)scale(0.32 -0.32)">
       <use xlink:href="#DejaVuSans-39"/>
       <use x="63.623047" xlink:href="#DejaVuSans-2e"/>
       <use x="95.410156" xlink:href="#DejaVuSans-36"/>
      </g>
     </g>
    </g>
    <g id="ytick_2">
     <g id="line2d_13">
      <path clip-path="url(#p3c3c14fd34)" d="M 119.7 501.199746 
L 861.84 501.199746 
" style="fill:none;stroke:#000000;stroke-linecap:square;stroke-width:2;"/>
     </g>
     <g id="line2d_14">
      <g>
       <use style="stroke:#000000;stroke-width:4;" x="119.7" xlink:href="#m98fd518685" y="501.199746"/>
      </g>
     </g>
     <g id="text_8">
      <!-- 9.8 -->
      <g transform="translate(61.31 513.357246)scale(0.32 -0.32)">
       <use xlink:href="#DejaVuSans-39"/>
       <use x="63.623047" xlink:href="#DejaVuSans-2e"/>
       <use x="95.410156" xlink:href="#DejaVuSans-38"/>
      </g>
     </g>
    </g>
    <g id="ytick_3">
     <g id="line2d_15">
      <path clip-path="url(#p3c3c14fd34)" d="M 119.7 395.5968 
L 861.84 395.5968 
" style="fill:none;stroke:#000000;stroke-linecap:square;stroke-width:2;"/>
     </g>
     <g id="line2d_16">
      <g>
       <use style="stroke:#000000;stroke-width:4;" x="119.7" xlink:href="#m98fd518685" y="395.5968"/>
      </g>
     </g>
     <g id="text_9">
      <!-- 10.0 -->
      <g transform="translate(40.95 407.7543)scale(0.32 -0.32)">
       <use xlink:href="#DejaVuSans-31"/>
       <use x="63.623047" xlink:href="#DejaVuSans-30"/>
       <use x="127.246094" xlink:href="#DejaVuSans-2e"/>
       <use x="159.033203" xlink:href="#DejaVuSans-30"/>
      </g>
     </g>
    </g>
    <g id="ytick_4">
     <g id="line2d_17">
      <path clip-path="url(#p3c3c14fd34)" d="M 119.7 289.993854 
L 861.84 289.993854 
" style="fill:none;stroke:#000000;stroke-linecap:square;stroke-width:2;"/>
     </g>
     <g id="line2d_18">
      <g>
       <use style="stroke:#000000;stroke-width:4;" x="119.7" xlink:href="#m98fd518685" y="289.993854"/>
      </g>
     </g>
     <g id="text_10">
      <!-- 10.2 -->
      <g transform="translate(40.95 302.151354)scale(0.32 -0.32)">
       <use xlink:href="#DejaVuSans-31"/>
       <use x="63.623047" xlink:href="#DejaVuSans-30"/>
       <use x="127.246094" xlink:href="#DejaVuSans-2e"/>
       <use x="159.033203" xlink:href="#DejaVuSans-32"/>
      </g>
     </g>
    </g>
    <g id="ytick_5">
     <g id="line2d_19">
      <path clip-path="url(#p3c3c14fd34)" d="M 119.7 184.390908 
L 861.84 184.390908 
" style="fill:none;stroke:#000000;stroke-linecap:square;stroke-width:2;"/>
     </g>
     <g id="line2d_20">
      <g>
       <use style="stroke:#000000;stroke-width:4;" x="119.7" xlink:href="#m98fd518685" y="184.390908"/>
      </g>
     </g>
     <g id="text_11">
      <!-- 10.4 -->
      <g transform="translate(40.95 196.548408)scale(0.32 -0.32)">
       <use xlink:href="#DejaVuSans-31"/>
       <use x="63.623047" xlink:href="#DejaVuSans-30"/>
       <use x="127.246094" xlink:href="#DejaVuSans-2e"/>
       <use x="159.033203" xlink:href="#DejaVuSans-34"/>
      </g>
     </g>
    </g>
    <g id="text_12">
     <!-- $\omega_\pm$ -->
     <defs>
      <path d="M 46 62.703125 
L 46 43.796875 
L 73.1875 43.796875 
L 73.1875 35.5 
L 46 35.5 
L 46 16.609375 
L 37.796875 16.609375 
L 37.796875 35.5 
L 10.59375 35.5 
L 10.59375 43.796875 
L 37.796875 43.796875 
L 37.796875 62.703125 
z
M 10.59375 8.296875 
L 73.1875 8.296875 
L 73.1875 0 
L 10.59375 0 
z
" id="DejaVuSans-b1"/>
     </defs>
     <g transform="translate(29.463125 426.7368)rotate(-90)scale(0.36 -0.36)">
      <use transform="translate(0 0.3125)" xlink:href="#DejaVuSans-Oblique-3c9"/>
      <use transform="translate(97.37793 -16.09375)scale(0.7)" xlink:href="#DejaVuSans-b1"/>
     </g>
    </g>
   </g>
   <g id="line2d_21">
    <path clip-path="url(#p3c3c14fd34)" d="M 153.433636 395.175062 
L 167.202468 395.157176 
L 180.971299 395.13771 
L 194.74013 395.116443 
L 208.508961 395.093115 
L 222.277792 395.067411 
L 236.046623 395.038951 
L 249.815455 395.007267 
L 263.584286 394.97178 
L 277.353117 394.931765 
L 291.121948 394.886301 
L 304.890779 394.834199 
L 318.65961 394.7739 
L 332.428442 394.703321 
L 346.197273 394.619612 
L 359.966104 394.518775 
L 373.734935 394.395028 
L 387.503766 394.23971 
L 401.272597 394.039267 
L 415.041429 393.771371 
L 428.81026 393.396813 
L 442.579091 392.841244 
L 456.347922 391.950654 
L 470.116753 390.380679 
L 483.885584 387.392257 
L 497.654416 382.004352 
L 511.423247 374.216963 
L 525.192078 365.011127 
L 538.960909 355.125906 
L 552.72974 344.905665 
L 566.498571 334.504411 
L 580.267403 323.996497 
L 594.036234 313.421128 
L 607.805065 302.800636 
L 621.573896 292.148572 
L 635.342727 281.473598 
L 649.111558 270.781497 
L 662.88039 260.076265 
L 676.649221 249.360752 
L 690.418052 238.637043 
L 704.186883 227.906697 
L 717.955714 217.170901 
L 731.724545 206.430577 
L 745.493377 195.68645 
L 759.262208 184.9391 
L 773.031039 174.188993 
L 786.79987 163.43651 
L 800.568701 152.681966 
L 814.337532 141.925622 
L 828.106364 131.167697 
" style="fill:none;stroke:#ff0000;stroke-dasharray:14.8,6.4;stroke-dashoffset:0;stroke-width:4;"/>
   </g>
   <g id="line2d_22">
    <path clip-path="url(#p3c3c14fd34)" d="M 153.433636 660.025903 
L 167.202468 649.267978 
L 180.971299 638.511634 
L 194.74013 627.75709 
L 208.508961 617.004607 
L 222.277792 606.2545 
L 236.046623 595.50715 
L 249.815455 584.763023 
L 263.584286 574.022699 
L 277.353117 563.286903 
L 291.121948 552.556557 
L 304.890779 541.832848 
L 318.65961 531.117335 
L 332.428442 520.412103 
L 346.197273 509.720002 
L 359.966104 499.045028 
L 373.734935 488.392964 
L 387.503766 477.772472 
L 401.272597 467.197103 
L 415.041429 456.689189 
L 428.81026 446.287935 
L 442.579091 436.067694 
L 456.347922 426.182473 
L 470.116753 416.976637 
L 483.885584 409.189248 
L 497.654416 403.801343 
L 511.423247 400.812921 
L 525.192078 399.242946 
L 538.960909 398.352356 
L 552.72974 397.796787 
L 566.498571 397.422229 
L 580.267403 397.154333 
L 594.036234 396.95389 
L 607.805065 396.798572 
L 621.573896 396.674825 
L 635.342727 396.573988 
L 649.111558 396.490279 
L 662.88039 396.4197 
L 676.649221 396.359401 
L 690.418052 396.307299 
L 704.186883 396.261835 
L 717.955714 396.22182 
L 731.724545 396.186333 
L 745.493377 396.154649 
L 759.262208 396.126189 
L 773.031039 396.100485 
L 786.79987 396.077157 
L 800.568701 396.05589 
L 814.337532 396.036424 
L 828.106364 396.018538 
" style="fill:none;stroke:#0000ff;stroke-dasharray:14.8,6.4;stroke-dashoffset:0;stroke-width:4;"/>
   </g>
   <g id="line2d_23">
    <path clip-path="url(#p3c3c14fd34)" d="M 153.433636 385.428165 
L 167.202468 385.02821 
L 180.971299 384.596867 
L 194.74013 384.130469 
L 208.508961 383.624789 
L 222.277792 383.074935 
L 236.046623 382.47522 
L 249.815455 381.819019 
L 263.584286 381.098576 
L 277.353117 380.304785 
L 291.121948 379.426926 
L 304.890779 378.452344 
L 318.65961 377.366071 
L 332.428442 376.150402 
L 346.197273 374.784403 
L 359.966104 373.243407 
L 373.734935 371.498512 
L 387.503766 369.516194 
L 401.272597 367.258159 
L 415.041429 364.681633 
L 428.81026 361.740365 
L 442.579091 358.386588 
L 456.347922 354.574086 
L 470.116753 350.262256 
L 483.885584 345.420601 
L 497.654416 340.032696 
L 511.423247 334.09854 
L 525.192078 327.634559 
L 538.960909 320.67125 
L 552.72974 313.249217 
L 566.498571 305.414673 
L 580.267403 297.215388 
L 594.036234 288.697613 
L 607.805065 279.90412 
L 621.573896 270.873204 
L 635.342727 261.63839 
L 649.111558 252.228577 
L 662.88039 242.668436 
L 676.649221 232.978897 
L 690.418052 223.177669 
L 704.186883 213.279717 
L 717.955714 203.297697 
L 731.724545 193.24233 
L 745.493377 183.12272 
L 759.262208 172.946623 
L 773.031039 162.720667 
L 786.79987 152.450536 
L 800.568701 142.141123 
L 814.337532 131.796655 
L 828.106364 121.4208 
" style="fill:none;stroke:#ff0000;stroke-linecap:square;stroke-width:4;"/>
   </g>
   <g id="line2d_24">
    <path clip-path="url(#p3c3c14fd34)" d="M 153.433636 669.7728 
L 167.202468 659.396945 
L 180.971299 649.052477 
L 194.74013 638.743064 
L 208.508961 628.472933 
L 222.277792 618.246977 
L 236.046623 608.07088 
L 249.815455 597.95127 
L 263.584286 587.895903 
L 277.353117 577.913883 
L 291.121948 568.015931 
L 304.890779 558.214703 
L 318.65961 548.525164 
L 332.428442 538.965023 
L 346.197273 529.55521 
L 359.966104 520.320396 
L 373.734935 511.28948 
L 387.503766 502.495987 
L 401.272597 493.978212 
L 415.041429 485.778927 
L 428.81026 477.944383 
L 442.579091 470.52235 
L 456.347922 463.559041 
L 470.116753 457.09506 
L 483.885584 451.160904 
L 497.654416 445.772999 
L 511.423247 440.931344 
L 525.192078 436.619514 
L 538.960909 432.807012 
L 552.72974 429.453235 
L 566.498571 426.511967 
L 580.267403 423.935441 
L 594.036234 421.677406 
L 607.805065 419.695088 
L 621.573896 417.950193 
L 635.342727 416.409197 
L 649.111558 415.043198 
L 662.88039 413.827529 
L 676.649221 412.741256 
L 690.418052 411.766674 
L 704.186883 410.888815 
L 717.955714 410.095024 
L 731.724545 409.374581 
L 745.493377 408.71838 
L 759.262208 408.118665 
L 773.031039 407.568811 
L 786.79987 407.063131 
L 800.568701 406.596733 
L 814.337532 406.16539 
L 828.106364 405.765435 
" style="fill:none;stroke:#0000ff;stroke-linecap:square;stroke-width:4;"/>
   </g>
   <g id="patch_3">
    <path d="M 119.7 697.1904 
L 119.7 94.0032 
" style="fill:none;stroke:#000000;stroke-linecap:square;stroke-linejoin:miter;stroke-width:0.8;"/>
   </g>
   <g id="patch_4">
    <path d="M 861.84 697.1904 
L 861.84 94.0032 
" style="fill:none;stroke:#000000;stroke-linecap:square;stroke-linejoin:miter;stroke-width:0.8;"/>
   </g>
   <g id="patch_5">
    <path d="M 119.7 697.1904 
L 861.84 697.1904 
" style="fill:none;stroke:#000000;stroke-linecap:square;stroke-linejoin:miter;stroke-width:0.8;"/>
   </g>
   <g id="patch_6">
    <path d="M 119.7 94.0032 
L 861.84 94.0032 
" style="fill:none;stroke:#000000;stroke-linecap:square;stroke-linejoin:miter;stroke-width:0.8;"/>
   </g>
  </g>
 </g>
 <defs>
  <clipPath id="p3c3c14fd34">
   <rect height="603.1872" width="742.14" x="119.7" y="94.0032"/>
  </clipPath>
 </defs>
</svg>
