<?xml version="1.0" encoding="UTF-8" standalone="no"?>
<!-- Created with Inkscape (http://www.inkscape.org/) -->

<svg
   xmlns:ns0="http://www.iki.fi/pav/software/textext/"
   xmlns:dc="http://purl.org/dc/elements/1.1/"
   xmlns:cc="http://creativecommons.org/ns#"
   xmlns:rdf="http://www.w3.org/1999/02/22-rdf-syntax-ns#"
   xmlns:svg="http://www.w3.org/2000/svg"
   xmlns="http://www.w3.org/2000/svg"
   xmlns:sodipodi="http://sodipodi.sourceforge.net/DTD/sodipodi-0.dtd"
   xmlns:inkscape="http://www.inkscape.org/namespaces/inkscape"
   width="283.46457"
   height="272.83463"
   id="svg2"
   version="1.1"
   inkscape:version="0.48.4 r9939"
   sodipodi:docname="single_circuit_with_drive.svg">
  <sodipodi:namedview
     id="base"
     pagecolor="#ffffff"
     bordercolor="#666666"
     borderopacity="1.0"
     inkscape:pageopacity="0.0"
     inkscape:pageshadow="2"
     inkscape:zoom="2.8284271"
     inkscape:cx="135.22683"
     inkscape:cy="129.64629"
     inkscape:document-units="px"
     inkscape:current-layer="layer1"
     showgrid="false"
     inkscape:window-width="1855"
     inkscape:window-height="1176"
     inkscape:window-x="65"
     inkscape:window-y="24"
     inkscape:window-maximized="1"
     units="mm" />
  <defs
     id="defs4" />
  <metadata
     id="metadata7">
    <rdf:RDF>
      <cc:Work
         rdf:about="">
        <dc:format>image/svg+xml</dc:format>
        <dc:type
           rdf:resource="http://purl.org/dc/dcmitype/StillImage" />
        <dc:title />
      </cc:Work>
    </rdf:RDF>
  </metadata>
  <g
     id="layer1"
     inkscape:groupmode="layer"
     inkscape:label="Layer 1"
     transform="translate(0,-779.52752)">
    <g
       transform="matrix(1.21,0,0,1.21,-341.94399,761.05684)"
       id="g3128">
      <g
         style="stroke-width:8.42674541;stroke-miterlimit:4;stroke-dasharray:none"
         transform="matrix(0.34754735,0,0,0.36467736,298.38641,16.28361)"
         id="g3854">
        <path
           sodipodi:type="arc"
           style="fill:none;stroke:#000000;stroke-width:7.5243926;stroke-linecap:round;stroke-linejoin:round;stroke-miterlimit:4;stroke-opacity:1;stroke-dasharray:none;stroke-dashoffset:0"
           id="path2985-1"
           sodipodi:cx="82.85714"
           sodipodi:cy="243.79076"
           sodipodi:rx="41.42857"
           sodipodi:ry="42.857143"
           d="M 109.48691,276.62123 C 91.959533,291.8356 65.82823,289.47057 51.121014,271.3388 36.413797,253.20703 38.69999,226.17464 56.227368,210.96028 c 15.401341,-13.36889 37.858203,-13.36889 53.259542,0"
           transform="matrix(0.94137935,0,0,0.90999999,2.4285698,12.798306)"
           sodipodi:start="0.87266463"
           sodipodi:end="5.4105207"
           sodipodi:open="true" />
        <path
           sodipodi:type="arc"
           style="fill:none;stroke:#000000;stroke-width:7.5243926;stroke-linecap:round;stroke-linejoin:round;stroke-miterlimit:4;stroke-opacity:1;stroke-dasharray:none;stroke-dashoffset:0"
           id="path2985-1-7"
           sodipodi:cx="82.85714"
           sodipodi:cy="243.79076"
           sodipodi:rx="41.42857"
           sodipodi:ry="42.857143"
           d="M 109.48691,276.62123 C 91.959533,291.8356 65.82823,289.47057 51.121014,271.3388 36.413797,253.20703 38.69999,226.17464 56.227368,210.96028 63.688616,204.48366 73.117174,200.93361 82.85714,200.93361"
           transform="matrix(0.94137935,0,0,0.90999999,2.4285701,-46.058833)"
           sodipodi:start="0.87266463"
           sodipodi:end="4.712389"
           sodipodi:open="true" />
        <path
           sodipodi:type="arc"
           style="fill:none;stroke:#000000;stroke-width:7.5243926;stroke-linecap:round;stroke-linejoin:round;stroke-miterlimit:4;stroke-opacity:1;stroke-dasharray:none;stroke-dashoffset:0"
           id="path2985-1-4"
           sodipodi:cx="82.85714"
           sodipodi:cy="243.79076"
           sodipodi:rx="41.42857"
           sodipodi:ry="42.857143"
           d="M 109.48691,276.62123 C 91.959533,291.8356 65.82823,289.47057 51.121014,271.3388 36.413797,253.20703 38.69999,226.17464 56.227368,210.96028 c 15.401341,-13.36889 37.858203,-13.36889 53.259542,0"
           transform="matrix(0.94137935,0,0,0.90999999,2.4285698,72.84578)"
           sodipodi:start="0.87266463"
           sodipodi:end="5.4105207"
           sodipodi:open="true" />
        <path
           sodipodi:type="arc"
           style="fill:none;stroke:#000000;stroke-width:7.5243926;stroke-linecap:round;stroke-linejoin:round;stroke-miterlimit:4;stroke-opacity:1;stroke-dasharray:none;stroke-dashoffset:0"
           id="path2985-1-4-0"
           sodipodi:cx="82.85714"
           sodipodi:cy="243.79076"
           sodipodi:rx="41.42857"
           sodipodi:ry="42.857143"
           d="M 109.48691,276.62123 C 91.959533,291.8356 65.82823,289.47057 51.121014,271.3388 36.413797,253.20703 38.69999,226.17464 56.227368,210.96028 c 15.401341,-13.36889 37.858203,-13.36889 53.259542,0"
           transform="matrix(0.94137935,0,0,0.90999999,2.4285698,132.89324)"
           sodipodi:start="0.87266463"
           sodipodi:end="5.4105207"
           sodipodi:open="true" />
        <path
           sodipodi:type="arc"
           style="fill:none;stroke:#000000;stroke-width:7.5243926;stroke-linecap:round;stroke-linejoin:round;stroke-miterlimit:4;stroke-opacity:1;stroke-dasharray:none;stroke-dashoffset:0"
           id="path2985-1-4-9"
           sodipodi:cx="82.85714"
           sodipodi:cy="243.79076"
           sodipodi:rx="41.42857"
           sodipodi:ry="42.857143"
           d="m 82.857141,286.6479 c -22.880368,0 -41.428571,-19.1878 -41.428571,-42.85714 -10e-7,-23.66935 18.548201,-42.85715 41.428568,-42.85715 9.739967,0 19.168522,3.55005 26.629772,10.02667"
           transform="matrix(0.94137935,0,0,0.90999999,2.4281158,192.94071)"
           sodipodi:start="1.5707963"
           sodipodi:end="5.4105207"
           sodipodi:open="true" />
        <path
           style="fill:none;stroke:#000000;stroke-width:6.964252;stroke-linecap:round;stroke-linejoin:miter;stroke-miterlimit:4;stroke-opacity:1;stroke-dasharray:none"
           d="m 80.533543,136.29075 0,-45.35714"
           id="path3834"
           inkscape:connector-curvature="0" />
        <path
           style="fill:none;stroke:#000000;stroke-width:6.964252;stroke-linecap:round;stroke-linejoin:miter;stroke-miterlimit:4;stroke-opacity:1;stroke-dasharray:none"
           d="m 80.533543,499.25381 0,-45.35714"
           id="path3834-4"
           inkscape:connector-curvature="0" />
      </g>
      <g
         transform="matrix(0.6561,0,0,0.6561,255.61483,-49.790997)"
         id="g3919">
        <path
           style="fill:none;stroke:#000000;stroke-width:3.77890372;stroke-linecap:round;stroke-linejoin:miter;stroke-miterlimit:4;stroke-opacity:1;stroke-dasharray:none"
           d="m 178.62039,257.18706 78.57142,0"
           id="path3863"
           inkscape:connector-curvature="0" />
        <path
           style="fill:none;stroke:#000000;stroke-width:3.77890372;stroke-linecap:round;stroke-linejoin:miter;stroke-miterlimit:4;stroke-opacity:1;stroke-dasharray:none"
           d="m 178.62039,278.97278 78.57142,0"
           id="path3863-8"
           inkscape:connector-curvature="0" />
        <path
           style="fill:none;stroke:#000000;stroke-width:3.77890372;stroke-linecap:round;stroke-linejoin:miter;stroke-miterlimit:4;stroke-opacity:1;stroke-dasharray:none"
           d="m 217.9061,151.44921 0,104.05728"
           id="path3863-82"
           inkscape:connector-curvature="0" />
        <path
           style="fill:none;stroke:#000000;stroke-width:3.77890372;stroke-linecap:round;stroke-linejoin:miter;stroke-miterlimit:4;stroke-opacity:1;stroke-dasharray:none"
           d="m 217.9061,279.30264 0,98.8004"
           id="path3863-82-4"
           inkscape:connector-curvature="0" />
      </g>
      <path
         inkscape:connector-curvature="0"
         id="path3925"
         d="m 326.53564,49.41173 72.00492,0"
         style="fill:none;stroke:#000000;stroke-width:2.47933912;stroke-linecap:round;stroke-linejoin:miter;stroke-miterlimit:4;stroke-opacity:1;stroke-dasharray:none" />
      <path
         inkscape:connector-curvature="0"
         id="path3925-5"
         d="m 326.41554,198.39 72.13617,0"
         style="fill:none;stroke:#000000;stroke-width:2.47933912;stroke-linecap:round;stroke-linejoin:miter;stroke-miterlimit:4;stroke-opacity:1;stroke-dasharray:none" />
      <g
         id="g3124">
        <path
           sodipodi:type="star"
           style="fill:none;stroke:#000000;stroke-width:2.47933888;stroke-linecap:round;stroke-linejoin:round;stroke-miterlimit:4;stroke-opacity:1;stroke-dasharray:none;stroke-dashoffset:0"
           id="path3962"
           sodipodi:sides="3"
           sodipodi:cx="80"
           sodipodi:cy="251.6479"
           sodipodi:r1="15.681785"
           sodipodi:r2="7.8408914"
           sodipodi:arg1="-0.52479577"
           sodipodi:arg2="0.52240178"
           inkscape:flatsided="false"
           inkscape:rounded="0"
           inkscape:randomized="0"
           d="m 93.571429,243.79076 -6.77633,11.76946 -6.776328,11.76946 -6.804484,-11.75321 -6.804487,-11.7532 13.580814,-0.0163 z"
           inkscape:transform-center-x="0.0093855149"
           inkscape:transform-center-y="3.9123152"
           transform="translate(283.27808,-29.159893)" />
        <path
           style="fill:none;stroke:#000000;stroke-width:2.47933865;stroke-linecap:round;stroke-linejoin:miter;stroke-miterlimit:4;stroke-opacity:1;stroke-dasharray:none"
           d="m 363.2687,199.04098 0,14.08381"
           id="path3863-82-4-5"
           inkscape:connector-curvature="0" />
      </g>
    </g>
    <g
       id="g4090"
       transform="matrix(1.21,0,0,1.21,-341.94399,758.35109)">
      <g
         id="g3113"
         transform="translate(-167.14286,-80)"
         style="stroke-width:3;stroke-miterlimit:4;stroke-dasharray:3, 3;stroke-dashoffset:0">
        <path
           style="fill:none;stroke:#000000;stroke-width:2.47933888;stroke-linecap:round;stroke-linejoin:miter;stroke-miterlimit:4;stroke-opacity:1;stroke-dasharray:2.47933885, 2.47933885;stroke-dashoffset:0"
           d="m 626.40776,105.87254 0,51.55071"
           id="path3863-7"
           inkscape:connector-curvature="0" />
        <path
           style="fill:none;stroke:#000000;stroke-width:2.47933888;stroke-linecap:round;stroke-linejoin:miter;stroke-miterlimit:4;stroke-opacity:1;stroke-dasharray:2.47933885, 2.47933885;stroke-dashoffset:0"
           d="m 612.11415,105.87254 0,51.55071"
           id="path3863-8-4"
           inkscape:connector-curvature="0" />
      </g>
      <path
         inkscape:connector-curvature="0"
         id="path3863-82-4-9"
         d="m 444.75486,51.64789 -46.25398,0"
         style="fill:none;stroke:#000000;stroke-width:2.47933888;stroke-linecap:round;stroke-linejoin:miter;stroke-miterlimit:4;stroke-opacity:1;stroke-dasharray:2.47933885, 2.47933885;stroke-dashoffset:0" />
      <path
         inkscape:connector-curvature="0"
         id="path3863-82-4-9-4"
         d="m 487.83799,51.64789 -27.10457,0"
         style="fill:none;stroke:#000000;stroke-width:2.47933888;stroke-linecap:round;stroke-linejoin:miter;stroke-miterlimit:4;stroke-opacity:1;stroke-dasharray:2.47933885, 2.47933885;stroke-dashoffset:0" />
    </g>
    <path
       transform="matrix(0.73179903,0,0,0.7582496,138.04741,912.19325)"
       d="m 181.42856,91.290756 c 0,16.371294 -13.75125,29.642854 -30.71428,29.642854 -16.96303,0 -30.71429,-13.27156 -30.71429,-29.642854 0,-16.371297 13.75126,-29.642856 30.71429,-29.642856 16.96303,0 30.71428,13.271559 30.71428,29.642856 z"
       sodipodi:ry="29.642857"
       sodipodi:rx="30.714285"
       sodipodi:cy="91.290756"
       sodipodi:cx="150.71428"
       id="path3148"
       style="fill:none;stroke:#000000;stroke-width:4.027349;stroke-linecap:round;stroke-linejoin:round;stroke-miterlimit:4;stroke-opacity:1;stroke-dasharray:4.02734878, 4.02734878;stroke-dashoffset:0"
       sodipodi:type="arc" />
    <g
       id="g4097"
       transform="matrix(1.21,0,0,1.21,-341.94399,758.35109)">
      <path
         style="fill:none;stroke:#000000;stroke-width:2.47933912;stroke-linecap:round;stroke-linejoin:miter;stroke-miterlimit:4;stroke-opacity:1;stroke-dasharray:2.47933905, 2.47933905;stroke-dashoffset:0"
         d="m 487.83799,84.685097 0,-33.037207"
         id="path3925-8"
         inkscape:connector-curvature="0" />
      <g
         id="g4003"
         style="stroke-width:3.00000024;stroke-miterlimit:4;stroke-dasharray:3.00000024, 3.00000024;stroke-dashoffset:0"
         transform="translate(9.0256847,-166)">
        <path
           inkscape:connector-curvature="0"
           id="path3821-8-5-5-4-4"
           d="m 467.60557,310.85434 22.41347,10.97869"
           style="fill:none;stroke:#000000;stroke-width:2.47933912;stroke-linecap:round;stroke-linejoin:miter;stroke-miterlimit:4;stroke-opacity:1;stroke-dasharray:2.47933905, 2.47933905;stroke-dashoffset:0" />
        <path
           inkscape:connector-curvature="0"
           id="path3821-8-2-7-7-5-8"
           d="m 467.60557,288.79682 22.41347,10.97869"
           style="fill:none;stroke:#000000;stroke-width:2.47933912;stroke-linecap:round;stroke-linejoin:miter;stroke-miterlimit:4;stroke-opacity:1;stroke-dasharray:2.47933905, 2.47933905;stroke-dashoffset:0" />
        <path
           inkscape:connector-curvature="0"
           id="path3821-8-4-6-2-9-8"
           d="m 467.60557,266.73932 22.41347,10.97869"
           style="fill:none;stroke:#000000;stroke-width:2.47933912;stroke-linecap:round;stroke-linejoin:miter;stroke-miterlimit:4;stroke-opacity:1;stroke-dasharray:2.47933905, 2.47933905;stroke-dashoffset:0" />
        <path
           inkscape:connector-curvature="0"
           id="path3821-8-2-5-18-6-0-2"
           d="m 490.01904,299.82558 -22.41347,10.97868"
           style="fill:none;stroke:#000000;stroke-width:2.47933912;stroke-linecap:round;stroke-linejoin:miter;stroke-miterlimit:4;stroke-opacity:1;stroke-dasharray:2.47933905, 2.47933905;stroke-dashoffset:0" />
        <path
           inkscape:connector-curvature="0"
           id="path3821-8-2-5-5-9-5-6-4"
           d="m 490.01904,277.76808 -22.41347,10.97869"
           style="fill:none;stroke:#000000;stroke-width:2.47933912;stroke-linecap:round;stroke-linejoin:miter;stroke-miterlimit:4;stroke-opacity:1;stroke-dasharray:2.47933905, 2.47933905;stroke-dashoffset:0" />
        <path
           inkscape:connector-curvature="0"
           id="path3821-8-2-5-1-2-6-2-5"
           d="M 490.01904,255.71052 467.60557,266.6892"
           style="fill:none;stroke:#000000;stroke-width:2.47933912;stroke-linecap:round;stroke-linejoin:miter;stroke-miterlimit:4;stroke-opacity:1;stroke-dasharray:2.47933905, 2.47933905;stroke-dashoffset:0" />
        <path
           inkscape:connector-curvature="0"
           id="path3821-8-4-7-7-2-4-5"
           d="m 479.34596,250.73316 10.67308,5.22794"
           style="fill:none;stroke:#000000;stroke-width:2.47933912;stroke-linecap:round;stroke-linejoin:miter;stroke-miterlimit:4;stroke-opacity:1;stroke-dasharray:2.47933905, 2.47933905;stroke-dashoffset:0" />
        <path
           inkscape:connector-curvature="0"
           id="path3821-8-4-7-1-95-9-5-1"
           d="m 490.01904,321.41262 -10.67308,5.22794"
           style="fill:none;stroke:#000000;stroke-width:2.47933912;stroke-linecap:round;stroke-linejoin:miter;stroke-miterlimit:4;stroke-opacity:1;stroke-dasharray:2.47933905, 2.47933905;stroke-dashoffset:0" />
      </g>
      <path
         style="fill:none;stroke:#000000;stroke-width:2.47933912;stroke-linecap:round;stroke-linejoin:miter;stroke-miterlimit:4;stroke-opacity:1;stroke-dasharray:2.47933905, 2.47933905;stroke-dashoffset:0"
         d="m 487.83799,164.85957 0,-3.36476"
         id="path3925-8-8"
         inkscape:connector-curvature="0" />
    </g>
    <g
       id="g4057"
       transform="matrix(1.21,0,0,1.21,-341.94399,758.35109)">
      <path
         sodipodi:type="star"
         style="fill:none;stroke:#000000;stroke-width:2.47933888;stroke-linecap:round;stroke-linejoin:round;stroke-miterlimit:4;stroke-opacity:1;stroke-dasharray:2.47933885, 2.47933885;stroke-dashoffset:0"
         id="path3962-4"
         sodipodi:sides="3"
         sodipodi:cx="80"
         sodipodi:cy="251.6479"
         sodipodi:r1="15.681785"
         sodipodi:r2="7.8408914"
         sodipodi:arg1="-0.52479577"
         sodipodi:arg2="0.52240178"
         inkscape:flatsided="false"
         inkscape:rounded="0"
         inkscape:randomized="0"
         d="m 93.571429,243.79076 -6.77633,11.76946 -6.776328,11.76946 -6.804484,-11.75321 -6.804487,-11.7532 13.580814,-0.0163 z"
         inkscape:transform-center-x="0.0093855149"
         inkscape:transform-center-y="3.9123152"
         transform="translate(407.84738,-26.923733)" />
      <path
         style="fill:none;stroke:#000000;stroke-width:2.47933888;stroke-linecap:round;stroke-linejoin:miter;stroke-miterlimit:4;stroke-opacity:1;stroke-dasharray:2.47933885, 2.47933885;stroke-dashoffset:0"
         d="m 487.838,203.69597 0,11.66498"
         id="path3863-82-4-5-5"
         inkscape:connector-curvature="0" />
    </g>
    <g
       id="g3232"
       transform="matrix(2.9936795,0,0,-2.9936795,-659.124,3011.8265)"
       xml:space="preserve"
       stroke-miterlimit="10.433"
       font-style="normal"
       font-variant="normal"
       font-weight="normal"
       font-stretch="normal"
       font-size-adjust="none"
       letter-spacing="normal"
       word-spacing="normal"
       ns0:text="$L$"
       ns0:preamble="/home/daniel/.config/inkscape/extensions/tex_preamble.ini"
       style="font-style:normal;font-variant:normal;font-weight:normal;font-stretch:normal;letter-spacing:normal;word-spacing:normal;text-anchor:start;fill:none;stroke:#000000;stroke-width:0.3340371;stroke-linecap:butt;stroke-linejoin:miter;stroke-miterlimit:10.43299961;stroke-opacity:1;stroke-dasharray:none;stroke-dashoffset:0"><path
         style="fill:#000000;stroke-width:0"
         inkscape:connector-curvature="0"
         d="m 227.15,713.14 0.01,0.03 0.01,0.03 0.01,0.03 0.01,0.03 0,0.03 0.01,0.02 0.01,0.03 0.01,0.02 0.02,0.02 0.01,0.02 0.01,0.02 0.02,0.02 0.02,0.02 0.02,0.01 0.02,0.02 0.02,0.01 0.03,0.02 0.03,0.01 0.03,0.01 0.04,0.01 0.02,0 0.01,0.01 0.03,0 0.02,0.01 0.02,0 0.02,0 0.03,0.01 0.02,0 0.03,0 0.02,0 0.03,0.01 0.03,0 0.03,0 0.03,0 0.03,0.01 0.04,0 0.03,0 0.04,0 0.03,0 0.04,0 0.04,0 0.04,0 0.04,0 0.05,0 c 0.3,0 0.38,0 0.38,0.19 0,0.12 -0.11,0.12 -0.16,0.12 -0.33,0 -1.15,-0.03 -1.48,-0.03 -0.29,0 -1.02,0.03 -1.32,0.03 -0.07,0 -0.19,0 -0.19,-0.2 0,-0.11 0.09,-0.11 0.28,-0.11 0.02,0 0.21,0 0.38,-0.02 0.18,-0.02 0.27,-0.03 0.27,-0.16 0,-0.04 -0.01,-0.07 -0.04,-0.19 l -1.34,-5.33 c -0.09,-0.39 -0.11,-0.47 -0.9,-0.47 -0.17,0 -0.27,0 -0.27,-0.2 0,-0.11 0.09,-0.11 0.27,-0.11 h 4.61 c 0.23,0 0.24,0 0.3,0.17 l 0.79,2.15 c 0.04,0.11 0.04,0.13 0.04,0.14 0,0.04 -0.03,0.11 -0.12,0.11 -0.09,0 -0.1,-0.05 -0.17,-0.21 -0.34,-0.91 -0.78,-2.05 -2.5,-2.05 h -0.93 c -0.14,0 -0.16,0 -0.22,0.01 -0.1,0.01 -0.13,0.02 -0.13,0.1 0,0.03 0,0.05 0.05,0.23 z"
         id="path3234" /></g>    <g
       style="font-style:normal;font-variant:normal;font-weight:normal;font-stretch:normal;letter-spacing:normal;word-spacing:normal;text-anchor:start;fill:none;stroke:#000000;stroke-width:0.3340371;stroke-linecap:butt;stroke-linejoin:miter;stroke-miterlimit:10.43299961;stroke-opacity:1;stroke-dasharray:none;stroke-dashoffset:0"
       ns0:preamble="/home/daniel/.config/inkscape/extensions/tex_preamble.ini"
       ns0:text="$C_d$"
       word-spacing="normal"
       letter-spacing="normal"
       font-size-adjust="none"
       font-stretch="normal"
       font-weight="normal"
       font-variant="normal"
       font-style="normal"
       stroke-miterlimit="10.433"
       xml:space="preserve"
       transform="matrix(2.9936795,0,0,-2.9936795,-523.28587,2923.1052)"
       id="g3339"><path
         id="path3341"
         d="m 230.99,714.03 0,0 0,0.01 0,0 0,0 0,0.01 0,0 0,0 0,0.01 0,0 0,0.01 -0.01,0 0,0 0,0.01 0,0 -0.01,0.01 0,0 0,0 0,0.01 -0.01,0 0,0 -0.01,0.01 0,0 -0.01,0 0,0.01 -0.01,0 0,0 0,0 -0.01,0 0,0 0,0 -0.01,0 0,0.01 0,0 -0.01,0 0,0 0,0 -0.01,0 0,0 -0.01,0 c -0.03,0 -0.04,-0.01 -0.14,-0.12 l -0.7,-0.77 c -0.09,0.14 -0.55,0.89 -1.65,0.89 -2.22,0 -4.46,-2.2 -4.46,-4.5 0,-1.64 1.17,-2.72 2.7,-2.72 0.86,0 1.62,0.39 2.14,0.85 0.93,0.82 1.1,1.72 1.1,1.75 0,0.1 -0.1,0.1 -0.12,0.1 -0.06,0 -0.11,-0.02 -0.13,-0.1 -0.09,-0.29 -0.32,-0.99 -1,-1.57 -0.69,-0.56 -1.32,-0.73 -1.83,-0.73 -0.9,0 -1.95,0.52 -1.95,2.07 0,0.57 0.2,2.18 1.2,3.34 0.61,0.7 1.54,1.2 2.43,1.2 1.01,0 1.6,-0.77 1.6,-1.92 0,-0.39 -0.03,-0.4 -0.03,-0.5 0,-0.1 0.11,-0.1 0.15,-0.1 0.13,0 0.13,0.02 0.18,0.2 z"
         inkscape:connector-curvature="0"
         style="fill:#000000;stroke-width:0" /><path
         id="path3343"
         d="m 234.53,710.25 0,0 0,0 0,0 0,0 0,0 0,0 0,0.01 0,0 0,0 0.01,0 0,0.01 0,0 0,0 0,0.01 0,0 0,0.01 0,0 0,0.01 0.01,0.01 0,0 0,0.01 0,0 0,0 0,0.01 0,0 0,0.01 0,0 0.01,0 0,0.01 0,0 0,0 0,0 0,0 0,0 0,0.01 0,0 0,0 0,0 0,0 0,0 0,0 c 0,0.03 -0.03,0.1 -0.11,0.1 -0.14,0 -0.72,-0.06 -0.9,-0.07 -0.05,-0.01 -0.15,-0.02 -0.15,-0.16 0,-0.1 0.1,-0.1 0.18,-0.1 0.34,0 0.34,-0.05 0.34,-0.1 0,-0.05 -0.02,-0.1 -0.03,-0.16 l -0.4,-1.58 c -0.14,0.23 -0.38,0.41 -0.72,0.41 v -0.2 c 0.49,0 0.62,-0.53 0.62,-0.6 0,-0.03 -0.01,-0.08 -0.02,-0.1 l -0.32,-1.3 c -0.05,-0.2 -0.21,-0.33 -0.36,-0.47 -0.06,-0.05 -0.34,-0.27 -0.64,-0.27 -0.26,0 -0.51,0.18 -0.51,0.67 0,0.37 0.2,1.13 0.36,1.41 0.32,0.56 0.68,0.66 0.87,0.66 v 0.2 c -0.89,0 -1.79,-0.98 -1.79,-1.98 0,-0.68 0.45,-1.16 1.05,-1.16 0.38,0 0.71,0.22 0.99,0.49 0.13,-0.42 0.53,-0.49 0.72,-0.49 0.25,0 0.42,0.15 0.55,0.37 0.15,0.27 0.24,0.67 0.24,0.69 0,0.1 -0.09,0.1 -0.11,0.1 -0.1,0 -0.11,-0.03 -0.16,-0.22 -0.08,-0.33 -0.21,-0.74 -0.5,-0.74 -0.18,0 -0.23,0.15 -0.23,0.34 0,0.13 0.01,0.19 0.03,0.28 z"
         inkscape:connector-curvature="0"
         style="fill:#000000;stroke-width:0" /></g>    <g
       id="g3475"
       transform="matrix(2.9936795,0,0,-2.9936795,-560.64146,3011.8415)"
       xml:space="preserve"
       stroke-miterlimit="10.433"
       font-style="normal"
       font-variant="normal"
       font-weight="normal"
       font-stretch="normal"
       font-size-adjust="none"
       letter-spacing="normal"
       word-spacing="normal"
       ns0:text="$C$"
       ns0:preamble="/home/daniel/.config/inkscape/extensions/tex_preamble.ini"
       style="font-style:normal;font-variant:normal;font-weight:normal;font-stretch:normal;letter-spacing:normal;word-spacing:normal;text-anchor:start;fill:none;stroke:#000000;stroke-width:0.3340371;stroke-linecap:butt;stroke-linejoin:miter;stroke-miterlimit:10.43299961;stroke-opacity:1;stroke-dasharray:none;stroke-dashoffset:0"><path
         style="fill:#000000;stroke-width:0"
         inkscape:connector-curvature="0"
         d="m 230.99,714.03 0,0 0,0.01 0,0 0,0 0,0.01 0,0 0,0 0,0.01 0,0 0,0.01 -0.01,0 0,0 0,0.01 0,0 -0.01,0.01 0,0 0,0 0,0.01 -0.01,0 0,0 -0.01,0.01 0,0 -0.01,0 0,0.01 -0.01,0 0,0 0,0 -0.01,0 0,0 0,0 -0.01,0 0,0.01 0,0 -0.01,0 0,0 0,0 -0.01,0 0,0 -0.01,0 c -0.03,0 -0.04,-0.01 -0.14,-0.12 l -0.7,-0.77 c -0.09,0.14 -0.55,0.89 -1.65,0.89 -2.22,0 -4.46,-2.2 -4.46,-4.5 0,-1.64 1.17,-2.72 2.7,-2.72 0.86,0 1.62,0.39 2.14,0.85 0.93,0.82 1.1,1.72 1.1,1.75 0,0.1 -0.1,0.1 -0.12,0.1 -0.06,0 -0.11,-0.02 -0.13,-0.1 -0.09,-0.29 -0.32,-0.99 -1,-1.57 -0.69,-0.56 -1.32,-0.73 -1.83,-0.73 -0.9,0 -1.95,0.52 -1.95,2.07 0,0.57 0.2,2.18 1.2,3.34 0.61,0.7 1.54,1.2 2.43,1.2 1.01,0 1.6,-0.77 1.6,-1.92 0,-0.39 -0.03,-0.4 -0.03,-0.5 0,-0.1 0.11,-0.1 0.15,-0.1 0.13,0 0.13,0.02 0.18,0.2 z"
         id="path3477" /></g>    <g
       id="g3168"
       transform="matrix(2.9936795,0,0,-2.9936795,-434.03305,2773.4212)"
       xml:space="preserve"
       stroke-miterlimit="10.433"
       font-style="normal"
       font-variant="normal"
       font-weight="normal"
       font-stretch="normal"
       font-size-adjust="none"
       letter-spacing="normal"
       word-spacing="normal"
       ns0:text="$V_d$"
       ns0:preamble="/usr/local/google/home/danielsank/lib/textext_preamble.tex"
       style="font-style:normal;font-variant:normal;font-weight:normal;font-stretch:normal;letter-spacing:normal;word-spacing:normal;text-anchor:start;fill:none;stroke:#000000;stroke-width:0.3340371;stroke-linecap:butt;stroke-linejoin:miter;stroke-miterlimit:10.43299961;stroke-opacity:1;stroke-dasharray:none;stroke-dashoffset:0"><path
         style="fill:#000000;stroke-width:0"
         inkscape:connector-curvature="0"
         d="m 229.68,662.89 0.05,0.07 0.04,0.06 0.05,0.07 0.04,0.05 0.04,0.06 0.05,0.05 0.04,0.05 0.04,0.04 0.05,0.04 0.04,0.04 0.04,0.03 0.04,0.03 0.04,0.03 0.04,0.03 0.04,0.02 0.04,0.02 0.04,0.02 0.04,0.02 0.04,0.01 0.04,0.02 0.04,0.01 0.03,0.01 0.04,0.01 0.04,0 0.03,0.01 0.04,0 0.07,0.01 0.07,0.01 0.07,0 c 0.12,0.01 0.13,0.18 0.13,0.19 0,0.08 -0.05,0.12 -0.13,0.12 -0.25,0 -0.54,-0.03 -0.81,-0.03 -0.33,0 -0.67,0.03 -0.99,0.03 -0.06,0 -0.19,0 -0.19,-0.19 0,-0.11 0.09,-0.12 0.16,-0.12 0.27,-0.02 0.46,-0.12 0.46,-0.33 0,-0.15 -0.15,-0.36 -0.15,-0.37 l -3.05,-4.85 -0.68,5.25 c 0,0.17 0.23,0.3 0.69,0.3 0.14,0 0.25,0 0.25,0.2 0,0.09 -0.08,0.11 -0.14,0.11 -0.4,0 -0.83,-0.03 -1.24,-0.03 -0.18,0 -0.36,0.01 -0.55,0.01 -0.17,0 -0.36,0.02 -0.53,0.02 -0.07,0 -0.19,0 -0.19,-0.19 0,-0.12 0.09,-0.12 0.25,-0.12 0.55,0 0.56,-0.09 0.6,-0.34 l 0.78,-6.13 c 0.03,-0.19 0.07,-0.22 0.2,-0.22 0.16,0 0.2,0.05 0.28,0.18 z"
         id="path3170" /><path
         style="fill:#000000;stroke-width:0"
         inkscape:connector-curvature="0"
         d="m 233.22,660.36 0,0 0,0 0,0 0,0 0,0 0,0 0,0.01 0,0 0.01,0 0,0 0,0.01 0,0 0,0 0,0.01 0,0 0,0.01 0,0 0.01,0.01 0,0.01 0,0 0,0.01 0,0 0,0 0,0.01 0,0 0,0.01 0.01,0 0,0 0,0.01 0,0 0,0 0,0 0,0 0,0 0,0.01 0,0 0,0 0,0 0,0 0,0 0,0 c 0,0.03 -0.03,0.1 -0.11,0.1 -0.14,0 -0.72,-0.06 -0.89,-0.07 -0.06,-0.01 -0.16,-0.02 -0.16,-0.16 0,-0.1 0.1,-0.1 0.18,-0.1 0.34,0 0.34,-0.05 0.34,-0.1 0,-0.05 -0.02,-0.1 -0.03,-0.16 l -0.4,-1.58 c -0.14,0.23 -0.38,0.41 -0.71,0.41 v -0.2 c 0.48,0 0.62,-0.53 0.62,-0.6 0,-0.03 -0.02,-0.08 -0.02,-0.1 l -0.33,-1.3 c -0.05,-0.2 -0.2,-0.33 -0.36,-0.47 -0.06,-0.05 -0.34,-0.27 -0.64,-0.27 -0.26,0 -0.51,0.18 -0.51,0.67 0,0.37 0.2,1.13 0.37,1.41 0.31,0.56 0.67,0.66 0.87,0.66 v 0.2 c -0.9,0 -1.8,-0.98 -1.8,-1.98 0,-0.68 0.45,-1.16 1.05,-1.16 0.38,0 0.71,0.22 0.99,0.49 0.13,-0.42 0.54,-0.49 0.72,-0.49 0.25,0 0.42,0.15 0.55,0.37 0.15,0.27 0.24,0.67 0.24,0.69 0,0.1 -0.09,0.1 -0.11,0.1 -0.1,0 -0.1,-0.03 -0.15,-0.22 -0.09,-0.33 -0.22,-0.74 -0.51,-0.74 -0.18,0 -0.23,0.15 -0.23,0.34 0,0.13 0.01,0.19 0.03,0.28 z"
         id="path3172" /></g>    <path
       transform="matrix(0.88388352,0,0,0.94280904,232.40248,828.11409)"
       d="m 26.516504,-7.7099905 c 0,4.3933983 -3.798989,7.95495128 -8.485281,7.95495128 -4.686291,0 -8.4852807,-3.56155298 -8.4852807,-7.95495128 0,-4.3933985 3.7989897,-7.9549515 8.4852807,-7.9549515 4.686292,0 8.485281,3.561553 8.485281,7.9549515 z"
       sodipodi:ry="7.9549513"
       sodipodi:rx="8.485281"
       sodipodi:cy="-7.7099905"
       sodipodi:cx="18.031223"
       id="path3233"
       style="fill:#000000;fill-opacity:1;stroke:none"
       sodipodi:type="arc" />
    <g
       style="font-style:normal;font-variant:normal;font-weight:normal;font-stretch:normal;letter-spacing:normal;word-spacing:normal;text-anchor:start;fill:none;stroke:#000000;stroke-width:0.3340371;stroke-linecap:butt;stroke-linejoin:miter;stroke-miterlimit:10.43299961;stroke-opacity:1;stroke-dasharray:none;stroke-dashoffset:0"
       ns0:preamble="/usr/local/google/home/danielsank/lib/textext_preamble.tex"
       ns0:text="$2V_s$"
       word-spacing="normal"
       letter-spacing="normal"
       font-size-adjust="none"
       font-stretch="normal"
       font-weight="normal"
       font-variant="normal"
       font-style="normal"
       stroke-miterlimit="10.433"
       xml:space="preserve"
       transform="matrix(2.9936795,0,0,-2.9936795,-492.54493,2955.0997)"
       id="content"><path
         id="path4064"
         d="m 224.7,658 1.05,1.02 c 1.55,1.37 2.15,1.91 2.15,2.9 0,1.14 -0.9,1.93 -2.11,1.93 -1.12,0 -1.86,-0.91 -1.86,-1.8 0,-0.55 0.5,-0.55 0.53,-0.55 0.17,0 0.51,0.12 0.51,0.52 0,0.26 -0.18,0.52 -0.52,0.52 -0.08,0 -0.1,0 -0.13,-0.01 0.23,0.64 0.76,1.01 1.34,1.01 0.91,0 1.33,-0.8 1.33,-1.62 0,-0.79 -0.49,-1.58 -1.04,-2.19 l -1.91,-2.13 c -0.11,-0.11 -0.11,-0.13 -0.11,-0.37 h 3.69 l 0.28,1.73 h -0.25 c -0.05,-0.3 -0.12,-0.73 -0.22,-0.88 C 227.36,658 226.71,658 226.49,658 z"
         inkscape:connector-curvature="0"
         style="fill:#000000;stroke-width:0" /><path
         id="path4066"
         d="m 234.66,662.89 0.05,0.07 0.04,0.06 0.05,0.07 0.04,0.05 0.04,0.06 0.05,0.05 0.04,0.05 0.04,0.04 0.05,0.04 0.04,0.04 0.04,0.03 0.04,0.03 0.04,0.03 0.04,0.03 0.04,0.02 0.04,0.02 0.04,0.02 0.04,0.02 0.04,0.01 0.04,0.02 0.04,0.01 0.03,0.01 0.04,0.01 0.04,0 0.04,0.01 0.03,0 0.07,0.01 0.08,0.01 0.06,0 c 0.12,0.01 0.13,0.18 0.13,0.19 0,0.08 -0.05,0.12 -0.13,0.12 -0.25,0 -0.54,-0.03 -0.81,-0.03 -0.33,0 -0.67,0.03 -0.99,0.03 -0.06,0 -0.18,0 -0.18,-0.19 0,-0.11 0.08,-0.12 0.15,-0.12 0.27,-0.02 0.46,-0.12 0.46,-0.33 0,-0.15 -0.15,-0.36 -0.15,-0.37 l -3.05,-4.85 -0.68,5.25 c 0,0.17 0.23,0.3 0.69,0.3 0.14,0 0.25,0 0.25,0.2 0,0.09 -0.08,0.11 -0.14,0.11 -0.4,0 -0.83,-0.03 -1.24,-0.03 -0.17,0 -0.36,0.01 -0.54,0.01 -0.18,0 -0.37,0.02 -0.54,0.02 -0.07,0 -0.19,0 -0.19,-0.19 0,-0.12 0.09,-0.12 0.25,-0.12 0.56,0 0.57,-0.09 0.6,-0.34 l 0.78,-6.13 c 0.03,-0.19 0.07,-0.22 0.2,-0.22 0.16,0 0.2,0.05 0.28,0.18 z"
         inkscape:connector-curvature="0"
         style="fill:#000000;stroke-width:0" /><path
         id="path4068"
         d="m 237.23,658.36 -0.02,-0.01 -0.02,0 -0.01,-0.01 -0.02,0 -0.01,-0.01 -0.02,-0.01 -0.01,-0.01 -0.02,0 -0.01,-0.01 -0.01,-0.01 -0.01,-0.01 -0.02,-0.01 -0.01,-0.01 -0.01,-0.01 -0.01,-0.01 -0.01,-0.01 -0.01,-0.01 -0.01,-0.01 0,-0.02 -0.01,-0.01 -0.01,-0.01 0,-0.01 -0.01,-0.01 -0.01,-0.02 0,-0.01 0,-0.01 -0.01,-0.02 0,-0.01 0,-0.01 0,-0.01 -0.01,-0.02 0,-0.01 c 0,-0.16 0.14,-0.22 0.23,-0.22 0.07,0 0.34,0.04 0.34,0.39 0,0.46 -0.5,0.61 -0.93,0.61 -1.08,0 -1.28,-0.8 -1.28,-1.02 0,-0.26 0.15,-0.42 0.24,-0.51 0.18,-0.13 0.31,-0.16 0.79,-0.25 0.15,-0.02 0.59,-0.11 0.59,-0.45 0,-0.12 -0.07,-0.39 -0.37,-0.56 -0.27,-0.15 -0.61,-0.15 -0.69,-0.15 -0.28,0 -0.68,0.06 -0.84,0.29 0.23,0.03 0.39,0.2 0.39,0.39 0,0.18 -0.13,0.26 -0.28,0.26 -0.2,0 -0.4,-0.16 -0.4,-0.46 0,-0.42 0.44,-0.68 1.12,-0.68 1.28,0 1.52,0.88 1.52,1.15 0,0.64 -0.7,0.76 -0.96,0.81 -0.06,0.02 -0.24,0.04 -0.28,0.06 -0.26,0.05 -0.38,0.19 -0.38,0.35 0,0.16 0.12,0.34 0.27,0.44 0.19,0.12 0.44,0.13 0.56,0.13 0.14,0 0.5,-0.02 0.66,-0.25 z"
         inkscape:connector-curvature="0"
         style="fill:#000000;stroke-width:0" /></g>    <path
       inkscape:connector-curvature="0"
       style="fill:none;stroke:#000000;stroke-width:3;stroke-linecap:round;stroke-miterlimit:4;stroke-opacity:1;stroke-dasharray:none"
       d="m 232.80241,981.41382 c 0.10463,-0.15337 0.20926,-0.30665 0.31389,-0.45969 0.10463,-0.153 0.20926,-0.30574 0.31389,-0.45785 0.10463,-0.15206 0.20926,-0.30357 0.31389,-0.45413 0.10463,-0.15058 0.20926,-0.30021 0.31389,-0.44865 0.10463,-0.14834 0.20926,-0.2956 0.31389,-0.44128 0.10463,-0.14573 0.20926,-0.28984 0.31389,-0.4322 0.10463,-0.14238 0.20926,-0.28289 0.31389,-0.42134 0.10463,-0.13847 0.20926,-0.27481 0.31389,-0.4088 0.10463,-0.13399 0.20926,-0.26562 0.31389,-0.39461 0.10463,-0.12897 0.20926,-0.25535 0.31389,-0.37884 0.10463,-0.12355 0.20926,-0.24405 0.31389,-0.36151 0.10463,-0.11741 0.20926,-0.2318 0.31389,-0.34278 0.10463,-0.11088 0.20926,-0.21858 0.31389,-0.32262 0.10463,-0.10399 0.20926,-0.20451 0.31389,-0.30119 0.10463,-0.0967 0.20926,-0.18959 0.31389,-0.27854 0.10463,-0.0889 0.20926,-0.17387 0.31389,-0.25477 0.10463,-0.0809 0.20926,-0.15747 0.31389,-0.22995 0.10463,-0.0725 0.20926,-0.14051 0.31389,-0.20425 0.10463,-0.0637 0.20926,-0.12299 0.31389,-0.17778 0.10463,-0.0548 0.20926,-0.10492 0.31389,-0.1504 0.10463,-0.0455 0.20926,-0.0865 0.31389,-0.12262 0.10463,-0.0362 0.20926,-0.0677 0.31389,-0.0941 0.10463,-0.0267 0.20926,-0.0485 0.31389,-0.0654 0.10463,-0.0168 0.20926,-0.0291 0.31389,-0.0365 0.10463,-0.007 0.20926,-0.009 0.31389,-0.007 0.10464,0.002 0.20927,0.009 0.3139,0.022 0.10463,0.013 0.20926,0.0292 0.31388,0.0511 0.10463,0.0218 0.20926,0.0485 0.31389,0.0799 0.10463,0.0313 0.20926,0.0676 0.31389,0.10846 0.10463,0.0408 0.20926,0.0865 0.31389,0.1366 0.10463,0.0501 0.20926,0.10492 0.31389,0.16418 0.10463,0.0593 0.20926,0.123 0.31389,0.19106 0.10463,0.068 0.20926,0.14051 0.31389,0.21722 0.10463,0.0766 0.20926,0.15747 0.31389,0.24247 0.10463,0.085 0.20927,0.17387 0.3139,0.26679 0.10463,0.0928 0.20926,0.1896 0.31389,0.29001 0.10463,0.10045 0.20926,0.20451 0.31389,0.31206 0.10463,0.10753 0.20926,0.2186 0.31389,0.33288 0.10463,0.11424 0.20926,0.23179 0.31389,0.35231 0.10463,0.12057 0.20926,0.24407 0.31389,0.37037 0.10463,0.12635 0.20926,0.25535 0.31389,0.38692 0.10463,0.13157 0.20926,0.26562 0.31388,0.4019 0.10463,0.13623 0.20926,0.27483 0.31389,0.41529 0.10464,0.14051 0.20927,0.28289 0.3139,0.42698 0.10463,0.14406 0.20926,0.28985 0.31389,0.43696 0.10463,0.14722 0.20926,0.29562 0.31389,0.44519 0.10463,0.14946 0.20926,0.30021 0.31389,0.45161 0.10463,0.15151 0.20926,0.30359 0.31389,0.45622 0.10463,0.15263 0.20926,0.30574 0.31389,0.45901 0.10463,0.15318 0.20926,0.30667 0.31389,0.45993 0.10463,0.15319 0.20926,0.30636 0.31389,0.459 0.10463,0.15263 0.20926,0.30481 0.31389,0.45623 0.10463,0.15151 0.20926,0.30205 0.31389,0.45162 0.10463,0.14946 0.20926,0.29807 0.31389,0.44518 0.10463,0.14722 0.20926,0.29288 0.31389,0.43696 0.10463,0.14405 0.20926,0.2865 0.31389,0.42698 0.10463,0.14052 0.20926,0.279 0.31389,0.41529 0.10463,0.13622 0.20926,0.27035 0.31389,0.4019 0.10463,0.13157 0.20926,0.26062 0.31389,0.38692 0.10463,0.12635 0.20926,0.24983 0.31389,0.37037 0.10463,0.12057 0.20926,0.23803 0.31389,0.35233 0.10463,0.11424 0.20926,0.22529 0.31389,0.33286 0.10463,0.10752 0.20926,0.21164 0.31389,0.31207 0.10463,0.10045 0.20926,0.19713 0.31389,0.29 0.10463,0.0928 0.20926,0.18188 0.31389,0.26679 0.10463,0.085 0.20926,0.16586 0.31389,0.24247 0.10463,0.0768 0.20926,0.14909 0.31389,0.21722 0.10463,0.068 0.20926,0.13176 0.31389,0.19106 0.10463,0.0593 0.20926,0.11405 0.31389,0.16418 0.10463,0.0501 0.20927,0.0956 0.3139,0.1366 0.10463,0.0408 0.20925,0.077 0.31388,0.10846 0.10463,0.0313 0.20926,0.0582 0.31389,0.08 0.10463,0.0218 0.20926,0.0388 0.31389,0.0509 0.10463,0.013 0.20926,0.0194 0.31389,0.022 0.10463,0.002 0.20926,0 0.31389,-0.007 0.10463,-0.007 0.20926,-0.0194 0.31389,-0.0365 0.10463,-0.0168 0.20926,-0.0388 0.31389,-0.0654 0.10463,-0.0267 0.20926,-0.0581 0.31389,-0.0943 0.10463,-0.0362 0.20926,-0.077 0.31389,-0.12263 0.10464,-0.0455 0.20927,-0.0958 0.3139,-0.15039 0.10463,-0.0548 0.20926,-0.11405 0.31389,-0.1776 0.10463,-0.0637 0.20926,-0.13176 0.31389,-0.20423 0.10463,-0.0725 0.20926,-0.14909 0.31389,-0.22997 0.10463,-0.0809 0.20926,-0.16586 0.31389,-0.25477 0.10463,-0.0889 0.20926,-0.18189 0.31389,-0.27853 0.10463,-0.0967 0.20925,-0.19715 0.31388,-0.3012 0.10463,-0.10399 0.20926,-0.21165 0.31389,-0.32262 0.10463,-0.11089 0.20926,-0.22531 0.31389,-0.34276 0.10463,-0.1174 0.20926,-0.23807 0.31389,-0.36153 0.10464,-0.12356 0.20927,-0.24984 0.3139,-0.37883 0.10463,-0.12897 0.20926,-0.26063 0.31389,-0.39462 0.10463,-0.13399 0.20926,-0.27035 0.31389,-0.4088 0.10463,-0.13846 0.20926,-0.279 0.31389,-0.42134 0.10463,-0.14238 0.20926,-0.28651 0.31389,-0.43218 0.10463,-0.14574 0.20926,-0.29289 0.31389,-0.4413 0.10463,-0.14834 0.20926,-0.29807 0.31389,-0.44864 0.10463,-0.15058 0.20926,-0.30204 0.31389,-0.45414 0.10463,-0.15207 0.20926,-0.30483 0.31389,-0.45785 0.10463,-0.153 0.20926,-0.30636 0.31389,-0.45969"
       title="t sin(t)"
       id="path4198" />
    <g
       style="font-style:normal;font-variant:normal;font-weight:normal;font-stretch:normal;letter-spacing:normal;word-spacing:normal;text-anchor:start;fill:none;stroke:#000000;stroke-width:0.3340371;stroke-linecap:butt;stroke-linejoin:miter;stroke-miterlimit:10.43299961;stroke-opacity:1;stroke-dasharray:none;stroke-dashoffset:0"
       ns0:preamble="/usr/local/google/home/danielsank/lib/textext_preamble.tex"
       ns0:text="$R_d$"
       text-anchor="start"
       word-spacing="normal"
       letter-spacing="normal"
       font-size-adjust="none"
       font-stretch="normal"
       font-weight="normal"
       font-variant="normal"
       font-style="normal"
       fill-opacity="1"
       fill-rule="evenodd"
       fill="none"
       stroke-opacity="1"
       stroke-dashoffset="0"
       stroke-dasharray="none"
       stroke-miterlimit="10.433"
       stroke-linejoin="miter"
       stroke-linecap="butt"
       stroke="black"
       xml:space="preserve"
       transform="matrix(2.9936795,0,0,-2.9936795,-474.179,2884.5685)"
       id="g3104"><path
         id="path3106"
         fill="black"
         stroke-width="0"
         d="M228.6,660.61 L228.69,660.63 L228.79,660.66 L228.88,660.69 L228.98,660.72 L229.07,660.75 L229.17,660.78 L229.27,660.82 L229.36,660.86 L229.46,660.91 L229.55,660.95 L229.64,661 L229.73,661.05 L229.82,661.1 L229.9,661.16 L229.99,661.22 L230.07,661.28 L230.14,661.34 L230.22,661.4 L230.29,661.47 L230.36,661.54 L230.42,661.61 L230.48,661.68 L230.53,661.76 L230.58,661.84 L230.63,661.92 L230.67,662 L230.7,662.08 L230.73,662.17 L230.75,662.26 L230.77,662.35 L230.78,662.44 L230.78,662.53 C230.78,663.38,229.89,664.02,228.59,664.02 H225.75 C225.55,664.02,225.46,664.02,225.46,663.82 C225.46,663.71,225.55,663.71,225.74,663.71 C225.76,663.71,225.95,663.71,226.12,663.69 C226.3,663.67,226.39,663.66,226.39,663.53 C226.39,663.49,226.38,663.46,226.35,663.34 L225.01,658.01 C224.91,657.62,224.9,657.54,224.11,657.54 C223.93,657.54,223.84,657.54,223.84,657.34 C223.84,657.23,223.96,657.23,223.98,657.23 C224.26,657.23,224.95,657.27,225.23,657.27 C225.51,657.27,226.22,657.23,226.5,657.23 C226.58,657.23,226.7,657.23,226.7,657.43 C226.7,657.54,226.61,657.54,226.42,657.54 C226.05,657.54,225.77,657.54,225.77,657.72 C225.77,657.78,225.79,657.83,225.8,657.89 L226.46,660.52 H227.64 L227.63,660.74 H226.52 L227.16,663.33 C227.22,663.57,227.25,663.67,227.44,663.7 C227.53,663.71,227.85,663.71,228.05,663.71 C228.76,663.71,229.86,663.71,229.86,662.73 C229.86,662.39,229.7,661.71,229.31,661.32 C229.05,661.06,228.53,660.74,227.63,660.74 L227.64,660.52 C228.55,660.52,228.73,659.97,228.73,659.62 C228.73,659.47,228.65,659.16,228.59,658.93 C228.52,658.66,228.43,658.29,228.43,658.09 C228.43,657.02,229.62,657.02,229.75,657.02 C230.6,657.02,230.94,658.02,230.94,658.16 C230.94,658.28,230.83,658.28,230.82,658.28 C230.74,658.28,230.71,658.21,230.7,658.14 C230.45,657.4,230.02,657.23,229.79,657.23 C229.46,657.23,229.39,657.45,229.39,657.84 C229.39,658.15,229.45,658.66,229.49,658.97 C229.51,659.11,229.53,659.3,229.53,659.44 C229.53,660.21,228.86,660.51,228.6,660.61 Z " /><path
         id="path3108"
         fill="black"
         stroke-width="0"
         d="M234.97,660.36 L234.97,660.36 L234.97,660.36 L234.98,660.36 L234.98,660.36 L234.98,660.36 L234.98,660.36 L234.98,660.37 L234.98,660.37 L234.98,660.37 L234.98,660.37 L234.98,660.38 L234.98,660.38 L234.98,660.38 L234.98,660.39 L234.98,660.39 L234.99,660.4 L234.99,660.4 L234.99,660.41 L234.99,660.42 L234.99,660.42 L234.99,660.43 L234.99,660.43 L234.99,660.43 L235,660.44 L235,660.44 L235,660.45 L235,660.45 L235,660.45 L235,660.46 L235,660.46 L235,660.46 L235,660.46 L235,660.46 L235,660.46 L235,660.47 L235,660.47 L235,660.47 L235,660.47 L235,660.47 L235,660.47 L235,660.47 C235,660.5,234.97,660.57,234.89,660.57 C234.75,660.57,234.17,660.51,234,660.5 C233.94,660.49,233.85,660.48,233.85,660.34 C233.85,660.24,233.94,660.24,234.03,660.24 C234.36,660.24,234.36,660.19,234.36,660.14 C234.36,660.09,234.35,660.04,234.33,659.98 L233.94,658.4 C233.79,658.63,233.55,658.81,233.22,658.81 V658.61 C233.71,658.61,233.84,658.08,233.84,658.01 C233.84,657.98,233.82,657.93,233.82,657.91 L233.49,656.61 C233.44,656.41,233.29,656.28,233.13,656.14 C233.07,656.09,232.79,655.87,232.49,655.87 C232.24,655.87,231.99,656.05,231.99,656.54 C231.99,656.91,232.19,657.67,232.35,657.95 C232.67,658.51,233.02,658.61,233.22,658.61 V658.81 C232.33,658.81,231.42,657.83,231.42,656.83 C231.42,656.15,231.88,655.67,232.47,655.67 C232.85,655.67,233.18,655.89,233.46,656.16 C233.6,655.74,234,655.67,234.18,655.67 C234.43,655.67,234.6,655.82,234.73,656.04 C234.88,656.31,234.97,656.71,234.97,656.73 C234.97,656.83,234.88,656.83,234.86,656.83 C234.76,656.83,234.76,656.8,234.71,656.61 C234.63,656.28,234.49,655.87,234.2,655.87 C234.02,655.87,233.97,656.02,233.97,656.21 C233.97,656.34,233.99,656.4,234.01,656.49 Z " /></g>  </g>
</svg>
