<?xml version="1.0" encoding="UTF-8" standalone="no"?>
<!-- Created with Inkscape (http://www.inkscape.org/) -->

<svg
   xmlns:ns0="http://www.iki.fi/pav/software/textext/"
   xmlns:dc="http://purl.org/dc/elements/1.1/"
   xmlns:cc="http://creativecommons.org/ns#"
   xmlns:rdf="http://www.w3.org/1999/02/22-rdf-syntax-ns#"
   xmlns:svg="http://www.w3.org/2000/svg"
   xmlns="http://www.w3.org/2000/svg"
   xmlns:sodipodi="http://sodipodi.sourceforge.net/DTD/sodipodi-0.dtd"
   xmlns:inkscape="http://www.inkscape.org/namespaces/inkscape"
   width="744.09448819"
   height="1052.3622047"
   id="svg2"
   version="1.1"
   inkscape:version="0.48.4 r9939"
   sodipodi:docname="singleCircuitWithDrive.svg">
  <sodipodi:namedview
     id="base"
     pagecolor="#ffffff"
     bordercolor="#666666"
     borderopacity="1.0"
     inkscape:pageopacity="0.0"
     inkscape:pageshadow="2"
     inkscape:zoom="2"
     inkscape:cx="503.35424"
     inkscape:cy="900.37232"
     inkscape:document-units="px"
     inkscape:current-layer="layer1"
     showgrid="false"
     inkscape:window-width="1855"
     inkscape:window-height="1056"
     inkscape:window-x="65"
     inkscape:window-y="24"
     inkscape:window-maximized="1" />
  <defs
     id="defs4" />
  <metadata
     id="metadata7">
    <rdf:RDF>
      <cc:Work
         rdf:about="">
        <dc:format>image/svg+xml</dc:format>
        <dc:type
           rdf:resource="http://purl.org/dc/dcmitype/StillImage" />
        <dc:title />
      </cc:Work>
    </rdf:RDF>
  </metadata>
  <g
     id="layer1"
     inkscape:groupmode="layer"
     inkscape:label="Layer 1">
    <g
       transform="translate(0,2.2361604)"
       id="g3128">
      <g
         style="stroke-width:8.42674541;stroke-miterlimit:4;stroke-dasharray:none"
         transform="matrix(0.34754735,0,0,0.36467736,298.38641,16.28361)"
         id="g3854">
        <path
           sodipodi:type="arc"
           style="fill:none;stroke:#000000;stroke-width:9.10451508;stroke-linecap:round;stroke-linejoin:round;stroke-miterlimit:4;stroke-opacity:1;stroke-dasharray:none;stroke-dashoffset:0"
           id="path2985-1"
           sodipodi:cx="82.85714"
           sodipodi:cy="243.79076"
           sodipodi:rx="41.42857"
           sodipodi:ry="42.857143"
           d="M 109.48691,276.62123 C 91.959533,291.8356 65.82823,289.47057 51.121014,271.3388 36.413797,253.20703 38.69999,226.17464 56.227368,210.96028 c 15.401341,-13.36889 37.858203,-13.36889 53.259542,0"
           transform="matrix(0.94137935,0,0,0.90999999,2.4285698,12.798306)"
           sodipodi:start="0.87266463"
           sodipodi:end="5.4105207"
           sodipodi:open="true" />
        <path
           sodipodi:type="arc"
           style="fill:none;stroke:#000000;stroke-width:9.10451508;stroke-linecap:round;stroke-linejoin:round;stroke-miterlimit:4;stroke-opacity:1;stroke-dasharray:none;stroke-dashoffset:0"
           id="path2985-1-7"
           sodipodi:cx="82.85714"
           sodipodi:cy="243.79076"
           sodipodi:rx="41.42857"
           sodipodi:ry="42.857143"
           d="M 109.48691,276.62123 C 91.959533,291.8356 65.82823,289.47057 51.121014,271.3388 36.413797,253.20703 38.69999,226.17464 56.227368,210.96028 63.688616,204.48366 73.117174,200.93361 82.85714,200.93361"
           transform="matrix(0.94137935,0,0,0.90999999,2.4285701,-46.058833)"
           sodipodi:start="0.87266463"
           sodipodi:end="4.712389"
           sodipodi:open="true" />
        <path
           sodipodi:type="arc"
           style="fill:none;stroke:#000000;stroke-width:9.10451508;stroke-linecap:round;stroke-linejoin:round;stroke-miterlimit:4;stroke-opacity:1;stroke-dasharray:none;stroke-dashoffset:0"
           id="path2985-1-4"
           sodipodi:cx="82.85714"
           sodipodi:cy="243.79076"
           sodipodi:rx="41.42857"
           sodipodi:ry="42.857143"
           d="M 109.48691,276.62123 C 91.959533,291.8356 65.82823,289.47057 51.121014,271.3388 36.413797,253.20703 38.69999,226.17464 56.227368,210.96028 c 15.401341,-13.36889 37.858203,-13.36889 53.259542,0"
           transform="matrix(0.94137935,0,0,0.90999999,2.4285698,72.84578)"
           sodipodi:start="0.87266463"
           sodipodi:end="5.4105207"
           sodipodi:open="true" />
        <path
           sodipodi:type="arc"
           style="fill:none;stroke:#000000;stroke-width:9.10451508;stroke-linecap:round;stroke-linejoin:round;stroke-miterlimit:4;stroke-opacity:1;stroke-dasharray:none;stroke-dashoffset:0"
           id="path2985-1-4-0"
           sodipodi:cx="82.85714"
           sodipodi:cy="243.79076"
           sodipodi:rx="41.42857"
           sodipodi:ry="42.857143"
           d="M 109.48691,276.62123 C 91.959533,291.8356 65.82823,289.47057 51.121014,271.3388 36.413797,253.20703 38.69999,226.17464 56.227368,210.96028 c 15.401341,-13.36889 37.858203,-13.36889 53.259542,0"
           transform="matrix(0.94137935,0,0,0.90999999,2.4285698,132.89324)"
           sodipodi:start="0.87266463"
           sodipodi:end="5.4105207"
           sodipodi:open="true" />
        <path
           sodipodi:type="arc"
           style="fill:none;stroke:#000000;stroke-width:9.10451508;stroke-linecap:round;stroke-linejoin:round;stroke-miterlimit:4;stroke-opacity:1;stroke-dasharray:none;stroke-dashoffset:0"
           id="path2985-1-4-9"
           sodipodi:cx="82.85714"
           sodipodi:cy="243.79076"
           sodipodi:rx="41.42857"
           sodipodi:ry="42.857143"
           d="m 82.857141,286.6479 c -22.880368,0 -41.428571,-19.1878 -41.428571,-42.85714 -10e-7,-23.66935 18.548201,-42.85715 41.428568,-42.85715 9.739967,0 19.168522,3.55005 26.629772,10.02667"
           transform="matrix(0.94137935,0,0,0.90999999,2.4281158,192.94071)"
           sodipodi:start="1.5707963"
           sodipodi:end="5.4105207"
           sodipodi:open="true" />
        <path
           style="fill:none;stroke:#000000;stroke-width:8.42674541;stroke-linecap:round;stroke-linejoin:miter;stroke-miterlimit:4;stroke-opacity:1;stroke-dasharray:none"
           d="m 80.533543,136.29075 0,-45.35714"
           id="path3834"
           inkscape:connector-curvature="0" />
        <path
           style="fill:none;stroke:#000000;stroke-width:8.42674541;stroke-linecap:round;stroke-linejoin:miter;stroke-miterlimit:4;stroke-opacity:1;stroke-dasharray:none"
           d="m 80.533543,499.25381 0,-45.35714"
           id="path3834-4"
           inkscape:connector-curvature="0" />
      </g>
      <g
         transform="matrix(0.6561,0,0,0.6561,255.61483,-49.790997)"
         id="g3919">
        <path
           style="fill:none;stroke:#000000;stroke-width:4.57247353;stroke-linecap:round;stroke-linejoin:miter;stroke-miterlimit:4;stroke-opacity:1;stroke-dasharray:none"
           d="m 178.62039,257.18706 78.57142,0"
           id="path3863"
           inkscape:connector-curvature="0" />
        <path
           style="fill:none;stroke:#000000;stroke-width:4.57247353;stroke-linecap:round;stroke-linejoin:miter;stroke-miterlimit:4;stroke-opacity:1;stroke-dasharray:none"
           d="m 178.62039,278.97278 78.57142,0"
           id="path3863-8"
           inkscape:connector-curvature="0" />
        <path
           style="fill:none;stroke:#000000;stroke-width:4.57247353;stroke-linecap:round;stroke-linejoin:miter;stroke-miterlimit:4;stroke-opacity:1;stroke-dasharray:none"
           d="m 217.9061,151.44921 0,104.05728"
           id="path3863-82"
           inkscape:connector-curvature="0" />
        <path
           style="fill:none;stroke:#000000;stroke-width:4.57247353;stroke-linecap:round;stroke-linejoin:miter;stroke-miterlimit:4;stroke-opacity:1;stroke-dasharray:none"
           d="m 217.9061,279.30264 0,98.8004"
           id="path3863-82-4"
           inkscape:connector-curvature="0" />
      </g>
      <path
         inkscape:connector-curvature="0"
         id="path3925"
         d="m 326.53564,49.41173 72.00492,0"
         style="fill:none;stroke:#000000;stroke-width:3.00000024;stroke-linecap:round;stroke-linejoin:miter;stroke-miterlimit:4;stroke-opacity:1;stroke-dasharray:none" />
      <path
         inkscape:connector-curvature="0"
         id="path3925-5"
         d="m 326.41554,198.39 72.13617,0"
         style="fill:none;stroke:#000000;stroke-width:3.00000024;stroke-linecap:round;stroke-linejoin:miter;stroke-miterlimit:4;stroke-opacity:1;stroke-dasharray:none" />
      <g
         id="g3124">
        <path
           sodipodi:type="star"
           style="fill:none;stroke:#000000;stroke-width:3;stroke-linecap:round;stroke-linejoin:round;stroke-miterlimit:4;stroke-opacity:1;stroke-dasharray:none;stroke-dashoffset:0"
           id="path3962"
           sodipodi:sides="3"
           sodipodi:cx="80"
           sodipodi:cy="251.6479"
           sodipodi:r1="15.681785"
           sodipodi:r2="7.8408914"
           sodipodi:arg1="-0.52479577"
           sodipodi:arg2="0.52240178"
           inkscape:flatsided="false"
           inkscape:rounded="0"
           inkscape:randomized="0"
           d="m 93.571429,243.79076 -6.77633,11.76946 -6.776328,11.76946 -6.804484,-11.75321 -6.804487,-11.7532 13.580814,-0.0163 z"
           inkscape:transform-center-x="0.0093855149"
           inkscape:transform-center-y="3.9123152"
           transform="translate(283.27808,-29.159893)" />
        <path
           style="fill:none;stroke:#000000;stroke-width:2.99999976;stroke-linecap:round;stroke-linejoin:miter;stroke-miterlimit:4;stroke-opacity:1;stroke-dasharray:none"
           d="m 363.2687,199.04098 0,14.08381"
           id="path3863-82-4-5"
           inkscape:connector-curvature="0" />
      </g>
    </g>
    <g
       id="g4090">
      <g
         id="g3113"
         transform="translate(-167.14286,-80)"
         style="stroke-width:3;stroke-miterlimit:4;stroke-dasharray:3,3;stroke-dashoffset:0">
        <path
           style="fill:none;stroke:#000000;stroke-width:3;stroke-linecap:round;stroke-linejoin:miter;stroke-miterlimit:4;stroke-opacity:1;stroke-dasharray:3,3;stroke-dashoffset:0"
           d="m 626.40776,105.87254 0,51.55071"
           id="path3863-7"
           inkscape:connector-curvature="0" />
        <path
           style="fill:none;stroke:#000000;stroke-width:3;stroke-linecap:round;stroke-linejoin:miter;stroke-miterlimit:4;stroke-opacity:1;stroke-dasharray:3,3;stroke-dashoffset:0"
           d="m 612.11415,105.87254 0,51.55071"
           id="path3863-8-4"
           inkscape:connector-curvature="0" />
      </g>
      <path
         inkscape:connector-curvature="0"
         id="path3863-82-4-9"
         d="m 444.75486,51.64789 -46.25398,0"
         style="fill:none;stroke:#000000;stroke-width:3;stroke-linecap:round;stroke-linejoin:miter;stroke-miterlimit:4;stroke-opacity:1;stroke-dasharray:3,3;stroke-dashoffset:0" />
      <path
         inkscape:connector-curvature="0"
         id="path3863-82-4-9-4"
         d="m 487.83799,51.64789 -27.10457,0"
         style="fill:none;stroke:#000000;stroke-width:3;stroke-linecap:round;stroke-linejoin:miter;stroke-miterlimit:4;stroke-opacity:1;stroke-dasharray:3,3;stroke-dashoffset:0" />
    </g>
    <path
       transform="matrix(0.60479259,0,0,0.62665256,396.68711,127.14228)"
       d="m 181.42856,91.290756 a 30.714285,29.642857 0 1 1 -61.42857,0 30.714285,29.642857 0 1 1 61.42857,0 z"
       sodipodi:ry="29.642857"
       sodipodi:rx="30.714285"
       sodipodi:cy="91.290756"
       sodipodi:cx="150.71428"
       id="path3148"
       style="fill:none;stroke:#000000;stroke-width:4.87309217;stroke-linecap:round;stroke-linejoin:round;stroke-miterlimit:4;stroke-opacity:1;stroke-dasharray:4.87309203, 4.87309203;stroke-dashoffset:0"
       sodipodi:type="arc" />
    <g
       id="g4097">
      <path
         style="fill:none;stroke:#000000;stroke-width:3.00000024;stroke-linecap:round;stroke-linejoin:miter;stroke-miterlimit:4;stroke-opacity:1;stroke-dasharray:3.00000024,3.00000024;stroke-dashoffset:0"
         d="m 487.83799,84.685097 0,-33.037207"
         id="path3925-8"
         inkscape:connector-curvature="0" />
      <g
         id="g4003"
         style="stroke-width:3.00000024;stroke-miterlimit:4;stroke-dasharray:3.00000024,3.00000024;stroke-dashoffset:0"
         transform="translate(9.0256847,-166)">
        <path
           inkscape:connector-curvature="0"
           id="path3821-8-5-5-4-4"
           d="m 467.60557,310.85434 22.41347,10.97869"
           style="fill:none;stroke:#000000;stroke-width:3.00000024;stroke-linecap:round;stroke-linejoin:miter;stroke-miterlimit:4;stroke-opacity:1;stroke-dasharray:3.00000024,3.00000024;stroke-dashoffset:0" />
        <path
           inkscape:connector-curvature="0"
           id="path3821-8-2-7-7-5-8"
           d="m 467.60557,288.79682 22.41347,10.97869"
           style="fill:none;stroke:#000000;stroke-width:3.00000024;stroke-linecap:round;stroke-linejoin:miter;stroke-miterlimit:4;stroke-opacity:1;stroke-dasharray:3.00000024,3.00000024;stroke-dashoffset:0" />
        <path
           inkscape:connector-curvature="0"
           id="path3821-8-4-6-2-9-8"
           d="m 467.60557,266.73932 22.41347,10.97869"
           style="fill:none;stroke:#000000;stroke-width:3.00000024;stroke-linecap:round;stroke-linejoin:miter;stroke-miterlimit:4;stroke-opacity:1;stroke-dasharray:3.00000024,3.00000024;stroke-dashoffset:0" />
        <path
           inkscape:connector-curvature="0"
           id="path3821-8-2-5-18-6-0-2"
           d="m 490.01904,299.82558 -22.41347,10.97868"
           style="fill:none;stroke:#000000;stroke-width:3.00000024;stroke-linecap:round;stroke-linejoin:miter;stroke-miterlimit:4;stroke-opacity:1;stroke-dasharray:3.00000024,3.00000024;stroke-dashoffset:0" />
        <path
           inkscape:connector-curvature="0"
           id="path3821-8-2-5-5-9-5-6-4"
           d="m 490.01904,277.76808 -22.41347,10.97869"
           style="fill:none;stroke:#000000;stroke-width:3.00000024;stroke-linecap:round;stroke-linejoin:miter;stroke-miterlimit:4;stroke-opacity:1;stroke-dasharray:3.00000024,3.00000024;stroke-dashoffset:0" />
        <path
           inkscape:connector-curvature="0"
           id="path3821-8-2-5-1-2-6-2-5"
           d="M 490.01904,255.71052 467.60557,266.6892"
           style="fill:none;stroke:#000000;stroke-width:3.00000024;stroke-linecap:round;stroke-linejoin:miter;stroke-miterlimit:4;stroke-opacity:1;stroke-dasharray:3.00000024,3.00000024;stroke-dashoffset:0" />
        <path
           inkscape:connector-curvature="0"
           id="path3821-8-4-7-7-2-4-5"
           d="m 479.34596,250.73316 10.67308,5.22794"
           style="fill:none;stroke:#000000;stroke-width:3.00000024;stroke-linecap:round;stroke-linejoin:miter;stroke-miterlimit:4;stroke-opacity:1;stroke-dasharray:3.00000024,3.00000024;stroke-dashoffset:0" />
        <path
           inkscape:connector-curvature="0"
           id="path3821-8-4-7-1-95-9-5-1"
           d="m 490.01904,321.41262 -10.67308,5.22794"
           style="fill:none;stroke:#000000;stroke-width:3.00000024;stroke-linecap:round;stroke-linejoin:miter;stroke-miterlimit:4;stroke-opacity:1;stroke-dasharray:3.00000024,3.00000024;stroke-dashoffset:0" />
      </g>
      <path
         style="fill:none;stroke:#000000;stroke-width:3.00000024;stroke-linecap:round;stroke-linejoin:miter;stroke-miterlimit:4;stroke-opacity:1;stroke-dasharray:3.00000024,3.00000024;stroke-dashoffset:0"
         d="m 487.83799,164.85957 0,-3.36476"
         id="path3925-8-8"
         inkscape:connector-curvature="0" />
    </g>
    <g
       id="g4057">
      <path
         sodipodi:type="star"
         style="fill:none;stroke:#000000;stroke-width:3;stroke-linecap:round;stroke-linejoin:round;stroke-miterlimit:4;stroke-opacity:1;stroke-dasharray:3,3;stroke-dashoffset:0"
         id="path3962-4"
         sodipodi:sides="3"
         sodipodi:cx="80"
         sodipodi:cy="251.6479"
         sodipodi:r1="15.681785"
         sodipodi:r2="7.8408914"
         sodipodi:arg1="-0.52479577"
         sodipodi:arg2="0.52240178"
         inkscape:flatsided="false"
         inkscape:rounded="0"
         inkscape:randomized="0"
         d="m 93.571429,243.79076 -6.77633,11.76946 -6.776328,11.76946 -6.804484,-11.75321 -6.804487,-11.7532 13.580814,-0.0163 z"
         inkscape:transform-center-x="0.0093855149"
         inkscape:transform-center-y="3.9123152"
         transform="translate(407.84738,-26.923733)" />
      <path
         style="fill:none;stroke:#000000;stroke-width:3;stroke-linecap:round;stroke-linejoin:miter;stroke-miterlimit:4;stroke-opacity:1;stroke-dasharray:3,3;stroke-dashoffset:0"
         d="m 487.838,203.69597 0,11.66498"
         id="path3863-82-4-5-5"
         inkscape:connector-curvature="0" />
    </g>
    <g
       ns0:preamble="/home/daniel/.config/inkscape/extensions/tex_preamble.ini"
       ns0:text="$V_d$"
       word-spacing="normal"
       letter-spacing="normal"
       font-size-adjust="none"
       font-stretch="normal"
       font-weight="normal"
       font-variant="normal"
       font-style="normal"
       stroke-miterlimit="10.433"
       xml:space="preserve"
       transform="matrix(2.4741153,0,0,-2.4741153,-77.512202,1940.7312)"
       id="content"
       style="font-style:normal;font-variant:normal;font-weight:normal;font-stretch:normal;letter-spacing:normal;word-spacing:normal;text-anchor:start;fill:none;stroke:#000000;stroke-width:0.40418491;stroke-linecap:butt;stroke-linejoin:miter;stroke-miterlimit:10.43299961;stroke-opacity:1;stroke-dasharray:none;stroke-dashoffset:0"><path
         id="path3082"
         d="m 229.68,712.78 0.05,0.07 0.04,0.06 0.05,0.07 0.04,0.05 0.04,0.06 0.05,0.05 0.04,0.05 0.04,0.04 0.05,0.04 0.04,0.04 0.04,0.03 0.04,0.03 0.04,0.03 0.04,0.03 0.04,0.02 0.04,0.02 0.04,0.02 0.04,0.02 0.04,0.01 0.04,0.02 0.04,0.01 0.03,0.01 0.04,0.01 0.04,0 0.03,0.01 0.04,0 0.07,0.01 0.07,0.01 0.07,0 c 0.12,0.01 0.13,0.18 0.13,0.19 0,0.08 -0.05,0.12 -0.13,0.12 -0.25,0 -0.54,-0.03 -0.81,-0.03 -0.33,0 -0.67,0.03 -0.99,0.03 -0.06,0 -0.19,0 -0.19,-0.19 0,-0.11 0.09,-0.12 0.16,-0.12 0.27,-0.02 0.46,-0.12 0.46,-0.33 0,-0.15 -0.15,-0.36 -0.15,-0.37 l -3.05,-4.85 -0.68,5.25 c 0,0.17 0.23,0.3 0.69,0.3 0.14,0 0.25,0 0.25,0.2 0,0.09 -0.08,0.11 -0.14,0.11 -0.4,0 -0.83,-0.03 -1.24,-0.03 -0.18,0 -0.36,0.01 -0.55,0.01 -0.17,0 -0.36,0.02 -0.53,0.02 -0.07,0 -0.19,0 -0.19,-0.19 0,-0.12 0.09,-0.12 0.25,-0.12 0.55,0 0.56,-0.09 0.6,-0.34 l 0.78,-6.12 c 0.03,-0.2 0.07,-0.23 0.2,-0.23 0.16,0 0.2,0.05 0.28,0.18 z"
         inkscape:connector-curvature="0"
         style="fill:#000000;stroke-width:0" /><path
         id="path3084"
         d="m 233.22,710.25 0,0 0,0 0,0 0,0 0,0 0,0 0,0.01 0,0 0.01,0 0,0 0,0.01 0,0 0,0 0,0.01 0,0 0,0.01 0,0 0.01,0.01 0,0.01 0,0 0,0.01 0,0 0,0 0,0.01 0,0 0,0.01 0.01,0 0,0 0,0.01 0,0 0,0 0,0 0,0 0,0 0,0.01 0,0 0,0 0,0 0,0 0,0 0,0 c 0,0.03 -0.03,0.1 -0.11,0.1 -0.14,0 -0.72,-0.06 -0.89,-0.07 -0.06,-0.01 -0.16,-0.02 -0.16,-0.16 0,-0.1 0.1,-0.1 0.18,-0.1 0.34,0 0.34,-0.05 0.34,-0.1 0,-0.05 -0.02,-0.1 -0.03,-0.16 l -0.4,-1.58 c -0.14,0.23 -0.38,0.41 -0.71,0.41 v -0.2 c 0.48,0 0.62,-0.53 0.62,-0.6 0,-0.03 -0.02,-0.08 -0.02,-0.1 l -0.33,-1.3 c -0.05,-0.2 -0.2,-0.33 -0.36,-0.47 -0.06,-0.05 -0.34,-0.27 -0.64,-0.27 -0.26,0 -0.51,0.18 -0.51,0.67 0,0.37 0.2,1.13 0.37,1.41 0.31,0.56 0.67,0.66 0.87,0.66 v 0.2 c -0.9,0 -1.8,-0.98 -1.8,-1.98 0,-0.68 0.45,-1.16 1.05,-1.16 0.38,0 0.71,0.22 0.99,0.49 0.13,-0.42 0.54,-0.49 0.72,-0.49 0.25,0 0.42,0.15 0.55,0.37 0.15,0.27 0.24,0.67 0.24,0.69 0,0.1 -0.09,0.1 -0.11,0.1 -0.1,0 -0.1,-0.03 -0.15,-0.22 -0.09,-0.33 -0.22,-0.74 -0.51,-0.74 -0.18,0 -0.23,0.15 -0.23,0.34 0,0.13 0.01,0.19 0.03,0.28 z"
         inkscape:connector-curvature="0"
         style="fill:#000000;stroke-width:0" /></g>    <g
       id="g3232"
       transform="matrix(2.4741153,0,0,-2.4741153,-262.13224,1911.1202)"
       xml:space="preserve"
       stroke-miterlimit="10.433"
       font-style="normal"
       font-variant="normal"
       font-weight="normal"
       font-stretch="normal"
       font-size-adjust="none"
       letter-spacing="normal"
       word-spacing="normal"
       ns0:text="$L$"
       ns0:preamble="/home/daniel/.config/inkscape/extensions/tex_preamble.ini"
       style="font-style:normal;font-variant:normal;font-weight:normal;font-stretch:normal;letter-spacing:normal;word-spacing:normal;text-anchor:start;fill:none;stroke:#000000;stroke-width:0.40418491;stroke-linecap:butt;stroke-linejoin:miter;stroke-miterlimit:10.43299961;stroke-opacity:1;stroke-dasharray:none;stroke-dashoffset:0"><path
         style="fill:#000000;stroke-width:0"
         inkscape:connector-curvature="0"
         d="m 227.15,713.14 0.01,0.03 0.01,0.03 0.01,0.03 0.01,0.03 0,0.03 0.01,0.02 0.01,0.03 0.01,0.02 0.02,0.02 0.01,0.02 0.01,0.02 0.02,0.02 0.02,0.02 0.02,0.01 0.02,0.02 0.02,0.01 0.03,0.02 0.03,0.01 0.03,0.01 0.04,0.01 0.02,0 0.01,0.01 0.03,0 0.02,0.01 0.02,0 0.02,0 0.03,0.01 0.02,0 0.03,0 0.02,0 0.03,0.01 0.03,0 0.03,0 0.03,0 0.03,0.01 0.04,0 0.03,0 0.04,0 0.03,0 0.04,0 0.04,0 0.04,0 0.04,0 0.05,0 c 0.3,0 0.38,0 0.38,0.19 0,0.12 -0.11,0.12 -0.16,0.12 -0.33,0 -1.15,-0.03 -1.48,-0.03 -0.29,0 -1.02,0.03 -1.32,0.03 -0.07,0 -0.19,0 -0.19,-0.2 0,-0.11 0.09,-0.11 0.28,-0.11 0.02,0 0.21,0 0.38,-0.02 0.18,-0.02 0.27,-0.03 0.27,-0.16 0,-0.04 -0.01,-0.07 -0.04,-0.19 l -1.34,-5.33 c -0.09,-0.39 -0.11,-0.47 -0.9,-0.47 -0.17,0 -0.27,0 -0.27,-0.2 0,-0.11 0.09,-0.11 0.27,-0.11 h 4.61 c 0.23,0 0.24,0 0.3,0.17 l 0.79,2.15 c 0.04,0.11 0.04,0.13 0.04,0.14 0,0.04 -0.03,0.11 -0.12,0.11 -0.09,0 -0.1,-0.05 -0.17,-0.21 -0.34,-0.91 -0.78,-2.05 -2.5,-2.05 h -0.93 c -0.14,0 -0.16,0 -0.22,0.01 -0.1,0.01 -0.13,0.02 -0.13,0.1 0,0.03 0,0.05 0.05,0.23 z"
         id="path3234" /></g>    <g
       style="font-style:normal;font-variant:normal;font-weight:normal;font-stretch:normal;letter-spacing:normal;word-spacing:normal;text-anchor:start;fill:none;stroke:#000000;stroke-width:0.40418491;stroke-linecap:butt;stroke-linejoin:miter;stroke-miterlimit:10.43299961;stroke-opacity:1;stroke-dasharray:none;stroke-dashoffset:0"
       ns0:preamble="/home/daniel/.config/inkscape/extensions/tex_preamble.ini"
       ns0:text="$C_d$"
       word-spacing="normal"
       letter-spacing="normal"
       font-size-adjust="none"
       font-stretch="normal"
       font-weight="normal"
       font-variant="normal"
       font-style="normal"
       stroke-miterlimit="10.433"
       xml:space="preserve"
       transform="matrix(2.4741153,0,0,-2.4741153,-87.63224,1788.3284)"
       id="g3339"><path
         id="path3341"
         d="m 230.99,714.03 0,0 0,0.01 0,0 0,0 0,0.01 0,0 0,0 0,0.01 0,0 0,0.01 -0.01,0 0,0 0,0.01 0,0 -0.01,0.01 0,0 0,0 0,0.01 -0.01,0 0,0 -0.01,0.01 0,0 -0.01,0 0,0.01 -0.01,0 0,0 0,0 -0.01,0 0,0 0,0 -0.01,0 0,0.01 0,0 -0.01,0 0,0 0,0 -0.01,0 0,0 -0.01,0 c -0.03,0 -0.04,-0.01 -0.14,-0.12 l -0.7,-0.77 c -0.09,0.14 -0.55,0.89 -1.65,0.89 -2.22,0 -4.46,-2.2 -4.46,-4.5 0,-1.64 1.17,-2.72 2.7,-2.72 0.86,0 1.62,0.39 2.14,0.85 0.93,0.82 1.1,1.72 1.1,1.75 0,0.1 -0.1,0.1 -0.12,0.1 -0.06,0 -0.11,-0.02 -0.13,-0.1 -0.09,-0.29 -0.32,-0.99 -1,-1.57 -0.69,-0.56 -1.32,-0.73 -1.83,-0.73 -0.9,0 -1.95,0.52 -1.95,2.07 0,0.57 0.2,2.18 1.2,3.34 0.61,0.7 1.54,1.2 2.43,1.2 1.01,0 1.6,-0.77 1.6,-1.92 0,-0.39 -0.03,-0.4 -0.03,-0.5 0,-0.1 0.11,-0.1 0.15,-0.1 0.13,0 0.13,0.02 0.18,0.2 z"
         inkscape:connector-curvature="0"
         style="fill:#000000;stroke-width:0" /><path
         id="path3343"
         d="m 234.53,710.25 0,0 0,0 0,0 0,0 0,0 0,0 0,0.01 0,0 0,0 0.01,0 0,0.01 0,0 0,0 0,0.01 0,0 0,0.01 0,0 0,0.01 0.01,0.01 0,0 0,0.01 0,0 0,0 0,0.01 0,0 0,0.01 0,0 0.01,0 0,0.01 0,0 0,0 0,0 0,0 0,0 0,0.01 0,0 0,0 0,0 0,0 0,0 0,0 c 0,0.03 -0.03,0.1 -0.11,0.1 -0.14,0 -0.72,-0.06 -0.9,-0.07 -0.05,-0.01 -0.15,-0.02 -0.15,-0.16 0,-0.1 0.1,-0.1 0.18,-0.1 0.34,0 0.34,-0.05 0.34,-0.1 0,-0.05 -0.02,-0.1 -0.03,-0.16 l -0.4,-1.58 c -0.14,0.23 -0.38,0.41 -0.72,0.41 v -0.2 c 0.49,0 0.62,-0.53 0.62,-0.6 0,-0.03 -0.01,-0.08 -0.02,-0.1 l -0.32,-1.3 c -0.05,-0.2 -0.21,-0.33 -0.36,-0.47 -0.06,-0.05 -0.34,-0.27 -0.64,-0.27 -0.26,0 -0.51,0.18 -0.51,0.67 0,0.37 0.2,1.13 0.36,1.41 0.32,0.56 0.68,0.66 0.87,0.66 v 0.2 c -0.89,0 -1.79,-0.98 -1.79,-1.98 0,-0.68 0.45,-1.16 1.05,-1.16 0.38,0 0.71,0.22 0.99,0.49 0.13,-0.42 0.53,-0.49 0.72,-0.49 0.25,0 0.42,0.15 0.55,0.37 0.15,0.27 0.24,0.67 0.24,0.69 0,0.1 -0.09,0.1 -0.11,0.1 -0.1,0 -0.11,-0.03 -0.16,-0.22 -0.08,-0.33 -0.21,-0.74 -0.5,-0.74 -0.18,0 -0.23,0.15 -0.23,0.34 0,0.13 0.01,0.19 0.03,0.28 z"
         inkscape:connector-curvature="0"
         style="fill:#000000;stroke-width:0" /></g>    <g
       id="g3475"
       transform="matrix(2.4741153,0,0,-2.4741153,-145.67856,1910.6006)"
       xml:space="preserve"
       stroke-miterlimit="10.433"
       font-style="normal"
       font-variant="normal"
       font-weight="normal"
       font-stretch="normal"
       font-size-adjust="none"
       letter-spacing="normal"
       word-spacing="normal"
       ns0:text="$C$"
       ns0:preamble="/home/daniel/.config/inkscape/extensions/tex_preamble.ini"
       style="font-style:normal;font-variant:normal;font-weight:normal;font-stretch:normal;letter-spacing:normal;word-spacing:normal;text-anchor:start;fill:none;stroke:#000000;stroke-width:0.40418491;stroke-linecap:butt;stroke-linejoin:miter;stroke-miterlimit:10.43299961;stroke-opacity:1;stroke-dasharray:none;stroke-dashoffset:0"><path
         style="fill:#000000;stroke-width:0"
         inkscape:connector-curvature="0"
         d="m 230.99,714.03 0,0 0,0.01 0,0 0,0 0,0.01 0,0 0,0 0,0.01 0,0 0,0.01 -0.01,0 0,0 0,0.01 0,0 -0.01,0.01 0,0 0,0 0,0.01 -0.01,0 0,0 -0.01,0.01 0,0 -0.01,0 0,0.01 -0.01,0 0,0 0,0 -0.01,0 0,0 0,0 -0.01,0 0,0.01 0,0 -0.01,0 0,0 0,0 -0.01,0 0,0 -0.01,0 c -0.03,0 -0.04,-0.01 -0.14,-0.12 l -0.7,-0.77 c -0.09,0.14 -0.55,0.89 -1.65,0.89 -2.22,0 -4.46,-2.2 -4.46,-4.5 0,-1.64 1.17,-2.72 2.7,-2.72 0.86,0 1.62,0.39 2.14,0.85 0.93,0.82 1.1,1.72 1.1,1.75 0,0.1 -0.1,0.1 -0.12,0.1 -0.06,0 -0.11,-0.02 -0.13,-0.1 -0.09,-0.29 -0.32,-0.99 -1,-1.57 -0.69,-0.56 -1.32,-0.73 -1.83,-0.73 -0.9,0 -1.95,0.52 -1.95,2.07 0,0.57 0.2,2.18 1.2,3.34 0.61,0.7 1.54,1.2 2.43,1.2 1.01,0 1.6,-0.77 1.6,-1.92 0,-0.39 -0.03,-0.4 -0.03,-0.5 0,-0.1 0.11,-0.1 0.15,-0.1 0.13,0 0.13,0.02 0.18,0.2 z"
         id="path3477" /></g>    <g
       style="font-style:normal;font-variant:normal;font-weight:normal;font-stretch:normal;letter-spacing:normal;word-spacing:normal;text-anchor:start;fill:none;stroke:#000000;stroke-width:0.40418491;stroke-linecap:butt;stroke-linejoin:miter;stroke-miterlimit:10.43299961;stroke-opacity:1;stroke-dasharray:none;stroke-dashoffset:0"
       ns0:preamble=""
       ns0:text="$R_d$"
       word-spacing="normal"
       letter-spacing="normal"
       font-size-adjust="none"
       font-stretch="normal"
       font-weight="normal"
       font-variant="normal"
       font-style="normal"
       stroke-miterlimit="10.433"
       xml:space="preserve"
       transform="matrix(2.4741153,0,0,-2.4741153,-107.63224,1742.3284)"
       id="g3114"><path
         id="path3116"
         d="m 228.6,660.61 0.09,0.02 0.1,0.03 0.09,0.03 0.1,0.03 0.09,0.03 0.1,0.03 0.1,0.04 0.09,0.04 0.1,0.05 0.09,0.04 0.09,0.05 0.09,0.05 0.09,0.05 0.08,0.06 0.09,0.06 0.08,0.06 0.07,0.06 0.08,0.06 0.07,0.07 0.07,0.07 0.06,0.07 0.06,0.07 0.05,0.08 0.05,0.08 0.05,0.08 0.04,0.08 0.03,0.08 0.03,0.09 0.02,0.09 0.02,0.09 0.01,0.09 0,0.09 c 0,0.85 -0.89,1.49 -2.19,1.49 h -2.84 c -0.2,0 -0.29,0 -0.29,-0.2 0,-0.11 0.09,-0.11 0.28,-0.11 0.02,0 0.21,0 0.38,-0.02 0.18,-0.02 0.27,-0.03 0.27,-0.16 0,-0.04 -0.01,-0.07 -0.04,-0.19 l -1.34,-5.33 c -0.1,-0.39 -0.11,-0.47 -0.9,-0.47 -0.18,0 -0.27,0 -0.27,-0.2 0,-0.11 0.12,-0.11 0.14,-0.11 0.28,0 0.97,0.04 1.25,0.04 0.28,0 0.99,-0.04 1.27,-0.04 0.08,0 0.2,0 0.2,0.2 0,0.11 -0.09,0.11 -0.28,0.11 -0.37,0 -0.65,0 -0.65,0.18 0,0.06 0.02,0.11 0.03,0.17 l 0.66,2.63 h 1.18 l -0.01,0.22 h -1.11 l 0.64,2.59 c 0.06,0.24 0.09,0.34 0.28,0.37 0.09,0.01 0.41,0.01 0.61,0.01 0.71,0 1.81,0 1.81,-0.98 0,-0.34 -0.16,-1.02 -0.55,-1.41 -0.26,-0.26 -0.78,-0.58 -1.68,-0.58 l 0.01,-0.22 c 0.91,0 1.09,-0.55 1.09,-0.9 0,-0.15 -0.08,-0.46 -0.14,-0.69 -0.07,-0.27 -0.16,-0.64 -0.16,-0.84 0,-1.07 1.19,-1.07 1.32,-1.07 0.85,0 1.19,1 1.19,1.14 0,0.12 -0.11,0.12 -0.12,0.12 -0.08,0 -0.11,-0.07 -0.12,-0.14 -0.25,-0.74 -0.68,-0.91 -0.91,-0.91 -0.33,0 -0.4,0.22 -0.4,0.61 0,0.31 0.06,0.82 0.1,1.13 0.02,0.14 0.04,0.33 0.04,0.47 0,0.77 -0.67,1.07 -0.93,1.17 z"
         inkscape:connector-curvature="0"
         style="fill:#000000;stroke-width:0" /><path
         id="path3118"
         d="m 234.97,660.36 0,0 0,0 0.01,0 0,0 0,0 0,0 0,0.01 0,0 0,0 0,0 0,0.01 0,0 0,0 0,0.01 0,0 0.01,0.01 0,0 0,0.01 0,0.01 0,0 0,0.01 0,0 0,0 0.01,0.01 0,0 0,0.01 0,0 0,0 0,0.01 0,0 0,0 0,0 0,0 0,0 0,0.01 0,0 0,0 0,0 0,0 0,0 0,0 c 0,0.03 -0.03,0.1 -0.11,0.1 -0.14,0 -0.72,-0.06 -0.89,-0.07 -0.06,-0.01 -0.15,-0.02 -0.15,-0.16 0,-0.1 0.09,-0.1 0.18,-0.1 0.33,0 0.33,-0.05 0.33,-0.1 0,-0.05 -0.01,-0.1 -0.03,-0.16 l -0.39,-1.58 c -0.15,0.23 -0.39,0.41 -0.72,0.41 v -0.2 c 0.49,0 0.62,-0.53 0.62,-0.6 0,-0.03 -0.02,-0.08 -0.02,-0.1 l -0.33,-1.3 c -0.05,-0.2 -0.2,-0.33 -0.36,-0.47 -0.06,-0.05 -0.34,-0.27 -0.64,-0.27 -0.25,0 -0.5,0.18 -0.5,0.67 0,0.37 0.2,1.13 0.36,1.41 0.32,0.56 0.67,0.66 0.87,0.66 v 0.2 c -0.89,0 -1.8,-0.98 -1.8,-1.98 0,-0.68 0.46,-1.16 1.05,-1.16 0.38,0 0.71,0.22 0.99,0.49 0.14,-0.42 0.54,-0.49 0.72,-0.49 0.25,0 0.42,0.15 0.55,0.37 0.15,0.27 0.24,0.67 0.24,0.69 0,0.1 -0.09,0.1 -0.11,0.1 -0.1,0 -0.1,-0.03 -0.15,-0.22 -0.08,-0.33 -0.22,-0.74 -0.51,-0.74 -0.18,0 -0.23,0.15 -0.23,0.34 0,0.13 0.02,0.19 0.04,0.28 z"
         inkscape:connector-curvature="0"
         style="fill:#000000;stroke-width:0" /></g>  </g>
</svg>
