<?xml version="1.0" encoding="UTF-8" standalone="no"?>
<!-- Created with Inkscape (http://www.inkscape.org/) -->

<svg
   xmlns:ns0="http://www.iki.fi/pav/software/textext/"
   xmlns:dc="http://purl.org/dc/elements/1.1/"
   xmlns:cc="http://creativecommons.org/ns#"
   xmlns:rdf="http://www.w3.org/1999/02/22-rdf-syntax-ns#"
   xmlns:svg="http://www.w3.org/2000/svg"
   xmlns="http://www.w3.org/2000/svg"
   xmlns:sodipodi="http://sodipodi.sourceforge.net/DTD/sodipodi-0.dtd"
   xmlns:inkscape="http://www.inkscape.org/namespaces/inkscape"
   width="744.09448819"
   height="1052.3622047"
   id="svg4167"
   version="1.1"
   inkscape:version="0.48.4 r9939"
   sodipodi:docname="columnsInfinite.svg">
  <sodipodi:namedview
     id="base"
     pagecolor="#ffffff"
     bordercolor="#666666"
     borderopacity="1.0"
     inkscape:pageopacity="0.0"
     inkscape:pageshadow="2"
     inkscape:zoom="1.2701172"
     inkscape:cx="315.43036"
     inkscape:cy="716.46325"
     inkscape:document-units="px"
     inkscape:current-layer="layer1"
     showgrid="false"
     inkscape:window-width="1855"
     inkscape:window-height="1056"
     inkscape:window-x="65"
     inkscape:window-y="24"
     inkscape:window-maximized="1" />
  <defs
     id="defs4169">
    <inkscape:perspective
       id="perspective4175"
       inkscape:persp3d-origin="372.04724 : 350.78739 : 1"
       inkscape:vp_z="744.09448 : 526.18109 : 1"
       inkscape:vp_y="0 : 1000 : 0"
       inkscape:vp_x="0 : 526.18109 : 1"
       sodipodi:type="inkscape:persp3d" />
    <inkscape:perspective
       sodipodi:type="inkscape:persp3d"
       inkscape:vp_x="0 : 0.5 : 1"
       inkscape:vp_y="0 : 1000 : 0"
       inkscape:vp_z="1 : 0.5 : 1"
       inkscape:persp3d-origin="0.5 : 0.33333333 : 1"
       id="perspective4122" />
    <inkscape:perspective
       sodipodi:type="inkscape:persp3d"
       inkscape:vp_x="0 : 0.5 : 1"
       inkscape:vp_y="0 : 1000 : 0"
       inkscape:vp_z="1 : 0.5 : 1"
       inkscape:persp3d-origin="0.5 : 0.33333333 : 1"
       id="perspective4274" />
    <inkscape:perspective
       sodipodi:type="inkscape:persp3d"
       inkscape:vp_x="0 : 0.5 : 1"
       inkscape:vp_y="0 : 1000 : 0"
       inkscape:vp_z="1 : 0.5 : 1"
       inkscape:persp3d-origin="0.5 : 0.33333333 : 1"
       id="perspective4416" />
    <inkscape:perspective
       sodipodi:type="inkscape:persp3d"
       inkscape:vp_x="0 : 0.5 : 1"
       inkscape:vp_y="0 : 1000 : 0"
       inkscape:vp_z="1 : 0.5 : 1"
       inkscape:persp3d-origin="0.5 : 0.33333333 : 1"
       id="perspective4441" />
    <inkscape:perspective
       sodipodi:type="inkscape:persp3d"
       inkscape:vp_x="0 : 0.5 : 1"
       inkscape:vp_y="0 : 1000 : 0"
       inkscape:vp_z="1 : 0.5 : 1"
       inkscape:persp3d-origin="0.5 : 0.33333333 : 1"
       id="perspective4466" />
    <inkscape:perspective
       sodipodi:type="inkscape:persp3d"
       inkscape:vp_x="0 : 0.5 : 1"
       inkscape:vp_y="0 : 1000 : 0"
       inkscape:vp_z="1 : 0.5 : 1"
       inkscape:persp3d-origin="0.5 : 0.33333333 : 1"
       id="perspective4515" />
    <inkscape:perspective
       sodipodi:type="inkscape:persp3d"
       inkscape:vp_x="0 : 0.5 : 1"
       inkscape:vp_y="0 : 1000 : 0"
       inkscape:vp_z="1 : 0.5 : 1"
       inkscape:persp3d-origin="0.5 : 0.33333333 : 1"
       id="perspective4639" />
    <inkscape:perspective
       sodipodi:type="inkscape:persp3d"
       inkscape:vp_x="0 : 0.5 : 1"
       inkscape:vp_y="0 : 1000 : 0"
       inkscape:vp_z="1 : 0.5 : 1"
       inkscape:persp3d-origin="0.5 : 0.33333333 : 1"
       id="perspective4740" />
    <inkscape:perspective
       sodipodi:type="inkscape:persp3d"
       inkscape:vp_x="0 : 0.5 : 1"
       inkscape:vp_y="0 : 1000 : 0"
       inkscape:vp_z="1 : 0.5 : 1"
       inkscape:persp3d-origin="0.5 : 0.33333333 : 1"
       id="perspective4765" />
    <inkscape:perspective
       sodipodi:type="inkscape:persp3d"
       inkscape:vp_x="0 : 0.5 : 1"
       inkscape:vp_y="0 : 1000 : 0"
       inkscape:vp_z="1 : 0.5 : 1"
       inkscape:persp3d-origin="0.5 : 0.33333333 : 1"
       id="perspective4790" />
    <inkscape:perspective
       sodipodi:type="inkscape:persp3d"
       inkscape:vp_x="0 : 0.5 : 1"
       inkscape:vp_y="0 : 1000 : 0"
       inkscape:vp_z="1 : 0.5 : 1"
       inkscape:persp3d-origin="0.5 : 0.33333333 : 1"
       id="perspective4815" />
    <inkscape:perspective
       sodipodi:type="inkscape:persp3d"
       inkscape:vp_x="0 : 0.5 : 1"
       inkscape:vp_y="0 : 1000 : 0"
       inkscape:vp_z="1 : 0.5 : 1"
       inkscape:persp3d-origin="0.5 : 0.33333333 : 1"
       id="perspective4815-5" />
    <inkscape:perspective
       sodipodi:type="inkscape:persp3d"
       inkscape:vp_x="0 : 0.5 : 1"
       inkscape:vp_y="0 : 1000 : 0"
       inkscape:vp_z="1 : 0.5 : 1"
       inkscape:persp3d-origin="0.5 : 0.33333333 : 1"
       id="perspective4859" />
    <inkscape:perspective
       sodipodi:type="inkscape:persp3d"
       inkscape:vp_x="0 : 0.5 : 1"
       inkscape:vp_y="0 : 1000 : 0"
       inkscape:vp_z="1 : 0.5 : 1"
       inkscape:persp3d-origin="0.5 : 0.33333333 : 1"
       id="perspective4884" />
    <inkscape:perspective
       sodipodi:type="inkscape:persp3d"
       inkscape:vp_x="0 : 0.5 : 1"
       inkscape:vp_y="0 : 1000 : 0"
       inkscape:vp_z="1 : 0.5 : 1"
       inkscape:persp3d-origin="0.5 : 0.33333333 : 1"
       id="perspective4909" />
    <inkscape:perspective
       sodipodi:type="inkscape:persp3d"
       inkscape:vp_x="0 : 0.5 : 1"
       inkscape:vp_y="0 : 1000 : 0"
       inkscape:vp_z="1 : 0.5 : 1"
       inkscape:persp3d-origin="0.5 : 0.33333333 : 1"
       id="perspective5446" />
    <inkscape:perspective
       sodipodi:type="inkscape:persp3d"
       inkscape:vp_x="0 : 0.5 : 1"
       inkscape:vp_y="0 : 1000 : 0"
       inkscape:vp_z="1 : 0.5 : 1"
       inkscape:persp3d-origin="0.5 : 0.33333333 : 1"
       id="perspective5446-9" />
    <inkscape:perspective
       sodipodi:type="inkscape:persp3d"
       inkscape:vp_x="0 : 0.5 : 1"
       inkscape:vp_y="0 : 1000 : 0"
       inkscape:vp_z="1 : 0.5 : 1"
       inkscape:persp3d-origin="0.5 : 0.33333333 : 1"
       id="perspective5477" />
    <inkscape:perspective
       sodipodi:type="inkscape:persp3d"
       inkscape:vp_x="0 : 0.5 : 1"
       inkscape:vp_y="0 : 1000 : 0"
       inkscape:vp_z="1 : 0.5 : 1"
       inkscape:persp3d-origin="0.5 : 0.33333333 : 1"
       id="perspective5477-5" />
  </defs>
  <metadata
     id="metadata4172">
    <rdf:RDF>
      <cc:Work
         rdf:about="">
        <dc:format>image/svg+xml</dc:format>
        <dc:type
           rdf:resource="http://purl.org/dc/dcmitype/StillImage" />
        <dc:title />
      </cc:Work>
    </rdf:RDF>
  </metadata>
  <g
     id="layer1"
     inkscape:groupmode="layer"
     inkscape:label="Layer 1">
    <path
       style="fill:none;stroke:#000000;stroke-width:1.02926981;stroke-linejoin:round;stroke-miterlimit:4;stroke-opacity:1;stroke-dasharray:none;stroke-dashoffset:0"
       d="m 30.305595,96.175963 c 2.187692,6.345317 4.375384,12.151907 6.563076,17.456217 2.187693,5.30432 4.375385,10.10441 6.563083,14.4398 2.187686,4.33539 4.375378,8.20328 6.563076,11.6429 2.187686,3.43963 4.375378,6.44844 6.563076,9.0655 2.187692,2.61704 4.375385,4.83996 6.563077,6.7076 2.187685,1.86762 4.375383,3.37783 6.563076,4.56921 2.187692,1.19138 4.375384,2.06203 6.563076,2.65035 2.187692,0.58829 4.375383,0.89257 6.563073,0.95097 2.187698,0.0584 4.375388,-0.13054 6.563078,-0.52888 2.187691,-0.39833 4.375388,-1.00732 6.563086,-1.78923 2.187683,-0.7819 4.375378,-1.73776 6.563068,-2.83006 2.1877,-1.0923 4.37539,-2.32187 6.56307,-3.65139 2.18769,-1.32953 4.3754,-2.75963 6.56308,-4.25322 2.1877,-1.49359 4.37539,-3.05105 6.56308,-4.63553 2.18769,-1.58448 4.37539,-3.19614 6.56308,-4.79832 2.18769,-1.60221 4.37539,-3.19489 6.56308,-4.74163 2.18769,-1.54675 4.37539,-3.04728 6.56308,-4.46541 2.18769,-1.41812 4.37538,-2.75334 6.56307,-3.96967 2.18769,-1.21635 4.37539,-2.31308 6.56308,-3.25447 2.18769,-0.94137 4.37538,-1.72645 6.56307,-2.3197 2.1877,-0.59324 4.37539,-0.99351 6.56308,-1.16545 2.18769,-0.17195 4.37539,-0.11422 6.56308,0.2083 2.18768,0.32252 4.37538,0.91142 6.56308,1.80158 2.18769,0.89015 4.37539,2.08339 6.56306,3.61435 2.18771,1.53096 4.3754,3.4017 6.56309,5.64663 2.18769,2.24495 4.37538,4.86636 6.56308,7.89845 2.18769,3.03209 4.37538,6.47734 6.56307,10.36974 2.1877,3.89241 4.37539,8.23466 6.56308,13.06055 2.1877,4.82589 4.37539,10.13834 6.56308,15.97088"
       title="t -0.08*(t**3)+0.04*(t**2)+5*t"
       id="path4901" />
    <rect
       ry="0.56390184"
       y="96.247078"
       x="29.73465"
       height="143.69337"
       width="191.83653"
       id="rect4955"
       style="fill:none;stroke:#000000;stroke-width:1.34667337;stroke-linejoin:round;stroke-miterlimit:4;stroke-opacity:1;stroke-dasharray:none;stroke-dashoffset:0" />
    <rect
       ry="0.56390184"
       y="109.21916"
       x="34.11948"
       height="130.36844"
       width="3.2886262"
       id="rect4957"
       style="fill:#000000;fill-opacity:1;stroke:#000000;stroke-width:1.34667337;stroke-linejoin:round;stroke-miterlimit:4;stroke-opacity:1;stroke-dasharray:none;stroke-dashoffset:0" />
    <rect
       ry="0.48481074"
       y="127.5451"
       x="41.51548"
       height="112.08337"
       width="3.371582"
       id="rect4957-8"
       style="fill:#000000;fill-opacity:1;stroke:#000000;stroke-width:1.26431775;stroke-linejoin:round;stroke-miterlimit:4;stroke-opacity:1;stroke-dasharray:none;stroke-dashoffset:0" />
    <rect
       ry="0.42745596"
       y="140.83746"
       x="48.919914"
       height="98.823509"
       width="3.437628"
       id="rect4957-5"
       style="fill:#000000;fill-opacity:1;stroke:#000000;stroke-width:1.19874918;stroke-linejoin:round;stroke-miterlimit:4;stroke-opacity:1;stroke-dasharray:none;stroke-dashoffset:0" />
    <rect
       ry="0.38406932"
       y="150.89462"
       x="56.330406"
       height="88.792969"
       width="3.4915974"
       id="rect4957-2"
       style="fill:#000000;fill-opacity:1;stroke:#000000;stroke-width:1.14517045;stroke-linejoin:round;stroke-miterlimit:4;stroke-opacity:1;stroke-dasharray:none;stroke-dashoffset:0" />
    <rect
       ry="0.35308942"
       y="158.0771"
       x="63.747349"
       height="81.630722"
       width="3.5326197"
       id="rect4957-6"
       style="fill:#000000;fill-opacity:1;stroke:#000000;stroke-width:1.10444486;stroke-linejoin:round;stroke-miterlimit:4;stroke-opacity:1;stroke-dasharray:none;stroke-dashoffset:0" />
    <rect
       ry="0.3329578"
       y="162.74507"
       x="71.170883"
       height="76.976494"
       width="3.5605397"
       id="rect4957-4"
       style="fill:#000000;fill-opacity:1;stroke:#000000;stroke-width:1.07672727;stroke-linejoin:round;stroke-miterlimit:4;stroke-opacity:1;stroke-dasharray:none;stroke-dashoffset:0" />
    <rect
       ry="0.32986102"
       y="163.4632"
       x="78.606171"
       height="76.260567"
       width="3.56493"
       id="rect4957-50"
       style="fill:#000000;fill-opacity:1;stroke:#000000;stroke-width:1.07236898;stroke-linejoin:round;stroke-miterlimit:4;stroke-opacity:1;stroke-dasharray:none;stroke-dashoffset:0" />
    <rect
       ry="0.33605465"
       y="162.02693"
       x="86.048012"
       height="77.692459"
       width="3.5561752"
       id="rect4957-0"
       style="fill:#000000;fill-opacity:1;stroke:#000000;stroke-width:1.08105993;stroke-linejoin:round;stroke-miterlimit:4;stroke-opacity:1;stroke-dasharray:none;stroke-dashoffset:0" />
    <rect
       ry="0.34379733"
       y="160.2316"
       x="93.490868"
       height="79.482483"
       width="3.5453761"
       id="rect4957-1"
       style="fill:#000000;fill-opacity:1;stroke:#000000;stroke-width:1.09178126;stroke-linejoin:round;stroke-miterlimit:4;stroke-opacity:1;stroke-dasharray:none;stroke-dashoffset:0" />
    <rect
       ry="0.35773575"
       y="156.9998"
       x="100.93785"
       height="82.70491"
       width="3.5263231"
       id="rect4957-1-3"
       style="fill:#000000;fill-opacity:1;stroke:#000000;stroke-width:1.11069667;stroke-linejoin:round;stroke-miterlimit:4;stroke-opacity:1;stroke-dasharray:none;stroke-dashoffset:0" />
    <rect
       ry="0.37322524"
       y="153.40862"
       x="108.38566"
       height="86.285934"
       width="3.5057039"
       id="rect4957-1-9"
       style="fill:#000000;fill-opacity:1;stroke:#000000;stroke-width:1.1311661;stroke-linejoin:round;stroke-miterlimit:4;stroke-opacity:1;stroke-dasharray:none;stroke-dashoffset:0" />
    <rect
       ry="0.39491442"
       y="148.38054"
       x="115.83709"
       height="91.300247"
       width="3.4777474"
       id="rect4957-1-4"
       style="fill:#000000;fill-opacity:1;stroke:#000000;stroke-width:1.15892076;stroke-linejoin:round;stroke-miterlimit:4;stroke-opacity:1;stroke-dasharray:none;stroke-dashoffset:0" />
    <rect
       ry="0.41970715"
       y="142.63354"
       x="123.28994"
       height="97.032089"
       width="3.4469938"
       id="rect4957-1-6"
       style="fill:#000000;fill-opacity:1;stroke:#000000;stroke-width:1.18945146;stroke-linejoin:round;stroke-miterlimit:4;stroke-opacity:1;stroke-dasharray:none;stroke-dashoffset:0" />
    <rect
       ry="0.44605494"
       y="136.52673"
       x="130.7431"
       height="103.12341"
       width="3.4155972"
       id="rect4957-1-66"
       style="fill:#000000;fill-opacity:1;stroke:#000000;stroke-width:1.22062075;stroke-linejoin:round;stroke-miterlimit:4;stroke-opacity:1;stroke-dasharray:none;stroke-dashoffset:0" />
    <rect
       ry="0.4677569"
       y="131.49713"
       x="138.19305"
       height="108.14069"
       width="3.3906493"
       id="rect4957-1-8"
       style="fill:#000000;fill-opacity:1;stroke:#000000;stroke-width:1.24538839;stroke-linejoin:round;stroke-miterlimit:4;stroke-opacity:1;stroke-dasharray:none;stroke-dashoffset:0" />
    <rect
       ry="0.48946217"
       y="126.46724"
       x="145.64261"
       height="113.15872"
       width="3.3664594"
       id="rect4957-1-63"
       style="fill:#000000;fill-opacity:1;stroke:#000000;stroke-width:1.26940298;stroke-linejoin:round;stroke-miterlimit:4;stroke-opacity:1;stroke-dasharray:none;stroke-dashoffset:0" />
    <rect
       ry="0.50341713"
       y="123.23346"
       x="153.08769"
       height="116.38498"
       width="3.3512857"
       id="rect4957-1-63-7"
       style="fill:#000000;fill-opacity:1;stroke:#000000;stroke-width:1.2844671;stroke-linejoin:round;stroke-miterlimit:4;stroke-opacity:1;stroke-dasharray:none;stroke-dashoffset:0" />
    <rect
       ry="0.5142718"
       y="120.71827"
       x="160.53098"
       height="118.89447"
       width="3.339678"
       id="rect4957-1-63-8"
       style="fill:#000000;fill-opacity:1;stroke:#000000;stroke-width:1.29599082;stroke-linejoin:round;stroke-miterlimit:4;stroke-opacity:1;stroke-dasharray:none;stroke-dashoffset:0" />
    <rect
       ry="0.51582253"
       y="120.35894"
       x="167.96925"
       height="119.25298"
       width="3.338033"
       id="rect4957-1-63-9"
       style="fill:#000000;fill-opacity:1;stroke:#000000;stroke-width:1.29762363;stroke-linejoin:round;stroke-miterlimit:4;stroke-opacity:1;stroke-dasharray:none;stroke-dashoffset:0" />
    <rect
       ry="0.50961971"
       y="121.79623"
       x="175.40341"
       height="117.81895"
       width="3.3446321"
       id="rect4957-1-63-9-1"
       style="fill:#000000;fill-opacity:1;stroke:#000000;stroke-width:1.29107237;stroke-linejoin:round;stroke-miterlimit:4;stroke-opacity:1;stroke-dasharray:none;stroke-dashoffset:0" />
    <rect
       ry="0.49411365"
       y="125.38933"
       x="182.83253"
       height="114.23411"
       width="3.3613694"
       id="rect4957-1-63-9-5"
       style="fill:#000000;fill-opacity:1;stroke:#000000;stroke-width:1.27445602;stroke-linejoin:round;stroke-miterlimit:4;stroke-opacity:1;stroke-dasharray:none;stroke-dashoffset:0" />
    <rect
       ry="0.47085744"
       y="130.77864"
       x="190.25711"
       height="108.85751"
       width="3.3871481"
       id="rect4957-1-63-9-8"
       style="fill:#000000;fill-opacity:1;stroke:#000000;stroke-width:1.24886382;stroke-linejoin:round;stroke-miterlimit:4;stroke-opacity:1;stroke-dasharray:none;stroke-dashoffset:0" />
    <rect
       ry="0.43675509"
       y="138.68214"
       x="197.67488"
       height="100.97339"
       width="3.4265354"
       id="rect4957-1-63-9-0"
       style="fill:#000000;fill-opacity:1;stroke:#000000;stroke-width:1.20976186;stroke-linejoin:round;stroke-miterlimit:4;stroke-opacity:1;stroke-dasharray:none;stroke-dashoffset:0" />
    <rect
       ry="0.38871706"
       y="149.81717"
       x="205.08284"
       height="89.867477"
       width="3.4856308"
       id="rect4957-1-63-9-6"
       style="fill:#000000;fill-opacity:1;stroke:#000000;stroke-width:1.15109396;stroke-linejoin:round;stroke-miterlimit:4;stroke-opacity:1;stroke-dasharray:none;stroke-dashoffset:0" />
    <rect
       ry="0.33915162"
       y="161.30885"
       x="212.4872"
       height="78.408447"
       width="3.5518367"
       id="rect4957-1-63-9-15"
       style="fill:#000000;fill-opacity:1;stroke:#000000;stroke-width:1.08536732;stroke-linejoin:round;stroke-miterlimit:4;stroke-opacity:1;stroke-dasharray:none;stroke-dashoffset:0" />
    <rect
       ry="0.57711977"
       y="97.125328"
       x="262.69339"
       height="147.06157"
       width="215.3287"
       id="rect4955-5"
       style="fill:none;stroke:#000000;stroke-width:1.44337368;stroke-linejoin:round;stroke-miterlimit:4;stroke-opacity:1;stroke-dasharray:none;stroke-dashoffset:0" />
    <rect
       ry="0.38197368"
       y="155.62675"
       x="367.07407"
       height="88.308487"
       width="3.9350102"
       id="rect4957-1-9-6"
       style="fill:#000000;fill-opacity:1;stroke:#000000;stroke-width:1.21239161;stroke-linejoin:round;stroke-miterlimit:4;stroke-opacity:1;stroke-dasharray:none;stroke-dashoffset:0" />
    <text
       transform="scale(1.0548923,0.94796407)"
       id="text5258-4"
       y="253.08572"
       x="295.88809"
       style="font-size:15.39598465px;font-style:normal;font-weight:normal;fill:#000000;fill-opacity:1;stroke:none;font-family:Bitstream Vera Sans"
       xml:space="preserve"><tspan
         y="253.08572"
         x="295.88809"
         id="tspan5260-0"
         sodipodi:role="line">0</tspan></text>
    <text
       transform="scale(1.0548923,0.94796407)"
       id="text5258-4-9"
       y="254.33284"
       x="395.01474"
       style="font-size:15.39598465px;font-style:normal;font-weight:normal;fill:#000000;fill-opacity:1;stroke:none;font-family:Bitstream Vera Sans"
       xml:space="preserve"><tspan
         y="254.33284"
         x="395.01474"
         id="tspan5260-0-7"
         sodipodi:role="line">0</tspan></text>
    <text
       transform="scale(1.0548923,0.94796407)"
       id="text5258-4-9-3"
       y="154.16968"
       x="344.88388"
       style="font-size:15.39598465px;font-style:normal;font-weight:normal;fill:#000000;fill-opacity:1;stroke:none;font-family:Bitstream Vera Sans"
       xml:space="preserve"><tspan
         y="154.16968"
         x="344.88388"
         id="tspan5260-0-7-7"
         sodipodi:role="line">1</tspan></text>
    <rect
       ry="0.57711977"
       y="96.130676"
       x="516.72296"
       height="147.06157"
       width="215.3287"
       id="rect4955-5-2"
       style="fill:none;stroke:#000000;stroke-width:1.44337368;stroke-linejoin:round;stroke-miterlimit:4;stroke-opacity:1;stroke-dasharray:none;stroke-dashoffset:0" />
    <path
       style="fill:none;stroke:#000000;stroke-width:0.76725954;stroke-linejoin:round;stroke-miterlimit:4;stroke-opacity:1;stroke-dasharray:none;stroke-dashoffset:0"
       d="m 515.63746,98.5615 c 2.52802,3.0513 5.05604,5.84353 7.58407,8.39423 2.52804,2.55071 5.05606,4.85896 7.58409,6.94373 2.528,2.08477 5.05604,3.94474 7.58406,5.59876 2.52803,1.65403 5.05605,3.10089 7.58408,4.35937 2.52802,1.25846 5.05604,2.3274 7.58407,3.2255 2.52802,0.89809 5.05606,1.62431 7.58407,2.19721 2.52802,0.5729 5.05606,0.99158 7.58408,1.27449 2.52803,0.28289 5.05605,0.42922 7.58407,0.4573 2.52803,0.0281 5.05605,-0.0628 7.58407,-0.25433 2.52803,-0.19154 5.05607,-0.4844 7.5841,-0.8604 2.528,-0.37599 5.05602,-0.83563 7.58406,-1.3609 2.52803,-0.52526 5.05605,-1.11653 7.58405,-1.75585 2.52804,-0.63934 5.05607,-1.32703 7.58409,-2.04526 2.52803,-0.71823 5.05605,-1.46718 7.58407,-2.22911 2.52803,-0.76194 5.05607,-1.53694 7.58409,-2.30738 2.52802,-0.77047 5.05605,-1.53635 7.58408,-2.28013 2.52802,-0.7438 5.05606,-1.46536 7.58408,-2.1473 2.52801,-0.68193 5.05603,-1.324 7.58407,-1.90891 2.52802,-0.58491 5.05605,-1.11229 7.58407,-1.56499 2.52802,-0.45268 5.05605,-0.83021 7.58407,-1.11548 2.52803,-0.28527 5.05605,-0.47775 7.58407,-0.56043 2.52802,-0.0827 5.05605,-0.0549 7.58409,0.10016 2.528,0.15509 5.05603,0.43828 7.58407,0.86633 2.52802,0.42805 5.05605,1.00185 7.58405,1.73805 2.52805,0.7362 5.05607,1.63579 7.58409,2.71531 2.52802,1.07954 5.05605,2.34011 7.58409,3.79817 2.52802,1.45805 5.05604,3.11478 7.58405,4.98653 2.52804,1.87175 5.05606,3.95983 7.58409,6.28048 2.52804,2.32064 5.05605,4.87525 7.58407,7.67997"
       title="t -0.08*(t**3)+0.04*(t**2)+5*t"
       id="path4901-2" />
    <rect
       ry="0.27116558"
       y="104.83363"
       x="520.04468"
       height="62.690758"
       width="3.8002276"
       id="rect4957-01"
       style="fill:#000000;fill-opacity:1;stroke:#000000;stroke-width:1.00386512;stroke-linejoin:round;stroke-miterlimit:4;stroke-opacity:1;stroke-dasharray:none;stroke-dashoffset:0" />
    <rect
       ry="0.23313276"
       y="113.6461"
       x="528.59125"
       height="53.897949"
       width="3.8960886"
       id="rect4957-8-4"
       style="fill:#000000;fill-opacity:1;stroke:#000000;stroke-width:0.94247383;stroke-linejoin:round;stroke-miterlimit:4;stroke-opacity:1;stroke-dasharray:none;stroke-dashoffset:0" />
    <rect
       ry="0.20555234"
       y="120.03804"
       x="537.14758"
       height="47.521629"
       width="3.9724088"
       id="rect4957-5-6"
       style="fill:#000000;fill-opacity:1;stroke:#000000;stroke-width:0.89359635;stroke-linejoin:round;stroke-miterlimit:4;stroke-opacity:1;stroke-dasharray:none;stroke-dashoffset:0" />
    <rect
       ry="0.18468885"
       y="124.87428"
       x="545.71094"
       height="42.698208"
       width="4.0347743"
       id="rect4957-2-0"
       style="fill:#000000;fill-opacity:1;stroke:#000000;stroke-width:0.85365665;stroke-linejoin:round;stroke-miterlimit:4;stroke-opacity:1;stroke-dasharray:none;stroke-dashoffset:0" />
    <rect
       ry="0.16979143"
       y="128.32809"
       x="554.28168"
       height="39.25407"
       width="4.0821781"
       id="rect4957-6-7"
       style="fill:#000000;fill-opacity:1;stroke:#000000;stroke-width:0.8232981;stroke-linejoin:round;stroke-miterlimit:4;stroke-opacity:1;stroke-dasharray:none;stroke-dashoffset:0" />
    <rect
       ry="0.16011067"
       y="130.57283"
       x="562.85999"
       height="37.015972"
       width="4.1144419"
       id="rect4957-4-1"
       style="fill:#000000;fill-opacity:1;stroke:#000000;stroke-width:0.80263627;stroke-linejoin:round;stroke-miterlimit:4;stroke-opacity:1;stroke-dasharray:none;stroke-dashoffset:0" />
    <rect
       ry="0.15862149"
       y="130.91815"
       x="571.45203"
       height="36.671703"
       width="4.1195149"
       id="rect4957-50-7"
       style="fill:#000000;fill-opacity:1;stroke:#000000;stroke-width:0.79938745;stroke-linejoin:round;stroke-miterlimit:4;stroke-opacity:1;stroke-dasharray:none;stroke-dashoffset:0" />
    <rect
       ry="0.16159986"
       y="130.22749"
       x="580.05157"
       height="37.36026"
       width="4.1093984"
       id="rect4957-0-7"
       style="fill:#000000;fill-opacity:1;stroke:#000000;stroke-width:0.805866;stroke-linejoin:round;stroke-miterlimit:4;stroke-opacity:1;stroke-dasharray:none;stroke-dashoffset:0" />
    <rect
       ry="0.16532311"
       y="129.36418"
       x="588.65228"
       height="38.221039"
       width="4.0969191"
       id="rect4957-1-7"
       style="fill:#000000;fill-opacity:1;stroke:#000000;stroke-width:0.81385809;stroke-linejoin:round;stroke-miterlimit:4;stroke-opacity:1;stroke-dasharray:none;stroke-dashoffset:0" />
    <rect
       ry="0.17202573"
       y="127.81009"
       x="597.25769"
       height="39.770618"
       width="4.0749021"
       id="rect4957-1-3-7"
       style="fill:#000000;fill-opacity:1;stroke:#000000;stroke-width:0.82795841;stroke-linejoin:round;stroke-miterlimit:4;stroke-opacity:1;stroke-dasharray:none;stroke-dashoffset:0" />
    <rect
       ry="0.1794742"
       y="126.08316"
       x="605.8642"
       height="41.492638"
       width="4.051075"
       id="rect4957-1-9-3"
       style="fill:#000000;fill-opacity:1;stroke:#000000;stroke-width:0.84321713;stroke-linejoin:round;stroke-miterlimit:4;stroke-opacity:1;stroke-dasharray:none;stroke-dashoffset:0" />
    <rect
       ry="0.18990396"
       y="123.6653"
       x="614.47479"
       height="43.903889"
       width="4.0187697"
       id="rect4957-1-4-3"
       style="fill:#000000;fill-opacity:1;stroke:#000000;stroke-width:0.86390662;stroke-linejoin:round;stroke-miterlimit:4;stroke-opacity:1;stroke-dasharray:none;stroke-dashoffset:0" />
    <rect
       ry="0.20182614"
       y="120.90172"
       x="623.08704"
       height="46.660183"
       width="3.983232"
       id="rect4957-1-6-5"
       style="fill:#000000;fill-opacity:1;stroke:#000000;stroke-width:0.88666546;stroke-linejoin:round;stroke-miterlimit:4;stroke-opacity:1;stroke-dasharray:none;stroke-dashoffset:0" />
    <rect
       ry="0.21449609"
       y="117.96511"
       x="631.69971"
       height="49.58934"
       width="3.9469509"
       id="rect4957-1-66-9"
       style="fill:#000000;fill-opacity:1;stroke:#000000;stroke-width:0.90990031;stroke-linejoin:round;stroke-miterlimit:4;stroke-opacity:1;stroke-dasharray:none;stroke-dashoffset:0" />
    <rect
       ry="0.224932"
       y="115.54653"
       x="640.30859"
       height="52.002018"
       width="3.9181218"
       id="rect4957-1-8-9"
       style="fill:#000000;fill-opacity:1;stroke:#000000;stroke-width:0.92836314;stroke-linejoin:round;stroke-miterlimit:4;stroke-opacity:1;stroke-dasharray:none;stroke-dashoffset:0" />
    <rect
       ry="0.2353695"
       y="113.12778"
       x="648.91711"
       height="54.415058"
       width="3.8901689"
       id="rect4957-1-63-81"
       style="fill:#000000;fill-opacity:1;stroke:#000000;stroke-width:0.94626451;stroke-linejoin:round;stroke-miterlimit:4;stroke-opacity:1;stroke-dasharray:none;stroke-dashoffset:0" />
    <rect
       ry="0.24208008"
       y="111.57273"
       x="657.52032"
       height="55.966476"
       width="3.8726349"
       id="rect4957-1-63-7-8"
       style="fill:#000000;fill-opacity:1;stroke:#000000;stroke-width:0.95749396;stroke-linejoin:round;stroke-miterlimit:4;stroke-opacity:1;stroke-dasharray:none;stroke-dashoffset:0" />
    <rect
       ry="0.24729981"
       y="110.36325"
       x="666.12158"
       height="57.173229"
       width="3.8592212"
       id="rect4957-1-63-8-2"
       style="fill:#000000;fill-opacity:1;stroke:#000000;stroke-width:0.96608418;stroke-linejoin:round;stroke-miterlimit:4;stroke-opacity:1;stroke-dasharray:none;stroke-dashoffset:0" />
    <rect
       ry="0.2480455"
       y="110.19047"
       x="674.71704"
       height="57.345627"
       width="3.8573203"
       id="rect4957-1-63-9-66"
       style="fill:#000000;fill-opacity:1;stroke:#000000;stroke-width:0.96730137;stroke-linejoin:round;stroke-miterlimit:4;stroke-opacity:1;stroke-dasharray:none;stroke-dashoffset:0" />
    <rect
       ry="0.24506274"
       y="110.88162"
       x="683.30768"
       height="56.656036"
       width="3.8649459"
       id="rect4957-1-63-9-1-0"
       style="fill:#000000;fill-opacity:1;stroke:#000000;stroke-width:0.96241784;stroke-linejoin:round;stroke-miterlimit:4;stroke-opacity:1;stroke-dasharray:none;stroke-dashoffset:0" />
    <rect
       ry="0.23760629"
       y="112.60944"
       x="691.89252"
       height="54.932182"
       width="3.8842871"
       id="rect4957-1-63-9-5-3"
       style="fill:#000000;fill-opacity:1;stroke:#000000;stroke-width:0.95003134;stroke-linejoin:round;stroke-miterlimit:4;stroke-opacity:1;stroke-dasharray:none;stroke-dashoffset:0" />
    <rect
       ry="0.22642297"
       y="115.201"
       x="700.47217"
       height="52.346718"
       width="3.9140759"
       id="rect4957-1-63-9-8-8"
       style="fill:#000000;fill-opacity:1;stroke:#000000;stroke-width:0.93095386;stroke-linejoin:round;stroke-miterlimit:4;stroke-opacity:1;stroke-dasharray:none;stroke-dashoffset:0" />
    <rect
       ry="0.21002406"
       y="119.00162"
       x="709.04388"
       height="48.55545"
       width="3.9595909"
       id="rect4957-1-63-9-0-0"
       style="fill:#000000;fill-opacity:1;stroke:#000000;stroke-width:0.90180564;stroke-linejoin:round;stroke-miterlimit:4;stroke-opacity:1;stroke-dasharray:none;stroke-dashoffset:0" />
    <rect
       ry="0.18692383"
       y="124.35614"
       x="717.60425"
       height="43.214909"
       width="4.0278792"
       id="rect4957-1-63-9-6-1"
       style="fill:#000000;fill-opacity:1;stroke:#000000;stroke-width:0.85807216;stroke-linejoin:round;stroke-miterlimit:4;stroke-opacity:1;stroke-dasharray:none;stroke-dashoffset:0" />
    <rect
       ry="0.1630891"
       y="129.88217"
       x="726.16052"
       height="37.704559"
       width="4.1043849"
       id="rect4957-1-63-9-15-2"
       style="fill:#000000;fill-opacity:1;stroke:#000000;stroke-width:0.80907691;stroke-linejoin:round;stroke-miterlimit:4;stroke-opacity:1;stroke-dasharray:none;stroke-dashoffset:0" />
    <path
       style="fill:none;stroke:#000000;stroke-width:0.7672593;stroke-linejoin:round;stroke-miterlimit:4;stroke-opacity:1;stroke-dasharray:none;stroke-dashoffset:0"
       d="m 734.24327,172.33674 c -2.52801,3.0513 -5.05602,5.84353 -7.58406,8.39424 -2.52803,2.5507 -5.05605,4.85894 -7.58408,6.94371 -2.528,2.08478 -5.05604,3.94475 -7.58405,5.59877 -2.52804,1.65403 -5.05605,3.10089 -7.58408,4.35937 -2.52802,1.25845 -5.05604,2.3274 -7.58407,3.22551 -2.52802,0.89808 -5.05605,1.6243 -7.58407,2.1972 -2.52801,0.57291 -5.05605,0.99158 -7.58406,1.27448 -2.52803,0.2829 -5.05605,0.42922 -7.58407,0.45731 -2.52804,0.0281 -5.05605,-0.0628 -7.58406,-0.25433 -2.52804,-0.19155 -5.05607,-0.4844 -7.58411,-0.8604 -2.52799,-0.376 -5.05601,-0.83563 -7.58405,-1.3609 -2.52803,-0.52526 -5.05605,-1.11652 -7.58404,-1.75585 -2.52803,-0.63934 -5.05607,-1.32704 -7.58408,-2.04527 -2.52803,-0.71822 -5.05606,-1.46717 -7.58407,-2.2291 -2.52804,-0.76194 -5.05607,-1.53693 -7.58408,-2.30738 -2.52802,-0.77047 -5.05605,-1.53635 -7.58409,-2.28013 -2.52801,-0.74379 -5.05604,-1.46535 -7.58406,-2.14729 -2.52802,-0.68194 -5.05604,-1.32401 -7.58407,-1.90892 -2.52801,-0.58491 -5.05605,-1.11229 -7.58406,-1.56498 -2.52803,-0.45269 -5.05605,-0.83022 -7.58407,-1.11549 -2.52804,-0.28527 -5.05605,-0.47775 -7.58407,-0.56043 -2.52801,-0.0827 -5.05603,-0.0549 -7.58407,0.10016 -2.52799,0.15509 -5.05603,0.43828 -7.58406,0.86633 -2.52801,0.42805 -5.05605,1.00185 -7.58405,1.73805 -2.52805,0.7362 -5.05607,1.63579 -7.58408,2.71531 -2.52802,1.07955 -5.05605,2.34011 -7.58409,3.79817 -2.52801,1.45805 -5.05602,3.11478 -7.58405,4.98652 -2.52803,1.87177 -5.05605,3.95984 -7.58408,6.28049 -2.52803,2.32064 -5.05605,4.87526 -7.58406,7.67997"
       title="t -0.08*(t**3)+0.04*(t**2)+5*t"
       id="path4901-2-2" />
    <rect
       transform="scale(-1,1)"
       ry="0.27116558"
       y="178.60886"
       x="-729.83606"
       height="62.690758"
       width="3.8002253"
       id="rect4957-01-0"
       style="fill:#000000;fill-opacity:1;stroke:#000000;stroke-width:1.00386477;stroke-linejoin:round;stroke-miterlimit:4;stroke-opacity:1;stroke-dasharray:none;stroke-dashoffset:0" />
    <rect
       transform="scale(-1,1)"
       ry="0.23313276"
       y="187.42134"
       x="-721.28955"
       height="53.897945"
       width="3.896086"
       id="rect4957-8-4-1"
       style="fill:#000000;fill-opacity:1;stroke:#000000;stroke-width:0.94247353;stroke-linejoin:round;stroke-miterlimit:4;stroke-opacity:1;stroke-dasharray:none;stroke-dashoffset:0" />
    <rect
       transform="scale(-1,1)"
       ry="0.20555234"
       y="193.81328"
       x="-712.73315"
       height="47.521629"
       width="3.9724064"
       id="rect4957-5-6-6"
       style="fill:#000000;fill-opacity:1;stroke:#000000;stroke-width:0.89359605;stroke-linejoin:round;stroke-miterlimit:4;stroke-opacity:1;stroke-dasharray:none;stroke-dashoffset:0" />
    <rect
       transform="scale(-1,1)"
       ry="0.18468885"
       y="198.64955"
       x="-704.16986"
       height="42.698204"
       width="4.0347719"
       id="rect4957-2-0-4"
       style="fill:#000000;fill-opacity:1;stroke:#000000;stroke-width:0.85365635;stroke-linejoin:round;stroke-miterlimit:4;stroke-opacity:1;stroke-dasharray:none;stroke-dashoffset:0" />
    <rect
       transform="scale(-1,1)"
       ry="0.16979143"
       y="202.10333"
       x="-695.59912"
       height="39.254074"
       width="4.0821757"
       id="rect4957-6-7-0"
       style="fill:#000000;fill-opacity:1;stroke:#000000;stroke-width:0.82329786;stroke-linejoin:round;stroke-miterlimit:4;stroke-opacity:1;stroke-dasharray:none;stroke-dashoffset:0" />
    <rect
       transform="scale(-1,1)"
       ry="0.16011065"
       y="204.34807"
       x="-687.02081"
       height="37.015972"
       width="4.114439"
       id="rect4957-4-1-6"
       style="fill:#000000;fill-opacity:1;stroke:#000000;stroke-width:0.80263603;stroke-linejoin:round;stroke-miterlimit:4;stroke-opacity:1;stroke-dasharray:none;stroke-dashoffset:0" />
    <rect
       transform="scale(-1,1)"
       ry="0.15862149"
       y="204.69342"
       x="-678.42877"
       height="36.671707"
       width="4.1195121"
       id="rect4957-50-7-1"
       style="fill:#000000;fill-opacity:1;stroke:#000000;stroke-width:0.79938716;stroke-linejoin:round;stroke-miterlimit:4;stroke-opacity:1;stroke-dasharray:none;stroke-dashoffset:0" />
    <rect
       transform="scale(-1,1)"
       ry="0.16159986"
       y="204.00278"
       x="-669.82922"
       height="37.36026"
       width="4.109396"
       id="rect4957-0-7-8"
       style="fill:#000000;fill-opacity:1;stroke:#000000;stroke-width:0.80586571;stroke-linejoin:round;stroke-miterlimit:4;stroke-opacity:1;stroke-dasharray:none;stroke-dashoffset:0" />
    <rect
       transform="scale(-1,1)"
       ry="0.16532311"
       y="203.13942"
       x="-661.22852"
       height="38.221039"
       width="4.0969162"
       id="rect4957-1-7-9"
       style="fill:#000000;fill-opacity:1;stroke:#000000;stroke-width:0.81385785;stroke-linejoin:round;stroke-miterlimit:4;stroke-opacity:1;stroke-dasharray:none;stroke-dashoffset:0" />
    <rect
       transform="scale(-1,1)"
       ry="0.17202573"
       y="201.58536"
       x="-652.62311"
       height="39.770618"
       width="4.0748992"
       id="rect4957-1-3-7-8"
       style="fill:#000000;fill-opacity:1;stroke:#000000;stroke-width:0.82795817;stroke-linejoin:round;stroke-miterlimit:4;stroke-opacity:1;stroke-dasharray:none;stroke-dashoffset:0" />
    <rect
       transform="scale(-1,1)"
       ry="0.1794742"
       y="199.85843"
       x="-644.0166"
       height="41.492641"
       width="4.0510726"
       id="rect4957-1-9-3-4"
       style="fill:#000000;fill-opacity:1;stroke:#000000;stroke-width:0.8432169;stroke-linejoin:round;stroke-miterlimit:4;stroke-opacity:1;stroke-dasharray:none;stroke-dashoffset:0" />
    <rect
       transform="scale(-1,1)"
       ry="0.18990396"
       y="197.44054"
       x="-635.40607"
       height="43.903889"
       width="4.0187669"
       id="rect4957-1-4-3-1"
       style="fill:#000000;fill-opacity:1;stroke:#000000;stroke-width:0.86390632;stroke-linejoin:round;stroke-miterlimit:4;stroke-opacity:1;stroke-dasharray:none;stroke-dashoffset:0" />
    <rect
       transform="scale(-1,1)"
       ry="0.20182614"
       y="194.67697"
       x="-626.79376"
       height="46.660183"
       width="3.9832294"
       id="rect4957-1-6-5-4"
       style="fill:#000000;fill-opacity:1;stroke:#000000;stroke-width:0.88666517;stroke-linejoin:round;stroke-miterlimit:4;stroke-opacity:1;stroke-dasharray:none;stroke-dashoffset:0" />
    <rect
       transform="scale(-1,1)"
       ry="0.21449611"
       y="191.74037"
       x="-618.18109"
       height="49.58934"
       width="3.9469483"
       id="rect4957-1-66-9-3"
       style="fill:#000000;fill-opacity:1;stroke:#000000;stroke-width:0.90990007;stroke-linejoin:round;stroke-miterlimit:4;stroke-opacity:1;stroke-dasharray:none;stroke-dashoffset:0" />
    <rect
       transform="scale(-1,1)"
       ry="0.224932"
       y="189.32176"
       x="-609.5722"
       height="52.002018"
       width="3.9181192"
       id="rect4957-1-8-9-9"
       style="fill:#000000;fill-opacity:1;stroke:#000000;stroke-width:0.92836279;stroke-linejoin:round;stroke-miterlimit:4;stroke-opacity:1;stroke-dasharray:none;stroke-dashoffset:0" />
    <rect
       transform="scale(-1,1)"
       ry="0.2353695"
       y="186.903"
       x="-600.96375"
       height="54.415058"
       width="3.8901665"
       id="rect4957-1-63-81-8"
       style="fill:#000000;fill-opacity:1;stroke:#000000;stroke-width:0.94626421;stroke-linejoin:round;stroke-miterlimit:4;stroke-opacity:1;stroke-dasharray:none;stroke-dashoffset:0" />
    <rect
       transform="scale(-1,1)"
       ry="0.24208008"
       y="185.34796"
       x="-592.36053"
       height="55.966476"
       width="3.8726323"
       id="rect4957-1-63-7-8-8"
       style="fill:#000000;fill-opacity:1;stroke:#000000;stroke-width:0.95749366;stroke-linejoin:round;stroke-miterlimit:4;stroke-opacity:1;stroke-dasharray:none;stroke-dashoffset:0" />
    <rect
       transform="scale(-1,1)"
       ry="0.24729981"
       y="184.13847"
       x="-583.75928"
       height="57.173229"
       width="3.8592186"
       id="rect4957-1-63-8-2-0"
       style="fill:#000000;fill-opacity:1;stroke:#000000;stroke-width:0.96608388;stroke-linejoin:round;stroke-miterlimit:4;stroke-opacity:1;stroke-dasharray:none;stroke-dashoffset:0" />
    <rect
       transform="scale(-1,1)"
       ry="0.2480455"
       y="183.96573"
       x="-575.16382"
       height="57.345631"
       width="3.8573179"
       id="rect4957-1-63-9-66-8"
       style="fill:#000000;fill-opacity:1;stroke:#000000;stroke-width:0.96730107;stroke-linejoin:round;stroke-miterlimit:4;stroke-opacity:1;stroke-dasharray:none;stroke-dashoffset:0" />
    <rect
       transform="scale(-1,1)"
       ry="0.24506272"
       y="184.65689"
       x="-566.57324"
       height="56.656036"
       width="3.8649433"
       id="rect4957-1-63-9-1-0-7"
       style="fill:#000000;fill-opacity:1;stroke:#000000;stroke-width:0.96241754;stroke-linejoin:round;stroke-miterlimit:4;stroke-opacity:1;stroke-dasharray:none;stroke-dashoffset:0" />
    <rect
       transform="scale(-1,1)"
       ry="0.23760629"
       y="186.38466"
       x="-557.98834"
       height="54.932182"
       width="3.8842845"
       id="rect4957-1-63-9-5-3-7"
       style="fill:#000000;fill-opacity:1;stroke:#000000;stroke-width:0.95003098;stroke-linejoin:round;stroke-miterlimit:4;stroke-opacity:1;stroke-dasharray:none;stroke-dashoffset:0" />
    <rect
       transform="scale(-1,1)"
       ry="0.22642297"
       y="188.97626"
       x="-549.40875"
       height="52.346718"
       width="3.9140732"
       id="rect4957-1-63-9-8-8-8"
       style="fill:#000000;fill-opacity:1;stroke:#000000;stroke-width:0.93095356;stroke-linejoin:round;stroke-miterlimit:4;stroke-opacity:1;stroke-dasharray:none;stroke-dashoffset:0" />
    <rect
       transform="scale(-1,1)"
       ry="0.21002406"
       y="192.77689"
       x="-540.83704"
       height="48.555447"
       width="3.9595883"
       id="rect4957-1-63-9-0-0-3"
       style="fill:#000000;fill-opacity:1;stroke:#000000;stroke-width:0.90180534;stroke-linejoin:round;stroke-miterlimit:4;stroke-opacity:1;stroke-dasharray:none;stroke-dashoffset:0" />
    <rect
       transform="scale(-1,1)"
       ry="0.18692383"
       y="198.13138"
       x="-532.27655"
       height="43.214909"
       width="4.0278769"
       id="rect4957-1-63-9-6-1-8"
       style="fill:#000000;fill-opacity:1;stroke:#000000;stroke-width:0.85807192;stroke-linejoin:round;stroke-miterlimit:4;stroke-opacity:1;stroke-dasharray:none;stroke-dashoffset:0" />
    <rect
       transform="scale(-1,1)"
       ry="0.16308911"
       y="203.65739"
       x="-523.7204"
       height="37.704563"
       width="4.1043825"
       id="rect4957-1-63-9-15-2-3"
       style="fill:#000000;fill-opacity:1;stroke:#000000;stroke-width:0.80907661;stroke-linejoin:round;stroke-miterlimit:4;stroke-opacity:1;stroke-dasharray:none;stroke-dashoffset:0" />
    <g
       ns0:preamble="/home/danielsank/src/DanielSVN/TeX/packages.tex"
       ns0:text="$f(x_1)$"
       word-spacing="normal"
       letter-spacing="normal"
       font-size-adjust="none"
       font-stretch="normal"
       font-weight="normal"
       font-variant="normal"
       font-style="normal"
       stroke-miterlimit="10.433"
       xml:space="preserve"
       transform="matrix(1.9131876,0,0,-1.9131876,-414.0923,1170.1475)"
       id="content"
       style="font-style:normal;font-variant:normal;font-weight:normal;font-stretch:normal;letter-spacing:normal;word-spacing:normal;text-anchor:start;fill:none;stroke:#000000;stroke-width:2.09075165;stroke-linecap:butt;stroke-linejoin:miter;stroke-miterlimit:10.43299961;stroke-opacity:1;stroke-dasharray:none;stroke-dashoffset:0"><path
         id="path3266"
         d="m 227.08,481.21 h 0.86 c 0.2,0 0.3,0 0.3,0.2 0,0.11 -0.1,0.11 -0.27,0.11 h -0.83 l 0.21,1.13 c 0.04,0.21 0.18,0.91 0.24,1.03 0.09,0.19 0.26,0.34 0.47,0.34 0.04,0 0.3,0 0.49,-0.18 -0.44,-0.04 -0.54,-0.39 -0.54,-0.54 0,-0.22 0.18,-0.34 0.37,-0.34 0.25,0 0.54,0.21 0.54,0.59 0,0.46 -0.45,0.69 -0.86,0.69 -0.34,0 -0.97,-0.18 -1.27,-1.16 -0.05,-0.21 -0.08,-0.31 -0.32,-1.56 h -0.69 c -0.19,0 -0.3,0 -0.3,-0.19 0,-0.12 0.09,-0.12 0.28,-0.12 h 0.66 l -0.75,-3.92 c -0.18,-0.97 -0.35,-1.87 -0.87,-1.87 -0.04,0 -0.28,0 -0.47,0.18 0.46,0.03 0.55,0.38 0.55,0.53 0,0.23 -0.18,0.35 -0.37,0.35 -0.26,0 -0.55,-0.22 -0.55,-0.6 0,-0.44 0.44,-0.68 0.84,-0.68 0.55,0 0.95,0.59 1.13,0.96 0.32,0.63 0.55,1.83 0.56,1.9 z"
         inkscape:connector-curvature="0"
         style="fill:#000000;stroke-width:0" /><path
         id="path3268"
         d="m 232.68,474.85 -0.01,0.01 0,0 0,0 0,0.01 0,0 0,0 0,0.01 0,0 0,0 0,0.01 -0.01,0 0,0.01 0,0 -0.01,0.01 0,0 -0.01,0.01 0,0.01 -0.01,0 0,0.01 0,0 -0.01,0.01 0,0 0,0 -0.01,0.01 0,0 -0.01,0.01 0,0 -0.01,0.01 0,0 -0.01,0.01 0,0 -0.01,0.01 0,0.01 -0.01,0 0,0.01 -0.01,0.01 -0.01,0 0,0.01 -0.01,0.01 -0.01,0 -0.01,0.01 0,0.01 c -1.25,1.25 -1.57,3.13 -1.57,4.65 0,1.73 0.38,3.45 1.61,4.7 0.13,0.12 0.13,0.14 0.13,0.17 0,0.07 -0.05,0.09 -0.1,0.09 -0.1,0 -1,-0.67 -1.59,-1.93 -0.5,-1.09 -0.62,-2.2 -0.62,-3.03 0,-0.78 0.11,-1.98 0.65,-3.1 0.6,-1.22 1.46,-1.87 1.56,-1.87 0.05,0 0.1,0.03 0.1,0.1 z"
         inkscape:connector-curvature="0"
         style="fill:#000000;stroke-width:0" /><path
         id="path3270"
         d="m 236.58,480.23 0.01,0.03 0,0.03 0.01,0.03 0.01,0.04 0.01,0.04 0.01,0.04 0.02,0.04 0.01,0.05 0.02,0.04 0.01,0.05 0.02,0.05 0.02,0.05 0.03,0.05 0.02,0.05 0.03,0.05 0.02,0.05 0.03,0.05 0.03,0.04 0.04,0.05 0.03,0.04 0.04,0.05 0.04,0.04 0.04,0.04 0.04,0.03 0.05,0.03 0.05,0.03 0.02,0.01 0.03,0.02 0.03,0.01 0.02,0.01 0.03,0.01 0.03,0 0.03,0.01 0.03,0.01 0.03,0 0.03,0 0.03,0.01 0.03,0 c 0.05,0 0.29,0 0.5,-0.13 -0.28,-0.05 -0.48,-0.3 -0.48,-0.54 0,-0.16 0.11,-0.35 0.38,-0.35 0.22,0 0.54,0.18 0.54,0.58 0,0.52 -0.59,0.66 -0.93,0.66 -0.57,0 -0.92,-0.53 -1.04,-0.76 -0.25,0.66 -0.79,0.76 -1.07,0.76 -1.04,0 -1.61,-1.29 -1.61,-1.53 0,-0.1 0.1,-0.1 0.12,-0.1 0.08,0 0.11,0.02 0.13,0.11 0.34,1.05 1,1.3 1.33,1.3 0.19,0 0.54,-0.09 0.54,-0.67 0,-0.31 -0.17,-0.97 -0.54,-2.36 -0.15,-0.62 -0.5,-1.04 -0.94,-1.04 -0.06,0 -0.29,0 -0.5,0.13 0.25,0.05 0.47,0.26 0.47,0.54 0,0.27 -0.22,0.35 -0.37,0.35 -0.3,0 -0.55,-0.26 -0.55,-0.58 0,-0.46 0.5,-0.65 0.94,-0.65 0.66,0 1.01,0.69 1.04,0.75 0.12,-0.37 0.48,-0.75 1.08,-0.75 1.02,0 1.59,1.28 1.59,1.53 0,0.1 -0.09,0.1 -0.12,0.1 -0.09,0 -0.11,-0.05 -0.13,-0.11 -0.33,-1.07 -1,-1.31 -1.32,-1.31 -0.39,0 -0.55,0.32 -0.55,0.66 0,0.22 0.06,0.44 0.17,0.87 z"
         inkscape:connector-curvature="0"
         style="fill:#000000;stroke-width:0" /><path
         id="path3272"
         d="m 241.28,480.16 0,0.01 0,0.01 0,0.01 0,0.01 0,0 0,0.01 0,0.01 0,0.01 0,0 0,0.01 0,0.01 0,0 0,0.01 0,0 0,0.01 0,0 0,0.01 0,0 -0.01,0.01 0,0.01 0,0.01 -0.01,0 0,0.01 0,0.01 -0.01,0 0,0.01 -0.01,0 -0.01,0 0,0.01 -0.01,0 -0.01,0 -0.01,0 -0.01,0 0,0 -0.01,0 0,0.01 -0.01,0 0,0 -0.01,0 -0.01,0 0,0 -0.01,0 -0.01,0 -0.01,0 0,0 -0.01,0 -0.01,0 -0.01,0 -0.01,0 -0.01,0 c -0.44,-0.44 -1.08,-0.45 -1.36,-0.45 v -0.25 c 0.17,0 0.63,0 1.01,0.2 v -3.55 c 0,-0.23 0,-0.32 -0.7,-0.32 h -0.26 v -0.25 c 0.12,0.01 0.98,0.03 1.24,0.03 0.21,0 1.09,-0.02 1.24,-0.03 v 0.25 h -0.26 c -0.7,0 -0.7,0.09 -0.7,0.32 z"
         inkscape:connector-curvature="0"
         style="fill:#000000;stroke-width:0" /><path
         id="path3274"
         d="m 246.29,479.72 0,0.07 0,0.08 0,0.08 0,0.08 -0.01,0.17 -0.01,0.17 -0.02,0.18 -0.02,0.19 -0.03,0.2 -0.03,0.2 -0.04,0.2 -0.04,0.21 -0.06,0.21 -0.06,0.21 -0.07,0.21 -0.08,0.21 -0.04,0.11 -0.04,0.11 -0.05,0.1 -0.05,0.11 c -0.6,1.22 -1.45,1.86 -1.55,1.86 -0.06,0 -0.1,-0.03 -0.1,-0.09 0,-0.03 0,-0.05 0.19,-0.23 0.97,-0.99 1.54,-2.56 1.54,-4.64 0,-1.7 -0.37,-3.45 -1.6,-4.7 -0.13,-0.12 -0.13,-0.14 -0.13,-0.17 0,-0.06 0.04,-0.1 0.1,-0.1 0.1,0 0.99,0.68 1.58,1.94 0.51,1.09 0.62,2.19 0.62,3.03 z"
         inkscape:connector-curvature="0"
         style="fill:#000000;stroke-width:0" /></g>    <g
       id="g3603"
       transform="matrix(1.9131876,0,0,-1.9131876,-238.23822,1170.1475)"
       xml:space="preserve"
       stroke-miterlimit="10.433"
       font-style="normal"
       font-variant="normal"
       font-weight="normal"
       font-stretch="normal"
       font-size-adjust="none"
       letter-spacing="normal"
       word-spacing="normal"
       ns0:text="$f(x_{25})$"
       ns0:preamble="/home/danielsank/src/DanielSVN/TeX/packages.tex"
       style="font-style:normal;font-variant:normal;font-weight:normal;font-stretch:normal;letter-spacing:normal;word-spacing:normal;text-anchor:start;fill:none;stroke:#000000;stroke-width:2.09075165;stroke-linecap:butt;stroke-linejoin:miter;stroke-miterlimit:10.43299961;stroke-opacity:1;stroke-dasharray:none;stroke-dashoffset:0"><path
         style="fill:#000000;stroke-width:0"
         inkscape:connector-curvature="0"
         d="m 227.08,481.21 h 0.86 c 0.2,0 0.3,0 0.3,0.2 0,0.11 -0.1,0.11 -0.27,0.11 h -0.83 l 0.21,1.13 c 0.04,0.21 0.18,0.91 0.24,1.03 0.09,0.19 0.26,0.34 0.47,0.34 0.04,0 0.3,0 0.49,-0.18 -0.44,-0.04 -0.54,-0.39 -0.54,-0.54 0,-0.22 0.18,-0.34 0.37,-0.34 0.25,0 0.54,0.21 0.54,0.59 0,0.46 -0.45,0.69 -0.86,0.69 -0.34,0 -0.97,-0.18 -1.27,-1.16 -0.05,-0.21 -0.08,-0.31 -0.32,-1.56 h -0.69 c -0.19,0 -0.3,0 -0.3,-0.19 0,-0.12 0.09,-0.12 0.28,-0.12 h 0.66 l -0.75,-3.92 c -0.18,-0.97 -0.35,-1.87 -0.87,-1.87 -0.04,0 -0.28,0 -0.47,0.18 0.46,0.03 0.55,0.38 0.55,0.53 0,0.23 -0.18,0.35 -0.37,0.35 -0.26,0 -0.55,-0.22 -0.55,-0.6 0,-0.44 0.44,-0.68 0.84,-0.68 0.55,0 0.95,0.59 1.13,0.96 0.32,0.63 0.55,1.83 0.56,1.9 z"
         id="path3605" /><path
         style="fill:#000000;stroke-width:0"
         inkscape:connector-curvature="0"
         d="m 232.68,474.85 -0.01,0.01 0,0 0,0 0,0.01 0,0 0,0 0,0.01 0,0 0,0 0,0.01 -0.01,0 0,0.01 0,0 -0.01,0.01 0,0 -0.01,0.01 0,0.01 -0.01,0 0,0.01 0,0 -0.01,0.01 0,0 0,0 -0.01,0.01 0,0 -0.01,0.01 0,0 -0.01,0.01 0,0 -0.01,0.01 0,0 -0.01,0.01 0,0.01 -0.01,0 0,0.01 -0.01,0.01 -0.01,0 0,0.01 -0.01,0.01 -0.01,0 -0.01,0.01 0,0.01 c -1.25,1.25 -1.57,3.13 -1.57,4.65 0,1.73 0.38,3.45 1.61,4.7 0.13,0.12 0.13,0.14 0.13,0.17 0,0.07 -0.05,0.09 -0.1,0.09 -0.1,0 -1,-0.67 -1.59,-1.93 -0.5,-1.09 -0.62,-2.2 -0.62,-3.03 0,-0.78 0.11,-1.98 0.65,-3.1 0.6,-1.22 1.46,-1.87 1.56,-1.87 0.05,0 0.1,0.03 0.1,0.1 z"
         id="path3607" /><path
         style="fill:#000000;stroke-width:0"
         inkscape:connector-curvature="0"
         d="m 236.58,480.23 0.01,0.03 0,0.03 0.01,0.03 0.01,0.04 0.01,0.04 0.01,0.04 0.02,0.04 0.01,0.05 0.02,0.04 0.01,0.05 0.02,0.05 0.02,0.05 0.03,0.05 0.02,0.05 0.03,0.05 0.02,0.05 0.03,0.05 0.03,0.04 0.04,0.05 0.03,0.04 0.04,0.05 0.04,0.04 0.04,0.04 0.04,0.03 0.05,0.03 0.05,0.03 0.02,0.01 0.03,0.02 0.03,0.01 0.02,0.01 0.03,0.01 0.03,0 0.03,0.01 0.03,0.01 0.03,0 0.03,0 0.03,0.01 0.03,0 c 0.05,0 0.29,0 0.5,-0.13 -0.28,-0.05 -0.48,-0.3 -0.48,-0.54 0,-0.16 0.11,-0.35 0.38,-0.35 0.22,0 0.54,0.18 0.54,0.58 0,0.52 -0.59,0.66 -0.93,0.66 -0.57,0 -0.92,-0.53 -1.04,-0.76 -0.25,0.66 -0.79,0.76 -1.07,0.76 -1.04,0 -1.61,-1.29 -1.61,-1.53 0,-0.1 0.1,-0.1 0.12,-0.1 0.08,0 0.11,0.02 0.13,0.11 0.34,1.05 1,1.3 1.33,1.3 0.19,0 0.54,-0.09 0.54,-0.67 0,-0.31 -0.17,-0.97 -0.54,-2.36 -0.15,-0.62 -0.5,-1.04 -0.94,-1.04 -0.06,0 -0.29,0 -0.5,0.13 0.25,0.05 0.47,0.26 0.47,0.54 0,0.27 -0.22,0.35 -0.37,0.35 -0.3,0 -0.55,-0.26 -0.55,-0.58 0,-0.46 0.5,-0.65 0.94,-0.65 0.66,0 1.01,0.69 1.04,0.75 0.12,-0.37 0.48,-0.75 1.08,-0.75 1.02,0 1.59,1.28 1.59,1.53 0,0.1 -0.09,0.1 -0.12,0.1 -0.09,0 -0.11,-0.05 -0.13,-0.11 -0.33,-1.07 -1,-1.31 -1.32,-1.31 -0.39,0 -0.55,0.32 -0.55,0.66 0,0.22 0.06,0.44 0.17,0.87 z"
         id="path3609" /><path
         style="fill:#000000;stroke-width:0"
         inkscape:connector-curvature="0"
         d="m 242.47,477.01 h -0.24 c -0.02,-0.16 -0.09,-0.57 -0.18,-0.64 -0.06,-0.04 -0.59,-0.04 -0.69,-0.04 h -1.28 c 0.73,0.65 0.97,0.84 1.39,1.17 0.52,0.41 1,0.84 1,1.5 0,0.84 -0.74,1.36 -1.63,1.36 -0.87,0 -1.45,-0.61 -1.45,-1.25 0,-0.35 0.3,-0.39 0.37,-0.39 0.17,0 0.37,0.12 0.37,0.37 0,0.13 -0.05,0.37 -0.41,0.37 0.21,0.49 0.69,0.65 1.01,0.65 0.7,0 1.06,-0.54 1.06,-1.11 0,-0.6 -0.43,-1.08 -0.65,-1.33 l -1.68,-1.66 c -0.07,-0.06 -0.07,-0.07 -0.07,-0.27 h 2.87 z"
         id="path3611" /><path
         style="fill:#000000;stroke-width:0"
         inkscape:connector-curvature="0"
         d="m 244,479.62 0.03,-0.01 0.04,0 0.03,-0.01 0.03,-0.01 0.03,0 0.03,-0.01 0.02,-0.01 0.03,0 0.03,-0.01 0.02,0 0.03,0 0.02,-0.01 0.02,0 0.03,0 0.02,-0.01 0.02,0 0.02,0 0.02,0 0.02,0 0.02,0 0.02,-0.01 0.01,0 0.02,0 0.01,0 0.02,0 0.01,0 0.02,0 0.01,0 0.01,0 0.01,0 0.02,0 0.01,0 c 0.92,0 1.46,0.63 1.46,0.73 0,0.08 -0.05,0.1 -0.08,0.1 -0.02,0 -0.03,0 -0.06,-0.02 -0.17,-0.07 -0.54,-0.2 -1.05,-0.2 -0.2,0 -0.57,0.01 -1.02,0.18 -0.07,0.04 -0.08,0.04 -0.09,0.04 -0.09,0 -0.09,-0.08 -0.09,-0.19 v -2.05 c 0,-0.12 0,-0.2 0.11,-0.2 0.06,0 0.07,0.01 0.14,0.1 0.3,0.38 0.73,0.43 0.97,0.43 0.42,0 0.6,-0.33 0.64,-0.39 0.13,-0.23 0.17,-0.49 0.17,-0.89 0,-0.21 0,-0.62 -0.21,-0.93 -0.18,-0.25 -0.48,-0.42 -0.82,-0.42 -0.45,0 -0.92,0.26 -1.09,0.71 0.26,-0.02 0.4,0.16 0.4,0.34 0,0.3 -0.26,0.36 -0.35,0.36 -0.01,0 -0.35,0 -0.35,-0.38 0,-0.62 0.57,-1.25 1.41,-1.25 0.89,0 1.67,0.66 1.67,1.54 0,0.78 -0.6,1.51 -1.46,1.51 -0.31,0 -0.67,-0.08 -0.98,-0.34 z"
         id="path3613" /><path
         style="fill:#000000;stroke-width:0"
         inkscape:connector-curvature="0"
         d="m 250.27,479.72 0,0.07 -0.01,0.08 0,0.08 0,0.08 -0.01,0.17 -0.01,0.17 -0.02,0.18 -0.02,0.19 -0.02,0.2 -0.04,0.2 -0.04,0.2 -0.04,0.21 -0.06,0.21 -0.06,0.21 -0.07,0.21 -0.07,0.21 -0.05,0.11 -0.04,0.11 -0.05,0.1 -0.05,0.11 c -0.6,1.22 -1.45,1.86 -1.55,1.86 -0.06,0 -0.1,-0.03 -0.1,-0.09 0,-0.03 0,-0.05 0.19,-0.23 0.97,-0.99 1.54,-2.56 1.54,-4.64 0,-1.7 -0.37,-3.45 -1.6,-4.7 -0.13,-0.12 -0.13,-0.14 -0.13,-0.17 0,-0.06 0.04,-0.1 0.1,-0.1 0.1,0 0.99,0.68 1.58,1.94 0.51,1.09 0.63,2.19 0.63,3.03 z"
         id="path3615" /></g>    <g
       id="g5102"
       transform="matrix(1.9131876,0,0,-1.9131876,62.845651,1175.9904)"
       xml:space="preserve"
       stroke-miterlimit="10.433"
       font-style="normal"
       font-variant="normal"
       font-weight="normal"
       font-stretch="normal"
       font-size-adjust="none"
       letter-spacing="normal"
       word-spacing="normal"
       ns0:text="$f(x_1)g(x_1) + f(x_2)g(x_2)+\\cdots$"
       ns0:preamble="/home/danielsank/src/DanielSVN/TeX/packages.tex"
       style="font-style:normal;font-variant:normal;font-weight:normal;font-stretch:normal;letter-spacing:normal;word-spacing:normal;text-anchor:start;fill:none;stroke:#000000;stroke-width:2.09075165;stroke-linecap:butt;stroke-linejoin:miter;stroke-miterlimit:10.43299961;stroke-opacity:1;stroke-dasharray:none;stroke-dashoffset:0"><path
         style="fill:#000000;stroke-width:0"
         inkscape:connector-curvature="0"
         d="m 227.08,481.21 h 0.86 c 0.2,0 0.3,0 0.3,0.2 0,0.11 -0.1,0.11 -0.27,0.11 h -0.83 l 0.21,1.13 c 0.04,0.21 0.18,0.91 0.24,1.03 0.09,0.19 0.26,0.34 0.47,0.34 0.04,0 0.3,0 0.49,-0.18 -0.44,-0.04 -0.54,-0.39 -0.54,-0.54 0,-0.22 0.18,-0.34 0.37,-0.34 0.25,0 0.54,0.21 0.54,0.59 0,0.46 -0.45,0.69 -0.86,0.69 -0.34,0 -0.97,-0.18 -1.27,-1.16 -0.05,-0.21 -0.08,-0.31 -0.32,-1.56 h -0.69 c -0.19,0 -0.3,0 -0.3,-0.19 0,-0.12 0.09,-0.12 0.28,-0.12 h 0.66 l -0.75,-3.92 c -0.18,-0.97 -0.35,-1.87 -0.87,-1.87 -0.04,0 -0.28,0 -0.47,0.18 0.46,0.03 0.55,0.38 0.55,0.53 0,0.23 -0.18,0.35 -0.37,0.35 -0.26,0 -0.55,-0.22 -0.55,-0.6 0,-0.44 0.44,-0.68 0.84,-0.68 0.55,0 0.95,0.59 1.13,0.96 0.32,0.63 0.55,1.83 0.56,1.9 z"
         id="path5104" /><path
         style="fill:#000000;stroke-width:0"
         inkscape:connector-curvature="0"
         d="m 232.68,474.85 -0.01,0.01 0,0 0,0 0,0.01 0,0 0,0 0,0.01 0,0 0,0 0,0.01 -0.01,0 0,0.01 0,0 -0.01,0.01 0,0 -0.01,0.01 0,0.01 -0.01,0 0,0.01 0,0 -0.01,0.01 0,0 0,0 -0.01,0.01 0,0 -0.01,0.01 0,0 -0.01,0.01 0,0 -0.01,0.01 0,0 -0.01,0.01 0,0.01 -0.01,0 0,0.01 -0.01,0.01 -0.01,0 0,0.01 -0.01,0.01 -0.01,0 -0.01,0.01 0,0.01 c -1.25,1.25 -1.57,3.13 -1.57,4.65 0,1.73 0.38,3.45 1.61,4.7 0.13,0.12 0.13,0.14 0.13,0.17 0,0.07 -0.05,0.09 -0.1,0.09 -0.1,0 -1,-0.67 -1.59,-1.93 -0.5,-1.09 -0.62,-2.2 -0.62,-3.03 0,-0.78 0.11,-1.98 0.65,-3.1 0.6,-1.22 1.46,-1.87 1.56,-1.87 0.05,0 0.1,0.03 0.1,0.1 z"
         id="path5106" /><path
         style="fill:#000000;stroke-width:0"
         inkscape:connector-curvature="0"
         d="m 236.58,480.23 0.01,0.03 0,0.03 0.01,0.03 0.01,0.04 0.01,0.04 0.01,0.04 0.02,0.04 0.01,0.05 0.02,0.04 0.01,0.05 0.02,0.05 0.02,0.05 0.03,0.05 0.02,0.05 0.03,0.05 0.02,0.05 0.03,0.05 0.03,0.04 0.04,0.05 0.03,0.04 0.04,0.05 0.04,0.04 0.04,0.04 0.04,0.03 0.05,0.03 0.05,0.03 0.02,0.01 0.03,0.02 0.03,0.01 0.02,0.01 0.03,0.01 0.03,0 0.03,0.01 0.03,0.01 0.03,0 0.03,0 0.03,0.01 0.03,0 c 0.05,0 0.29,0 0.5,-0.13 -0.28,-0.05 -0.48,-0.3 -0.48,-0.54 0,-0.16 0.11,-0.35 0.38,-0.35 0.22,0 0.54,0.18 0.54,0.58 0,0.52 -0.59,0.66 -0.93,0.66 -0.57,0 -0.92,-0.53 -1.04,-0.76 -0.25,0.66 -0.79,0.76 -1.07,0.76 -1.04,0 -1.61,-1.29 -1.61,-1.53 0,-0.1 0.1,-0.1 0.12,-0.1 0.08,0 0.11,0.02 0.13,0.11 0.34,1.05 1,1.3 1.33,1.3 0.19,0 0.54,-0.09 0.54,-0.67 0,-0.31 -0.17,-0.97 -0.54,-2.36 -0.15,-0.62 -0.5,-1.04 -0.94,-1.04 -0.06,0 -0.29,0 -0.5,0.13 0.25,0.05 0.47,0.26 0.47,0.54 0,0.27 -0.22,0.35 -0.37,0.35 -0.3,0 -0.55,-0.26 -0.55,-0.58 0,-0.46 0.5,-0.65 0.94,-0.65 0.66,0 1.01,0.69 1.04,0.75 0.12,-0.37 0.48,-0.75 1.08,-0.75 1.02,0 1.59,1.28 1.59,1.53 0,0.1 -0.09,0.1 -0.12,0.1 -0.09,0 -0.11,-0.05 -0.13,-0.11 -0.33,-1.07 -1,-1.31 -1.32,-1.31 -0.39,0 -0.55,0.32 -0.55,0.66 0,0.22 0.06,0.44 0.17,0.87 z"
         id="path5108" /><path
         style="fill:#000000;stroke-width:0"
         inkscape:connector-curvature="0"
         d="m 241.28,480.16 0,0.01 0,0.01 0,0.01 0,0.01 0,0 0,0.01 0,0.01 0,0.01 0,0 0,0.01 0,0.01 0,0 0,0.01 0,0 0,0.01 0,0 0,0.01 0,0 -0.01,0.01 0,0.01 0,0.01 -0.01,0 0,0.01 0,0.01 -0.01,0 0,0.01 -0.01,0 -0.01,0 0,0.01 -0.01,0 -0.01,0 -0.01,0 -0.01,0 0,0 -0.01,0 0,0.01 -0.01,0 0,0 -0.01,0 -0.01,0 0,0 -0.01,0 -0.01,0 -0.01,0 0,0 -0.01,0 -0.01,0 -0.01,0 -0.01,0 -0.01,0 c -0.44,-0.44 -1.08,-0.45 -1.36,-0.45 v -0.25 c 0.17,0 0.63,0 1.01,0.2 v -3.55 c 0,-0.23 0,-0.32 -0.7,-0.32 h -0.26 v -0.25 c 0.12,0.01 0.98,0.03 1.24,0.03 0.21,0 1.09,-0.02 1.24,-0.03 v 0.25 h -0.26 c -0.7,0 -0.7,0.09 -0.7,0.32 z"
         id="path5110" /><path
         style="fill:#000000;stroke-width:0"
         inkscape:connector-curvature="0"
         d="m 246.29,479.72 0,0.07 0,0.08 0,0.08 0,0.08 -0.01,0.17 -0.01,0.17 -0.02,0.18 -0.02,0.19 -0.03,0.2 -0.03,0.2 -0.04,0.2 -0.04,0.21 -0.06,0.21 -0.06,0.21 -0.07,0.21 -0.08,0.21 -0.04,0.11 -0.04,0.11 -0.05,0.1 -0.05,0.11 c -0.6,1.22 -1.45,1.86 -1.55,1.86 -0.06,0 -0.1,-0.03 -0.1,-0.09 0,-0.03 0,-0.05 0.19,-0.23 0.97,-0.99 1.54,-2.56 1.54,-4.64 0,-1.7 -0.37,-3.45 -1.6,-4.7 -0.13,-0.12 -0.13,-0.14 -0.13,-0.17 0,-0.06 0.04,-0.1 0.1,-0.1 0.1,0 0.99,0.68 1.58,1.94 0.51,1.09 0.62,2.19 0.62,3.03 z"
         id="path5112" /><path
         style="fill:#000000;stroke-width:0"
         inkscape:connector-curvature="0"
         d="m 251.98,480.98 0,0.01 0,0.01 0.01,0.01 0,0.01 0,0.02 0.01,0.02 0,0.01 0,0.01 0,0.01 0.01,0.01 0,0.01 0,0.01 0,0.01 0,0 0,0.01 0,0.01 0,0 0,0.01 c 0,0.17 -0.12,0.27 -0.29,0.27 -0.1,0 -0.37,-0.07 -0.41,-0.43 -0.18,0.37 -0.52,0.63 -0.92,0.63 l 0.01,-0.22 c 0.65,0 0.79,-0.81 0.79,-0.86 0,-0.05 -0.02,-0.11 -0.03,-0.15 l -0.47,-1.89 c -0.06,-0.26 -0.29,-0.51 -0.51,-0.7 -0.21,-0.18 -0.52,-0.36 -0.81,-0.36 -0.49,0 -0.64,0.52 -0.64,0.92 0,0.47 0.28,1.65 0.55,2.15 0.27,0.49 0.7,0.89 1.12,0.89 l -0.01,0.22 c -1.14,0 -2.37,-1.4 -2.37,-2.83 0,-0.98 0.61,-1.57 1.32,-1.57 0.59,0 1.06,0.47 1.16,0.58 l 0.01,-0.01 c -0.21,-0.88 -0.33,-1.29 -0.33,-1.31 -0.04,-0.09 -0.38,-1.07 -1.43,-1.07 -0.19,0 -0.52,0.01 -0.8,0.1 0.3,0.09 0.41,0.34 0.41,0.51 0,0.16 -0.11,0.35 -0.38,0.35 -0.22,0 -0.54,-0.18 -0.54,-0.58 0,-0.4 0.37,-0.6 1.33,-0.6 1.24,0 1.96,0.77 2.11,1.37 z"
         id="path5114" /><path
         style="fill:#000000;stroke-width:0"
         inkscape:connector-curvature="0"
         d="m 255.7,474.85 0,0.01 0,0 0,0 -0.01,0.01 0,0 0,0 0,0.01 0,0 0,0 0,0.01 -0.01,0 0,0.01 0,0 -0.01,0.01 0,0 0,0.01 -0.01,0.01 -0.01,0 0,0.01 0,0 -0.01,0.01 0,0 0,0 -0.01,0.01 0,0 -0.01,0.01 0,0 0,0.01 -0.01,0 0,0.01 -0.01,0 -0.01,0.01 0,0.01 -0.01,0 0,0.01 -0.01,0.01 -0.01,0 0,0.01 -0.01,0.01 -0.01,0 -0.01,0.01 0,0.01 c -1.25,1.25 -1.57,3.13 -1.57,4.65 0,1.73 0.38,3.45 1.61,4.7 0.13,0.12 0.13,0.14 0.13,0.17 0,0.07 -0.04,0.09 -0.1,0.09 -0.1,0 -1,-0.67 -1.59,-1.93 -0.5,-1.09 -0.62,-2.2 -0.62,-3.03 0,-0.78 0.11,-1.98 0.65,-3.1 0.6,-1.22 1.46,-1.87 1.56,-1.87 0.06,0 0.1,0.03 0.1,0.1 z"
         id="path5116" /><path
         style="fill:#000000;stroke-width:0"
         inkscape:connector-curvature="0"
         d="m 259.6,480.23 0.01,0.03 0,0.03 0.01,0.03 0.01,0.04 0.01,0.04 0.01,0.04 0.02,0.04 0.01,0.05 0.02,0.04 0.02,0.05 0.01,0.05 0.03,0.05 0.02,0.05 0.02,0.05 0.03,0.05 0.03,0.05 0.02,0.05 0.04,0.04 0.03,0.05 0.03,0.04 0.04,0.05 0.04,0.04 0.04,0.04 0.05,0.03 0.04,0.03 0.05,0.03 0.03,0.01 0.02,0.02 0.03,0.01 0.03,0.01 0.02,0.01 0.03,0 0.03,0.01 0.03,0.01 0.03,0 0.03,0 0.03,0.01 0.04,0 c 0.05,0 0.29,0 0.49,-0.13 -0.28,-0.05 -0.47,-0.3 -0.47,-0.54 0,-0.16 0.1,-0.35 0.37,-0.35 0.22,0 0.54,0.18 0.54,0.58 0,0.52 -0.59,0.66 -0.92,0.66 -0.58,0 -0.93,-0.53 -1.05,-0.76 -0.25,0.66 -0.78,0.76 -1.07,0.76 -1.04,0 -1.6,-1.29 -1.6,-1.53 0,-0.1 0.09,-0.1 0.11,-0.1 0.08,0 0.11,0.02 0.13,0.11 0.34,1.05 1,1.3 1.34,1.3 0.19,0 0.53,-0.09 0.53,-0.67 0,-0.31 -0.16,-0.97 -0.53,-2.36 -0.16,-0.62 -0.51,-1.04 -0.95,-1.04 -0.06,0 -0.29,0 -0.5,0.13 0.25,0.05 0.47,0.26 0.47,0.54 0,0.27 -0.22,0.35 -0.37,0.35 -0.29,0 -0.54,-0.26 -0.54,-0.58 0,-0.46 0.49,-0.65 0.93,-0.65 0.66,0 1.02,0.69 1.05,0.75 0.12,-0.37 0.47,-0.75 1.07,-0.75 1.03,0 1.59,1.28 1.59,1.53 0,0.1 -0.09,0.1 -0.12,0.1 -0.09,0 -0.11,-0.05 -0.13,-0.11 -0.32,-1.07 -1,-1.31 -1.32,-1.31 -0.39,0 -0.55,0.32 -0.55,0.66 0,0.22 0.06,0.44 0.17,0.87 z"
         id="path5118" /><path
         style="fill:#000000;stroke-width:0"
         inkscape:connector-curvature="0"
         d="m 264.3,480.16 0,0.01 0,0.01 0,0.01 0,0.01 0,0 0,0.01 0,0.01 0,0.01 0,0 0,0.01 0,0.01 0,0 0,0.01 0,0 0,0.01 0,0 0,0.01 0,0 0,0.01 -0.01,0.01 0,0.01 0,0 -0.01,0.01 0,0.01 -0.01,0 0,0.01 -0.01,0 0,0 -0.01,0.01 -0.01,0 -0.01,0 -0.01,0 0,0 -0.01,0 0,0 -0.01,0.01 -0.01,0 0,0 -0.01,0 -0.01,0 0,0 -0.01,0 -0.01,0 0,0 -0.01,0 -0.01,0 -0.01,0 -0.01,0 0,0 -0.01,0 c -0.45,-0.44 -1.08,-0.45 -1.37,-0.45 v -0.25 c 0.17,0 0.63,0 1.01,0.2 v -3.55 c 0,-0.23 0,-0.32 -0.7,-0.32 h -0.26 v -0.25 c 0.12,0.01 0.98,0.03 1.24,0.03 0.21,0 1.09,-0.02 1.25,-0.03 v 0.25 H 265 c -0.7,0 -0.7,0.09 -0.7,0.32 z"
         id="path5120" /><path
         style="fill:#000000;stroke-width:0"
         inkscape:connector-curvature="0"
         d="m 269.32,479.72 0,0.07 -0.01,0.08 0,0.08 0,0.08 -0.01,0.17 -0.01,0.17 -0.02,0.18 -0.02,0.19 -0.02,0.2 -0.04,0.2 -0.04,0.2 -0.04,0.21 -0.06,0.21 -0.06,0.21 -0.07,0.21 -0.07,0.21 -0.05,0.11 -0.04,0.11 -0.05,0.1 -0.05,0.11 c -0.6,1.22 -1.45,1.86 -1.55,1.86 -0.06,0 -0.1,-0.03 -0.1,-0.09 0,-0.03 0,-0.05 0.19,-0.23 0.97,-0.99 1.54,-2.56 1.54,-4.64 0,-1.7 -0.37,-3.45 -1.6,-4.7 -0.13,-0.12 -0.13,-0.14 -0.13,-0.17 0,-0.06 0.04,-0.1 0.1,-0.1 0.1,0 0.99,0.68 1.58,1.94 0.51,1.09 0.63,2.19 0.63,3.03 z"
         id="path5122" /><path
         style="fill:#000000;stroke-width:0"
         inkscape:connector-curvature="0"
         d="m 276.6,479.52 h 2.77 c 0.14,0 0.33,0 0.33,0.2 0,0.2 -0.19,0.2 -0.33,0.2 h -2.77 v 2.78 c 0,0.14 0,0.33 -0.2,0.33 -0.2,0 -0.2,-0.19 -0.2,-0.33 v -2.78 h -2.79 c -0.14,0 -0.33,0 -0.33,-0.2 0,-0.2 0.19,-0.2 0.33,-0.2 h 2.79 v -2.78 c 0,-0.14 0,-0.33 0.2,-0.33 0.2,0 0.2,0.19 0.2,0.33 z"
         id="path5124" /><path
         style="fill:#000000;stroke-width:0"
         inkscape:connector-curvature="0"
         d="M 286.14,481.21 H 287 c 0.2,0 0.3,0 0.3,0.2 0,0.11 -0.1,0.11 -0.27,0.11 h -0.83 l 0.21,1.13 c 0.04,0.21 0.18,0.91 0.24,1.03 0.09,0.19 0.26,0.34 0.47,0.34 0.04,0 0.3,0 0.49,-0.18 -0.44,-0.04 -0.54,-0.39 -0.54,-0.54 0,-0.22 0.18,-0.34 0.37,-0.34 0.26,0 0.54,0.21 0.54,0.59 0,0.46 -0.45,0.69 -0.86,0.69 -0.34,0 -0.97,-0.18 -1.26,-1.16 -0.06,-0.21 -0.09,-0.31 -0.33,-1.56 h -0.69 c -0.19,0 -0.3,0 -0.3,-0.19 0,-0.12 0.09,-0.12 0.28,-0.12 h 0.66 l -0.75,-3.92 c -0.18,-0.97 -0.35,-1.87 -0.87,-1.87 -0.03,0 -0.28,0 -0.47,0.18 0.46,0.03 0.54,0.38 0.54,0.53 0,0.23 -0.17,0.35 -0.36,0.35 -0.26,0 -0.55,-0.22 -0.55,-0.6 0,-0.44 0.44,-0.68 0.84,-0.68 0.55,0 0.95,0.59 1.13,0.96 0.32,0.63 0.55,1.83 0.56,1.9 z"
         id="path5126" /><path
         style="fill:#000000;stroke-width:0"
         inkscape:connector-curvature="0"
         d="m 291.73,474.85 0,0.01 0,0 0,0 0,0.01 0,0 0,0 0,0.01 0,0 0,0 0,0.01 -0.01,0 0,0.01 0,0 -0.01,0.01 0,0 -0.01,0.01 0,0.01 -0.01,0 0,0.01 0,0 -0.01,0.01 0,0 0,0 -0.01,0.01 0,0 -0.01,0.01 0,0 -0.01,0.01 0,0 -0.01,0.01 0,0 -0.01,0.01 0,0.01 -0.01,0 0,0.01 -0.01,0.01 -0.01,0 0,0.01 -0.01,0.01 -0.01,0 -0.01,0.01 0,0.01 c -1.25,1.25 -1.57,3.13 -1.57,4.65 0,1.73 0.38,3.45 1.61,4.7 0.12,0.12 0.12,0.14 0.12,0.17 0,0.07 -0.03,0.09 -0.09,0.09 -0.1,0 -1,-0.67 -1.59,-1.93 -0.5,-1.09 -0.62,-2.2 -0.62,-3.03 0,-0.78 0.11,-1.98 0.65,-3.1 0.6,-1.22 1.46,-1.87 1.56,-1.87 0.06,0 0.09,0.03 0.09,0.1 z"
         id="path5128" /><path
         style="fill:#000000;stroke-width:0"
         inkscape:connector-curvature="0"
         d="m 295.64,480.23 0.01,0.03 0,0.03 0.01,0.03 0.01,0.04 0.01,0.04 0.01,0.04 0.02,0.04 0.01,0.05 0.02,0.04 0.01,0.05 0.02,0.05 0.02,0.05 0.03,0.05 0.02,0.05 0.03,0.05 0.02,0.05 0.03,0.05 0.03,0.04 0.04,0.05 0.03,0.04 0.04,0.05 0.04,0.04 0.04,0.04 0.04,0.03 0.05,0.03 0.05,0.03 0.02,0.01 0.03,0.02 0.03,0.01 0.02,0.01 0.03,0.01 0.03,0 0.03,0.01 0.03,0.01 0.03,0 0.03,0 0.03,0.01 0.03,0 c 0.05,0 0.29,0 0.5,-0.13 -0.28,-0.05 -0.48,-0.3 -0.48,-0.54 0,-0.16 0.11,-0.35 0.38,-0.35 0.22,0 0.54,0.18 0.54,0.58 0,0.52 -0.59,0.66 -0.93,0.66 -0.57,0 -0.92,-0.53 -1.04,-0.76 -0.25,0.66 -0.79,0.76 -1.07,0.76 -1.04,0 -1.61,-1.29 -1.61,-1.53 0,-0.1 0.1,-0.1 0.12,-0.1 0.08,0 0.11,0.02 0.13,0.11 0.34,1.05 1,1.3 1.33,1.3 0.19,0 0.54,-0.09 0.54,-0.67 0,-0.31 -0.17,-0.97 -0.54,-2.36 -0.15,-0.62 -0.5,-1.04 -0.94,-1.04 -0.06,0 -0.29,0 -0.5,0.13 0.25,0.05 0.47,0.26 0.47,0.54 0,0.27 -0.22,0.35 -0.37,0.35 -0.3,0 -0.55,-0.26 -0.55,-0.58 0,-0.46 0.5,-0.65 0.94,-0.65 0.66,0 1.01,0.69 1.04,0.75 0.12,-0.37 0.48,-0.75 1.08,-0.75 1.02,0 1.59,1.28 1.59,1.53 0,0.1 -0.09,0.1 -0.12,0.1 -0.09,0 -0.11,-0.05 -0.13,-0.11 -0.33,-1.07 -1,-1.31 -1.32,-1.31 -0.39,0 -0.55,0.32 -0.55,0.66 0,0.22 0.06,0.44 0.17,0.87 z"
         id="path5130" /><path
         style="fill:#000000;stroke-width:0"
         inkscape:connector-curvature="0"
         d="m 301.53,477.01 h -0.24 c -0.02,-0.16 -0.09,-0.57 -0.18,-0.64 -0.06,-0.04 -0.59,-0.04 -0.69,-0.04 h -1.28 c 0.73,0.65 0.97,0.84 1.39,1.17 0.52,0.41 1,0.84 1,1.5 0,0.84 -0.74,1.36 -1.63,1.36 -0.87,0 -1.45,-0.61 -1.45,-1.25 0,-0.35 0.3,-0.39 0.37,-0.39 0.16,0 0.37,0.12 0.37,0.37 0,0.13 -0.05,0.37 -0.41,0.37 0.21,0.49 0.69,0.65 1.01,0.65 0.7,0 1.06,-0.54 1.06,-1.11 0,-0.6 -0.43,-1.08 -0.65,-1.33 l -1.68,-1.66 c -0.07,-0.06 -0.07,-0.07 -0.07,-0.27 h 2.87 z"
         id="path5132" /><path
         style="fill:#000000;stroke-width:0"
         inkscape:connector-curvature="0"
         d="m 305.35,479.72 0,0.07 0,0.08 0,0.08 0,0.08 -0.01,0.17 -0.01,0.17 -0.02,0.18 -0.02,0.19 -0.03,0.2 -0.03,0.2 -0.04,0.2 -0.04,0.21 -0.06,0.21 -0.06,0.21 -0.07,0.21 -0.08,0.21 -0.04,0.11 -0.04,0.11 -0.05,0.1 -0.05,0.11 c -0.6,1.22 -1.46,1.86 -1.55,1.86 -0.06,0 -0.1,-0.03 -0.1,-0.09 0,-0.03 0,-0.05 0.18,-0.23 0.98,-0.99 1.55,-2.56 1.55,-4.64 0,-1.7 -0.37,-3.45 -1.61,-4.7 -0.12,-0.12 -0.12,-0.14 -0.12,-0.17 0,-0.06 0.04,-0.1 0.1,-0.1 0.09,0 0.99,0.68 1.58,1.94 0.5,1.09 0.62,2.19 0.62,3.03 z"
         id="path5134" /><path
         style="fill:#000000;stroke-width:0"
         inkscape:connector-curvature="0"
         d="m 311.04,480.98 0,0.01 0,0.01 0.01,0.01 0,0.01 0,0.02 0.01,0.02 0,0.01 0,0.01 0,0.01 0.01,0.01 0,0.01 0,0.01 0,0.01 0,0 0,0.01 0,0.01 0,0 0,0.01 c 0,0.17 -0.12,0.27 -0.29,0.27 -0.1,0 -0.37,-0.07 -0.41,-0.43 -0.18,0.37 -0.52,0.63 -0.92,0.63 l 0.01,-0.22 c 0.65,0 0.79,-0.81 0.79,-0.86 0,-0.05 -0.02,-0.11 -0.03,-0.15 l -0.47,-1.89 c -0.06,-0.26 -0.29,-0.51 -0.51,-0.7 -0.21,-0.18 -0.52,-0.36 -0.81,-0.36 -0.49,0 -0.64,0.52 -0.64,0.92 0,0.47 0.29,1.65 0.55,2.15 0.27,0.49 0.7,0.89 1.12,0.89 l -0.01,0.22 c -1.14,0 -2.37,-1.4 -2.37,-2.83 0,-0.98 0.61,-1.57 1.32,-1.57 0.59,0 1.06,0.47 1.16,0.58 l 0.01,-0.01 c -0.21,-0.88 -0.33,-1.29 -0.33,-1.31 -0.04,-0.09 -0.38,-1.07 -1.43,-1.07 -0.19,0 -0.52,0.01 -0.8,0.1 0.3,0.09 0.41,0.34 0.41,0.51 0,0.16 -0.11,0.35 -0.38,0.35 -0.22,0 -0.54,-0.18 -0.54,-0.58 0,-0.4 0.37,-0.6 1.33,-0.6 1.24,0 1.96,0.77 2.11,1.37 z"
         id="path5136" /><path
         style="fill:#000000;stroke-width:0"
         inkscape:connector-curvature="0"
         d="m 314.76,474.85 0,0.01 0,0 0,0 -0.01,0.01 0,0 0,0 0,0.01 0,0 0,0 0,0.01 -0.01,0 0,0.01 0,0 -0.01,0.01 0,0 0,0.01 -0.01,0.01 -0.01,0 0,0.01 0,0 -0.01,0.01 0,0 0,0 -0.01,0.01 0,0 -0.01,0.01 0,0 0,0.01 -0.01,0 0,0.01 -0.01,0 -0.01,0.01 0,0.01 -0.01,0 0,0.01 -0.01,0.01 -0.01,0 0,0.01 -0.01,0.01 -0.01,0 -0.01,0.01 0,0.01 c -1.25,1.25 -1.57,3.13 -1.57,4.65 0,1.73 0.38,3.45 1.61,4.7 0.13,0.12 0.13,0.14 0.13,0.17 0,0.07 -0.04,0.09 -0.1,0.09 -0.1,0 -1,-0.67 -1.58,-1.93 -0.51,-1.09 -0.63,-2.2 -0.63,-3.03 0,-0.78 0.11,-1.98 0.66,-3.1 0.59,-1.22 1.45,-1.87 1.55,-1.87 0.06,0 0.1,0.03 0.1,0.1 z"
         id="path5138" /><path
         style="fill:#000000;stroke-width:0"
         inkscape:connector-curvature="0"
         d="m 318.66,480.23 0.01,0.03 0,0.03 0.01,0.03 0.01,0.04 0.01,0.04 0.01,0.04 0.02,0.04 0.01,0.05 0.02,0.04 0.01,0.05 0.02,0.05 0.02,0.05 0.03,0.05 0.02,0.05 0.03,0.05 0.02,0.05 0.03,0.05 0.03,0.04 0.04,0.05 0.03,0.04 0.04,0.05 0.04,0.04 0.04,0.04 0.05,0.03 0.04,0.03 0.05,0.03 0.03,0.01 0.02,0.02 0.03,0.01 0.03,0.01 0.02,0.01 0.03,0 0.03,0.01 0.03,0.01 0.03,0 0.03,0 0.03,0.01 0.03,0 c 0.06,0 0.29,0 0.5,-0.13 -0.28,-0.05 -0.47,-0.3 -0.47,-0.54 0,-0.16 0.1,-0.35 0.37,-0.35 0.22,0 0.54,0.18 0.54,0.58 0,0.52 -0.59,0.66 -0.93,0.66 -0.57,0 -0.92,-0.53 -1.04,-0.76 -0.25,0.66 -0.79,0.76 -1.07,0.76 -1.04,0 -1.61,-1.29 -1.61,-1.53 0,-0.1 0.1,-0.1 0.12,-0.1 0.08,0 0.11,0.02 0.13,0.11 0.34,1.05 1,1.3 1.34,1.3 0.18,0 0.53,-0.09 0.53,-0.67 0,-0.31 -0.17,-0.97 -0.53,-2.36 -0.16,-0.62 -0.51,-1.04 -0.95,-1.04 -0.06,0 -0.29,0 -0.5,0.13 0.25,0.05 0.47,0.26 0.47,0.54 0,0.27 -0.22,0.35 -0.37,0.35 -0.3,0 -0.55,-0.26 -0.55,-0.58 0,-0.46 0.5,-0.65 0.94,-0.65 0.66,0 1.02,0.69 1.05,0.75 0.12,-0.37 0.47,-0.75 1.07,-0.75 1.02,0 1.59,1.28 1.59,1.53 0,0.1 -0.09,0.1 -0.12,0.1 -0.09,0 -0.11,-0.05 -0.13,-0.11 -0.32,-1.07 -1,-1.31 -1.32,-1.31 -0.39,0 -0.55,0.32 -0.55,0.66 0,0.22 0.06,0.44 0.17,0.87 z"
         id="path5140" /><path
         style="fill:#000000;stroke-width:0"
         inkscape:connector-curvature="0"
         d="m 324.55,477.01 h -0.24 c -0.02,-0.16 -0.09,-0.57 -0.18,-0.64 -0.06,-0.04 -0.59,-0.04 -0.69,-0.04 h -1.28 c 0.73,0.65 0.97,0.84 1.39,1.17 0.52,0.41 1,0.84 1,1.5 0,0.84 -0.74,1.36 -1.63,1.36 -0.87,0 -1.45,-0.61 -1.45,-1.25 0,-0.35 0.3,-0.39 0.37,-0.39 0.17,0 0.37,0.12 0.37,0.37 0,0.13 -0.05,0.37 -0.41,0.37 0.21,0.49 0.69,0.65 1.01,0.65 0.7,0 1.06,-0.54 1.06,-1.11 0,-0.6 -0.43,-1.08 -0.65,-1.33 l -1.68,-1.66 c -0.07,-0.06 -0.07,-0.07 -0.07,-0.27 h 2.87 z"
         id="path5142" /><path
         style="fill:#000000;stroke-width:0"
         inkscape:connector-curvature="0"
         d="m 328.38,479.72 0,0.07 -0.01,0.08 0,0.08 0,0.08 -0.01,0.17 -0.01,0.17 -0.02,0.18 -0.02,0.19 -0.02,0.2 -0.04,0.2 -0.04,0.2 -0.04,0.21 -0.06,0.21 -0.06,0.21 -0.07,0.21 -0.07,0.21 -0.05,0.11 -0.04,0.11 -0.05,0.1 -0.05,0.11 c -0.6,1.22 -1.45,1.86 -1.55,1.86 -0.06,0 -0.1,-0.03 -0.1,-0.09 0,-0.03 0,-0.05 0.19,-0.23 0.97,-0.99 1.54,-2.56 1.54,-4.64 0,-1.7 -0.37,-3.45 -1.6,-4.7 -0.13,-0.12 -0.13,-0.14 -0.13,-0.17 0,-0.06 0.04,-0.1 0.1,-0.1 0.1,0 0.99,0.68 1.58,1.94 0.51,1.09 0.63,2.19 0.63,3.03 z"
         id="path5144" /><path
         style="fill:#000000;stroke-width:0"
         inkscape:connector-curvature="0"
         d="m 335.66,479.52 h 2.77 c 0.14,0 0.33,0 0.33,0.2 0,0.2 -0.19,0.2 -0.33,0.2 h -2.77 v 2.78 c 0,0.14 0,0.33 -0.2,0.33 -0.2,0 -0.2,-0.19 -0.2,-0.33 v -2.78 h -2.79 c -0.14,0 -0.33,0 -0.33,-0.2 0,-0.2 0.19,-0.2 0.33,-0.2 h 2.79 v -2.78 c 0,-0.14 0,-0.33 0.2,-0.33 0.2,0 0.2,0.19 0.2,0.33 z"
         id="path5146" /><path
         style="fill:#000000;stroke-width:0"
         inkscape:connector-curvature="0"
         d="m 343.46,479.72 0,0.02 0,0.03 0,0.03 -0.01,0.02 0,0.03 -0.01,0.02 -0.01,0.03 -0.01,0.02 -0.01,0.03 -0.01,0.02 -0.02,0.02 -0.01,0.02 -0.01,0.02 -0.02,0.02 -0.02,0.02 -0.01,0.02 -0.02,0.02 -0.02,0.01 -0.02,0.02 -0.02,0.01 -0.02,0.02 -0.03,0.01 -0.02,0.01 -0.02,0.01 -0.03,0.01 -0.02,0.01 -0.02,0.01 -0.03,0 -0.03,0.01 -0.02,0 -0.03,0 -0.03,0 c -0.28,0 -0.52,-0.23 -0.52,-0.52 0,-0.29 0.24,-0.53 0.52,-0.53 0.29,0 0.53,0.24 0.53,0.53 z"
         id="path5148" /><path
         style="fill:#000000;stroke-width:0"
         inkscape:connector-curvature="0"
         d="m 347.89,479.72 0,0.02 0,0.03 0,0.03 -0.01,0.02 0,0.03 -0.01,0.02 -0.01,0.03 -0.01,0.02 -0.01,0.03 -0.01,0.02 -0.01,0.02 -0.02,0.02 -0.01,0.02 -0.02,0.02 -0.01,0.02 -0.02,0.02 -0.02,0.02 -0.02,0.01 -0.02,0.02 -0.02,0.01 -0.02,0.02 -0.02,0.01 -0.03,0.01 -0.02,0.01 -0.02,0.01 -0.03,0.01 -0.02,0.01 -0.03,0 -0.02,0.01 -0.03,0 -0.03,0 -0.02,0 c -0.29,0 -0.53,-0.23 -0.53,-0.52 0,-0.29 0.24,-0.53 0.53,-0.53 0.28,0 0.52,0.24 0.52,0.53 z"
         id="path5150" /><path
         style="fill:#000000;stroke-width:0"
         inkscape:connector-curvature="0"
         d="m 352.32,479.72 -0.01,0.02 0,0.03 0,0.03 -0.01,0.02 0,0.03 -0.01,0.02 -0.01,0.03 -0.01,0.02 -0.01,0.03 -0.01,0.02 -0.01,0.02 -0.02,0.02 -0.01,0.02 -0.02,0.02 -0.01,0.02 -0.02,0.02 -0.02,0.02 -0.02,0.01 -0.02,0.02 -0.02,0.01 -0.02,0.02 -0.02,0.01 -0.02,0.01 -0.03,0.01 -0.02,0.01 -0.03,0.01 -0.02,0.01 -0.03,0 -0.02,0.01 -0.03,0 -0.03,0 -0.02,0 c -0.29,0 -0.53,-0.23 -0.53,-0.52 0,-0.29 0.24,-0.53 0.53,-0.53 0.29,0 0.53,0.24 0.53,0.53 z"
         id="path5152" /></g>    <g
       style="font-style:normal;font-variant:normal;font-weight:normal;font-stretch:normal;letter-spacing:normal;word-spacing:normal;text-anchor:start;fill:none;stroke:#000000;stroke-width:2.09075165;stroke-linecap:butt;stroke-linejoin:miter;stroke-miterlimit:10.43299961;stroke-opacity:1;stroke-dasharray:none;stroke-dashoffset:0"
       ns0:preamble="/home/danielsank/src/DanielSVN/TeX/packages.tex"
       ns0:text="$f$"
       word-spacing="normal"
       letter-spacing="normal"
       font-size-adjust="none"
       font-stretch="normal"
       font-weight="normal"
       font-variant="normal"
       font-style="normal"
       stroke-miterlimit="10.433"
       xml:space="preserve"
       transform="matrix(1.9131876,0,0,-1.9131876,136.8596,1035.5876)"
       id="g5597"><path
         id="path5599"
         d="m 227.08,481.21 h 0.86 c 0.2,0 0.3,0 0.3,0.2 0,0.11 -0.1,0.11 -0.27,0.11 h -0.83 l 0.21,1.13 c 0.04,0.21 0.18,0.91 0.24,1.03 0.09,0.19 0.26,0.34 0.47,0.34 0.04,0 0.3,0 0.49,-0.18 -0.44,-0.04 -0.54,-0.39 -0.54,-0.54 0,-0.22 0.18,-0.34 0.37,-0.34 0.25,0 0.54,0.21 0.54,0.59 0,0.46 -0.45,0.69 -0.86,0.69 -0.34,0 -0.97,-0.18 -1.27,-1.16 -0.05,-0.21 -0.08,-0.31 -0.32,-1.56 h -0.69 c -0.19,0 -0.3,0 -0.3,-0.19 0,-0.12 0.09,-0.12 0.28,-0.12 h 0.66 l -0.75,-3.92 c -0.18,-0.97 -0.35,-1.87 -0.87,-1.87 -0.04,0 -0.28,0 -0.47,0.18 0.46,0.03 0.55,0.38 0.55,0.53 0,0.23 -0.18,0.35 -0.37,0.35 -0.26,0 -0.55,-0.22 -0.55,-0.6 0,-0.44 0.44,-0.68 0.84,-0.68 0.55,0 0.95,0.59 1.13,0.96 0.32,0.63 0.55,1.83 0.56,1.9 z"
         inkscape:connector-curvature="0"
         style="fill:#000000;stroke-width:0" /></g>    <g
       id="g5940"
       transform="matrix(1.9131876,0,0,-1.9131876,241.51869,1110.3934)"
       xml:space="preserve"
       stroke-miterlimit="10.433"
       font-style="normal"
       font-variant="normal"
       font-weight="normal"
       font-stretch="normal"
       font-size-adjust="none"
       letter-spacing="normal"
       word-spacing="normal"
       ns0:text="$g$"
       ns0:preamble="/home/danielsank/src/DanielSVN/TeX/packages.tex"
       style="font-style:normal;font-variant:normal;font-weight:normal;font-stretch:normal;letter-spacing:normal;word-spacing:normal;text-anchor:start;fill:none;stroke:#000000;stroke-width:2.09075165;stroke-linecap:butt;stroke-linejoin:miter;stroke-miterlimit:10.43299961;stroke-opacity:1;stroke-dasharray:none;stroke-dashoffset:0"><path
         style="fill:#000000;stroke-width:0"
         inkscape:connector-curvature="0"
         d="m 228.12,480.98 0,0.01 0,0.01 0,0.01 0.01,0.01 0,0.02 0,0.02 0.01,0.01 0,0.01 0,0.01 0,0.01 0,0.01 0.01,0.01 0,0.01 0,0 0,0.01 0,0.01 0,0 0,0.01 c 0,0.17 -0.12,0.27 -0.29,0.27 -0.1,0 -0.37,-0.07 -0.41,-0.43 -0.18,0.37 -0.53,0.63 -0.92,0.63 l 0.01,-0.22 c 0.65,0 0.79,-0.81 0.79,-0.86 0,-0.05 -0.02,-0.11 -0.03,-0.15 l -0.48,-1.89 c -0.06,-0.26 -0.28,-0.51 -0.5,-0.7 -0.21,-0.18 -0.52,-0.36 -0.81,-0.36 -0.5,0 -0.64,0.52 -0.64,0.92 0,0.47 0.28,1.65 0.55,2.15 0.27,0.49 0.7,0.89 1.12,0.89 l -0.01,0.22 c -1.14,0 -2.37,-1.4 -2.37,-2.83 0,-0.98 0.6,-1.57 1.32,-1.57 0.59,0 1.06,0.47 1.16,0.58 l 0.01,-0.01 c -0.21,-0.88 -0.33,-1.29 -0.33,-1.31 -0.04,-0.09 -0.38,-1.07 -1.44,-1.07 -0.18,0 -0.51,0.01 -0.79,0.1 0.3,0.09 0.41,0.34 0.41,0.51 0,0.16 -0.11,0.35 -0.38,0.35 -0.22,0 -0.54,-0.18 -0.54,-0.58 0,-0.4 0.37,-0.6 1.32,-0.6 1.25,0 1.96,0.77 2.11,1.37 z"
         id="path5942" /></g>    <g
       ns0:preamble="/home/danielsank/src/DanielSVN/TeX/packages.tex"
       ns0:text="a"
       word-spacing="normal"
       letter-spacing="normal"
       font-size-adjust="none"
       font-stretch="normal"
       font-weight="normal"
       font-variant="normal"
       font-style="normal"
       stroke-miterlimit="10.433"
       xml:space="preserve"
       transform="matrix(4,0,0,-4,-866.33869,1987.0697)"
       id="g6266"
       style="font-style:normal;font-variant:normal;font-weight:normal;font-stretch:normal;letter-spacing:normal;word-spacing:normal;text-anchor:start;fill:none;stroke:#000000;stroke-linecap:butt;stroke-linejoin:miter;stroke-miterlimit:10.43299961;stroke-opacity:1;stroke-dasharray:none;stroke-dashoffset:0"><path
         id="path6268"
         d="m 226.74,477.99 0.01,-0.04 0.01,-0.03 0,-0.04 0.01,-0.04 0.01,-0.04 0.01,-0.03 0.01,-0.04 0.02,-0.03 0.01,-0.04 0.02,-0.03 0.02,-0.04 0.01,-0.03 0.03,-0.03 0.02,-0.04 0.02,-0.03 0.02,-0.03 0.03,-0.02 0.02,-0.03 0.03,-0.03 0.03,-0.02 0.03,-0.02 0.03,-0.03 0.03,-0.02 0.04,-0.01 0.03,-0.02 0.04,-0.01 0.04,-0.02 0.04,-0.01 0.03,0 0.05,-0.01 0.04,0 0.04,-0.01 c 0.21,0 0.82,0.14 0.82,0.95 v 0.55 h -0.25 v -0.55 c 0,-0.58 -0.25,-0.64 -0.36,-0.64 -0.33,0 -0.37,0.45 -0.37,0.5 v 1.99 c 0,0.41 0,0.8 -0.36,1.17 -0.38,0.39 -0.88,0.54 -1.36,0.54 -0.82,0 -1.5,-0.46 -1.5,-1.12 0,-0.29 0.2,-0.46 0.46,-0.46 0.28,0 0.45,0.2 0.45,0.45 0,0.12 -0.05,0.45 -0.5,0.46 0.27,0.35 0.75,0.46 1.07,0.46 0.49,0 1.06,-0.39 1.06,-1.27 v -0.37 -0.21 -0.99 c 0,-0.95 -0.72,-1.29 -1.17,-1.29 -0.49,0 -0.89,0.35 -0.89,0.85 0,0.54 0.41,1.37 2.06,1.43 h 0 v 0.21 c -0.51,-0.03 -1.21,-0.06 -1.83,-0.36 -0.75,-0.34 -1,-0.85 -1,-1.29 0,-0.81 0.97,-1.05 1.59,-1.05 0.66,0 1.12,0.39 1.3,0.86 z"
         inkscape:connector-curvature="0"
         style="fill:#000000;stroke-width:0" /></g>    <g
       id="g6622"
       transform="matrix(4,0,0,-4,-632.8683,1991.9697)"
       xml:space="preserve"
       stroke-miterlimit="10.433"
       font-style="normal"
       font-variant="normal"
       font-weight="normal"
       font-stretch="normal"
       font-size-adjust="none"
       letter-spacing="normal"
       word-spacing="normal"
       ns0:text="b"
       ns0:preamble="/home/danielsank/src/DanielSVN/TeX/packages.tex"
       style="font-style:normal;font-variant:normal;font-weight:normal;font-stretch:normal;letter-spacing:normal;word-spacing:normal;text-anchor:start;fill:none;stroke:#000000;stroke-linecap:butt;stroke-linejoin:miter;stroke-miterlimit:10.43299961;stroke-opacity:1;stroke-dasharray:none;stroke-dashoffset:0"><path
         d="m 225.14,480.98 v 3.15 l -1.43,-0.11 v -0.31 c 0.7,0 0.78,-0.07 0.78,-0.55 v -5.93 h 0.25 c 0,0.01 0.08,0.15 0.35,0.62 0.15,-0.23 0.57,-0.72 1.31,-0.72 l -0.04,0.21 c -0.45,0 -0.81,0.24 -1.05,0.61 -0.14,0.21 -0.14,0.24 -0.14,0.42 h 0 v 2.04 c 0,0.19 0,0.2 0.11,0.36 0.39,0.56 0.94,0.64 1.18,0.64 0.44,0 0.8,-0.26 1.04,-0.64 0.26,-0.41 0.29,-0.97 0.29,-1.38 0,-0.37 -0.02,-0.96 -0.31,-1.41 -0.21,-0.31 -0.59,-0.64 -1.12,-0.64 l 0.04,-0.21 c 1.18,0 2.22,0.97 2.22,2.25 0,1.26 -0.98,2.25 -2.11,2.25 -0.78,0 -1.21,-0.47 -1.37,-0.65 z"
         id="path6624"
         inkscape:connector-curvature="0"
         style="fill:#000000;stroke-width:0" /></g>    <g
       style="font-style:normal;font-variant:normal;font-weight:normal;font-stretch:normal;letter-spacing:normal;word-spacing:normal;text-anchor:start;fill:none;stroke:#000000;stroke-linecap:butt;stroke-linejoin:miter;stroke-miterlimit:10.43299961;stroke-opacity:1;stroke-dasharray:none;stroke-dashoffset:0"
       ns0:preamble="/home/danielsank/src/DanielSVN/TeX/packages.tex"
       ns0:text="c"
       word-spacing="normal"
       letter-spacing="normal"
       font-size-adjust="none"
       font-stretch="normal"
       font-weight="normal"
       font-variant="normal"
       font-style="normal"
       stroke-miterlimit="10.433"
       xml:space="preserve"
       transform="matrix(4,0,0,-4,-379.07873,1987.0697)"
       id="g6946"><path
         id="path6948"
         d="m 224.6,479.4 0,0.08 0,0.07 0,0.07 0.01,0.07 0,0.07 0.01,0.07 0,0.06 0.01,0.06 0.01,0.06 0.01,0.06 0.01,0.06 0.01,0.06 0.03,0.11 0.03,0.1 0.04,0.1 0.03,0.09 0.04,0.09 0.04,0.08 0.05,0.07 0.04,0.07 0.05,0.07 0.05,0.06 0.05,0.05 0.05,0.05 0.06,0.05 0.05,0.04 0.06,0.04 0.05,0.03 0.06,0.03 0.06,0.03 0.05,0.02 0.06,0.02 0.06,0.01 0.05,0.02 0.05,0.01 0.06,0 0.05,0.01 0.05,0 c 0.09,0 0.72,-0.01 1.06,-0.37 -0.4,-0.03 -0.46,-0.33 -0.46,-0.46 0,-0.26 0.17,-0.45 0.45,-0.45 0.26,0 0.46,0.16 0.46,0.46 0,0.68 -0.75,1.06 -1.52,1.06 -1.24,0 -2.16,-1.07 -2.16,-2.3 0,-1.27 0.99,-2.25 2.14,-2.25 1.33,0 1.65,1.19 1.65,1.29 0,0.1 -0.1,0.1 -0.13,0.1 -0.09,0 -0.11,-0.04 -0.13,-0.1 -0.29,-0.93 -0.93,-1.05 -1.3,-1.05 -0.53,0 -1.4,0.43 -1.4,2.03 z"
         inkscape:connector-curvature="0"
         style="fill:#000000;stroke-width:0" /></g>  </g>
</svg>
