<?xml version="1.0" standalone="no"?>
<!DOCTYPE svg PUBLIC "-//W3C//DTD SVG 1.1//EN"
  "http://www.w3.org/Graphics/SVG/1.1/DTD/svg11.dtd">
<!-- Created with matplotlib (http://matplotlib.sourceforge.net/) -->
<svg width="1152pt" height="835pt" viewBox="0 0 1152 835"
   xmlns="http://www.w3.org/2000/svg"
   xmlns:xlink="http://www.w3.org/1999/xlink"
   version="1.1"
   id="svg1">
<filter id="colorAdd"><feComposite in="SourceGraphic" in2="BackgroundImage" operator="arithmetic" k2="1" k3="1"/></filter>
<g id="figure1">
<g id="patch1">
<path style="fill: #ffffff; stroke: #ffffff; stroke-width: 1.000000; stroke-linejoin: round; stroke-linecap: square;  opacity: 1.000000"  d="M0.000000 835.200000L1152.000000 835.200000L1152.000000 0.000000
L0.000000 0.000000z"/>
</g>
<g id="axes1">
<g id="patch2">
<path style="fill: #ffffff; opacity: 1.000000"  d="M144.000000 751.680000L1036.800000 751.680000L1036.800000 83.520000
L144.000000 83.520000z"/>
</g>
<g id="line2d1">
<defs>
  <clipPath id="p60b8af8d01786f608b84dfdd9564cf3c">
<rect x="144.000000" y="83.520000" width="892.800000" height="668.160000"/>
  </clipPath>
</defs><path style="fill: none; stroke: #0000ff; stroke-width: 5.000000; stroke-linejoin: round; stroke-linecap: square;  opacity: 0.500000" clip-path="url(#p60b8af8d01786f608b84dfdd9564cf3c)" d="M143.655071 235.555561L177.068370 245.582984L208.625375 255.274089
L238.326085 264.613729L268.026795 274.189191L295.871210 283.403801
L321.859331 292.233692L345.991158 300.651513L370.122985 309.300715
L392.398518 317.509767L414.674050 325.955858L435.093288 333.925906
L455.512526 342.134360L474.075470 349.822366L492.638414 357.745053
L511.201358 365.923915L527.908007 373.523977L544.614657 381.371293
L559.465012 388.572526L574.315367 396.004950L589.165722 403.688761
L604.016077 411.646790L617.010137 418.855317L630.004198 426.313286
L642.998258 434.042927L654.136025 440.903604L665.273791 448.000322
L676.411557 455.353290L687.549323 462.985363L698.687090 470.922520
L707.968562 477.791173L717.250033 484.911769L726.531505 492.306367
L735.812977 500.000011L745.094449 508.021303L752.519627 514.696167
L759.944804 521.620830L767.369982 528.816941L774.795159 536.309087
L782.220337 544.125363L789.645514 552.298086L797.070692 560.864713
L804.495869 569.869029L810.064752 576.940238L815.633635 584.311892
L821.202518 592.013176L826.771402 600.077923L832.340285 608.545726
L837.909168 617.463416L843.478051 626.887077L849.046934 636.884864
L854.615817 647.541043L858.328406 655.062302L862.040995 662.961541
L865.753583 671.285295L869.466172 680.090317L873.178761 689.447009
L876.891350 699.444447L880.603938 710.197959L884.316527 721.860983
L888.029116 734.644389L891.741705 748.849642L893.597999 756.618363
L895.454293 764.929302L897.310588 773.881921L899.166882 783.606351
L901.023177 794.276942L902.879471 806.133784L904.735765 819.517949
L906.721551 836.200000M925.811910 836.200000L927.011298 828.910480
L928.867592 819.247964L930.723887 810.805289L932.580181 803.302112
L934.436475 796.535122L936.292770 790.352540L938.149064 784.638282
L941.861653 774.271443L945.574242 764.910487L949.286830 756.216372
L954.855713 743.963331L960.424597 732.291994L967.849774 717.309010
L975.274952 702.878487L982.700129 689.026275L988.269012 679.052437
L993.837895 669.455880L999.406779 660.245511L1004.975662 651.421246
L1010.544545 642.975892L1016.113428 634.897213L1021.682311 627.169742
L1027.251194 619.776196L1032.820077 612.698505L1038.388960 605.918537
L1038.388960 605.918537"/>
</g>
<g id="line2d2">
<path style="fill: none; stroke: #0000ff; stroke-width: 2.000000; stroke-linejoin: round; stroke-linecap: butt; stroke-dasharray: 6.000000,6.000000; stroke-dashoffset: 0.000000; opacity: 1.000000" clip-path="url(#p60b8af8d01786f608b84dfdd9564cf3c)" d="M143.655071 270.953182L175.212076 278.178505L206.769080 285.633076
L236.469790 292.878657L264.314206 299.892621L292.158621 307.140631
L318.146743 314.135989L342.278570 320.848989L366.410396 327.789834
L388.685929 334.416610L410.961461 341.272949L431.380700 347.776894
L451.799938 354.508368L472.219176 361.487149L490.782120 368.064852
L509.345063 374.884329L526.051713 381.246194L542.758362 387.838742
L559.465012 394.681726L574.315367 400.992613L589.165722 407.536671
L604.016077 414.333812L617.010137 420.506551L630.004198 426.907265
L642.998258 433.555070L655.992319 440.471560L667.130085 446.632320
L678.267852 453.025873L689.405618 459.671845L700.543384 466.592426
L711.681150 473.812841L720.962622 480.079575L730.244094 486.593432
L739.525566 493.375814L748.807038 500.451013L758.088510 507.846756
L765.513687 514.015378L772.938865 520.427977L780.364042 527.105476
L787.789220 534.071602L795.214397 541.353408L802.639575 548.981927
L810.064752 556.992992L817.489930 565.428281L823.058813 572.062226
L828.627696 578.985922L834.196579 586.226535L839.765462 593.815231
L845.334345 601.788007L850.903228 610.186740L856.472112 619.060548
L862.040995 628.467554L867.609878 638.477240L871.322467 645.525950
L875.035055 652.908790L878.747644 660.659530L882.460233 668.817326
L886.172822 677.427935L889.885410 686.545291L893.597999 696.233569
L897.310588 706.569963L901.023177 717.648456L904.735765 729.585080
L908.448354 742.525396L912.160943 756.655457L915.873532 772.218368
L919.586120 789.540302L921.442415 798.995526L923.298709 809.073267
L925.155003 819.861778L927.710306 836.200000M973.335462 836.200000
L973.418657 835.629195L975.274952 823.886805L977.131246 812.994647
L978.987540 802.838260L982.700129 784.378123L986.412718 767.941000
L990.125307 753.128630L993.837895 739.649887L997.550484 727.285488
L1001.263073 715.866145L1004.975662 705.258436L1008.688250 695.355333
L1012.400839 686.069673L1016.113428 677.329526L1019.826017 669.074840
L1023.538605 661.254962L1027.251194 653.826771L1030.963783 646.753258
L1036.532666 636.739162L1038.388960 633.546407L1038.388960 633.546407"/>
</g>
<g id="line2d3">
<path style="fill: none; stroke: #008000; stroke-width: 5.000000; stroke-linejoin: round; stroke-linecap: square;  opacity: 0.500000" clip-path="url(#p60b8af8d01786f608b84dfdd9564cf3c)" d="M143.655071 182.112842L178.924665 192.639172L210.481669 202.280241
L242.038673 212.157006L271.739383 221.692737L299.583799 230.867339
L325.571920 239.657128L351.560041 248.688621L375.691868 257.313328
L397.967401 265.498378L420.242933 273.918923L440.662171 281.863993
L461.081410 290.045743L479.644353 297.707753L498.207297 305.602556
L516.770241 313.751360L533.476890 321.322224L550.183540 329.137994
L566.890189 337.220984L581.740544 344.650584L596.590899 352.331398
L611.441254 360.286157L624.435315 367.491502L637.429375 374.945869
L650.423436 382.671343L661.561202 389.527851L672.698968 396.619688
L683.836735 403.966863L694.974501 411.591973L706.112267 419.520667
L715.393739 426.380813L724.675211 433.491243L733.956683 440.873610
L743.238155 448.552440L752.519627 456.555669L761.801098 464.915306
L769.226276 471.884244L776.651453 479.126386L784.076631 486.666194
L791.501808 494.531545L798.926986 502.754401L806.352163 511.371668
L813.777341 520.426300L819.346224 527.534306L824.915107 534.941161
L830.483990 542.675070L836.052873 550.768555L841.621757 559.259449
L847.190640 568.192206L852.759523 577.619688L858.328406 587.605640
L863.897289 598.228239L867.609878 605.710959L871.322467 613.554942
L875.035055 621.802465L878.747644 630.504805L882.460233 639.725222
L886.172822 649.543337L889.885410 660.061707L893.597999 671.416080
L897.310588 683.792037L901.023177 697.453362L902.879471 704.881696
L904.735765 712.793461L906.592060 721.274380L908.448354 730.436190
L910.304648 740.428140L912.160943 751.455497L914.017237 763.810835
L915.873532 777.930154L917.729826 794.501145L919.586120 814.691411
L921.122528 836.200000M931.239753 836.200000L932.580181 819.954784
L934.436475 802.775040L936.292770 788.936325L938.149064 777.357981
L940.005358 767.392200L941.861653 758.621863L943.717947 750.763275
L945.574242 743.615166L947.430536 737.029984L951.143125 725.130503
L954.855713 714.448200L958.568302 704.604655L962.280891 695.361650
L967.849774 682.309577L973.418657 669.990793L978.987540 658.266221
L984.556424 647.072196L990.125307 636.378604L995.694190 626.167501
L1001.263073 616.423273L1006.831956 607.128880L1012.400839 598.265047
L1017.969722 589.810662L1023.538605 581.743530L1029.107489 574.041138
L1034.676372 566.681248L1038.388960 561.954268L1038.388960 561.954268"/>
</g>
<g id="line2d4">
<path style="fill: none; stroke: #008000; stroke-width: 2.000000; stroke-linejoin: round; stroke-linecap: butt; stroke-dasharray: 6.000000,6.000000; stroke-dashoffset: 0.000000; opacity: 1.000000" clip-path="url(#p60b8af8d01786f608b84dfdd9564cf3c)" d="M143.655071 218.384844L175.212076 225.610168L206.769080 233.064739
L236.469790 240.310320L264.314206 247.324283L292.158621 254.572294
L318.146743 261.567651L342.278570 268.280652L366.410396 275.221497
L388.685929 281.848273L410.961461 288.704612L431.380700 295.208557
L451.799938 301.940031L472.219176 308.918812L490.782120 315.496514
L509.345063 322.315992L526.051713 328.677857L542.758362 335.270404
L559.465012 342.113389L574.315367 348.424276L589.165722 354.968334
L604.016077 361.765475L617.010137 367.938214L630.004198 374.338928
L642.998258 380.986733L655.992319 387.903222L667.130085 394.063983
L678.267852 400.457536L689.405618 407.103508L700.543384 414.024089
L711.681150 421.244504L720.962622 427.511238L730.244094 434.025095
L739.525566 440.807477L748.807038 447.882676L758.088510 455.278418
L765.513687 461.447041L772.938865 467.859640L780.364042 474.537139
L787.789220 481.503265L795.214397 488.785071L802.639575 496.413590
L810.064752 504.424655L817.489930 512.859944L823.058813 519.493889
L828.627696 526.417585L834.196579 533.658198L839.765462 541.246894
L845.334345 549.219669L850.903228 557.618403L856.472112 566.492210
L862.040995 575.899217L867.609878 585.908903L871.322467 592.957612
L875.035055 600.340453L878.747644 608.091193L882.460233 616.248988
L886.172822 624.859598L889.885410 633.976954L893.597999 643.665232
L897.310588 654.001625L901.023177 665.080119L904.735765 677.016742
L908.448354 689.957059L912.160943 704.087120L915.873532 719.650030
L919.586120 736.971964L921.442415 746.427189L923.298709 756.504930
L925.155003 767.293441L927.011298 778.901184L928.867592 791.463508
L930.723887 805.152353L932.580181 820.190746L934.361343 836.200000
M966.635567 836.200000L967.849774 825.038285L969.706069 809.709762
L971.562363 795.796920L973.418657 783.060858L975.274952 771.318467
L977.131246 760.426309L978.987540 750.269923L982.700129 731.809786
L986.412718 715.372662L990.125307 700.560293L993.837895 687.081549
L997.550484 674.717150L1001.263073 663.297808L1004.975662 652.690099
L1008.688250 642.786996L1012.400839 633.501336L1016.113428 624.761189
L1019.826017 616.506503L1023.538605 608.686624L1027.251194 601.258433
L1030.963783 594.184921L1036.532666 584.170825L1038.388960 580.978070
L1038.388960 580.978070"/>
</g>
<g id="line2d5">
<path style="fill: none; stroke: #bfbf00; stroke-width: 5.000000; stroke-linejoin: round; stroke-linecap: square;  opacity: 0.500000" clip-path="url(#p60b8af8d01786f608b84dfdd9564cf3c)" d="M143.655071 150.977294L178.924665 161.475209L212.337963 171.661073
L243.894968 181.522203L273.595678 191.042215L301.440093 200.201063
L327.428215 208.975128L353.416336 217.989768L377.548163 226.597668
L399.823695 234.766072L422.099228 243.168733L442.518466 251.096168
L462.937704 259.258931L481.500648 266.902346L500.063592 274.777105
L518.626535 282.904213L535.333185 290.453940L552.039834 298.246829
L568.746483 306.304942L583.596838 313.710514L598.447193 321.365232
L613.297548 329.291528L626.291609 336.469742L639.285670 343.894599
L652.279730 351.587835L663.417497 358.414226L674.555263 365.473323
L685.693029 372.784761L696.830795 380.370690L707.968562 388.256220
L717.250033 395.076883L726.531505 402.144151L735.812977 409.479125
L745.094449 417.105669L754.375921 425.050909L763.657393 433.345860
L771.082570 440.257405L778.507748 447.436305L785.932925 454.906082
L793.358103 462.693461L800.783280 470.828983L808.208458 479.347780
L815.633635 488.290558L821.202518 495.304191L826.771402 502.606019
L832.340285 510.222377L837.909168 518.183457L843.478051 526.524159
L849.046934 535.285194L854.615817 544.514576L860.184700 554.269656
L865.753583 564.620013L871.322467 575.651649L875.035055 583.437070
L878.747644 591.612704L882.460233 600.226558L886.172822 609.337626
L889.885410 619.019847L893.597999 629.368048L897.310588 640.507163
L901.023177 652.607083L904.735765 665.907759L906.592060 673.112896
L908.448354 680.764166L910.304648 688.937949L912.160943 697.733096
L914.017237 707.280515L915.873532 717.758413L917.729826 729.417663
L919.586120 742.626604L921.442415 757.956116L923.298709 776.357354
L925.155003 799.583180L927.190789 836.200000M934.126966 836.200000
L934.436475 829.013458L936.292770 801.442581L938.149064 781.433766
L940.005358 765.777579L941.861653 752.916139L943.717947 741.981972
L945.574242 732.443863L947.430536 723.953488L949.286830 716.270545
L951.143125 709.222742L952.999419 702.682846L956.712008 690.764569
L960.424597 679.980279L964.137185 670.001164L967.849774 660.620194
L971.562363 651.705699L977.131246 639.033608L982.700129 627.062053
L988.269012 615.703209L993.837895 604.906534L999.406779 594.637500
L1004.975662 584.867559L1010.544545 575.569912L1016.113428 566.718096
L1021.682311 558.285806L1027.251194 550.247153L1032.820077 542.577019
L1038.388960 535.251359L1038.388960 535.251359"/>
</g>
<g id="line2d6">
<path style="fill: none; stroke: #bfbf00; stroke-width: 2.000000; stroke-linejoin: round; stroke-linecap: butt; stroke-dasharray: 6.000000,6.000000; stroke-dashoffset: 0.000000; opacity: 1.000000" clip-path="url(#p60b8af8d01786f608b84dfdd9564cf3c)" d="M143.655071 187.634338L175.212076 194.859662L206.769080 202.314233
L236.469790 209.559814L264.314206 216.573777L292.158621 223.821788
L318.146743 230.817145L342.278570 237.530146L366.410396 244.470991
L388.685929 251.097767L410.961461 257.954106L431.380700 264.458051
L451.799938 271.189525L472.219176 278.168306L490.782120 284.746008
L509.345063 291.565486L526.051713 297.927351L542.758362 304.519898
L559.465012 311.362883L574.315367 317.673770L589.165722 324.217828
L604.016077 331.014969L617.010137 337.187708L630.004198 343.588422
L642.998258 350.236227L655.992319 357.152716L667.130085 363.313477
L678.267852 369.707030L689.405618 376.353002L700.543384 383.273583
L711.681150 390.493998L720.962622 396.760732L730.244094 403.274589
L739.525566 410.056971L748.807038 417.132170L758.088510 424.527912
L765.513687 430.696535L772.938865 437.109134L780.364042 443.786633
L787.789220 450.752759L795.214397 458.034565L802.639575 465.663084
L810.064752 473.674149L817.489930 482.109438L823.058813 488.743383
L828.627696 495.667079L834.196579 502.907692L839.765462 510.496388
L845.334345 518.469163L850.903228 526.867897L856.472112 535.741704
L862.040995 545.148711L867.609878 555.158397L871.322467 562.207106
L875.035055 569.589947L878.747644 577.340687L882.460233 585.498482
L886.172822 594.109092L889.885410 603.226448L893.597999 612.914726
L897.310588 623.251119L901.023177 634.329613L904.735765 646.266236
L908.448354 659.206553L912.160943 673.336614L915.873532 688.899524
L919.586120 706.221458L921.442415 715.676683L923.298709 725.754424
L925.155003 736.542935L927.011298 748.150678L928.867592 760.713002
L930.723887 774.401847L932.580181 789.440240L934.436475 806.124790
L936.292770 824.862097L937.277686 836.200000M963.665398 836.200000
L964.137185 830.594138L965.993480 811.351939L967.849774 794.287779
L969.706069 778.959256L971.562363 765.046414L973.418657 752.310352
L975.274952 740.567961L977.131246 729.675803L978.987540 719.519417
L982.700129 701.059280L986.412718 684.622156L990.125307 669.809787
L993.837895 656.331043L997.550484 643.966644L1001.263073 632.547302
L1004.975662 621.939593L1008.688250 612.036490L1012.400839 602.750830
L1016.113428 594.010683L1019.826017 585.755997L1023.538605 577.936118
L1027.251194 570.507927L1030.963783 563.434415L1036.532666 553.420319
L1038.388960 550.227564L1038.388960 550.227564"/>
</g>
<g id="line2d7">
<path style="fill: none; stroke: #ff0000; stroke-width: 5.000000; stroke-linejoin: round; stroke-linecap: square;  opacity: 0.500000" clip-path="url(#p60b8af8d01786f608b84dfdd9564cf3c)" d="M143.655071 97.909273L178.924665 108.370494L212.337963 118.518401
L243.894968 128.340421L273.595678 137.820325L301.440093 146.938264
L327.428215 155.670867L353.416336 164.640450L377.548163 173.202859
L399.823695 181.325732L422.099228 189.679017L442.518466 197.557371
L462.937704 205.666919L483.356942 214.029168L501.919886 221.870915
L520.482830 229.962253L537.189479 237.477105L553.896128 245.232229
L570.602778 253.249285L585.453133 260.615210L600.303488 268.226902
L615.153843 276.106317L628.147903 283.239900L641.141964 290.616286
L654.136025 298.256672L667.130085 306.185043L678.267852 313.230582
L689.405618 320.527124L700.543384 328.096583L711.681150 335.963776
L720.962622 342.767469L730.244094 349.815955L739.525566 357.130016
L748.807038 364.733118L758.088510 372.651895L767.369982 380.916739
L774.795159 387.801051L782.220337 394.949377L789.645514 402.384613
L797.070692 410.132704L804.495869 418.223207L811.921047 426.690003
L819.346224 435.572190L824.915107 442.533501L830.483990 449.775884
L836.052873 457.324273L841.621757 465.207107L847.190640 473.457058
L852.759523 482.111980L858.328406 491.216174L863.897289 500.822095
L869.466172 510.992761L875.035055 521.805209L878.747644 529.416571
L882.460233 537.390184L886.172822 545.767667L889.885410 554.599639
L893.597999 563.948832L897.310588 573.894720L901.023177 584.540579
L904.735765 596.024657L908.448354 608.538568L912.160943 622.359190
L914.017237 629.882895L915.873532 637.907619L917.729826 646.527666
L919.586120 655.867764L921.442415 666.097383L923.298709 677.454503
L925.155003 690.287416L927.011298 705.133982L928.867592 722.887305
L930.723887 745.192601L932.580181 775.611360L934.436475 824.415609
L934.641910 836.200000M938.255607 836.200000L940.005358 786.110081
L941.861653 755.273769L943.717947 733.615197L945.574242 716.917975
L947.430536 703.305890L949.286830 691.781455L951.143125 681.751402
L952.999419 672.834630L954.855713 664.772302L956.712008 657.381159
L958.568302 650.527272L962.280891 638.053867L965.993480 626.798035
L969.706069 616.422161L973.418657 606.713365L977.131246 597.534414
L980.843835 588.795265L986.412718 576.384728L991.981601 564.701342
L997.550484 553.663634L1003.119367 543.214647L1008.688250 533.309502
L1014.257134 523.909522L1019.826017 514.979610L1025.394900 506.487182
L1030.963783 498.401776L1036.532666 490.694930L1038.388960 488.205469
L1038.388960 488.205469"/>
</g>
<g id="line2d8">
<path style="fill: none; stroke: #ff0000; stroke-width: 2.000000; stroke-linejoin: round; stroke-linecap: butt; stroke-dasharray: 6.000000,6.000000; stroke-dashoffset: 0.000000; opacity: 1.000000" clip-path="url(#p60b8af8d01786f608b84dfdd9564cf3c)" d="M143.655071 135.066001L175.212076 142.291324L206.769080 149.745895
L236.469790 156.991477L264.314206 164.005440L292.158621 171.253451
L318.146743 178.248808L342.278570 184.961809L366.410396 191.902654
L388.685929 198.529429L410.961461 205.385768L431.380700 211.889714
L451.799938 218.621188L472.219176 225.599969L490.782120 232.177671
L509.345063 238.997149L526.051713 245.359014L542.758362 251.951561
L559.465012 258.794546L574.315367 265.105433L589.165722 271.649490
L604.016077 278.446631L617.010137 284.619371L630.004198 291.020084
L642.998258 297.667890L655.992319 304.584379L667.130085 310.745139
L678.267852 317.138693L689.405618 323.784665L700.543384 330.705245
L711.681150 337.925660L720.962622 344.192395L730.244094 350.706252
L739.525566 357.488634L748.807038 364.563833L758.088510 371.959575
L765.513687 378.128198L772.938865 384.540797L780.364042 391.218296
L787.789220 398.184422L795.214397 405.466228L802.639575 413.094747
L810.064752 421.105811L817.489930 429.541101L823.058813 436.175045
L828.627696 443.098742L834.196579 450.339355L839.765462 457.928051
L845.334345 465.900826L850.903228 474.299560L856.472112 483.173367
L862.040995 492.580374L867.609878 502.590060L871.322467 509.638769
L875.035055 517.021610L878.747644 524.772350L882.460233 532.930145
L886.172822 541.540755L889.885410 550.658110L893.597999 560.346389
L897.310588 570.682782L901.023177 581.761275L904.735765 593.697899
L908.448354 606.638216L912.160943 620.768277L915.873532 636.331187
L919.586120 653.653121L921.442415 663.108345L923.298709 673.186087
L925.155003 683.974598L927.011298 695.582340L928.867592 708.144665
L930.723887 721.833510L932.580181 736.871903L934.436475 753.556453
L936.292770 772.293760L938.149064 793.662572L940.005358 818.527188
L941.108606 836.200000M959.812458 836.200000L960.424597 825.918342
L962.280891 800.082634L964.137185 778.025801L965.993480 758.783602
L967.849774 741.719442L969.706069 726.390919L971.562363 712.478077
L973.418657 699.742015L975.274952 687.999624L977.131246 677.107466
L978.987540 666.951079L982.700129 648.490943L986.412718 632.053819
L990.125307 617.241450L993.837895 603.762706L997.550484 591.398307
L1001.263073 579.978965L1004.975662 569.371255L1008.688250 559.468152
L1012.400839 550.182493L1016.113428 541.442346L1019.826017 533.187660
L1023.538605 525.367781L1027.251194 517.939590L1030.963783 510.866078
L1036.532666 500.851982L1038.388960 497.659227L1038.388960 497.659227"/>
</g>
<g id="matplotlib.axis1">
<g id="xtick1">
<g id="line2d9">
<path style="fill: none; stroke: #000000; stroke-width: 2.000000; stroke-linejoin: round; stroke-linecap: butt; stroke-dasharray: 1.000000,3.000000; stroke-dashoffset: 0.000000; opacity: 1.000000" clip-path="url(#p60b8af8d01786f608b84dfdd9564cf3c)" d="M255.728844 751.680000L255.728844 83.520000"/>
</g>
<g id="line2d10">
<defs><path id="mf5874dbcf422dc792771af655a888890" d="M0.000000 0.000000L0.000000 -8.000000"/></defs>
<g ><use style="fill: none; stroke: #000000; stroke-width: 5.000000; stroke-linejoin: round; stroke-linecap: butt;  opacity: 1.000000" xlink:href="#mf5874dbcf422dc792771af655a888890" x="255.728844" y="751.680000"/>
</g></g>
<g id="line2d11">
<defs><path id="mc5be71fb8fe26d6c3d14ccc24a9716e5" d="M0.000000 0.000000L0.000000 8.000000"/></defs>
<g ><use style="fill: none; stroke: #000000; stroke-width: 5.000000; stroke-linejoin: round; stroke-linecap: butt;  opacity: 1.000000" xlink:href="#mc5be71fb8fe26d6c3d14ccc24a9716e5" x="255.728844" y="83.520000"/>
</g></g>
<g id="text1">
<defs>
<path id="c_6a8d56c819c37117ab4cf023bec22a5a" d="M10.593750 -35.500000l62.593750 0.000000l0.000000 8.296875l-62.593750 0.000000z"/>
<path id="c_42baa63129a918535c52adb20d687ea7" d="M12.406250 -8.296875l16.109375 0.000000l0.000000 -55.625000l-17.531250 3.515625l0.000000 -8.984375l17.437500 -3.515625l9.859375 0.000000l0.000000 64.609375l16.109375 0.000000l0.000000 8.296875l-41.984375 0.000000z"/>
<path id="c_ed3e21196fb739f392806f09ca0594ef" d="M10.687500 -12.406250l10.312500 0.000000l0.000000 12.406250l-10.312500 0.000000z"/>
<path id="c_1260a2df50f305f3db244e29828f968e" d="M10.796875 -72.906250l38.718750 0.000000l0.000000 8.312500l-29.687500 0.000000l0.000000 17.859375q2.140625 -0.734375 4.281250 -1.093750q2.156250 -0.359375 4.312500 -0.359375q12.203125 0.000000 19.328125 6.687500q7.140625 6.687500 7.140625 18.109375q0.000000 11.765625 -7.328125 18.296875q-7.328125 6.515625 -20.656250 6.515625q-4.593750 0.000000 -9.359375 -0.781250q-4.750000 -0.781250 -9.828125 -2.343750l0.000000 -9.921875q4.390625 2.390625 9.078125 3.562500q4.687500 1.171875 9.906250 1.171875q8.453125 0.000000 13.375000 -4.437500q4.937500 -4.437500 4.937500 -12.062500q0.000000 -7.609375 -4.937500 -12.046875q-4.921875 -4.453125 -13.375000 -4.453125q-3.953125 0.000000 -7.890625 0.875000q-3.921875 0.875000 -8.015625 2.734375z"/>
</defs>
<g style="fill: #000000; opacity: 1.000000" transform="translate(211.025719,784.836250)scale(0.400000)">
<use xlink:href="#c_6a8d56c819c37117ab4cf023bec22a5a"/>
<use xlink:href="#c_42baa63129a918535c52adb20d687ea7" x="83.789063"/>
<use xlink:href="#c_ed3e21196fb739f392806f09ca0594ef" x="147.412109"/>
<use xlink:href="#c_1260a2df50f305f3db244e29828f968e" x="179.199219"/>
</g>
</g>
</g>
<g id="xtick2">
<g id="line2d12">
<path style="fill: none; stroke: #000000; stroke-width: 2.000000; stroke-linejoin: round; stroke-linecap: butt; stroke-dasharray: 1.000000,3.000000; stroke-dashoffset: 0.000000; opacity: 1.000000" clip-path="url(#p60b8af8d01786f608b84dfdd9564cf3c)" d="M487.301568 751.680000L487.301568 83.520000"/>
</g>
<g id="line2d13">
<g ><use style="fill: none; stroke: #000000; stroke-width: 5.000000; stroke-linejoin: round; stroke-linecap: butt;  opacity: 1.000000" xlink:href="#mf5874dbcf422dc792771af655a888890" x="487.301568" y="751.680000"/>
</g></g>
<g id="line2d14">
<g ><use style="fill: none; stroke: #000000; stroke-width: 5.000000; stroke-linejoin: round; stroke-linecap: butt;  opacity: 1.000000" xlink:href="#mc5be71fb8fe26d6c3d14ccc24a9716e5" x="487.301568" y="83.520000"/>
</g></g>
<g id="text2">
<defs>
<path id="c_7a2040fe3b94fcd41d0a72c84e93b115" d="M31.781250 -66.406250q-7.609375 0.000000 -11.453125 7.500000q-3.828125 7.484375 -3.828125 22.531250q0.000000 14.984375 3.828125 22.484375q3.843750 7.500000 11.453125 7.500000q7.671875 0.000000 11.500000 -7.500000q3.843750 -7.500000 3.843750 -22.484375q0.000000 -15.046875 -3.843750 -22.531250q-3.828125 -7.500000 -11.500000 -7.500000M31.781250 -74.218750q12.265625 0.000000 18.734375 9.703125q6.468750 9.687500 6.468750 28.140625q0.000000 18.406250 -6.468750 28.109375q-6.468750 9.687500 -18.734375 9.687500q-12.250000 0.000000 -18.718750 -9.687500q-6.468750 -9.703125 -6.468750 -28.109375q0.000000 -18.453125 6.468750 -28.140625q6.468750 -9.703125 18.718750 -9.703125"/>
</defs>
<g style="fill: #000000; opacity: 1.000000" transform="translate(442.176568,785.367500)scale(0.400000)">
<use xlink:href="#c_6a8d56c819c37117ab4cf023bec22a5a"/>
<use xlink:href="#c_42baa63129a918535c52adb20d687ea7" x="83.789063"/>
<use xlink:href="#c_ed3e21196fb739f392806f09ca0594ef" x="147.412109"/>
<use xlink:href="#c_7a2040fe3b94fcd41d0a72c84e93b115" x="179.199219"/>
</g>
</g>
</g>
<g id="xtick3">
<g id="line2d15">
<path style="fill: none; stroke: #000000; stroke-width: 2.000000; stroke-linejoin: round; stroke-linecap: butt; stroke-dasharray: 1.000000,3.000000; stroke-dashoffset: 0.000000; opacity: 1.000000" clip-path="url(#p60b8af8d01786f608b84dfdd9564cf3c)" d="M718.874291 751.680000L718.874291 83.520000"/>
</g>
<g id="line2d16">
<g ><use style="fill: none; stroke: #000000; stroke-width: 5.000000; stroke-linejoin: round; stroke-linecap: butt;  opacity: 1.000000" xlink:href="#mf5874dbcf422dc792771af655a888890" x="718.874291" y="751.680000"/>
</g></g>
<g id="line2d17">
<g ><use style="fill: none; stroke: #000000; stroke-width: 5.000000; stroke-linejoin: round; stroke-linecap: butt;  opacity: 1.000000" xlink:href="#mc5be71fb8fe26d6c3d14ccc24a9716e5" x="718.874291" y="83.520000"/>
</g></g>
<g id="text3">
<g style="fill: #000000; opacity: 1.000000" transform="translate(674.171166,785.367500)scale(0.400000)">
<use xlink:href="#c_6a8d56c819c37117ab4cf023bec22a5a"/>
<use xlink:href="#c_7a2040fe3b94fcd41d0a72c84e93b115" x="83.789063"/>
<use xlink:href="#c_ed3e21196fb739f392806f09ca0594ef" x="147.412109"/>
<use xlink:href="#c_1260a2df50f305f3db244e29828f968e" x="179.199219"/>
</g>
</g>
</g>
<g id="xtick4">
<g id="line2d18">
<path style="fill: none; stroke: #000000; stroke-width: 2.000000; stroke-linejoin: round; stroke-linecap: butt; stroke-dasharray: 1.000000,3.000000; stroke-dashoffset: 0.000000; opacity: 1.000000" clip-path="url(#p60b8af8d01786f608b84dfdd9564cf3c)" d="M950.447014 751.680000L950.447014 83.520000"/>
</g>
<g id="line2d19">
<g ><use style="fill: none; stroke: #000000; stroke-width: 5.000000; stroke-linejoin: round; stroke-linecap: butt;  opacity: 1.000000" xlink:href="#mf5874dbcf422dc792771af655a888890" x="950.447014" y="751.680000"/>
</g></g>
<g id="line2d20">
<g ><use style="fill: none; stroke: #000000; stroke-width: 5.000000; stroke-linejoin: round; stroke-linecap: butt;  opacity: 1.000000" xlink:href="#mc5be71fb8fe26d6c3d14ccc24a9716e5" x="950.447014" y="83.520000"/>
</g></g>
<g id="text4">
<g style="fill: #000000; opacity: 1.000000" transform="translate(921.282952,785.367500)scale(0.400000)">
<use xlink:href="#c_7a2040fe3b94fcd41d0a72c84e93b115"/>
<use xlink:href="#c_ed3e21196fb739f392806f09ca0594ef" x="63.623047"/>
<use xlink:href="#c_7a2040fe3b94fcd41d0a72c84e93b115" x="95.410156"/>
</g>
</g>
</g>
<g id="text5">
<defs>
<path id="c_ff9441f72805bc441fcb0bfe0d774f13" d="M19.671875 -64.796875l0.000000 56.687500l11.921875 0.000000q15.093750 0.000000 22.093750 -6.828125q7.000000 -6.843750 7.000000 -21.593750q0.000000 -14.640625 -7.000000 -21.453125q-7.000000 -6.812500 -22.093750 -6.812500zM9.812500 -72.906250l20.265625 0.000000q21.187500 0.000000 31.093750 8.812500q9.921875 8.812500 9.921875 27.562500q0.000000 18.859375 -9.968750 27.703125q-9.953125 8.828125 -31.046875 8.828125l-20.265625 0.000000z"/>
<path id="c_0bce5afba2dc6b9024b26277c38ad8e8" d="M56.203125 -29.593750l0.000000 4.390625l-41.312500 0.000000q0.593750 9.281250 5.593750 14.140625q5.000000 4.859375 13.937500 4.859375q5.171875 0.000000 10.031250 -1.265625q4.859375 -1.265625 9.656250 -3.812500l0.000000 8.500000q-4.843750 2.046875 -9.921875 3.125000q-5.078125 1.078125 -10.296875 1.078125q-13.093750 0.000000 -20.734375 -7.609375q-7.640625 -7.625000 -7.640625 -20.625000q0.000000 -13.421875 7.250000 -21.296875q7.250000 -7.890625 19.562500 -7.890625q11.031250 0.000000 17.453125 7.109375q6.421875 7.093750 6.421875 19.296875M47.218750 -32.234375q-0.093750 -7.359375 -4.125000 -11.750000q-4.031250 -4.406250 -10.671875 -4.406250q-7.515625 0.000000 -12.031250 4.250000q-4.515625 4.250000 -5.203125 11.968750z"/>
<path id="c_0f8c41144cfbf448378cb6fd1cc8e549" d="M18.312500 -70.218750l0.000000 15.531250l18.500000 0.000000l0.000000 6.984375l-18.500000 0.000000l0.000000 29.687500q0.000000 6.687500 1.828125 8.593750q1.828125 1.906250 7.453125 1.906250l9.218750 0.000000l0.000000 7.515625l-9.218750 0.000000q-10.406250 0.000000 -14.359375 -3.875000q-3.953125 -3.890625 -3.953125 -14.140625l0.000000 -29.687500l-6.593750 0.000000l0.000000 -6.984375l6.593750 0.000000l0.000000 -15.531250z"/>
<path id="c_c438d87e693443c2861ebd6359e6491e" d="M8.500000 -21.578125l0.000000 -33.109375l8.984375 0.000000l0.000000 32.765625q0.000000 7.765625 3.015625 11.656250q3.031250 3.875000 9.093750 3.875000q7.265625 0.000000 11.484375 -4.640625q4.234375 -4.640625 4.234375 -12.656250l0.000000 -31.000000l8.984375 0.000000l0.000000 54.687500l-8.984375 0.000000l0.000000 -8.406250q-3.265625 4.984375 -7.593750 7.406250q-4.312500 2.421875 -10.031250 2.421875q-9.421875 0.000000 -14.312500 -5.859375q-4.875000 -5.859375 -4.875000 -17.140625"/>
<path id="c_fe791a90f5471e2ab20a5ed41a7fa451" d="M54.890625 -33.015625l0.000000 33.015625l-8.984375 0.000000l0.000000 -32.718750q0.000000 -7.765625 -3.031250 -11.609375q-3.031250 -3.859375 -9.078125 -3.859375q-7.281250 0.000000 -11.484375 4.640625q-4.203125 4.625000 -4.203125 12.640625l0.000000 30.906250l-9.031250 0.000000l0.000000 -54.687500l9.031250 0.000000l0.000000 8.500000q3.234375 -4.937500 7.593750 -7.375000q4.375000 -2.437500 10.093750 -2.437500q9.421875 0.000000 14.250000 5.828125q4.843750 5.828125 4.843750 17.156250"/>
<path id="c_6a63bda47b2f3da1cec6aadd80692cfe" d="M9.421875 -54.687500l8.984375 0.000000l0.000000 54.687500l-8.984375 0.000000zM9.421875 -75.984375l8.984375 0.000000l0.000000 11.390625l-8.984375 0.000000z"/>
<path id="c_e3864de5dabf2f8dd9eee74726882ec1" d="M45.406250 -27.984375q0.000000 -9.765625 -4.031250 -15.125000q-4.015625 -5.375000 -11.296875 -5.375000q-7.218750 0.000000 -11.250000 5.375000q-4.031250 5.359375 -4.031250 15.125000q0.000000 9.718750 4.031250 15.093750q4.031250 5.375000 11.250000 5.375000q7.281250 0.000000 11.296875 -5.375000q4.031250 -5.375000 4.031250 -15.093750M54.390625 -6.781250q0.000000 13.953125 -6.203125 20.765625q-6.187500 6.812500 -18.984375 6.812500q-4.734375 0.000000 -8.937500 -0.703125q-4.203125 -0.703125 -8.156250 -2.171875l0.000000 -8.734375q3.953125 2.140625 7.812500 3.156250q3.859375 1.031250 7.859375 1.031250q8.843750 0.000000 13.234375 -4.609375q4.390625 -4.609375 4.390625 -13.937500l0.000000 -4.453125q-2.781250 4.843750 -7.125000 7.234375q-4.343750 2.390625 -10.406250 2.390625q-10.046875 0.000000 -16.203125 -7.656250q-6.156250 -7.671875 -6.156250 -20.328125q0.000000 -12.687500 6.156250 -20.343750q6.156250 -7.671875 16.203125 -7.671875q6.062500 0.000000 10.406250 2.390625q4.343750 2.390625 7.125000 7.218750l0.000000 -8.296875l8.984375 0.000000z"/>
<path id="c_d41d8cd98f00b204e9800998ecf8427e" d=""/>
<path id="c_2c63d70af4b7cec8961333415aad2fad" d="M5.421875 -0.000000q-0.828125 0.000000 -0.828125 -0.781250q0.046875 -0.093750 0.062500 -0.140625q0.031250 -0.062500 0.031250 -0.203125l34.421875 -69.390625q0.437500 -1.062500 1.812500 -1.062500l1.359375 0.000000q1.375000 0.000000 1.812500 1.062500l34.421875 69.390625q0.046875 0.093750 0.062500 0.171875q0.031250 0.078125 0.031250 0.171875q0.000000 0.781250 -0.828125 0.781250zM12.015625 -8.015625l52.687500 0.000000l-26.328125 -53.062500z"/>
<path id="c_1a1d9ef1e4ddee695bd67a282879f099" d="M8.593750 -75.984375l20.703125 0.000000l0.000000 6.984375l-11.718750 0.000000l0.000000 75.203125l11.718750 0.000000l0.000000 6.984375l-20.703125 0.000000z"/>
<path id="c_3b86f9879deccc43ffac57ae939fe3b7" d="M59.515625 -10.406250l0.000000 -19.578125l-16.109375 0.000000l0.000000 -8.109375l25.875000 0.000000l0.000000 31.312500q-5.703125 4.046875 -12.593750 6.125000q-6.875000 2.078125 -14.687500 2.078125q-17.093750 0.000000 -26.750000 -9.984375q-9.640625 -10.000000 -9.640625 -27.812500q0.000000 -17.875000 9.640625 -27.859375q9.656250 -9.984375 26.750000 -9.984375q7.125000 0.000000 13.546875 1.765625q6.421875 1.750000 11.843750 5.171875l0.000000 10.500000q-5.468750 -4.640625 -11.625000 -6.984375q-6.156250 -2.343750 -12.937500 -2.343750q-13.390625 0.000000 -20.109375 7.468750q-6.703125 7.468750 -6.703125 22.265625q0.000000 14.750000 6.703125 22.218750q6.718750 7.468750 20.109375 7.468750q5.218750 0.000000 9.312500 -0.906250q4.109375 -0.906250 7.375000 -2.812500"/>
<path id="c_5e9f44da4350eed47d2641510279ca20" d="M9.812500 -72.906250l9.859375 0.000000l0.000000 29.890625l35.843750 0.000000l0.000000 -29.890625l9.859375 0.000000l0.000000 72.906250l-9.859375 0.000000l0.000000 -34.718750l-35.843750 0.000000l0.000000 34.718750l-9.859375 0.000000z"/>
<path id="c_9f267d35ece7e6f3f1d851c2e17a8dec" d="M5.515625 -54.687500l42.671875 0.000000l0.000000 8.203125l-33.781250 39.312500l33.781250 0.000000l0.000000 7.171875l-43.890625 0.000000l0.000000 -8.203125l33.796875 -39.312500l-32.578125 0.000000z"/>
<path id="c_5bcf09947f6bf611091602c6fea1d302" d="M30.421875 -75.984375l0.000000 89.171875l-20.703125 0.000000l0.000000 -6.984375l11.671875 0.000000l0.000000 -75.203125l-11.671875 0.000000l0.000000 -6.984375z"/>
</defs>
<g id="mathtext1">
<g style="fill: #000000" transform="translate(456.900000,820.930000)">
<use xlink:href="#c_ff9441f72805bc441fcb0bfe0d774f13" transform="translate(0.000000,-7.203125)scale(0.300000)"/>
<use xlink:href="#c_0bce5afba2dc6b9024b26277c38ad8e8" transform="translate(23.100586,-7.203125)scale(0.300000)"/>
<use xlink:href="#c_0f8c41144cfbf448378cb6fd1cc8e549" transform="translate(41.557617,-7.203125)scale(0.300000)"/>
<use xlink:href="#c_c438d87e693443c2861ebd6359e6491e" transform="translate(53.320313,-7.203125)scale(0.300000)"/>
<use xlink:href="#c_fe791a90f5471e2ab20a5ed41a7fa451" transform="translate(72.333984,-7.203125)scale(0.300000)"/>
<use xlink:href="#c_6a63bda47b2f3da1cec6aadd80692cfe" transform="translate(91.347656,-7.203125)scale(0.300000)"/>
<use xlink:href="#c_fe791a90f5471e2ab20a5ed41a7fa451" transform="translate(99.682617,-7.203125)scale(0.300000)"/>
<use xlink:href="#c_e3864de5dabf2f8dd9eee74726882ec1" transform="translate(118.696289,-7.203125)scale(0.300000)"/>
<use xlink:href="#c_d41d8cd98f00b204e9800998ecf8427e" transform="translate(137.739258,-7.203125)scale(0.300000)"/>
<use xlink:href="#c_2c63d70af4b7cec8961333415aad2fad" transform="translate(147.275391,-7.203125)scale(0.300000)"/>
<use xlink:href="#c_d41d8cd98f00b204e9800998ecf8427e" transform="translate(172.265625,-7.203125)scale(0.300000)"/>
<use xlink:href="#c_1a1d9ef1e4ddee695bd67a282879f099" transform="translate(181.801758,-7.203125)scale(0.300000)"/>
<use xlink:href="#c_3b86f9879deccc43ffac57ae939fe3b7" transform="translate(193.505859,-7.203125)scale(0.300000)"/>
<use xlink:href="#c_5e9f44da4350eed47d2641510279ca20" transform="translate(216.752930,-7.203125)scale(0.300000)"/>
<use xlink:href="#c_9f267d35ece7e6f3f1d851c2e17a8dec" transform="translate(239.311523,-7.203125)scale(0.300000)"/>
<use xlink:href="#c_5bcf09947f6bf611091602c6fea1d302" transform="translate(255.058594,-7.203125)scale(0.300000)"/>
</g>
</g>
</g>
</g>
<g id="matplotlib.axis2">
<g id="ytick1">
<g id="line2d21">
<path style="fill: none; stroke: #000000; stroke-width: 2.000000; stroke-linejoin: round; stroke-linecap: butt; stroke-dasharray: 1.000000,3.000000; stroke-dashoffset: 0.000000; opacity: 1.000000" clip-path="url(#p60b8af8d01786f608b84dfdd9564cf3c)" d="M144.000000 702.570865L1036.800000 702.570865"/>
</g>
<g id="line2d22">
<defs><path id="mced9a27601614c8ab609830e8025fe29" d="M0.000000 0.000000L8.000000 0.000000"/></defs>
<g ><use style="fill: none; stroke: #000000; stroke-width: 5.000000; stroke-linejoin: round; stroke-linecap: butt;  opacity: 1.000000" xlink:href="#mced9a27601614c8ab609830e8025fe29" x="144.000000" y="702.570865"/>
</g></g>
<g id="line2d23">
<defs><path id="mc9edb22e0744bca08c7c8344a247291a" d="M0.000000 0.000000L-8.000000 0.000000"/></defs>
<g ><use style="fill: none; stroke: #000000; stroke-width: 5.000000; stroke-linejoin: round; stroke-linecap: butt;  opacity: 1.000000" xlink:href="#mc9edb22e0744bca08c7c8344a247291a" x="1036.800000" y="702.570865"/>
</g></g>
<g id="text6">
<defs>
<path id="c_7b26b13f539f13a4c64eef23b6952d29" d="M4.890625 -31.390625l26.312500 0.000000l0.000000 8.000000l-26.312500 0.000000z"/>
<path id="c_ed3f3ed3ebfbd18bcb9c012009a68ad1" d="M19.187500 -8.296875l34.421875 0.000000l0.000000 8.296875l-46.281250 0.000000l0.000000 -8.296875q5.609375 -5.812500 15.296875 -15.593750q9.703125 -9.796875 12.187500 -12.640625q4.734375 -5.312500 6.609375 -9.000000q1.890625 -3.687500 1.890625 -7.250000q0.000000 -5.812500 -4.078125 -9.468750q-4.078125 -3.671875 -10.625000 -3.671875q-4.640625 0.000000 -9.796875 1.609375q-5.140625 1.609375 -11.000000 4.890625l0.000000 -9.968750q5.953125 -2.390625 11.125000 -3.609375q5.187500 -1.218750 9.484375 -1.218750q11.328125 0.000000 18.062500 5.671875q6.734375 5.656250 6.734375 15.125000q0.000000 4.500000 -1.687500 8.531250q-1.671875 4.015625 -6.125000 9.484375q-1.218750 1.421875 -7.765625 8.187500q-6.531250 6.765625 -18.453125 18.921875"/>
</defs>
<g id="mathtext2">
<g style="fill: #000000" transform="translate(52.000000,724.070865)">
<use xlink:href="#c_42baa63129a918535c52adb20d687ea7" transform="translate(0.000000,-1.218750)scale(0.400000)"/>
<use xlink:href="#c_7a2040fe3b94fcd41d0a72c84e93b115" transform="translate(25.449219,-1.218750)scale(0.400000)"/>
<use xlink:href="#c_7b26b13f539f13a4c64eef23b6952d29" transform="translate(50.898438,-22.218750)scale(0.280000)"/>
<use xlink:href="#c_ed3f3ed3ebfbd18bcb9c012009a68ad1" transform="translate(61.001953,-22.218750)scale(0.280000)"/>
</g>
</g>
</g>
</g>
<g id="ytick2">
<g id="line2d24">
<path style="fill: none; stroke: #000000; stroke-width: 2.000000; stroke-linejoin: round; stroke-linecap: butt; stroke-dasharray: 1.000000,3.000000; stroke-dashoffset: 0.000000; opacity: 1.000000" clip-path="url(#p60b8af8d01786f608b84dfdd9564cf3c)" d="M144.000000 615.256746L1036.800000 615.256746"/>
</g>
<g id="line2d25">
<g ><use style="fill: none; stroke: #000000; stroke-width: 5.000000; stroke-linejoin: round; stroke-linecap: butt;  opacity: 1.000000" xlink:href="#mced9a27601614c8ab609830e8025fe29" x="144.000000" y="615.256746"/>
</g></g>
<g id="line2d26">
<g ><use style="fill: none; stroke: #000000; stroke-width: 5.000000; stroke-linejoin: round; stroke-linecap: butt;  opacity: 1.000000" xlink:href="#mc9edb22e0744bca08c7c8344a247291a" x="1036.800000" y="615.256746"/>
</g></g>
<g id="text7">
<g id="mathtext3">
<g style="fill: #000000" transform="translate(52.000000,636.756746)">
<use xlink:href="#c_42baa63129a918535c52adb20d687ea7" transform="translate(0.000000,-1.590625)scale(0.400000)"/>
<use xlink:href="#c_7a2040fe3b94fcd41d0a72c84e93b115" transform="translate(25.449219,-1.590625)scale(0.400000)"/>
<use xlink:href="#c_7b26b13f539f13a4c64eef23b6952d29" transform="translate(50.898438,-22.590625)scale(0.280000)"/>
<use xlink:href="#c_42baa63129a918535c52adb20d687ea7" transform="translate(61.001953,-22.590625)scale(0.280000)"/>
</g>
</g>
</g>
</g>
<g id="ytick3">
<g id="line2d27">
<path style="fill: none; stroke: #000000; stroke-width: 2.000000; stroke-linejoin: round; stroke-linecap: butt; stroke-dasharray: 1.000000,3.000000; stroke-dashoffset: 0.000000; opacity: 1.000000" clip-path="url(#p60b8af8d01786f608b84dfdd9564cf3c)" d="M144.000000 527.942628L1036.800000 527.942628"/>
</g>
<g id="line2d28">
<g ><use style="fill: none; stroke: #000000; stroke-width: 5.000000; stroke-linejoin: round; stroke-linecap: butt;  opacity: 1.000000" xlink:href="#mced9a27601614c8ab609830e8025fe29" x="144.000000" y="527.942628"/>
</g></g>
<g id="line2d29">
<g ><use style="fill: none; stroke: #000000; stroke-width: 5.000000; stroke-linejoin: round; stroke-linecap: butt;  opacity: 1.000000" xlink:href="#mc9edb22e0744bca08c7c8344a247291a" x="1036.800000" y="527.942628"/>
</g></g>
<g id="text8">
<g id="mathtext4">
<g style="fill: #000000" transform="translate(62.000000,549.442628)">
<use xlink:href="#c_42baa63129a918535c52adb20d687ea7" transform="translate(0.000000,-1.218750)scale(0.400000)"/>
<use xlink:href="#c_7a2040fe3b94fcd41d0a72c84e93b115" transform="translate(25.449219,-1.218750)scale(0.400000)"/>
<use xlink:href="#c_7a2040fe3b94fcd41d0a72c84e93b115" transform="translate(50.898438,-22.218750)scale(0.280000)"/>
</g>
</g>
</g>
</g>
<g id="ytick4">
<g id="line2d30">
<path style="fill: none; stroke: #000000; stroke-width: 2.000000; stroke-linejoin: round; stroke-linecap: butt; stroke-dasharray: 1.000000,3.000000; stroke-dashoffset: 0.000000; opacity: 1.000000" clip-path="url(#p60b8af8d01786f608b84dfdd9564cf3c)" d="M144.000000 440.628510L1036.800000 440.628510"/>
</g>
<g id="line2d31">
<g ><use style="fill: none; stroke: #000000; stroke-width: 5.000000; stroke-linejoin: round; stroke-linecap: butt;  opacity: 1.000000" xlink:href="#mced9a27601614c8ab609830e8025fe29" x="144.000000" y="440.628510"/>
</g></g>
<g id="line2d32">
<g ><use style="fill: none; stroke: #000000; stroke-width: 5.000000; stroke-linejoin: round; stroke-linecap: butt;  opacity: 1.000000" xlink:href="#mc9edb22e0744bca08c7c8344a247291a" x="1036.800000" y="440.628510"/>
</g></g>
<g id="text9">
<g id="mathtext5">
<g style="fill: #000000" transform="translate(62.000000,462.128510)">
<use xlink:href="#c_42baa63129a918535c52adb20d687ea7" transform="translate(0.000000,-1.590625)scale(0.400000)"/>
<use xlink:href="#c_7a2040fe3b94fcd41d0a72c84e93b115" transform="translate(25.449219,-1.590625)scale(0.400000)"/>
<use xlink:href="#c_42baa63129a918535c52adb20d687ea7" transform="translate(50.898438,-22.590625)scale(0.280000)"/>
</g>
</g>
</g>
</g>
<g id="ytick5">
<g id="line2d33">
<path style="fill: none; stroke: #000000; stroke-width: 2.000000; stroke-linejoin: round; stroke-linecap: butt; stroke-dasharray: 1.000000,3.000000; stroke-dashoffset: 0.000000; opacity: 1.000000" clip-path="url(#p60b8af8d01786f608b84dfdd9564cf3c)" d="M144.000000 353.314392L1036.800000 353.314392"/>
</g>
<g id="line2d34">
<g ><use style="fill: none; stroke: #000000; stroke-width: 5.000000; stroke-linejoin: round; stroke-linecap: butt;  opacity: 1.000000" xlink:href="#mced9a27601614c8ab609830e8025fe29" x="144.000000" y="353.314392"/>
</g></g>
<g id="line2d35">
<g ><use style="fill: none; stroke: #000000; stroke-width: 5.000000; stroke-linejoin: round; stroke-linecap: butt;  opacity: 1.000000" xlink:href="#mc9edb22e0744bca08c7c8344a247291a" x="1036.800000" y="353.314392"/>
</g></g>
<g id="text10">
<g id="mathtext6">
<g style="fill: #000000" transform="translate(62.000000,374.814392)">
<use xlink:href="#c_42baa63129a918535c52adb20d687ea7" transform="translate(0.000000,-1.218750)scale(0.400000)"/>
<use xlink:href="#c_7a2040fe3b94fcd41d0a72c84e93b115" transform="translate(25.449219,-1.218750)scale(0.400000)"/>
<use xlink:href="#c_ed3f3ed3ebfbd18bcb9c012009a68ad1" transform="translate(50.898438,-22.218750)scale(0.280000)"/>
</g>
</g>
</g>
</g>
<g id="ytick6">
<g id="line2d36">
<path style="fill: none; stroke: #000000; stroke-width: 2.000000; stroke-linejoin: round; stroke-linecap: butt; stroke-dasharray: 1.000000,3.000000; stroke-dashoffset: 0.000000; opacity: 1.000000" clip-path="url(#p60b8af8d01786f608b84dfdd9564cf3c)" d="M144.000000 266.000274L1036.800000 266.000274"/>
</g>
<g id="line2d37">
<g ><use style="fill: none; stroke: #000000; stroke-width: 5.000000; stroke-linejoin: round; stroke-linecap: butt;  opacity: 1.000000" xlink:href="#mced9a27601614c8ab609830e8025fe29" x="144.000000" y="266.000274"/>
</g></g>
<g id="line2d38">
<g ><use style="fill: none; stroke: #000000; stroke-width: 5.000000; stroke-linejoin: round; stroke-linecap: butt;  opacity: 1.000000" xlink:href="#mc9edb22e0744bca08c7c8344a247291a" x="1036.800000" y="266.000274"/>
</g></g>
<g id="text11">
<defs>
<path id="c_3dcfa38a02242cb63ec6726c6e70be7a" d="M40.578125 -39.312500q7.078125 1.515625 11.046875 6.312500q3.984375 4.781250 3.984375 11.812500q0.000000 10.781250 -7.421875 16.703125q-7.421875 5.906250 -21.093750 5.906250q-4.578125 0.000000 -9.437500 -0.906250q-4.859375 -0.906250 -10.031250 -2.718750l0.000000 -9.515625q4.093750 2.390625 8.968750 3.609375q4.890625 1.218750 10.218750 1.218750q9.265625 0.000000 14.125000 -3.656250q4.859375 -3.656250 4.859375 -10.640625q0.000000 -6.453125 -4.515625 -10.078125q-4.515625 -3.640625 -12.562500 -3.640625l-8.500000 0.000000l0.000000 -8.109375l8.890625 0.000000q7.265625 0.000000 11.125000 -2.906250q3.859375 -2.906250 3.859375 -8.375000q0.000000 -5.609375 -3.984375 -8.609375q-3.968750 -3.015625 -11.390625 -3.015625q-4.062500 0.000000 -8.703125 0.890625q-4.640625 0.875000 -10.203125 2.718750l0.000000 -8.781250q5.625000 -1.562500 10.531250 -2.343750q4.906250 -0.781250 9.250000 -0.781250q11.234375 0.000000 17.765625 5.109375q6.546875 5.093750 6.546875 13.781250q0.000000 6.062500 -3.468750 10.234375q-3.468750 4.171875 -9.859375 5.781250"/>
</defs>
<g id="mathtext7">
<g style="fill: #000000" transform="translate(62.000000,287.500274)">
<use xlink:href="#c_42baa63129a918535c52adb20d687ea7" transform="translate(0.000000,-1.218750)scale(0.400000)"/>
<use xlink:href="#c_7a2040fe3b94fcd41d0a72c84e93b115" transform="translate(25.449219,-1.218750)scale(0.400000)"/>
<use xlink:href="#c_3dcfa38a02242cb63ec6726c6e70be7a" transform="translate(50.898438,-22.218750)scale(0.280000)"/>
</g>
</g>
</g>
</g>
<g id="ytick7">
<g id="line2d39">
<path style="fill: none; stroke: #000000; stroke-width: 2.000000; stroke-linejoin: round; stroke-linecap: butt; stroke-dasharray: 1.000000,3.000000; stroke-dashoffset: 0.000000; opacity: 1.000000" clip-path="url(#p60b8af8d01786f608b84dfdd9564cf3c)" d="M144.000000 178.686156L1036.800000 178.686156"/>
</g>
<g id="line2d40">
<g ><use style="fill: none; stroke: #000000; stroke-width: 5.000000; stroke-linejoin: round; stroke-linecap: butt;  opacity: 1.000000" xlink:href="#mced9a27601614c8ab609830e8025fe29" x="144.000000" y="178.686156"/>
</g></g>
<g id="line2d41">
<g ><use style="fill: none; stroke: #000000; stroke-width: 5.000000; stroke-linejoin: round; stroke-linecap: butt;  opacity: 1.000000" xlink:href="#mc9edb22e0744bca08c7c8344a247291a" x="1036.800000" y="178.686156"/>
</g></g>
<g id="text12">
<defs>
<path id="c_a0416418d96557a09b8c1332d34883ba" d="M37.796875 -64.312500l-24.906250 38.921875l24.906250 0.000000zM35.203125 -72.906250l12.406250 0.000000l0.000000 47.515625l10.406250 0.000000l0.000000 8.203125l-10.406250 0.000000l0.000000 17.187500l-9.812500 0.000000l0.000000 -17.187500l-32.906250 0.000000l0.000000 -9.515625z"/>
</defs>
<g id="mathtext8">
<g style="fill: #000000" transform="translate(62.000000,200.186156)">
<use xlink:href="#c_42baa63129a918535c52adb20d687ea7" transform="translate(0.000000,-1.590625)scale(0.400000)"/>
<use xlink:href="#c_7a2040fe3b94fcd41d0a72c84e93b115" transform="translate(25.449219,-1.590625)scale(0.400000)"/>
<use xlink:href="#c_a0416418d96557a09b8c1332d34883ba" transform="translate(50.898438,-22.590625)scale(0.280000)"/>
</g>
</g>
</g>
</g>
<g id="ytick8">
<g id="line2d42">
<path style="fill: none; stroke: #000000; stroke-width: 2.000000; stroke-linejoin: round; stroke-linecap: butt; stroke-dasharray: 1.000000,3.000000; stroke-dashoffset: 0.000000; opacity: 1.000000" clip-path="url(#p60b8af8d01786f608b84dfdd9564cf3c)" d="M144.000000 91.372037L1036.800000 91.372037"/>
</g>
<g id="line2d43">
<g ><use style="fill: none; stroke: #000000; stroke-width: 5.000000; stroke-linejoin: round; stroke-linecap: butt;  opacity: 1.000000" xlink:href="#mced9a27601614c8ab609830e8025fe29" x="144.000000" y="91.372037"/>
</g></g>
<g id="line2d44">
<g ><use style="fill: none; stroke: #000000; stroke-width: 5.000000; stroke-linejoin: round; stroke-linecap: butt;  opacity: 1.000000" xlink:href="#mc9edb22e0744bca08c7c8344a247291a" x="1036.800000" y="91.372037"/>
</g></g>
<g id="text13">
<g id="mathtext9">
<g style="fill: #000000" transform="translate(62.000000,112.872037)">
<use xlink:href="#c_42baa63129a918535c52adb20d687ea7" transform="translate(0.000000,-1.590625)scale(0.400000)"/>
<use xlink:href="#c_7a2040fe3b94fcd41d0a72c84e93b115" transform="translate(25.449219,-1.590625)scale(0.400000)"/>
<use xlink:href="#c_1260a2df50f305f3db244e29828f968e" transform="translate(50.898438,-22.590625)scale(0.280000)"/>
</g>
</g>
</g>
</g>
<g id="ytick9">
<g id="line2d45">
<defs><path id="mb39cfcf7402899e54c4d755745537394" d="M0.000000 0.000000L2.000000 0.000000"/></defs>
<g ><use style="fill: none; stroke: #000000; stroke-width: 0.500000; stroke-linejoin: round; stroke-linecap: butt;  opacity: 1.000000" xlink:href="#mb39cfcf7402899e54c4d755745537394" x="144.000000" y="737.316645"/>
</g></g>
<g id="line2d46">
<defs><path id="m6046ccd8b6d57b9fb587e3fdd930e9c5" d="M0.000000 0.000000L-2.000000 0.000000"/></defs>
<g ><use style="fill: none; stroke: #000000; stroke-width: 0.500000; stroke-linejoin: round; stroke-linecap: butt;  opacity: 1.000000" xlink:href="#m6046ccd8b6d57b9fb587e3fdd930e9c5" x="1036.800000" y="737.316645"/>
</g></g>
</g>
<g id="ytick10">
<g id="line2d47">
<g ><use style="fill: none; stroke: #000000; stroke-width: 0.500000; stroke-linejoin: round; stroke-linecap: butt;  opacity: 1.000000" xlink:href="#mb39cfcf7402899e54c4d755745537394" x="144.000000" y="721.941392"/>
</g></g>
<g id="line2d48">
<g ><use style="fill: none; stroke: #000000; stroke-width: 0.500000; stroke-linejoin: round; stroke-linecap: butt;  opacity: 1.000000" xlink:href="#m6046ccd8b6d57b9fb587e3fdd930e9c5" x="1036.800000" y="721.941392"/>
</g></g>
</g>
<g id="ytick11">
<g id="line2d49">
<g ><use style="fill: none; stroke: #000000; stroke-width: 0.500000; stroke-linejoin: round; stroke-linecap: butt;  opacity: 1.000000" xlink:href="#mb39cfcf7402899e54c4d755745537394" x="144.000000" y="711.032477"/>
</g></g>
<g id="line2d50">
<g ><use style="fill: none; stroke: #000000; stroke-width: 0.500000; stroke-linejoin: round; stroke-linecap: butt;  opacity: 1.000000" xlink:href="#m6046ccd8b6d57b9fb587e3fdd930e9c5" x="1036.800000" y="711.032477"/>
</g></g>
</g>
<g id="ytick12">
<g id="line2d51">
<g ><use style="fill: none; stroke: #000000; stroke-width: 0.500000; stroke-linejoin: round; stroke-linecap: butt;  opacity: 1.000000" xlink:href="#mb39cfcf7402899e54c4d755745537394" x="144.000000" y="676.286696"/>
</g></g>
<g id="line2d52">
<g ><use style="fill: none; stroke: #000000; stroke-width: 0.500000; stroke-linejoin: round; stroke-linecap: butt;  opacity: 1.000000" xlink:href="#m6046ccd8b6d57b9fb587e3fdd930e9c5" x="1036.800000" y="676.286696"/>
</g></g>
</g>
<g id="ytick13">
<g id="line2d53">
<g ><use style="fill: none; stroke: #000000; stroke-width: 0.500000; stroke-linejoin: round; stroke-linecap: butt;  opacity: 1.000000" xlink:href="#mb39cfcf7402899e54c4d755745537394" x="144.000000" y="650.002527"/>
</g></g>
<g id="line2d54">
<g ><use style="fill: none; stroke: #000000; stroke-width: 0.500000; stroke-linejoin: round; stroke-linecap: butt;  opacity: 1.000000" xlink:href="#m6046ccd8b6d57b9fb587e3fdd930e9c5" x="1036.800000" y="650.002527"/>
</g></g>
</g>
<g id="ytick14">
<g id="line2d55">
<g ><use style="fill: none; stroke: #000000; stroke-width: 0.500000; stroke-linejoin: round; stroke-linecap: butt;  opacity: 1.000000" xlink:href="#mb39cfcf7402899e54c4d755745537394" x="144.000000" y="634.627274"/>
</g></g>
<g id="line2d56">
<g ><use style="fill: none; stroke: #000000; stroke-width: 0.500000; stroke-linejoin: round; stroke-linecap: butt;  opacity: 1.000000" xlink:href="#m6046ccd8b6d57b9fb587e3fdd930e9c5" x="1036.800000" y="634.627274"/>
</g></g>
</g>
<g id="ytick15">
<g id="line2d57">
<g ><use style="fill: none; stroke: #000000; stroke-width: 0.500000; stroke-linejoin: round; stroke-linecap: butt;  opacity: 1.000000" xlink:href="#mb39cfcf7402899e54c4d755745537394" x="144.000000" y="623.718359"/>
</g></g>
<g id="line2d58">
<g ><use style="fill: none; stroke: #000000; stroke-width: 0.500000; stroke-linejoin: round; stroke-linecap: butt;  opacity: 1.000000" xlink:href="#m6046ccd8b6d57b9fb587e3fdd930e9c5" x="1036.800000" y="623.718359"/>
</g></g>
</g>
<g id="ytick16">
<g id="line2d59">
<g ><use style="fill: none; stroke: #000000; stroke-width: 0.500000; stroke-linejoin: round; stroke-linecap: butt;  opacity: 1.000000" xlink:href="#mb39cfcf7402899e54c4d755745537394" x="144.000000" y="588.972578"/>
</g></g>
<g id="line2d60">
<g ><use style="fill: none; stroke: #000000; stroke-width: 0.500000; stroke-linejoin: round; stroke-linecap: butt;  opacity: 1.000000" xlink:href="#m6046ccd8b6d57b9fb587e3fdd930e9c5" x="1036.800000" y="588.972578"/>
</g></g>
</g>
<g id="ytick17">
<g id="line2d61">
<g ><use style="fill: none; stroke: #000000; stroke-width: 0.500000; stroke-linejoin: round; stroke-linecap: butt;  opacity: 1.000000" xlink:href="#mb39cfcf7402899e54c4d755745537394" x="144.000000" y="562.688409"/>
</g></g>
<g id="line2d62">
<g ><use style="fill: none; stroke: #000000; stroke-width: 0.500000; stroke-linejoin: round; stroke-linecap: butt;  opacity: 1.000000" xlink:href="#m6046ccd8b6d57b9fb587e3fdd930e9c5" x="1036.800000" y="562.688409"/>
</g></g>
</g>
<g id="ytick18">
<g id="line2d63">
<g ><use style="fill: none; stroke: #000000; stroke-width: 0.500000; stroke-linejoin: round; stroke-linecap: butt;  opacity: 1.000000" xlink:href="#mb39cfcf7402899e54c4d755745537394" x="144.000000" y="547.313156"/>
</g></g>
<g id="line2d64">
<g ><use style="fill: none; stroke: #000000; stroke-width: 0.500000; stroke-linejoin: round; stroke-linecap: butt;  opacity: 1.000000" xlink:href="#m6046ccd8b6d57b9fb587e3fdd930e9c5" x="1036.800000" y="547.313156"/>
</g></g>
</g>
<g id="ytick19">
<g id="line2d65">
<g ><use style="fill: none; stroke: #000000; stroke-width: 0.500000; stroke-linejoin: round; stroke-linecap: butt;  opacity: 1.000000" xlink:href="#mb39cfcf7402899e54c4d755745537394" x="144.000000" y="536.404241"/>
</g></g>
<g id="line2d66">
<g ><use style="fill: none; stroke: #000000; stroke-width: 0.500000; stroke-linejoin: round; stroke-linecap: butt;  opacity: 1.000000" xlink:href="#m6046ccd8b6d57b9fb587e3fdd930e9c5" x="1036.800000" y="536.404241"/>
</g></g>
</g>
<g id="ytick20">
<g id="line2d67">
<g ><use style="fill: none; stroke: #000000; stroke-width: 0.500000; stroke-linejoin: round; stroke-linecap: butt;  opacity: 1.000000" xlink:href="#mb39cfcf7402899e54c4d755745537394" x="144.000000" y="501.658460"/>
</g></g>
<g id="line2d68">
<g ><use style="fill: none; stroke: #000000; stroke-width: 0.500000; stroke-linejoin: round; stroke-linecap: butt;  opacity: 1.000000" xlink:href="#m6046ccd8b6d57b9fb587e3fdd930e9c5" x="1036.800000" y="501.658460"/>
</g></g>
</g>
<g id="ytick21">
<g id="line2d69">
<g ><use style="fill: none; stroke: #000000; stroke-width: 0.500000; stroke-linejoin: round; stroke-linecap: butt;  opacity: 1.000000" xlink:href="#mb39cfcf7402899e54c4d755745537394" x="144.000000" y="475.374291"/>
</g></g>
<g id="line2d70">
<g ><use style="fill: none; stroke: #000000; stroke-width: 0.500000; stroke-linejoin: round; stroke-linecap: butt;  opacity: 1.000000" xlink:href="#m6046ccd8b6d57b9fb587e3fdd930e9c5" x="1036.800000" y="475.374291"/>
</g></g>
</g>
<g id="ytick22">
<g id="line2d71">
<g ><use style="fill: none; stroke: #000000; stroke-width: 0.500000; stroke-linejoin: round; stroke-linecap: butt;  opacity: 1.000000" xlink:href="#mb39cfcf7402899e54c4d755745537394" x="144.000000" y="459.999038"/>
</g></g>
<g id="line2d72">
<g ><use style="fill: none; stroke: #000000; stroke-width: 0.500000; stroke-linejoin: round; stroke-linecap: butt;  opacity: 1.000000" xlink:href="#m6046ccd8b6d57b9fb587e3fdd930e9c5" x="1036.800000" y="459.999038"/>
</g></g>
</g>
<g id="ytick23">
<g id="line2d73">
<g ><use style="fill: none; stroke: #000000; stroke-width: 0.500000; stroke-linejoin: round; stroke-linecap: butt;  opacity: 1.000000" xlink:href="#mb39cfcf7402899e54c4d755745537394" x="144.000000" y="449.090122"/>
</g></g>
<g id="line2d74">
<g ><use style="fill: none; stroke: #000000; stroke-width: 0.500000; stroke-linejoin: round; stroke-linecap: butt;  opacity: 1.000000" xlink:href="#m6046ccd8b6d57b9fb587e3fdd930e9c5" x="1036.800000" y="449.090122"/>
</g></g>
</g>
<g id="ytick24">
<g id="line2d75">
<g ><use style="fill: none; stroke: #000000; stroke-width: 0.500000; stroke-linejoin: round; stroke-linecap: butt;  opacity: 1.000000" xlink:href="#mb39cfcf7402899e54c4d755745537394" x="144.000000" y="414.344341"/>
</g></g>
<g id="line2d76">
<g ><use style="fill: none; stroke: #000000; stroke-width: 0.500000; stroke-linejoin: round; stroke-linecap: butt;  opacity: 1.000000" xlink:href="#m6046ccd8b6d57b9fb587e3fdd930e9c5" x="1036.800000" y="414.344341"/>
</g></g>
</g>
<g id="ytick25">
<g id="line2d77">
<g ><use style="fill: none; stroke: #000000; stroke-width: 0.500000; stroke-linejoin: round; stroke-linecap: butt;  opacity: 1.000000" xlink:href="#mb39cfcf7402899e54c4d755745537394" x="144.000000" y="388.060173"/>
</g></g>
<g id="line2d78">
<g ><use style="fill: none; stroke: #000000; stroke-width: 0.500000; stroke-linejoin: round; stroke-linecap: butt;  opacity: 1.000000" xlink:href="#m6046ccd8b6d57b9fb587e3fdd930e9c5" x="1036.800000" y="388.060173"/>
</g></g>
</g>
<g id="ytick26">
<g id="line2d79">
<g ><use style="fill: none; stroke: #000000; stroke-width: 0.500000; stroke-linejoin: round; stroke-linecap: butt;  opacity: 1.000000" xlink:href="#mb39cfcf7402899e54c4d755745537394" x="144.000000" y="372.684920"/>
</g></g>
<g id="line2d80">
<g ><use style="fill: none; stroke: #000000; stroke-width: 0.500000; stroke-linejoin: round; stroke-linecap: butt;  opacity: 1.000000" xlink:href="#m6046ccd8b6d57b9fb587e3fdd930e9c5" x="1036.800000" y="372.684920"/>
</g></g>
</g>
<g id="ytick27">
<g id="line2d81">
<g ><use style="fill: none; stroke: #000000; stroke-width: 0.500000; stroke-linejoin: round; stroke-linecap: butt;  opacity: 1.000000" xlink:href="#mb39cfcf7402899e54c4d755745537394" x="144.000000" y="361.776004"/>
</g></g>
<g id="line2d82">
<g ><use style="fill: none; stroke: #000000; stroke-width: 0.500000; stroke-linejoin: round; stroke-linecap: butt;  opacity: 1.000000" xlink:href="#m6046ccd8b6d57b9fb587e3fdd930e9c5" x="1036.800000" y="361.776004"/>
</g></g>
</g>
<g id="ytick28">
<g id="line2d83">
<g ><use style="fill: none; stroke: #000000; stroke-width: 0.500000; stroke-linejoin: round; stroke-linecap: butt;  opacity: 1.000000" xlink:href="#mb39cfcf7402899e54c4d755745537394" x="144.000000" y="327.030223"/>
</g></g>
<g id="line2d84">
<g ><use style="fill: none; stroke: #000000; stroke-width: 0.500000; stroke-linejoin: round; stroke-linecap: butt;  opacity: 1.000000" xlink:href="#m6046ccd8b6d57b9fb587e3fdd930e9c5" x="1036.800000" y="327.030223"/>
</g></g>
</g>
<g id="ytick29">
<g id="line2d85">
<g ><use style="fill: none; stroke: #000000; stroke-width: 0.500000; stroke-linejoin: round; stroke-linecap: butt;  opacity: 1.000000" xlink:href="#mb39cfcf7402899e54c4d755745537394" x="144.000000" y="300.746055"/>
</g></g>
<g id="line2d86">
<g ><use style="fill: none; stroke: #000000; stroke-width: 0.500000; stroke-linejoin: round; stroke-linecap: butt;  opacity: 1.000000" xlink:href="#m6046ccd8b6d57b9fb587e3fdd930e9c5" x="1036.800000" y="300.746055"/>
</g></g>
</g>
<g id="ytick30">
<g id="line2d87">
<g ><use style="fill: none; stroke: #000000; stroke-width: 0.500000; stroke-linejoin: round; stroke-linecap: butt;  opacity: 1.000000" xlink:href="#mb39cfcf7402899e54c4d755745537394" x="144.000000" y="285.370802"/>
</g></g>
<g id="line2d88">
<g ><use style="fill: none; stroke: #000000; stroke-width: 0.500000; stroke-linejoin: round; stroke-linecap: butt;  opacity: 1.000000" xlink:href="#m6046ccd8b6d57b9fb587e3fdd930e9c5" x="1036.800000" y="285.370802"/>
</g></g>
</g>
<g id="ytick31">
<g id="line2d89">
<g ><use style="fill: none; stroke: #000000; stroke-width: 0.500000; stroke-linejoin: round; stroke-linecap: butt;  opacity: 1.000000" xlink:href="#mb39cfcf7402899e54c4d755745537394" x="144.000000" y="274.461886"/>
</g></g>
<g id="line2d90">
<g ><use style="fill: none; stroke: #000000; stroke-width: 0.500000; stroke-linejoin: round; stroke-linecap: butt;  opacity: 1.000000" xlink:href="#m6046ccd8b6d57b9fb587e3fdd930e9c5" x="1036.800000" y="274.461886"/>
</g></g>
</g>
<g id="ytick32">
<g id="line2d91">
<g ><use style="fill: none; stroke: #000000; stroke-width: 0.500000; stroke-linejoin: round; stroke-linecap: butt;  opacity: 1.000000" xlink:href="#mb39cfcf7402899e54c4d755745537394" x="144.000000" y="239.716105"/>
</g></g>
<g id="line2d92">
<g ><use style="fill: none; stroke: #000000; stroke-width: 0.500000; stroke-linejoin: round; stroke-linecap: butt;  opacity: 1.000000" xlink:href="#m6046ccd8b6d57b9fb587e3fdd930e9c5" x="1036.800000" y="239.716105"/>
</g></g>
</g>
<g id="ytick33">
<g id="line2d93">
<g ><use style="fill: none; stroke: #000000; stroke-width: 0.500000; stroke-linejoin: round; stroke-linecap: butt;  opacity: 1.000000" xlink:href="#mb39cfcf7402899e54c4d755745537394" x="144.000000" y="213.431936"/>
</g></g>
<g id="line2d94">
<g ><use style="fill: none; stroke: #000000; stroke-width: 0.500000; stroke-linejoin: round; stroke-linecap: butt;  opacity: 1.000000" xlink:href="#m6046ccd8b6d57b9fb587e3fdd930e9c5" x="1036.800000" y="213.431936"/>
</g></g>
</g>
<g id="ytick34">
<g id="line2d95">
<g ><use style="fill: none; stroke: #000000; stroke-width: 0.500000; stroke-linejoin: round; stroke-linecap: butt;  opacity: 1.000000" xlink:href="#mb39cfcf7402899e54c4d755745537394" x="144.000000" y="198.056683"/>
</g></g>
<g id="line2d96">
<g ><use style="fill: none; stroke: #000000; stroke-width: 0.500000; stroke-linejoin: round; stroke-linecap: butt;  opacity: 1.000000" xlink:href="#m6046ccd8b6d57b9fb587e3fdd930e9c5" x="1036.800000" y="198.056683"/>
</g></g>
</g>
<g id="ytick35">
<g id="line2d97">
<g ><use style="fill: none; stroke: #000000; stroke-width: 0.500000; stroke-linejoin: round; stroke-linecap: butt;  opacity: 1.000000" xlink:href="#mb39cfcf7402899e54c4d755745537394" x="144.000000" y="187.147768"/>
</g></g>
<g id="line2d98">
<g ><use style="fill: none; stroke: #000000; stroke-width: 0.500000; stroke-linejoin: round; stroke-linecap: butt;  opacity: 1.000000" xlink:href="#m6046ccd8b6d57b9fb587e3fdd930e9c5" x="1036.800000" y="187.147768"/>
</g></g>
</g>
<g id="ytick36">
<g id="line2d99">
<g ><use style="fill: none; stroke: #000000; stroke-width: 0.500000; stroke-linejoin: round; stroke-linecap: butt;  opacity: 1.000000" xlink:href="#mb39cfcf7402899e54c4d755745537394" x="144.000000" y="152.401987"/>
</g></g>
<g id="line2d100">
<g ><use style="fill: none; stroke: #000000; stroke-width: 0.500000; stroke-linejoin: round; stroke-linecap: butt;  opacity: 1.000000" xlink:href="#m6046ccd8b6d57b9fb587e3fdd930e9c5" x="1036.800000" y="152.401987"/>
</g></g>
</g>
<g id="ytick37">
<g id="line2d101">
<g ><use style="fill: none; stroke: #000000; stroke-width: 0.500000; stroke-linejoin: round; stroke-linecap: butt;  opacity: 1.000000" xlink:href="#mb39cfcf7402899e54c4d755745537394" x="144.000000" y="126.117818"/>
</g></g>
<g id="line2d102">
<g ><use style="fill: none; stroke: #000000; stroke-width: 0.500000; stroke-linejoin: round; stroke-linecap: butt;  opacity: 1.000000" xlink:href="#m6046ccd8b6d57b9fb587e3fdd930e9c5" x="1036.800000" y="126.117818"/>
</g></g>
</g>
<g id="ytick38">
<g id="line2d103">
<g ><use style="fill: none; stroke: #000000; stroke-width: 0.500000; stroke-linejoin: round; stroke-linecap: butt;  opacity: 1.000000" xlink:href="#mb39cfcf7402899e54c4d755745537394" x="144.000000" y="110.742565"/>
</g></g>
<g id="line2d104">
<g ><use style="fill: none; stroke: #000000; stroke-width: 0.500000; stroke-linejoin: round; stroke-linecap: butt;  opacity: 1.000000" xlink:href="#m6046ccd8b6d57b9fb587e3fdd930e9c5" x="1036.800000" y="110.742565"/>
</g></g>
</g>
<g id="ytick39">
<g id="line2d105">
<g ><use style="fill: none; stroke: #000000; stroke-width: 0.500000; stroke-linejoin: round; stroke-linecap: butt;  opacity: 1.000000" xlink:href="#mb39cfcf7402899e54c4d755745537394" x="144.000000" y="99.833650"/>
</g></g>
<g id="line2d106">
<g ><use style="fill: none; stroke: #000000; stroke-width: 0.500000; stroke-linejoin: round; stroke-linecap: butt;  opacity: 1.000000" xlink:href="#m6046ccd8b6d57b9fb587e3fdd930e9c5" x="1036.800000" y="99.833650"/>
</g></g>
</g>
<g id="text14">
<defs>
<path id="c_46f5d86430594d4affc2299f73adabe3" d="M39.406250 -66.218750q-10.750000 0.000000 -17.078125 8.015625q-6.312500 8.000000 -6.312500 21.828125q0.000000 13.765625 6.312500 21.781250q6.328125 8.000000 17.078125 8.000000q10.734375 0.000000 17.015625 -8.000000q6.281250 -8.015625 6.281250 -21.781250q0.000000 -13.828125 -6.281250 -21.828125q-6.281250 -8.015625 -17.015625 -8.015625M53.218750 -1.312500l13.000000 14.203125l-11.921875 0.000000l-10.796875 -11.671875q-1.609375 0.093750 -2.468750 0.140625q-0.843750 0.062500 -1.625000 0.062500q-15.375000 0.000000 -24.593750 -10.281250q-9.203125 -10.281250 -9.203125 -27.515625q0.000000 -17.281250 9.203125 -27.562500q9.218750 -10.281250 24.593750 -10.281250q15.328125 0.000000 24.500000 10.281250q9.187500 10.281250 9.187500 27.562500q0.000000 12.687500 -5.109375 21.734375q-5.093750 9.031250 -14.765625 13.328125"/>
<path id="c_5cc9741494d2ad8f9764e03ae145569f" d="M48.687500 -27.296875q0.000000 -9.906250 -4.078125 -15.546875q-4.078125 -5.640625 -11.203125 -5.640625q-7.140625 0.000000 -11.218750 5.640625q-4.078125 5.640625 -4.078125 15.546875q0.000000 9.906250 4.078125 15.546875q4.078125 5.640625 11.218750 5.640625q7.125000 0.000000 11.203125 -5.640625q4.078125 -5.640625 4.078125 -15.546875M18.109375 -46.390625q2.843750 -4.875000 7.156250 -7.234375q4.328125 -2.375000 10.328125 -2.375000q9.968750 0.000000 16.187500 7.906250q6.234375 7.906250 6.234375 20.796875q0.000000 12.890625 -6.234375 20.812500q-6.218750 7.906250 -16.187500 7.906250q-6.000000 0.000000 -10.328125 -2.375000q-4.312500 -2.375000 -7.156250 -7.250000l0.000000 8.203125l-9.031250 0.000000l0.000000 -75.984375l9.031250 0.000000z"/>
<path id="c_9e4b30cbdf32072672ded72e9074c4c9" d="M-0.296875 -72.906250l61.671875 0.000000l0.000000 8.312500l-25.875000 0.000000l0.000000 64.593750l-9.906250 0.000000l0.000000 -64.593750l-25.890625 0.000000z"/>
<path id="c_8e0810ad13fe20a2a87a2619799b154d" d="M44.281250 -53.078125l0.000000 8.500000q-3.796875 -1.953125 -7.906250 -2.921875q-4.093750 -0.984375 -8.500000 -0.984375q-6.687500 0.000000 -10.031250 2.046875q-3.343750 2.046875 -3.343750 6.156250q0.000000 3.125000 2.390625 4.906250q2.390625 1.781250 9.625000 3.390625l3.078125 0.687500q9.562500 2.046875 13.593750 5.781250q4.031250 3.734375 4.031250 10.421875q0.000000 7.625000 -6.031250 12.078125q-6.031250 4.437500 -16.578125 4.437500q-4.390625 0.000000 -9.156250 -0.859375q-4.765625 -0.859375 -10.031250 -2.562500l0.000000 -9.281250q4.984375 2.593750 9.812500 3.890625q4.828125 1.281250 9.578125 1.281250q6.343750 0.000000 9.750000 -2.171875q3.421875 -2.171875 3.421875 -6.125000q0.000000 -3.656250 -2.468750 -5.609375q-2.453125 -1.953125 -10.812500 -3.765625l-3.125000 -0.734375q-8.343750 -1.750000 -12.062500 -5.390625q-3.703125 -3.640625 -3.703125 -9.984375q0.000000 -7.718750 5.468750 -11.906250q5.468750 -4.203125 15.531250 -4.203125q4.968750 0.000000 9.359375 0.734375q4.406250 0.718750 8.109375 2.187500"/>
</defs>
<g style="fill: #000000; opacity: 1.000000" transform="translate(47.000000,510.514062)rotate(-90.0)scale(0.300000)">
<use xlink:href="#c_46f5d86430594d4affc2299f73adabe3"/>
<use xlink:href="#c_c438d87e693443c2861ebd6359e6491e" x="78.710938"/>
<use xlink:href="#c_5cc9741494d2ad8f9764e03ae145569f" x="142.089844"/>
<use xlink:href="#c_6a63bda47b2f3da1cec6aadd80692cfe" x="205.566406"/>
<use xlink:href="#c_0f8c41144cfbf448378cb6fd1cc8e549" x="233.349609"/>
<use xlink:href="#c_d41d8cd98f00b204e9800998ecf8427e" x="272.558594"/>
<use xlink:href="#c_9e4b30cbdf32072672ded72e9074c4c9" x="304.345703"/>
<use xlink:href="#c_42baa63129a918535c52adb20d687ea7" x="365.429688"/>
<use xlink:href="#c_d41d8cd98f00b204e9800998ecf8427e" x="429.052734"/>
<use xlink:href="#c_1a1d9ef1e4ddee695bd67a282879f099" x="460.839844"/>
<use xlink:href="#c_c438d87e693443c2861ebd6359e6491e" x="499.853516"/>
<use xlink:href="#c_8e0810ad13fe20a2a87a2619799b154d" x="563.232422"/>
<use xlink:href="#c_5bcf09947f6bf611091602c6fea1d302" x="615.332031"/>
</g>
</g>
</g>
<g id="patch3">
<path style="fill: none; stroke: #000000; stroke-width: 1.000000; stroke-linejoin: round; stroke-linecap: square;  opacity: 1.000000"  d="M144.000000 83.520000L1036.800000 83.520000"/>
</g>
<g id="patch4">
<path style="fill: none; stroke: #000000; stroke-width: 1.000000; stroke-linejoin: round; stroke-linecap: square;  opacity: 1.000000"  d="M1036.800000 751.680000L1036.800000 83.520000"/>
</g>
<g id="patch5">
<path style="fill: none; stroke: #000000; stroke-width: 1.000000; stroke-linejoin: round; stroke-linecap: square;  opacity: 1.000000"  d="M144.000000 751.680000L1036.800000 751.680000"/>
</g>
<g id="patch6">
<path style="fill: none; stroke: #000000; stroke-width: 1.000000; stroke-linejoin: round; stroke-linecap: square;  opacity: 1.000000"  d="M144.000000 751.680000L144.000000 83.520000"/>
</g>
<g id="legend1">
<g id="patch7">
<path style="fill: #ffffff; stroke: #000000; stroke-width: 1.000000; stroke-linejoin: round; stroke-linecap: square;  opacity: 1.000000"  d="M155.000000 740.680000L440.200000 740.680000L440.200000 456.892500
L155.000000 456.892500L155.000000 740.680000z"/>
</g>
<g id="line2d107">
<path style="fill: none; stroke: #0000ff; stroke-width: 5.000000; stroke-linejoin: round; stroke-linecap: square;  opacity: 0.500000"  d="M163.800000 477.992500L207.800000 477.992500"/>
</g>
<g id="line2d108">
</g>
<g id="text15">
<defs>
<path id="c_b672e4bee30772019085dff1098f516d" d="M53.515625 -70.515625l0.000000 9.625000q-5.609375 -2.687500 -10.593750 -4.000000q-4.984375 -1.328125 -9.625000 -1.328125q-8.046875 0.000000 -12.421875 3.125000q-4.375000 3.125000 -4.375000 8.890625q0.000000 4.843750 2.906250 7.312500q2.906250 2.453125 11.015625 3.968750l5.953125 1.218750q11.031250 2.109375 16.281250 7.406250q5.250000 5.296875 5.250000 14.171875q0.000000 10.609375 -7.109375 16.078125q-7.093750 5.468750 -20.812500 5.468750q-5.171875 0.000000 -11.015625 -1.171875q-5.828125 -1.171875 -12.078125 -3.468750l0.000000 -10.156250q6.000000 3.359375 11.765625 5.078125q5.765625 1.703125 11.328125 1.703125q8.437500 0.000000 13.031250 -3.312500q4.593750 -3.328125 4.593750 -9.484375q0.000000 -5.359375 -3.296875 -8.390625q-3.296875 -3.031250 -10.812500 -4.546875l-6.015625 -1.171875q-11.031250 -2.187500 -15.968750 -6.875000q-4.921875 -4.687500 -4.921875 -13.046875q0.000000 -9.671875 6.812500 -15.234375q6.812500 -5.562500 18.765625 -5.562500q5.140625 0.000000 10.453125 0.937500q5.328125 0.921875 10.890625 2.765625"/>
<path id="c_518d586bee075aa0153eaebfcb5ab11f" d="M19.671875 -64.796875l0.000000 27.390625l12.406250 0.000000q6.890625 0.000000 10.640625 -3.562500q3.765625 -3.562500 3.765625 -10.156250q0.000000 -6.546875 -3.765625 -10.109375q-3.750000 -3.562500 -10.640625 -3.562500zM9.812500 -72.906250l22.265625 0.000000q12.265625 0.000000 18.531250 5.546875q6.281250 5.546875 6.281250 16.234375q0.000000 10.796875 -6.281250 16.312500q-6.265625 5.515625 -18.531250 5.515625l-12.406250 0.000000l0.000000 29.296875l-9.859375 0.000000z"/>
<path id="c_814edda51889e387a3dfbce453bfa1ec" d="M9.812500 -72.906250l9.859375 0.000000l0.000000 72.906250l-9.859375 0.000000z"/>
<path id="c_a469f8ee191679fe73f3b765bd271597" d="M64.406250 -67.281250l0.000000 10.390625q-4.984375 -4.640625 -10.625000 -6.921875q-5.640625 -2.296875 -11.984375 -2.296875q-12.500000 0.000000 -19.140625 7.640625q-6.640625 7.640625 -6.640625 22.093750q0.000000 14.406250 6.640625 22.046875q6.640625 7.640625 19.140625 7.640625q6.343750 0.000000 11.984375 -2.296875q5.640625 -2.296875 10.625000 -6.937500l0.000000 10.312500q-5.171875 3.515625 -10.968750 5.281250q-5.781250 1.750000 -12.218750 1.750000q-16.562500 0.000000 -26.093750 -10.125000q-9.515625 -10.140625 -9.515625 -27.671875q0.000000 -17.578125 9.515625 -27.703125q9.531250 -10.140625 26.093750 -10.140625q6.531250 0.000000 12.312500 1.734375q5.796875 1.734375 10.875000 5.203125"/>
<path id="c_dbe439baa035de1a298d0549b22269d8" d="M9.812500 -72.906250l46.093750 0.000000l0.000000 8.312500l-36.234375 0.000000l0.000000 21.578125l34.718750 0.000000l0.000000 8.296875l-34.718750 0.000000l0.000000 26.421875l37.109375 0.000000l0.000000 8.296875l-46.968750 0.000000z"/>
<path id="c_83c92fcf7184248154f741f54a0382f5" d="M11.718750 -12.406250l10.296875 0.000000l0.000000 8.406250l-8.000000 15.625000l-6.296875 0.000000l4.000000 -15.625000z"/>
<path id="c_0bf5a2f36405c6b7d9c7b26b61d908f5" d="M5.328125 -1.703125q0.000000 -0.593750 0.093750 -0.890625l9.562500 -38.421875q0.390625 -1.421875 1.562500 -2.296875q1.171875 -0.875000 2.640625 -0.875000q1.265625 0.000000 2.140625 0.765625q0.890625 0.750000 0.890625 2.015625q0.000000 0.296875 -0.031250 0.468750q-0.015625 0.171875 -0.062500 0.359375l-3.625000 14.453125q4.015625 -1.312500 10.656250 -6.859375q6.640625 -5.546875 10.031250 -7.828125q3.390625 -2.296875 8.328125 -2.296875q1.609375 0.000000 2.703125 1.000000q1.093750 1.000000 1.093750 2.703125q0.000000 2.343750 -1.687500 3.984375q-1.671875 1.625000 -4.015625 1.625000q-1.609375 0.000000 -2.718750 -1.046875q-1.093750 -1.046875 -1.093750 -2.656250q0.000000 -1.125000 0.390625 -1.906250q-2.390625 0.984375 -4.906250 2.750000q-2.515625 1.750000 -4.562500 3.531250q-2.046875 1.781250 -4.937500 4.171875q-2.875000 2.390625 -5.171875 3.656250q4.093750 0.000000 8.390625 0.890625q4.296875 0.875000 7.453125 3.218750q3.156250 2.343750 3.156250 6.390625q0.000000 1.609375 -0.390625 2.781250q-0.937500 4.000000 -0.937500 6.015625q0.000000 4.484375 3.125000 4.484375q3.562500 0.000000 5.468750 -3.953125q1.906250 -3.953125 3.125000 -9.234375q0.203125 -0.578125 0.781250 -0.578125l1.218750 0.000000q0.390625 0.000000 0.640625 0.265625q0.250000 0.265625 0.250000 0.609375q0.000000 0.093750 -0.109375 0.296875q-3.656250 15.234375 -11.562500 15.234375q-2.843750 0.000000 -5.015625 -1.312500q-2.171875 -1.328125 -3.343750 -3.593750q-1.171875 -2.281250 -1.171875 -5.109375q0.000000 -1.796875 0.390625 -3.312500q0.343750 -1.375000 0.343750 -2.296875q0.000000 -3.218750 -2.859375 -5.078125q-2.843750 -1.859375 -6.734375 -2.531250q-3.875000 -0.687500 -7.250000 -0.687500l-5.078125 20.593750q-0.343750 1.375000 -1.546875 2.343750q-1.187500 0.984375 -2.656250 0.984375q-1.218750 0.000000 -2.093750 -0.781250q-0.875000 -0.781250 -0.875000 -2.046875"/>
<path id="c_61c20b1e4c944de7566e5fda525fb070" d="M10.203125 -23.000000q-0.828125 0.000000 -1.375000 -0.625000q-0.531250 -0.640625 -0.531250 -1.375000q0.000000 -0.734375 0.531250 -1.359375q0.546875 -0.640625 1.375000 -0.640625l57.375000 0.000000q0.781250 0.000000 1.296875 0.640625q0.515625 0.625000 0.515625 1.359375q0.000000 0.734375 -0.515625 1.375000q-0.515625 0.625000 -1.296875 0.625000z"/>
<path id="c_1a459ac34855d27ec37ccb0e66298d36" d="M9.281250 -0.000000l0.000000 -3.515625q12.500000 0.000000 12.500000 -3.171875l0.000000 -52.500000q-5.171875 2.500000 -13.093750 2.500000l0.000000 -3.515625q12.265625 0.000000 18.515625 -6.406250l1.406250 0.000000q0.343750 0.000000 0.656250 0.281250q0.328125 0.265625 0.328125 0.609375l0.000000 59.031250q0.000000 3.171875 12.500000 3.171875l0.000000 3.515625z"/>
<path id="c_439964be9e9f5a11ea84f1c0bd1fc39b" d="M7.718750 -1.703125q0.000000 -0.593750 0.093750 -0.890625l7.468750 -29.828125q0.734375 -2.781250 0.734375 -4.890625q0.000000 -4.296875 -2.921875 -4.296875q-3.125000 0.000000 -4.640625 3.750000q-1.515625 3.734375 -2.937500 9.437500q0.000000 0.296875 -0.296875 0.468750q-0.281250 0.171875 -0.531250 0.171875l-1.171875 0.000000q-0.343750 0.000000 -0.593750 -0.359375q-0.234375 -0.375000 -0.234375 -0.671875q1.078125 -4.343750 2.078125 -7.359375q1.000000 -3.031250 3.125000 -5.515625q2.125000 -2.500000 5.296875 -2.500000q3.468750 0.000000 6.078125 2.000000q2.609375 2.000000 3.250000 5.265625q2.531250 -3.312500 5.781250 -5.281250q3.250000 -1.984375 7.109375 -1.984375q3.171875 0.000000 5.578125 1.859375q2.421875 1.843750 2.421875 5.015625q0.000000 2.546875 -1.593750 4.437500q-1.578125 1.875000 -4.218750 1.875000q-1.609375 0.000000 -2.703125 -1.000000q-1.093750 -1.015625 -1.093750 -2.625000q0.000000 -2.187500 1.609375 -3.921875q1.609375 -1.734375 3.703125 -1.734375q-1.609375 -1.328125 -3.906250 -1.328125q-4.296875 0.000000 -7.468750 3.062500q-3.171875 3.046875 -5.718750 7.734375l-7.125000 28.609375q-0.343750 1.375000 -1.546875 2.343750q-1.187500 0.984375 -2.656250 0.984375q-1.218750 0.000000 -2.093750 -0.781250q-0.875000 -0.781250 -0.875000 -2.046875"/>
<path id="c_7bbc93c01755cdeb977d08bdfb9ce616" d="M7.515625 -13.281250q-0.828125 0.000000 -1.375000 -0.625000q-0.531250 -0.640625 -0.531250 -1.375000q0.000000 -0.828125 0.531250 -1.406250q0.546875 -0.593750 1.375000 -0.593750l62.796875 0.000000q0.734375 0.000000 1.265625 0.593750q0.546875 0.578125 0.546875 1.406250q0.000000 0.734375 -0.546875 1.375000q-0.531250 0.625000 -1.265625 0.625000zM7.515625 -32.718750q-0.828125 0.000000 -1.375000 -0.578125q-0.531250 -0.593750 -0.531250 -1.421875q0.000000 -0.734375 0.531250 -1.359375q0.546875 -0.640625 1.375000 -0.640625l62.796875 0.000000q0.734375 0.000000 1.265625 0.640625q0.546875 0.625000 0.546875 1.359375q0.000000 0.828125 -0.546875 1.421875q-0.531250 0.578125 -1.265625 0.578125z"/>
</defs>
<g id="mathtext10">
<g style="fill: #000000" transform="translate(225.400000,491.692500)">
<use xlink:href="#c_b672e4bee30772019085dff1098f516d" transform="translate(0.000000,-6.387188)scale(0.220000)"/>
<use xlink:href="#c_518d586bee075aa0153eaebfcb5ab11f" transform="translate(13.964844,-6.387188)scale(0.220000)"/>
<use xlink:href="#c_814edda51889e387a3dfbce453bfa1ec" transform="translate(27.231445,-6.387188)scale(0.220000)"/>
<use xlink:href="#c_a469f8ee191679fe73f3b765bd271597" transform="translate(33.719727,-6.387188)scale(0.220000)"/>
<use xlink:href="#c_dbe439baa035de1a298d0549b22269d8" transform="translate(49.081055,-6.387188)scale(0.220000)"/>
<use xlink:href="#c_83c92fcf7184248154f741f54a0382f5" transform="translate(62.981445,-6.387188)scale(0.220000)"/>
<use xlink:href="#c_d41d8cd98f00b204e9800998ecf8427e" transform="translate(69.974609,-6.387188)scale(0.220000)"/>
<use xlink:href="#c_0bf5a2f36405c6b7d9c7b26b61d908f5" transform="translate(76.967773,-6.387188)scale(0.220000)"/>
<use xlink:href="#c_61c20b1e4c944de7566e5fda525fb070" transform="translate(92.337345,-15.740625)scale(0.154000)"/>
<use xlink:href="#c_1a459ac34855d27ec37ccb0e66298d36" transform="translate(104.300919,-15.740625)scale(0.154000)"/>
<use xlink:href="#c_439964be9e9f5a11ea84f1c0bd1fc39b" transform="translate(89.643555,-0.775125)scale(0.154000)"/>
<use xlink:href="#c_7bbc93c01755cdeb977d08bdfb9ce616" transform="translate(119.605185,-6.387188)scale(0.220000)"/>
<use xlink:href="#c_d41d8cd98f00b204e9800998ecf8427e" transform="translate(138.093075,-6.387188)scale(0.220000)"/>
<use xlink:href="#c_42baa63129a918535c52adb20d687ea7" transform="translate(145.086239,-6.387188)scale(0.220000)"/>
<use xlink:href="#c_42baa63129a918535c52adb20d687ea7" transform="translate(159.083310,-6.387188)scale(0.220000)"/>
<use xlink:href="#c_d41d8cd98f00b204e9800998ecf8427e" transform="translate(173.080380,-6.387188)scale(0.220000)"/>
<use xlink:href="#c_fe791a90f5471e2ab20a5ed41a7fa451" transform="translate(180.073544,-6.387188)scale(0.220000)"/>
<use xlink:href="#c_8e0810ad13fe20a2a87a2619799b154d" transform="translate(194.016903,-6.387188)scale(0.220000)"/>
</g>
</g>
</g>
<g id="line2d109">
<path style="fill: none; stroke: #0000ff; stroke-width: 2.000000; stroke-linejoin: round; stroke-linecap: butt; stroke-dasharray: 6.000000,6.000000; stroke-dashoffset: 0.000000; opacity: 1.000000"  d="M163.800000 511.711250L207.800000 511.711250"/>
</g>
<g id="line2d110">
</g>
<g id="text16">
<defs>
<path id="c_74d54c94aa871ec39e2bc6697dde6c00" d="M54.890625 -33.015625l0.000000 33.015625l-8.984375 0.000000l0.000000 -32.718750q0.000000 -7.765625 -3.031250 -11.609375q-3.031250 -3.859375 -9.078125 -3.859375q-7.281250 0.000000 -11.484375 4.640625q-4.203125 4.625000 -4.203125 12.640625l0.000000 30.906250l-9.031250 0.000000l0.000000 -75.984375l9.031250 0.000000l0.000000 29.796875q3.234375 -4.937500 7.593750 -7.375000q4.375000 -2.437500 10.093750 -2.437500q9.421875 0.000000 14.250000 5.828125q4.843750 5.828125 4.843750 17.156250"/>
<path id="c_f05dd90d41f04bb96ef1ca503cc2044b" d="M30.609375 -48.390625q-7.218750 0.000000 -11.421875 5.640625q-4.203125 5.640625 -4.203125 15.453125q0.000000 9.812500 4.171875 15.453125q4.187500 5.640625 11.453125 5.640625q7.187500 0.000000 11.375000 -5.656250q4.203125 -5.671875 4.203125 -15.437500q0.000000 -9.718750 -4.203125 -15.406250q-4.187500 -5.687500 -11.375000 -5.687500M30.609375 -56.000000q11.718750 0.000000 18.406250 7.625000q6.703125 7.609375 6.703125 21.078125q0.000000 13.421875 -6.703125 21.078125q-6.687500 7.640625 -18.406250 7.640625q-11.765625 0.000000 -18.437500 -7.640625q-6.656250 -7.656250 -6.656250 -21.078125q0.000000 -13.468750 6.656250 -21.078125q6.671875 -7.625000 18.437500 -7.625000"/>
<path id="c_6ec8d5749226675394676a5d2a3b468b" d="M41.109375 -46.296875q-1.515625 -0.875000 -3.296875 -1.281250q-1.781250 -0.421875 -3.921875 -0.421875q-7.625000 0.000000 -11.703125 4.953125q-4.078125 4.953125 -4.078125 14.234375l0.000000 28.812500l-9.031250 0.000000l0.000000 -54.687500l9.031250 0.000000l0.000000 8.500000q2.843750 -4.984375 7.375000 -7.390625q4.546875 -2.421875 11.046875 -2.421875q0.921875 0.000000 2.046875 0.125000q1.125000 0.109375 2.484375 0.359375z"/>
<path id="c_3fe22c4af425ac970aec982ae9662abe" d="M32.171875 5.078125q-3.796875 9.765625 -7.421875 12.734375q-3.609375 2.984375 -9.656250 2.984375l-7.187500 0.000000l0.000000 -7.515625l5.281250 0.000000q3.703125 0.000000 5.750000 -1.765625q2.062500 -1.750000 4.546875 -8.296875l1.609375 -4.093750l-22.109375 -53.812500l9.515625 0.000000l17.093750 42.765625l17.093750 -42.765625l9.515625 0.000000z"/>
</defs>
<g style="fill: #000000; opacity: 1.000000" transform="translate(225.400000,519.411250)scale(0.220000)">
<use xlink:href="#c_9e4b30cbdf32072672ded72e9074c4c9"/>
<use xlink:href="#c_74d54c94aa871ec39e2bc6697dde6c00" x="61.083984"/>
<use xlink:href="#c_0bce5afba2dc6b9024b26277c38ad8e8" x="124.462891"/>
<use xlink:href="#c_f05dd90d41f04bb96ef1ca503cc2044b" x="185.986328"/>
<use xlink:href="#c_6ec8d5749226675394676a5d2a3b468b" x="247.167969"/>
<use xlink:href="#c_3fe22c4af425ac970aec982ae9662abe" x="288.281250"/>
</g>
</g>
<g id="line2d111">
<path style="fill: none; stroke: #008000; stroke-width: 5.000000; stroke-linejoin: round; stroke-linecap: square;  opacity: 0.500000"  d="M163.800000 547.289375L207.800000 547.289375"/>
</g>
<g id="line2d112">
</g>
<g id="text17">
<g id="mathtext11">
<g style="fill: #000000" transform="translate(225.400000,560.989375)">
<use xlink:href="#c_b672e4bee30772019085dff1098f516d" transform="translate(0.000000,-6.387188)scale(0.220000)"/>
<use xlink:href="#c_518d586bee075aa0153eaebfcb5ab11f" transform="translate(13.964844,-6.387188)scale(0.220000)"/>
<use xlink:href="#c_814edda51889e387a3dfbce453bfa1ec" transform="translate(27.231445,-6.387188)scale(0.220000)"/>
<use xlink:href="#c_a469f8ee191679fe73f3b765bd271597" transform="translate(33.719727,-6.387188)scale(0.220000)"/>
<use xlink:href="#c_dbe439baa035de1a298d0549b22269d8" transform="translate(49.081055,-6.387188)scale(0.220000)"/>
<use xlink:href="#c_83c92fcf7184248154f741f54a0382f5" transform="translate(62.981445,-6.387188)scale(0.220000)"/>
<use xlink:href="#c_d41d8cd98f00b204e9800998ecf8427e" transform="translate(69.974609,-6.387188)scale(0.220000)"/>
<use xlink:href="#c_0bf5a2f36405c6b7d9c7b26b61d908f5" transform="translate(76.967773,-6.387188)scale(0.220000)"/>
<use xlink:href="#c_61c20b1e4c944de7566e5fda525fb070" transform="translate(92.337345,-15.740625)scale(0.154000)"/>
<use xlink:href="#c_1a459ac34855d27ec37ccb0e66298d36" transform="translate(104.300919,-15.740625)scale(0.154000)"/>
<use xlink:href="#c_439964be9e9f5a11ea84f1c0bd1fc39b" transform="translate(89.643555,-0.775125)scale(0.154000)"/>
<use xlink:href="#c_7bbc93c01755cdeb977d08bdfb9ce616" transform="translate(119.605185,-6.387188)scale(0.220000)"/>
<use xlink:href="#c_d41d8cd98f00b204e9800998ecf8427e" transform="translate(138.093075,-6.387188)scale(0.220000)"/>
<use xlink:href="#c_ed3f3ed3ebfbd18bcb9c012009a68ad1" transform="translate(145.086239,-6.387188)scale(0.220000)"/>
<use xlink:href="#c_3dcfa38a02242cb63ec6726c6e70be7a" transform="translate(159.083310,-6.387188)scale(0.220000)"/>
<use xlink:href="#c_d41d8cd98f00b204e9800998ecf8427e" transform="translate(173.080380,-6.387188)scale(0.220000)"/>
<use xlink:href="#c_fe791a90f5471e2ab20a5ed41a7fa451" transform="translate(180.073544,-6.387188)scale(0.220000)"/>
<use xlink:href="#c_8e0810ad13fe20a2a87a2619799b154d" transform="translate(194.016903,-6.387188)scale(0.220000)"/>
</g>
</g>
</g>
<g id="line2d113">
<path style="fill: none; stroke: #008000; stroke-width: 2.000000; stroke-linejoin: round; stroke-linecap: butt; stroke-dasharray: 6.000000,6.000000; stroke-dashoffset: 0.000000; opacity: 1.000000"  d="M163.800000 581.008125L207.800000 581.008125"/>
</g>
<g id="line2d114">
</g>
<g id="text18">
<g style="fill: #000000; opacity: 1.000000" transform="translate(225.400000,588.708125)scale(0.220000)">
<use xlink:href="#c_9e4b30cbdf32072672ded72e9074c4c9"/>
<use xlink:href="#c_74d54c94aa871ec39e2bc6697dde6c00" x="61.083984"/>
<use xlink:href="#c_0bce5afba2dc6b9024b26277c38ad8e8" x="124.462891"/>
<use xlink:href="#c_f05dd90d41f04bb96ef1ca503cc2044b" x="185.986328"/>
<use xlink:href="#c_6ec8d5749226675394676a5d2a3b468b" x="247.167969"/>
<use xlink:href="#c_3fe22c4af425ac970aec982ae9662abe" x="288.281250"/>
</g>
</g>
<g id="line2d115">
<path style="fill: none; stroke: #bfbf00; stroke-width: 5.000000; stroke-linejoin: round; stroke-linecap: square;  opacity: 0.500000"  d="M163.800000 616.586250L207.800000 616.586250"/>
</g>
<g id="line2d116">
</g>
<g id="text19">
<g id="mathtext12">
<g style="fill: #000000" transform="translate(225.400000,630.286250)">
<use xlink:href="#c_b672e4bee30772019085dff1098f516d" transform="translate(0.000000,-6.387188)scale(0.220000)"/>
<use xlink:href="#c_518d586bee075aa0153eaebfcb5ab11f" transform="translate(13.964844,-6.387188)scale(0.220000)"/>
<use xlink:href="#c_814edda51889e387a3dfbce453bfa1ec" transform="translate(27.231445,-6.387188)scale(0.220000)"/>
<use xlink:href="#c_a469f8ee191679fe73f3b765bd271597" transform="translate(33.719727,-6.387188)scale(0.220000)"/>
<use xlink:href="#c_dbe439baa035de1a298d0549b22269d8" transform="translate(49.081055,-6.387188)scale(0.220000)"/>
<use xlink:href="#c_83c92fcf7184248154f741f54a0382f5" transform="translate(62.981445,-6.387188)scale(0.220000)"/>
<use xlink:href="#c_d41d8cd98f00b204e9800998ecf8427e" transform="translate(69.974609,-6.387188)scale(0.220000)"/>
<use xlink:href="#c_0bf5a2f36405c6b7d9c7b26b61d908f5" transform="translate(76.967773,-6.387188)scale(0.220000)"/>
<use xlink:href="#c_61c20b1e4c944de7566e5fda525fb070" transform="translate(92.337345,-15.740625)scale(0.154000)"/>
<use xlink:href="#c_1a459ac34855d27ec37ccb0e66298d36" transform="translate(104.300919,-15.740625)scale(0.154000)"/>
<use xlink:href="#c_439964be9e9f5a11ea84f1c0bd1fc39b" transform="translate(89.643555,-0.775125)scale(0.154000)"/>
<use xlink:href="#c_7bbc93c01755cdeb977d08bdfb9ce616" transform="translate(119.605185,-6.387188)scale(0.220000)"/>
<use xlink:href="#c_d41d8cd98f00b204e9800998ecf8427e" transform="translate(138.093075,-6.387188)scale(0.220000)"/>
<use xlink:href="#c_3dcfa38a02242cb63ec6726c6e70be7a" transform="translate(145.086239,-6.387188)scale(0.220000)"/>
<use xlink:href="#c_1260a2df50f305f3db244e29828f968e" transform="translate(159.083310,-6.387188)scale(0.220000)"/>
<use xlink:href="#c_d41d8cd98f00b204e9800998ecf8427e" transform="translate(173.080380,-6.387188)scale(0.220000)"/>
<use xlink:href="#c_fe791a90f5471e2ab20a5ed41a7fa451" transform="translate(180.073544,-6.387188)scale(0.220000)"/>
<use xlink:href="#c_8e0810ad13fe20a2a87a2619799b154d" transform="translate(194.016903,-6.387188)scale(0.220000)"/>
</g>
</g>
</g>
<g id="line2d117">
<path style="fill: none; stroke: #bfbf00; stroke-width: 2.000000; stroke-linejoin: round; stroke-linecap: butt; stroke-dasharray: 6.000000,6.000000; stroke-dashoffset: 0.000000; opacity: 1.000000"  d="M163.800000 650.305000L207.800000 650.305000"/>
</g>
<g id="line2d118">
</g>
<g id="text20">
<g style="fill: #000000; opacity: 1.000000" transform="translate(225.400000,658.005000)scale(0.220000)">
<use xlink:href="#c_9e4b30cbdf32072672ded72e9074c4c9"/>
<use xlink:href="#c_74d54c94aa871ec39e2bc6697dde6c00" x="61.083984"/>
<use xlink:href="#c_0bce5afba2dc6b9024b26277c38ad8e8" x="124.462891"/>
<use xlink:href="#c_f05dd90d41f04bb96ef1ca503cc2044b" x="185.986328"/>
<use xlink:href="#c_6ec8d5749226675394676a5d2a3b468b" x="247.167969"/>
<use xlink:href="#c_3fe22c4af425ac970aec982ae9662abe" x="288.281250"/>
</g>
</g>
<g id="line2d119">
<path style="fill: none; stroke: #ff0000; stroke-width: 5.000000; stroke-linejoin: round; stroke-linecap: square;  opacity: 0.500000"  d="M163.800000 685.883125L207.800000 685.883125"/>
</g>
<g id="line2d120">
</g>
<g id="text21">
<defs>
<path id="c_956f18cfdaf972f35a6c2b4aaac2532b" d="M8.203125 -72.906250l46.875000 0.000000l0.000000 4.203125l-26.468750 68.703125l-10.296875 0.000000l24.906250 -64.593750l-35.015625 0.000000z"/>
</defs>
<g id="mathtext13">
<g style="fill: #000000" transform="translate(225.400000,699.583125)">
<use xlink:href="#c_b672e4bee30772019085dff1098f516d" transform="translate(0.000000,-6.387188)scale(0.220000)"/>
<use xlink:href="#c_518d586bee075aa0153eaebfcb5ab11f" transform="translate(13.964844,-6.387188)scale(0.220000)"/>
<use xlink:href="#c_814edda51889e387a3dfbce453bfa1ec" transform="translate(27.231445,-6.387188)scale(0.220000)"/>
<use xlink:href="#c_a469f8ee191679fe73f3b765bd271597" transform="translate(33.719727,-6.387188)scale(0.220000)"/>
<use xlink:href="#c_dbe439baa035de1a298d0549b22269d8" transform="translate(49.081055,-6.387188)scale(0.220000)"/>
<use xlink:href="#c_83c92fcf7184248154f741f54a0382f5" transform="translate(62.981445,-6.387188)scale(0.220000)"/>
<use xlink:href="#c_d41d8cd98f00b204e9800998ecf8427e" transform="translate(69.974609,-6.387188)scale(0.220000)"/>
<use xlink:href="#c_0bf5a2f36405c6b7d9c7b26b61d908f5" transform="translate(76.967773,-6.387188)scale(0.220000)"/>
<use xlink:href="#c_61c20b1e4c944de7566e5fda525fb070" transform="translate(92.337345,-15.740625)scale(0.154000)"/>
<use xlink:href="#c_1a459ac34855d27ec37ccb0e66298d36" transform="translate(104.300919,-15.740625)scale(0.154000)"/>
<use xlink:href="#c_439964be9e9f5a11ea84f1c0bd1fc39b" transform="translate(89.643555,-0.775125)scale(0.154000)"/>
<use xlink:href="#c_7bbc93c01755cdeb977d08bdfb9ce616" transform="translate(119.605185,-6.387188)scale(0.220000)"/>
<use xlink:href="#c_d41d8cd98f00b204e9800998ecf8427e" transform="translate(138.093075,-6.387188)scale(0.220000)"/>
<use xlink:href="#c_956f18cfdaf972f35a6c2b4aaac2532b" transform="translate(145.086239,-6.387188)scale(0.220000)"/>
<use xlink:href="#c_7a2040fe3b94fcd41d0a72c84e93b115" transform="translate(159.083310,-6.387188)scale(0.220000)"/>
<use xlink:href="#c_d41d8cd98f00b204e9800998ecf8427e" transform="translate(173.080380,-6.387188)scale(0.220000)"/>
<use xlink:href="#c_fe791a90f5471e2ab20a5ed41a7fa451" transform="translate(180.073544,-6.387188)scale(0.220000)"/>
<use xlink:href="#c_8e0810ad13fe20a2a87a2619799b154d" transform="translate(194.016903,-6.387188)scale(0.220000)"/>
</g>
</g>
</g>
<g id="line2d121">
<path style="fill: none; stroke: #ff0000; stroke-width: 2.000000; stroke-linejoin: round; stroke-linecap: butt; stroke-dasharray: 6.000000,6.000000; stroke-dashoffset: 0.000000; opacity: 1.000000"  d="M163.800000 719.601875L207.800000 719.601875"/>
</g>
<g id="line2d122">
</g>
<g id="text22">
<g style="fill: #000000; opacity: 1.000000" transform="translate(225.400000,727.301875)scale(0.220000)">
<use xlink:href="#c_9e4b30cbdf32072672ded72e9074c4c9"/>
<use xlink:href="#c_74d54c94aa871ec39e2bc6697dde6c00" x="61.083984"/>
<use xlink:href="#c_0bce5afba2dc6b9024b26277c38ad8e8" x="124.462891"/>
<use xlink:href="#c_f05dd90d41f04bb96ef1ca503cc2044b" x="185.986328"/>
<use xlink:href="#c_6ec8d5749226675394676a5d2a3b468b" x="247.167969"/>
<use xlink:href="#c_3fe22c4af425ac970aec982ae9662abe" x="288.281250"/>
</g>
</g>
</g>
</g>
</g>
</svg>
