<?xml version="1.0" encoding="utf-8" standalone="no"?>
<!DOCTYPE svg PUBLIC "-//W3C//DTD SVG 1.1//EN"
  "http://www.w3.org/Graphics/SVG/1.1/DTD/svg11.dtd">
<!-- Created with matplotlib (http://matplotlib.org/) -->
<svg height="704pt" version="1.1" viewBox="0 0 1036 704" width="1036pt" xmlns="http://www.w3.org/2000/svg" xmlns:xlink="http://www.w3.org/1999/xlink">
 <defs>
  <style type="text/css">
*{stroke-linecap:butt;stroke-linejoin:round;}
  </style>
 </defs>
 <g id="figure_1">
  <g id="patch_1">
   <path d="
M0 704.7
L1036.8 704.7
L1036.8 0
L0 0
z
" style="fill:#ffffff;"/>
  </g>
  <g id="axes_1">
   <g id="patch_2">
    <path d="
M129.6 634.23
L933.12 634.23
L933.12 70.47
L129.6 70.47
z
" style="fill:#ffffff;"/>
   </g>
   <g id="line2d_1">
    <path clip-path="url(#p76e0fdb0db)" d="
M129.6 473.156
L134.426 477.886
L136.839 479.989
L139.252 481.767
L140.861 482.724
L142.469 483.471
L144.078 483.988
L145.686 484.262
L147.295 484.285
L148.904 484.053
L150.512 483.571
L152.121 482.847
L153.73 481.895
L155.338 480.736
L157.751 478.663
L160.164 476.279
L164.99 471.067
L168.208 467.687
L170.621 465.423
L173.034 463.527
L174.642 462.518
L176.251 461.742
L177.859 461.221
L179.468 460.967
L181.077 460.989
L182.685 461.29
L184.294 461.865
L185.903 462.702
L187.511 463.787
L189.12 465.096
L191.533 467.417
L193.946 470.067
L203.598 481.187
L206.011 483.379
L207.619 484.573
L209.228 485.517
L210.837 486.188
L212.445 486.569
L214.054 486.646
L215.663 486.416
L217.271 485.881
L218.88 485.049
L220.489 483.937
L222.097 482.567
L223.706 480.967
L226.119 478.213
L229.336 474.093
L234.966 466.698
L237.379 463.878
L238.988 462.229
L240.597 460.812
L242.205 459.661
L243.814 458.806
L245.423 458.269
L247.031 458.067
L248.64 458.207
L250.249 458.691
L251.857 459.512
L253.466 460.654
L255.075 462.095
L256.683 463.806
L259.096 466.799
L261.509 470.173
L270.357 482.995
L272.77 485.818
L274.378 487.376
L275.987 488.627
L277.596 489.541
L279.204 490.091
L280.813 490.261
L282.422 490.041
L284.03 489.432
L285.639 488.443
L287.248 487.09
L288.856 485.4
L290.465 483.408
L292.878 479.944
L295.291 476.059
L303.334 462.617
L305.747 459.238
L307.356 457.334
L308.964 455.765
L310.573 454.571
L312.182 453.785
L313.79 453.432
L314.595 453.422
L315.399 453.525
L317.008 454.069
L318.616 455.059
L320.225 456.479
L321.834 458.302
L323.442 460.495
L325.051 463.011
L327.464 467.278
L330.681 473.559
L335.507 483.113
L337.92 487.416
L339.529 489.949
L341.137 492.14
L342.746 493.932
L344.355 495.279
L345.963 496.142
L346.768 496.383
L347.572 496.493
L348.376 496.47
L349.181 496.314
L349.985 496.024
L350.789 495.601
L352.398 494.36
L354.006 492.61
L355.615 490.381
L357.224 487.716
L358.832 484.667
L361.245 479.512
L364.463 471.943
L369.289 460.461
L371.702 455.303
L373.31 452.274
L374.919 449.662
L376.528 447.536
L378.136 445.955
L378.941 445.383
L379.745 444.965
L380.549 444.703
L381.354 444.601
L382.158 444.662
L382.962 444.886
L383.766 445.275
L384.571 445.828
L385.375 446.543
L386.984 448.451
L388.592 450.97
L390.201 454.057
L391.81 457.654
L394.223 463.851
L396.636 470.754
L404.679 494.437
L406.288 498.48
L407.896 502.045
L409.505 505.038
L411.114 507.377
L411.918 508.278
L412.722 508.99
L413.526 509.507
L414.331 509.822
L415.135 509.931
L415.939 509.831
L416.744 509.519
L417.548 508.995
L418.352 508.257
L419.157 507.307
L419.961 506.148
L421.57 503.217
L423.178 499.504
L424.787 495.071
L426.396 489.996
L428.809 481.392
L432.026 468.68
L437.656 446.097
L440.069 437.576
L441.678 432.647
L443.286 428.476
L444.895 425.185
L445.699 423.903
L446.504 422.88
L447.308 422.127
L448.112 421.652
L448.917 421.464
L449.721 421.57
L450.525 421.974
L451.33 422.681
L452.134 423.693
L452.938 425.009
L453.743 426.63
L454.547 428.553
L456.156 433.284
L457.764 439.149
L459.373 446.067
L460.982 453.93
L463.395 467.208
L466.612 486.814
L472.242 521.881
L474.655 535.251
L476.264 543.033
L477.872 549.646
L479.481 554.876
L480.285 556.908
L481.09 558.522
L481.894 559.694
L482.698 560.404
L483.503 560.632
L484.307 560.362
L485.111 559.577
L485.916 558.264
L486.72 556.41
L487.524 554.006
L488.329 551.042
L489.133 547.514
L490.742 538.75
L492.35 527.71
L493.959 514.427
L495.568 498.968
L497.176 481.44
L498.785 461.983
L501.198 429.572
L503.611 393.943
L506.828 342.935
L514.871 212.963
L517.284 177.752
L519.697 146.171
L521.306 127.602
L522.915 111.315
L524.523 97.5284
L526.132 86.429
L526.936 81.9354
L527.741 78.1671
L528.545 75.1369
L529.349 72.8551
L530.154 71.3296
L530.958 70.5656
L531.762 70.5656
L532.566 71.3296
L533.371 72.8551
L534.175 75.1369
L534.979 78.1671
L535.784 81.9354
L536.588 86.429
L538.197 97.5284
L539.805 111.315
L541.414 127.602
L543.023 146.171
L545.436 177.752
L547.849 212.963
L551.066 263.762
L559.109 393.943
L561.522 429.572
L563.935 461.983
L565.544 481.44
L567.152 498.968
L568.761 514.427
L570.37 527.71
L571.978 538.75
L573.587 547.514
L574.391 551.042
L575.196 554.006
L576 556.41
L576.804 558.264
L577.609 559.577
L578.413 560.362
L579.217 560.632
L580.022 560.404
L580.826 559.694
L581.63 558.522
L582.435 556.908
L583.239 554.876
L584.043 552.447
L585.652 546.499
L587.261 539.275
L588.869 530.992
L591.282 517.087
L595.304 491.898
L598.521 471.95
L600.934 458.177
L602.543 449.888
L604.151 442.482
L605.76 436.079
L607.369 430.773
L608.977 426.63
L609.782 425.009
L610.586 423.693
L611.39 422.681
L612.195 421.974
L612.999 421.57
L613.803 421.464
L614.608 421.652
L615.412 422.127
L616.216 422.88
L617.021 423.903
L617.825 425.185
L619.434 428.476
L621.042 432.647
L622.651 437.576
L624.259 443.13
L626.672 452.318
L634.716 484.374
L637.129 492.608
L638.737 497.373
L640.346 501.455
L641.955 504.783
L643.563 507.307
L644.368 508.257
L645.172 508.995
L645.976 509.519
L646.781 509.831
L647.585 509.931
L648.389 509.822
L649.194 509.507
L649.998 508.99
L650.802 508.278
L651.606 507.377
L653.215 505.038
L654.824 502.045
L656.432 498.48
L658.041 494.437
L660.454 487.7
L665.28 473.156
L668.497 463.851
L670.91 457.654
L672.519 454.057
L674.128 450.97
L675.736 448.451
L677.345 446.543
L678.149 445.828
L678.954 445.275
L679.758 444.886
L680.562 444.662
L681.366 444.601
L682.171 444.703
L682.975 444.965
L683.779 445.383
L684.584 445.955
L686.192 447.536
L687.801 449.662
L689.41 452.274
L691.018 455.303
L693.431 460.461
L696.649 468.046
L701.475 479.512
L703.888 484.667
L705.496 487.716
L707.105 490.381
L708.714 492.61
L710.322 494.36
L711.931 495.601
L712.735 496.024
L713.539 496.314
L714.344 496.47
L715.148 496.493
L715.952 496.383
L716.757 496.142
L717.561 495.773
L719.17 494.664
L720.778 493.089
L722.387 491.091
L723.996 488.721
L726.409 484.603
L729.626 478.412
L735.256 467.278
L737.669 463.011
L739.278 460.495
L740.886 458.302
L742.495 456.479
L744.104 455.059
L745.712 454.069
L747.321 453.525
L748.125 453.422
L748.93 453.432
L750.538 453.785
L752.147 454.571
L753.756 455.765
L755.364 457.334
L756.973 459.238
L758.582 461.43
L760.995 465.138
L765.016 471.944
L769.038 478.687
L771.451 482.311
L773.059 484.44
L774.668 486.285
L776.277 487.81
L777.885 488.984
L779.494 489.785
L781.103 490.2
L782.711 490.224
L784.32 489.863
L785.929 489.128
L787.537 488.042
L789.146 486.633
L790.755 484.937
L793.168 481.947
L795.581 478.567
L803.624 466.799
L806.037 463.806
L807.645 462.095
L809.254 460.654
L810.863 459.512
L812.471 458.691
L814.08 458.207
L815.689 458.067
L817.297 458.269
L818.906 458.806
L820.515 459.661
L822.123 460.812
L823.732 462.229
L826.145 464.778
L828.558 467.709
L833.384 474.093
L836.601 478.213
L839.014 480.967
L840.623 482.567
L842.231 483.937
L843.84 485.049
L845.449 485.881
L847.057 486.416
L848.666 486.646
L850.275 486.569
L851.883 486.188
L853.492 485.517
L855.101 484.573
L856.709 483.379
L858.318 481.966
L860.731 479.51
L863.948 475.815
L870.383 468.27
L872.796 465.826
L874.404 464.415
L876.013 463.215
L877.622 462.251
L879.23 461.544
L880.839 461.105
L882.448 460.943
L884.056 461.06
L885.665 461.449
L887.274 462.099
L888.882 462.994
L890.491 464.111
L892.904 466.143
L895.317 468.503
L899.338 472.826
L903.36 477.101
L905.773 479.394
L908.186 481.34
L909.795 482.399
L911.403 483.239
L913.012 483.843
L914.621 484.201
L916.229 484.305
L917.838 484.156
L919.446 483.759
L921.055 483.125
L922.664 482.271
L924.272 481.217
L926.685 479.319
L929.098 477.131
L933.12 473.156
L933.12 473.156" style="fill:none;stroke:#0000ff;stroke-linecap:square;stroke-width:5;"/>
   </g>
   <g id="matplotlib.axis_1">
    <g id="xtick_1">
     <g id="line2d_2">
      <path clip-path="url(#p76e0fdb0db)" d="
M129.6 634.23
L129.6 70.47" style="fill:none;stroke:#000000;stroke-dasharray:1.000000,3.000000;stroke-dashoffset:0.0;stroke-width:0.5;"/>
     </g>
     <g id="line2d_3">
      <defs>
       <path d="
M0 0
L0 -4" id="m93b0483c22" style="stroke:#000000;stroke-width:0.5;"/>
      </defs>
      <g>
       <use style="stroke:#000000;stroke-width:0.5;" x="129.6" xlink:href="#m93b0483c22" y="634.23"/>
      </g>
     </g>
     <g id="line2d_4">
      <defs>
       <path d="
M0 0
L0 4" id="m741efc42ff" style="stroke:#000000;stroke-width:0.5;"/>
      </defs>
      <g>
       <use style="stroke:#000000;stroke-width:0.5;" x="129.6" xlink:href="#m741efc42ff" y="70.47"/>
      </g>
     </g>
     <g id="text_1">
      <!-- −3 -->
      <defs>
       <path d="
M10.5938 35.5
L73.1875 35.5
L73.1875 27.2031
L10.5938 27.2031
z
" id="BitstreamVeraSans-Roman-2212"/>
       <path d="
M40.5781 39.3125
Q47.6562 37.7969 51.625 33
Q55.6094 28.2188 55.6094 21.1875
Q55.6094 10.4062 48.1875 4.48438
Q40.7656 -1.42188 27.0938 -1.42188
Q22.5156 -1.42188 17.6562 -0.515625
Q12.7969 0.390625 7.625 2.20312
L7.625 11.7188
Q11.7188 9.32812 16.5938 8.10938
Q21.4844 6.89062 26.8125 6.89062
Q36.0781 6.89062 40.9375 10.5469
Q45.7969 14.2031 45.7969 21.1875
Q45.7969 27.6406 41.2812 31.2656
Q36.7656 34.9062 28.7188 34.9062
L20.2188 34.9062
L20.2188 43.0156
L29.1094 43.0156
Q36.375 43.0156 40.2344 45.9219
Q44.0938 48.8281 44.0938 54.2969
Q44.0938 59.9062 40.1094 62.9062
Q36.1406 65.9219 28.7188 65.9219
Q24.6562 65.9219 20.0156 65.0312
Q15.375 64.1562 9.8125 62.3125
L9.8125 71.0938
Q15.4375 72.6562 20.3438 73.4375
Q25.25 74.2188 29.5938 74.2188
Q40.8281 74.2188 47.3594 69.1094
Q53.9062 64.0156 53.9062 55.3281
Q53.9062 49.2656 50.4375 45.0938
Q46.9688 40.9219 40.5781 39.3125" id="BitstreamVeraSans-Roman-33"/>
      </defs>
      <g transform="translate(107.0578125 664.82453125)scale(0.35 -0.35)">
       <use xlink:href="#BitstreamVeraSans-Roman-2212"/>
       <use x="83.7890625" xlink:href="#BitstreamVeraSans-Roman-33"/>
      </g>
     </g>
    </g>
    <g id="xtick_2">
     <g id="line2d_5">
      <path clip-path="url(#p76e0fdb0db)" d="
M263.52 634.23
L263.52 70.47" style="fill:none;stroke:#000000;stroke-dasharray:1.000000,3.000000;stroke-dashoffset:0.0;stroke-width:0.5;"/>
     </g>
     <g id="line2d_6">
      <g>
       <use style="stroke:#000000;stroke-width:0.5;" x="263.52" xlink:href="#m93b0483c22" y="634.23"/>
      </g>
     </g>
     <g id="line2d_7">
      <g>
       <use style="stroke:#000000;stroke-width:0.5;" x="263.52" xlink:href="#m741efc42ff" y="70.47"/>
      </g>
     </g>
     <g id="text_2">
      <!-- −2 -->
      <defs>
       <path d="
M19.1875 8.29688
L53.6094 8.29688
L53.6094 0
L7.32812 0
L7.32812 8.29688
Q12.9375 14.1094 22.625 23.8906
Q32.3281 33.6875 34.8125 36.5312
Q39.5469 41.8438 41.4219 45.5312
Q43.3125 49.2188 43.3125 52.7812
Q43.3125 58.5938 39.2344 62.25
Q35.1562 65.9219 28.6094 65.9219
Q23.9688 65.9219 18.8125 64.3125
Q13.6719 62.7031 7.8125 59.4219
L7.8125 69.3906
Q13.7656 71.7812 18.9375 73
Q24.125 74.2188 28.4219 74.2188
Q39.75 74.2188 46.4844 68.5469
Q53.2188 62.8906 53.2188 53.4219
Q53.2188 48.9219 51.5312 44.8906
Q49.8594 40.875 45.4062 35.4062
Q44.1875 33.9844 37.6406 27.2188
Q31.1094 20.4531 19.1875 8.29688" id="BitstreamVeraSans-Roman-32"/>
      </defs>
      <g transform="translate(241.3278125 664.82453125)scale(0.35 -0.35)">
       <use xlink:href="#BitstreamVeraSans-Roman-2212"/>
       <use x="83.7890625" xlink:href="#BitstreamVeraSans-Roman-32"/>
      </g>
     </g>
    </g>
    <g id="xtick_3">
     <g id="line2d_8">
      <path clip-path="url(#p76e0fdb0db)" d="
M397.44 634.23
L397.44 70.47" style="fill:none;stroke:#000000;stroke-dasharray:1.000000,3.000000;stroke-dashoffset:0.0;stroke-width:0.5;"/>
     </g>
     <g id="line2d_9">
      <g>
       <use style="stroke:#000000;stroke-width:0.5;" x="397.44" xlink:href="#m93b0483c22" y="634.23"/>
      </g>
     </g>
     <g id="line2d_10">
      <g>
       <use style="stroke:#000000;stroke-width:0.5;" x="397.44" xlink:href="#m741efc42ff" y="70.47"/>
      </g>
     </g>
     <g id="text_3">
      <!-- −1 -->
      <defs>
       <path d="
M12.4062 8.29688
L28.5156 8.29688
L28.5156 63.9219
L10.9844 60.4062
L10.9844 69.3906
L28.4219 72.9062
L38.2812 72.9062
L38.2812 8.29688
L54.3906 8.29688
L54.3906 0
L12.4062 0
z
" id="BitstreamVeraSans-Roman-31"/>
      </defs>
      <g transform="translate(375.11109375 664.82453125)scale(0.35 -0.35)">
       <use xlink:href="#BitstreamVeraSans-Roman-2212"/>
       <use x="83.7890625" xlink:href="#BitstreamVeraSans-Roman-31"/>
      </g>
     </g>
    </g>
    <g id="xtick_4">
     <g id="line2d_11">
      <path clip-path="url(#p76e0fdb0db)" d="
M531.36 634.23
L531.36 70.47" style="fill:none;stroke:#000000;stroke-dasharray:1.000000,3.000000;stroke-dashoffset:0.0;stroke-width:0.5;"/>
     </g>
     <g id="line2d_12">
      <g>
       <use style="stroke:#000000;stroke-width:0.5;" x="531.36" xlink:href="#m93b0483c22" y="634.23"/>
      </g>
     </g>
     <g id="line2d_13">
      <g>
       <use style="stroke:#000000;stroke-width:0.5;" x="531.36" xlink:href="#m741efc42ff" y="70.47"/>
      </g>
     </g>
     <g id="text_4">
      <!-- 0 -->
      <defs>
       <path d="
M31.7812 66.4062
Q24.1719 66.4062 20.3281 58.9062
Q16.5 51.4219 16.5 36.375
Q16.5 21.3906 20.3281 13.8906
Q24.1719 6.39062 31.7812 6.39062
Q39.4531 6.39062 43.2812 13.8906
Q47.125 21.3906 47.125 36.375
Q47.125 51.4219 43.2812 58.9062
Q39.4531 66.4062 31.7812 66.4062
M31.7812 74.2188
Q44.0469 74.2188 50.5156 64.5156
Q56.9844 54.8281 56.9844 36.375
Q56.9844 17.9688 50.5156 8.26562
Q44.0469 -1.42188 31.7812 -1.42188
Q19.5312 -1.42188 13.0625 8.26562
Q6.59375 17.9688 6.59375 36.375
Q6.59375 54.8281 13.0625 64.5156
Q19.5312 74.2188 31.7812 74.2188" id="BitstreamVeraSans-Roman-30"/>
      </defs>
      <g transform="translate(522.541640625 664.82453125)scale(0.35 -0.35)">
       <use xlink:href="#BitstreamVeraSans-Roman-30"/>
      </g>
     </g>
    </g>
    <g id="xtick_5">
     <g id="line2d_14">
      <path clip-path="url(#p76e0fdb0db)" d="
M665.28 634.23
L665.28 70.47" style="fill:none;stroke:#000000;stroke-dasharray:1.000000,3.000000;stroke-dashoffset:0.0;stroke-width:0.5;"/>
     </g>
     <g id="line2d_15">
      <g>
       <use style="stroke:#000000;stroke-width:0.5;" x="665.28" xlink:href="#m93b0483c22" y="634.23"/>
      </g>
     </g>
     <g id="line2d_16">
      <g>
       <use style="stroke:#000000;stroke-width:0.5;" x="665.28" xlink:href="#m741efc42ff" y="70.47"/>
      </g>
     </g>
     <g id="text_5">
      <!-- 1 -->
      <g transform="translate(657.68390625 664.82453125)scale(0.35 -0.35)">
       <use xlink:href="#BitstreamVeraSans-Roman-31"/>
      </g>
     </g>
    </g>
    <g id="xtick_6">
     <g id="line2d_17">
      <path clip-path="url(#p76e0fdb0db)" d="
M799.2 634.23
L799.2 70.47" style="fill:none;stroke:#000000;stroke-dasharray:1.000000,3.000000;stroke-dashoffset:0.0;stroke-width:0.5;"/>
     </g>
     <g id="line2d_18">
      <g>
       <use style="stroke:#000000;stroke-width:0.5;" x="799.2" xlink:href="#m93b0483c22" y="634.23"/>
      </g>
     </g>
     <g id="line2d_19">
      <g>
       <use style="stroke:#000000;stroke-width:0.5;" x="799.2" xlink:href="#m741efc42ff" y="70.47"/>
      </g>
     </g>
     <g id="text_6">
      <!-- 2 -->
      <g transform="translate(791.10078125 664.82453125)scale(0.35 -0.35)">
       <use xlink:href="#BitstreamVeraSans-Roman-32"/>
      </g>
     </g>
    </g>
    <g id="xtick_7">
     <g id="line2d_20">
      <path clip-path="url(#p76e0fdb0db)" d="
M933.12 634.23
L933.12 70.47" style="fill:none;stroke:#000000;stroke-dasharray:1.000000,3.000000;stroke-dashoffset:0.0;stroke-width:0.5;"/>
     </g>
     <g id="line2d_21">
      <g>
       <use style="stroke:#000000;stroke-width:0.5;" x="933.12" xlink:href="#m93b0483c22" y="634.23"/>
      </g>
     </g>
     <g id="line2d_22">
      <g>
       <use style="stroke:#000000;stroke-width:0.5;" x="933.12" xlink:href="#m741efc42ff" y="70.47"/>
      </g>
     </g>
     <g id="text_7">
      <!-- 3 -->
      <g transform="translate(924.722734375 664.82453125)scale(0.35 -0.35)">
       <use xlink:href="#BitstreamVeraSans-Roman-33"/>
      </g>
     </g>
    </g>
    <g id="text_8">
     <!-- Xi -->
     <defs>
      <path d="
M6.29688 72.9062
L16.8906 72.9062
L35.0156 45.7969
L53.2188 72.9062
L63.8125 72.9062
L40.375 37.8906
L65.375 0
L54.7812 0
L34.2812 31
L13.625 0
L2.98438 0
L29 38.9219
z
" id="BitstreamVeraSans-Roman-58"/>
      <path d="
M9.42188 54.6875
L18.4062 54.6875
L18.4062 0
L9.42188 0
z

M9.42188 75.9844
L18.4062 75.9844
L18.4062 64.5938
L9.42188 64.5938
z
" id="BitstreamVeraSans-Roman-69"/>
     </defs>
     <g transform="translate(516.673671875 703.69796875)scale(0.35 -0.35)">
      <use xlink:href="#BitstreamVeraSans-Roman-58"/>
      <use x="68.505859375" xlink:href="#BitstreamVeraSans-Roman-69"/>
     </g>
    </g>
   </g>
   <g id="matplotlib.axis_2">
    <g id="ytick_1">
     <g id="line2d_23">
      <path clip-path="url(#p76e0fdb0db)" d="
M129.6 634.23
L933.12 634.23" style="fill:none;stroke:#000000;stroke-dasharray:1.000000,3.000000;stroke-dashoffset:0.0;stroke-width:0.5;"/>
     </g>
     <g id="line2d_24">
      <defs>
       <path d="
M0 0
L4 0" id="m728421d6d4" style="stroke:#000000;stroke-width:0.5;"/>
      </defs>
      <g>
       <use style="stroke:#000000;stroke-width:0.5;" x="129.6" xlink:href="#m728421d6d4" y="634.23"/>
      </g>
     </g>
     <g id="line2d_25">
      <defs>
       <path d="
M0 0
L-4 0" id="mcb0005524f" style="stroke:#000000;stroke-width:0.5;"/>
      </defs>
      <g>
       <use style="stroke:#000000;stroke-width:0.5;" x="933.12" xlink:href="#mcb0005524f" y="634.23"/>
      </g>
     </g>
     <g id="text_9">
      <!-- 0.3 -->
      <defs>
       <path d="
M10.6875 12.4062
L21 12.4062
L21 0
L10.6875 0
z
" id="BitstreamVeraSans-Roman-2e"/>
      </defs>
      <g transform="translate(75.05234375 643.8878125)scale(0.35 -0.35)">
       <use xlink:href="#BitstreamVeraSans-Roman-30"/>
       <use x="63.623046875" xlink:href="#BitstreamVeraSans-Roman-2e"/>
       <use x="95.41015625" xlink:href="#BitstreamVeraSans-Roman-33"/>
      </g>
     </g>
    </g>
    <g id="ytick_2">
     <g id="line2d_26">
      <path clip-path="url(#p76e0fdb0db)" d="
M129.6 553.693
L933.12 553.693" style="fill:none;stroke:#000000;stroke-dasharray:1.000000,3.000000;stroke-dashoffset:0.0;stroke-width:0.5;"/>
     </g>
     <g id="line2d_27">
      <g>
       <use style="stroke:#000000;stroke-width:0.5;" x="129.6" xlink:href="#m728421d6d4" y="553.692857143"/>
      </g>
     </g>
     <g id="line2d_28">
      <g>
       <use style="stroke:#000000;stroke-width:0.5;" x="933.12" xlink:href="#mcb0005524f" y="553.692857143"/>
      </g>
     </g>
     <g id="text_10">
      <!-- 0.4 -->
      <defs>
       <path d="
M37.7969 64.3125
L12.8906 25.3906
L37.7969 25.3906
z

M35.2031 72.9062
L47.6094 72.9062
L47.6094 25.3906
L58.0156 25.3906
L58.0156 17.1875
L47.6094 17.1875
L47.6094 0
L37.7969 0
L37.7969 17.1875
L4.89062 17.1875
L4.89062 26.7031
z
" id="BitstreamVeraSans-Roman-34"/>
      </defs>
      <g transform="translate(74.21015625 563.350669643)scale(0.35 -0.35)">
       <use xlink:href="#BitstreamVeraSans-Roman-30"/>
       <use x="63.623046875" xlink:href="#BitstreamVeraSans-Roman-2e"/>
       <use x="95.41015625" xlink:href="#BitstreamVeraSans-Roman-34"/>
      </g>
     </g>
    </g>
    <g id="ytick_3">
     <g id="line2d_29">
      <path clip-path="url(#p76e0fdb0db)" d="
M129.6 473.156
L933.12 473.156" style="fill:none;stroke:#000000;stroke-dasharray:1.000000,3.000000;stroke-dashoffset:0.0;stroke-width:0.5;"/>
     </g>
     <g id="line2d_30">
      <g>
       <use style="stroke:#000000;stroke-width:0.5;" x="129.6" xlink:href="#m728421d6d4" y="473.155714286"/>
      </g>
     </g>
     <g id="line2d_31">
      <g>
       <use style="stroke:#000000;stroke-width:0.5;" x="933.12" xlink:href="#mcb0005524f" y="473.155714286"/>
      </g>
     </g>
     <g id="text_11">
      <!-- 0.5 -->
      <defs>
       <path d="
M10.7969 72.9062
L49.5156 72.9062
L49.5156 64.5938
L19.8281 64.5938
L19.8281 46.7344
Q21.9688 47.4688 24.1094 47.8281
Q26.2656 48.1875 28.4219 48.1875
Q40.625 48.1875 47.75 41.5
Q54.8906 34.8125 54.8906 23.3906
Q54.8906 11.625 47.5625 5.09375
Q40.2344 -1.42188 26.9062 -1.42188
Q22.3125 -1.42188 17.5469 -0.640625
Q12.7969 0.140625 7.71875 1.70312
L7.71875 11.625
Q12.1094 9.23438 16.7969 8.0625
Q21.4844 6.89062 26.7031 6.89062
Q35.1562 6.89062 40.0781 11.3281
Q45.0156 15.7656 45.0156 23.3906
Q45.0156 31 40.0781 35.4375
Q35.1562 39.8906 26.7031 39.8906
Q22.75 39.8906 18.8125 39.0156
Q14.8906 38.1406 10.7969 36.2812
z
" id="BitstreamVeraSans-Roman-35"/>
      </defs>
      <g transform="translate(75.30390625 482.813526786)scale(0.35 -0.35)">
       <use xlink:href="#BitstreamVeraSans-Roman-30"/>
       <use x="63.623046875" xlink:href="#BitstreamVeraSans-Roman-2e"/>
       <use x="95.41015625" xlink:href="#BitstreamVeraSans-Roman-35"/>
      </g>
     </g>
    </g>
    <g id="ytick_4">
     <g id="line2d_32">
      <path clip-path="url(#p76e0fdb0db)" d="
M129.6 392.619
L933.12 392.619" style="fill:none;stroke:#000000;stroke-dasharray:1.000000,3.000000;stroke-dashoffset:0.0;stroke-width:0.5;"/>
     </g>
     <g id="line2d_33">
      <g>
       <use style="stroke:#000000;stroke-width:0.5;" x="129.6" xlink:href="#m728421d6d4" y="392.618571429"/>
      </g>
     </g>
     <g id="line2d_34">
      <g>
       <use style="stroke:#000000;stroke-width:0.5;" x="933.12" xlink:href="#mcb0005524f" y="392.618571429"/>
      </g>
     </g>
     <g id="text_12">
      <!-- 0.6 -->
      <defs>
       <path d="
M33.0156 40.375
Q26.375 40.375 22.4844 35.8281
Q18.6094 31.2969 18.6094 23.3906
Q18.6094 15.5312 22.4844 10.9531
Q26.375 6.39062 33.0156 6.39062
Q39.6562 6.39062 43.5312 10.9531
Q47.4062 15.5312 47.4062 23.3906
Q47.4062 31.2969 43.5312 35.8281
Q39.6562 40.375 33.0156 40.375
M52.5938 71.2969
L52.5938 62.3125
Q48.875 64.0625 45.0938 64.9844
Q41.3125 65.9219 37.5938 65.9219
Q27.8281 65.9219 22.6719 59.3281
Q17.5312 52.7344 16.7969 39.4062
Q19.6719 43.6562 24.0156 45.9219
Q28.375 48.1875 33.5938 48.1875
Q44.5781 48.1875 50.9531 41.5156
Q57.3281 34.8594 57.3281 23.3906
Q57.3281 12.1562 50.6875 5.35938
Q44.0469 -1.42188 33.0156 -1.42188
Q20.3594 -1.42188 13.6719 8.26562
Q6.98438 17.9688 6.98438 36.375
Q6.98438 53.6562 15.1875 63.9375
Q23.3906 74.2188 37.2031 74.2188
Q40.9219 74.2188 44.7031 73.4844
Q48.4844 72.75 52.5938 71.2969" id="BitstreamVeraSans-Roman-36"/>
      </defs>
      <g transform="translate(74.45078125 402.276383929)scale(0.35 -0.35)">
       <use xlink:href="#BitstreamVeraSans-Roman-30"/>
       <use x="63.623046875" xlink:href="#BitstreamVeraSans-Roman-2e"/>
       <use x="95.41015625" xlink:href="#BitstreamVeraSans-Roman-36"/>
      </g>
     </g>
    </g>
    <g id="ytick_5">
     <g id="line2d_35">
      <path clip-path="url(#p76e0fdb0db)" d="
M129.6 312.081
L933.12 312.081" style="fill:none;stroke:#000000;stroke-dasharray:1.000000,3.000000;stroke-dashoffset:0.0;stroke-width:0.5;"/>
     </g>
     <g id="line2d_36">
      <g>
       <use style="stroke:#000000;stroke-width:0.5;" x="129.6" xlink:href="#m728421d6d4" y="312.081428571"/>
      </g>
     </g>
     <g id="line2d_37">
      <g>
       <use style="stroke:#000000;stroke-width:0.5;" x="933.12" xlink:href="#mcb0005524f" y="312.081428571"/>
      </g>
     </g>
     <g id="text_13">
      <!-- 0.7 -->
      <defs>
       <path d="
M8.20312 72.9062
L55.0781 72.9062
L55.0781 68.7031
L28.6094 0
L18.3125 0
L43.2188 64.5938
L8.20312 64.5938
z
" id="BitstreamVeraSans-Roman-37"/>
      </defs>
      <g transform="translate(75.23828125 321.739241071)scale(0.35 -0.35)">
       <use xlink:href="#BitstreamVeraSans-Roman-30"/>
       <use x="63.623046875" xlink:href="#BitstreamVeraSans-Roman-2e"/>
       <use x="95.41015625" xlink:href="#BitstreamVeraSans-Roman-37"/>
      </g>
     </g>
    </g>
    <g id="ytick_6">
     <g id="line2d_38">
      <path clip-path="url(#p76e0fdb0db)" d="
M129.6 231.544
L933.12 231.544" style="fill:none;stroke:#000000;stroke-dasharray:1.000000,3.000000;stroke-dashoffset:0.0;stroke-width:0.5;"/>
     </g>
     <g id="line2d_39">
      <g>
       <use style="stroke:#000000;stroke-width:0.5;" x="129.6" xlink:href="#m728421d6d4" y="231.544285714"/>
      </g>
     </g>
     <g id="line2d_40">
      <g>
       <use style="stroke:#000000;stroke-width:0.5;" x="933.12" xlink:href="#mcb0005524f" y="231.544285714"/>
      </g>
     </g>
     <g id="text_14">
      <!-- 0.8 -->
      <defs>
       <path d="
M31.7812 34.625
Q24.75 34.625 20.7188 30.8594
Q16.7031 27.0938 16.7031 20.5156
Q16.7031 13.9219 20.7188 10.1562
Q24.75 6.39062 31.7812 6.39062
Q38.8125 6.39062 42.8594 10.1719
Q46.9219 13.9688 46.9219 20.5156
Q46.9219 27.0938 42.8906 30.8594
Q38.875 34.625 31.7812 34.625
M21.9219 38.8125
Q15.5781 40.375 12.0312 44.7188
Q8.5 49.0781 8.5 55.3281
Q8.5 64.0625 14.7188 69.1406
Q20.9531 74.2188 31.7812 74.2188
Q42.6719 74.2188 48.875 69.1406
Q55.0781 64.0625 55.0781 55.3281
Q55.0781 49.0781 51.5312 44.7188
Q48 40.375 41.7031 38.8125
Q48.8281 37.1562 52.7969 32.3125
Q56.7812 27.4844 56.7812 20.5156
Q56.7812 9.90625 50.3125 4.23438
Q43.8438 -1.42188 31.7812 -1.42188
Q19.7344 -1.42188 13.25 4.23438
Q6.78125 9.90625 6.78125 20.5156
Q6.78125 27.4844 10.7812 32.3125
Q14.7969 37.1562 21.9219 38.8125
M18.3125 54.3906
Q18.3125 48.7344 21.8438 45.5625
Q25.3906 42.3906 31.7812 42.3906
Q38.1406 42.3906 41.7188 45.5625
Q45.3125 48.7344 45.3125 54.3906
Q45.3125 60.0625 41.7188 63.2344
Q38.1406 66.4062 31.7812 66.4062
Q25.3906 66.4062 21.8438 63.2344
Q18.3125 60.0625 18.3125 54.3906" id="BitstreamVeraSans-Roman-38"/>
      </defs>
      <g transform="translate(74.6421875 241.202098214)scale(0.35 -0.35)">
       <use xlink:href="#BitstreamVeraSans-Roman-30"/>
       <use x="63.623046875" xlink:href="#BitstreamVeraSans-Roman-2e"/>
       <use x="95.41015625" xlink:href="#BitstreamVeraSans-Roman-38"/>
      </g>
     </g>
    </g>
    <g id="ytick_7">
     <g id="line2d_41">
      <path clip-path="url(#p76e0fdb0db)" d="
M129.6 151.007
L933.12 151.007" style="fill:none;stroke:#000000;stroke-dasharray:1.000000,3.000000;stroke-dashoffset:0.0;stroke-width:0.5;"/>
     </g>
     <g id="line2d_42">
      <g>
       <use style="stroke:#000000;stroke-width:0.5;" x="129.6" xlink:href="#m728421d6d4" y="151.007142857"/>
      </g>
     </g>
     <g id="line2d_43">
      <g>
       <use style="stroke:#000000;stroke-width:0.5;" x="933.12" xlink:href="#mcb0005524f" y="151.007142857"/>
      </g>
     </g>
     <g id="text_15">
      <!-- 0.9 -->
      <defs>
       <path d="
M10.9844 1.51562
L10.9844 10.5
Q14.7031 8.73438 18.5 7.8125
Q22.3125 6.89062 25.9844 6.89062
Q35.75 6.89062 40.8906 13.4531
Q46.0469 20.0156 46.7812 33.4062
Q43.9531 29.2031 39.5938 26.9531
Q35.25 24.7031 29.9844 24.7031
Q19.0469 24.7031 12.6719 31.3125
Q6.29688 37.9375 6.29688 49.4219
Q6.29688 60.6406 12.9375 67.4219
Q19.5781 74.2188 30.6094 74.2188
Q43.2656 74.2188 49.9219 64.5156
Q56.5938 54.8281 56.5938 36.375
Q56.5938 19.1406 48.4062 8.85938
Q40.2344 -1.42188 26.4219 -1.42188
Q22.7031 -1.42188 18.8906 -0.6875
Q15.0938 0.046875 10.9844 1.51562
M30.6094 32.4219
Q37.25 32.4219 41.125 36.9531
Q45.0156 41.5 45.0156 49.4219
Q45.0156 57.2812 41.125 61.8438
Q37.25 66.4062 30.6094 66.4062
Q23.9688 66.4062 20.0938 61.8438
Q16.2188 57.2812 16.2188 49.4219
Q16.2188 41.5 20.0938 36.9531
Q23.9688 32.4219 30.6094 32.4219" id="BitstreamVeraSans-Roman-39"/>
      </defs>
      <g transform="translate(74.7078125 160.664955357)scale(0.35 -0.35)">
       <use xlink:href="#BitstreamVeraSans-Roman-30"/>
       <use x="63.623046875" xlink:href="#BitstreamVeraSans-Roman-2e"/>
       <use x="95.41015625" xlink:href="#BitstreamVeraSans-Roman-39"/>
      </g>
     </g>
    </g>
    <g id="ytick_8">
     <g id="line2d_44">
      <path clip-path="url(#p76e0fdb0db)" d="
M129.6 70.47
L933.12 70.47" style="fill:none;stroke:#000000;stroke-dasharray:1.000000,3.000000;stroke-dashoffset:0.0;stroke-width:0.5;"/>
     </g>
     <g id="line2d_45">
      <g>
       <use style="stroke:#000000;stroke-width:0.5;" x="129.6" xlink:href="#m728421d6d4" y="70.47"/>
      </g>
     </g>
     <g id="line2d_46">
      <g>
       <use style="stroke:#000000;stroke-width:0.5;" x="933.12" xlink:href="#mcb0005524f" y="70.47"/>
      </g>
     </g>
     <g id="text_16">
      <!-- 1.0 -->
      <g transform="translate(76.1078125 80.1278125)scale(0.35 -0.35)">
       <use xlink:href="#BitstreamVeraSans-Roman-31"/>
       <use x="63.623046875" xlink:href="#BitstreamVeraSans-Roman-2e"/>
       <use x="95.41015625" xlink:href="#BitstreamVeraSans-Roman-30"/>
      </g>
     </g>
    </g>
    <g id="text_17">
     <!-- Power -->
     <defs>
      <path d="
M19.6719 64.7969
L19.6719 37.4062
L32.0781 37.4062
Q38.9688 37.4062 42.7188 40.9688
Q46.4844 44.5312 46.4844 51.125
Q46.4844 57.6719 42.7188 61.2344
Q38.9688 64.7969 32.0781 64.7969
z

M9.8125 72.9062
L32.0781 72.9062
Q44.3438 72.9062 50.6094 67.3594
Q56.8906 61.8125 56.8906 51.125
Q56.8906 40.3281 50.6094 34.8125
Q44.3438 29.2969 32.0781 29.2969
L19.6719 29.2969
L19.6719 0
L9.8125 0
z
" id="BitstreamVeraSans-Roman-50"/>
      <path d="
M4.20312 54.6875
L13.1875 54.6875
L24.4219 12.0156
L35.5938 54.6875
L46.1875 54.6875
L57.4219 12.0156
L68.6094 54.6875
L77.5938 54.6875
L63.2812 0
L52.6875 0
L40.9219 44.8281
L29.1094 0
L18.5 0
z
" id="BitstreamVeraSans-Roman-77"/>
      <path d="
M56.2031 29.5938
L56.2031 25.2031
L14.8906 25.2031
Q15.4844 15.9219 20.4844 11.0625
Q25.4844 6.20312 34.4219 6.20312
Q39.5938 6.20312 44.4531 7.46875
Q49.3125 8.73438 54.1094 11.2812
L54.1094 2.78125
Q49.2656 0.734375 44.1875 -0.34375
Q39.1094 -1.42188 33.8906 -1.42188
Q20.7969 -1.42188 13.1562 6.1875
Q5.51562 13.8125 5.51562 26.8125
Q5.51562 40.2344 12.7656 48.1094
Q20.0156 56 32.3281 56
Q43.3594 56 49.7812 48.8906
Q56.2031 41.7969 56.2031 29.5938
M47.2188 32.2344
Q47.125 39.5938 43.0938 43.9844
Q39.0625 48.3906 32.4219 48.3906
Q24.9062 48.3906 20.3906 44.1406
Q15.875 39.8906 15.1875 32.1719
z
" id="BitstreamVeraSans-Roman-65"/>
      <path d="
M30.6094 48.3906
Q23.3906 48.3906 19.1875 42.75
Q14.9844 37.1094 14.9844 27.2969
Q14.9844 17.4844 19.1562 11.8438
Q23.3438 6.20312 30.6094 6.20312
Q37.7969 6.20312 41.9844 11.8594
Q46.1875 17.5312 46.1875 27.2969
Q46.1875 37.0156 41.9844 42.7031
Q37.7969 48.3906 30.6094 48.3906
M30.6094 56
Q42.3281 56 49.0156 48.375
Q55.7188 40.7656 55.7188 27.2969
Q55.7188 13.875 49.0156 6.21875
Q42.3281 -1.42188 30.6094 -1.42188
Q18.8438 -1.42188 12.1719 6.21875
Q5.51562 13.875 5.51562 27.2969
Q5.51562 40.7656 12.1719 48.375
Q18.8438 56 30.6094 56" id="BitstreamVeraSans-Roman-6f"/>
      <path d="
M41.1094 46.2969
Q39.5938 47.1719 37.8125 47.5781
Q36.0312 48 33.8906 48
Q26.2656 48 22.1875 43.0469
Q18.1094 38.0938 18.1094 28.8125
L18.1094 0
L9.07812 0
L9.07812 54.6875
L18.1094 54.6875
L18.1094 46.1875
Q20.9531 51.1719 25.4844 53.5781
Q30.0312 56 36.5312 56
Q37.4531 56 38.5781 55.875
Q39.7031 55.7656 41.0625 55.5156
z
" id="BitstreamVeraSans-Roman-72"/>
     </defs>
     <g transform="translate(61.93125 403.53203125)rotate(-90.0)scale(0.35 -0.35)">
      <use xlink:href="#BitstreamVeraSans-Roman-50"/>
      <use x="56.677734375" xlink:href="#BitstreamVeraSans-Roman-6f"/>
      <use x="117.859375" xlink:href="#BitstreamVeraSans-Roman-77"/>
      <use x="199.646484375" xlink:href="#BitstreamVeraSans-Roman-65"/>
      <use x="261.169921875" xlink:href="#BitstreamVeraSans-Roman-72"/>
     </g>
    </g>
   </g>
   <g id="patch_3">
    <path d="
M129.6 70.47
L933.12 70.47" style="fill:none;stroke:#000000;"/>
   </g>
   <g id="patch_4">
    <path d="
M933.12 634.23
L933.12 70.47" style="fill:none;stroke:#000000;"/>
   </g>
   <g id="patch_5">
    <path d="
M129.6 634.23
L933.12 634.23" style="fill:none;stroke:#000000;"/>
   </g>
   <g id="patch_6">
    <path d="
M129.6 634.23
L129.6 70.47" style="fill:none;stroke:#000000;"/>
   </g>
  </g>
 </g>
 <defs>
  <clipPath id="p76e0fdb0db">
   <rect height="563.76" width="803.52" x="129.6" y="70.47"/>
  </clipPath>
 </defs>
</svg>
