<?xml version="1.0" encoding="UTF-8" standalone="no"?>
<!-- Created with Inkscape (http://www.inkscape.org/) -->

<svg
   xmlns:ns0="http://www.iki.fi/pav/software/textext/"
   xmlns:dc="http://purl.org/dc/elements/1.1/"
   xmlns:cc="http://creativecommons.org/ns#"
   xmlns:rdf="http://www.w3.org/1999/02/22-rdf-syntax-ns#"
   xmlns:svg="http://www.w3.org/2000/svg"
   xmlns="http://www.w3.org/2000/svg"
   xmlns:sodipodi="http://sodipodi.sourceforge.net/DTD/sodipodi-0.dtd"
   xmlns:inkscape="http://www.inkscape.org/namespaces/inkscape"
   width="744.09448819"
   height="1052.3622047"
   id="svg2"
   version="1.1"
   inkscape:version="0.48.4 r9939"
   sodipodi:docname="S21Circle.svg">
  <sodipodi:namedview
     id="base"
     pagecolor="#ffffff"
     bordercolor="#666666"
     borderopacity="1.0"
     inkscape:pageopacity="0.0"
     inkscape:pageshadow="2"
     inkscape:zoom="1.3417434"
     inkscape:cx="243.12318"
     inkscape:cy="718.90444"
     inkscape:document-units="px"
     inkscape:current-layer="layer1"
     showgrid="false"
     inkscape:window-width="1215"
     inkscape:window-height="1000"
     inkscape:window-x="65"
     inkscape:window-y="24"
     inkscape:window-maximized="1" />
  <defs
     id="defs4">
    <marker
       style="overflow:visible"
       id="Arrow1Mstart"
       refX="0.0"
       refY="0.0"
       orient="auto"
       inkscape:stockid="Arrow1Mstart">
      <path
         transform="scale(0.4) translate(10,0)"
         style="fill-rule:evenodd;stroke:#000000;stroke-width:1.0pt;marker-start:none"
         d="M 0.0,0.0 L 5.0,-5.0 L -12.5,0.0 L 5.0,5.0 L 0.0,0.0 z "
         id="path3811" />
    </marker>
    <marker
       style="overflow:visible;"
       id="Arrow1Mend"
       refX="0.0"
       refY="0.0"
       orient="auto"
       inkscape:stockid="Arrow1Mend">
      <path
         transform="scale(0.4) rotate(180) translate(10,0)"
         style="fill-rule:evenodd;stroke:#000000;stroke-width:1.0pt;marker-start:none;"
         d="M 0.0,0.0 L 5.0,-5.0 L -12.5,0.0 L 5.0,5.0 L 0.0,0.0 z "
         id="path3814" />
    </marker>
    <marker
       style="overflow:visible;"
       id="Arrow1Lend"
       refX="0.0"
       refY="0.0"
       orient="auto"
       inkscape:stockid="Arrow1Lend">
      <path
         transform="scale(0.8) rotate(180) translate(12.5,0)"
         style="fill-rule:evenodd;stroke:#000000;stroke-width:1.0pt;marker-start:none;"
         d="M 0.0,0.0 L 5.0,-5.0 L -12.5,0.0 L 5.0,5.0 L 0.0,0.0 z "
         id="path3808" />
    </marker>
  </defs>
  <metadata
     id="metadata7">
    <rdf:RDF>
      <cc:Work
         rdf:about="">
        <dc:format>image/svg+xml</dc:format>
        <dc:type
           rdf:resource="http://purl.org/dc/dcmitype/StillImage" />
        <dc:title />
      </cc:Work>
    </rdf:RDF>
  </metadata>
  <g
     id="layer1"
     inkscape:groupmode="layer"
     inkscape:label="Layer 1">
    <path
       transform="matrix(0.93768613,0,0,1.0194976,-14.97472,-27.023407)"
       d="m 580.00002,453.79074 a 231.42857,212.85715 0 1 1 -462.85715,0 231.42857,212.85715 0 1 1 462.85715,0 z"
       sodipodi:ry="212.85715"
       sodipodi:rx="231.42857"
       sodipodi:cy="453.79074"
       sodipodi:cx="348.57144"
       id="path2985"
       style="fill:none;stroke:#000000;stroke-width:8.18216319;stroke-miterlimit:4;stroke-opacity:1;stroke-dasharray:none;stroke-dashoffset:0"
       sodipodi:type="arc" />
    <path
       inkscape:connector-curvature="0"
       id="path3757"
       d="m 47.710741,435.61519 c 528.330289,0 528.330289,0 528.330289,0"
       style="fill:none;stroke:#000000;stroke-width:4;stroke-linecap:butt;stroke-linejoin:miter;stroke-miterlimit:4;stroke-opacity:1;stroke-dasharray:none;marker-end:url(#Arrow1Mend)" />
    <path
       inkscape:connector-curvature="0"
       id="path3757-1"
       d="m 79.586307,699.78034 c 0,-528.3303 0,-528.3303 0,-528.3303"
       style="fill:none;stroke:#000000;stroke-width:4;stroke-linecap:butt;stroke-linejoin:miter;stroke-miterlimit:4;stroke-opacity:1;stroke-dasharray:none;marker-end:url(#Arrow1Mend)" />
    <path
       inkscape:connector-curvature="0"
       id="path3006"
       d="m 311.87589,656.05369 0,-436.36095"
       style="fill:none;stroke:#ff0000;stroke-width:4;stroke-linecap:butt;stroke-linejoin:miter;stroke-opacity:1;stroke-miterlimit:4;stroke-dasharray:none" />
    <path
       inkscape:connector-curvature="0"
       id="path3889"
       d="M 95.398272,435.25461 311.53498,219.1179"
       style="fill:none;stroke:#ff0000;stroke-width:4;stroke-linecap:butt;stroke-linejoin:miter;stroke-opacity:1;stroke-miterlimit:4;stroke-dasharray:none" />
    <path
       sodipodi:open="true"
       sodipodi:end="3.1590459"
       sodipodi:start="0"
       transform="matrix(0,-0.84391751,-0.88831211,0,707.55949,729.57435)"
       d="m 580.00002,453.79074 a 231.42857,212.85715 0 1 1 -462.8219,-3.71486"
       sodipodi:ry="212.85715"
       sodipodi:rx="231.42857"
       sodipodi:cy="453.79074"
       sodipodi:cx="348.57144"
       id="path2985-2-0"
       style="fill:none;stroke:#000000;stroke-width:4.61984301;stroke-miterlimit:4;stroke-opacity:1;stroke-dasharray:27.71905699, 4.61984283;stroke-dashoffset:0;marker-start:url(#Arrow1Mstart);marker-end:url(#Arrow1Mend)"
       sodipodi:type="arc" />
    <g
       id="g3206"
       transform="matrix(3.7974985,0,0,-3.7974985,-648.24607,3044.2881)"
       xml:space="preserve"
       stroke-miterlimit="10.433"
       font-style="normal"
       font-variant="normal"
       font-weight="normal"
       font-stretch="normal"
       font-size-adjust="none"
       letter-spacing="normal"
       word-spacing="normal"
       ns0:text="$\\left| S_{21} \\right|$"
       ns0:preamble="/home/daniel/.config/inkscape/extensions/tex_preamble.ini"
       style="font-style:normal;font-variant:normal;font-weight:normal;font-stretch:normal;letter-spacing:normal;word-spacing:normal;text-anchor:start;fill:none;stroke:#000000;stroke-width:0.26333126;stroke-linecap:butt;stroke-linejoin:miter;stroke-miterlimit:10.43299961;stroke-opacity:1;stroke-dasharray:none;stroke-dashoffset:0"><path
         style="fill:#000000;stroke-width:0"
         inkscape:connector-curvature="0"
         d="m 225.01,714.22 0,0.03 0,0.03 0,0.04 0,0.01 0,0.02 0,0.01 0,0.02 0,0.02 -0.01,0.01 0,0.01 0,0.02 -0.01,0.01 0,0.01 -0.01,0.02 0,0.01 -0.01,0.01 0,0.01 -0.01,0.01 -0.01,0.01 -0.01,0.01 -0.01,0 -0.01,0.01 -0.01,0 0,0.01 -0.01,0 -0.01,0 0,0 -0.01,0.01 -0.01,0 0,0 -0.01,0 -0.01,0 -0.01,0 -0.01,0 -0.01,0 0,0.01 c -0.2,0 -0.2,-0.18 -0.2,-0.36 V 705 c 0,-0.18 0,-0.36 0.2,-0.36 0.19,0 0.19,0.18 0.19,0.36 z"
         id="path3208" /><path
         style="fill:#000000;stroke-width:0"
         inkscape:connector-curvature="0"
         d="m 232.62,714.03 0,0 0,0.01 0,0 0,0 0,0.01 -0.01,0 0,0 0,0.01 0,0 0,0.01 0,0 0,0 -0.01,0.01 0,0 0,0.01 0,0 -0.01,0 0,0.01 0,0 -0.01,0 0,0.01 -0.01,0 0,0 -0.01,0.01 0,0 -0.01,0 0,0 0,0 -0.01,0 0,0 0,0 -0.01,0.01 0,0 0,0 -0.01,0 0,0 0,0 -0.01,0 0,0 c -0.05,0 -0.06,-0.01 -0.18,-0.15 l -0.48,-0.57 c -0.26,0.47 -0.78,0.72 -1.42,0.72 -1.27,0 -2.46,-1.14 -2.46,-2.35 0,-0.8 0.53,-1.26 1.04,-1.41 l 1.06,-0.28 c 0.37,-0.08 0.92,-0.23 0.92,-1.05 0,-0.89 -0.82,-1.83 -1.79,-1.83 -0.64,0 -1.75,0.22 -1.75,1.45 0,0.24 0.05,0.48 0.06,0.54 0.01,0.04 0.02,0.05 0.02,0.07 0,0.1 -0.07,0.11 -0.12,0.11 -0.05,0 -0.07,-0.01 -0.1,-0.04 -0.04,-0.04 -0.59,-2.3 -0.59,-2.33 0,-0.06 0.05,-0.1 0.11,-0.1 0.05,0 0.06,0.01 0.18,0.14 l 0.48,0.57 c 0.43,-0.57 1.11,-0.71 1.69,-0.71 1.35,0 2.52,1.32 2.52,2.55 0,0.69 -0.34,1.02 -0.49,1.16 -0.22,0.23 -0.37,0.27 -1.26,0.5 -0.22,0.06 -0.58,0.16 -0.67,0.18 -0.26,0.09 -0.6,0.37 -0.6,0.9 0,0.81 0.79,1.65 1.74,1.65 0.82,0 1.43,-0.43 1.43,-1.54 0,-0.32 -0.04,-0.5 -0.04,-0.56 0,-0.01 0,-0.09 0.12,-0.09 0.1,0 0.11,0.02 0.15,0.19 z"
         id="path3210" /><path
         style="fill:#000000;stroke-width:0"
         inkscape:connector-curvature="0"
         d="m 235.83,706.9 h -0.24 c -0.02,-0.16 -0.09,-0.57 -0.18,-0.64 -0.06,-0.04 -0.59,-0.04 -0.69,-0.04 h -1.28 c 0.73,0.65 0.97,0.84 1.39,1.17 0.52,0.41 1,0.84 1,1.5 0,0.84 -0.74,1.36 -1.63,1.36 -0.87,0 -1.45,-0.61 -1.45,-1.25 0,-0.35 0.3,-0.39 0.37,-0.39 0.16,0 0.37,0.12 0.37,0.37 0,0.13 -0.05,0.37 -0.42,0.37 0.22,0.49 0.69,0.65 1.02,0.65 0.7,0 1.06,-0.54 1.06,-1.11 0,-0.6 -0.43,-1.08 -0.65,-1.33 l -1.68,-1.66 c -0.07,-0.06 -0.07,-0.07 -0.07,-0.27 h 2.87 z"
         id="path3212" /><path
         style="fill:#000000;stroke-width:0"
         inkscape:connector-curvature="0"
         d="m 238.61,710.05 0,0.01 0,0.01 0,0.01 0,0.01 0,0 0,0.01 0,0.01 0,0.01 0,0 0,0.01 0,0.01 0,0 0,0.01 0,0 0,0.01 0,0 0,0.01 0,0 -0.01,0.01 0,0.01 0,0.01 0,0 -0.01,0.01 0,0.01 -0.01,0 0,0.01 -0.01,0 -0.01,0 0,0.01 -0.01,0 -0.01,0 -0.01,0 0,0 -0.01,0 -0.01,0 0,0.01 -0.01,0 0,0 -0.01,0 -0.01,0 0,0 -0.01,0 -0.01,0 0,0 -0.01,0 -0.01,0 -0.01,0 -0.01,0 -0.01,0 -0.01,0 c -0.44,-0.44 -1.08,-0.45 -1.36,-0.45 v -0.25 c 0.17,0 0.63,0 1.01,0.2 v -3.55 c 0,-0.23 0,-0.32 -0.7,-0.32 h -0.26 v -0.25 c 0.12,0.01 0.98,0.03 1.24,0.03 0.21,0 1.09,-0.02 1.24,-0.03 v 0.25 h -0.26 c -0.7,0 -0.7,0.09 -0.7,0.32 z"
         id="path3214" /><path
         style="fill:#000000;stroke-width:0"
         inkscape:connector-curvature="0"
         d="m 242.33,714.22 0,0.03 0,0.03 0,0.04 0,0.01 0,0.02 0,0.01 -0.01,0.02 0,0.02 0,0.01 0,0.01 -0.01,0.02 0,0.01 0,0.01 -0.01,0.02 0,0.01 -0.01,0.01 -0.01,0.01 -0.01,0.01 0,0.01 -0.01,0.01 -0.01,0 -0.01,0.01 -0.01,0 -0.01,0.01 0,0 -0.01,0 -0.01,0 0,0.01 -0.01,0 -0.01,0 0,0 -0.01,0 -0.01,0 -0.01,0 -0.01,0 -0.01,0.01 c -0.2,0 -0.2,-0.18 -0.2,-0.36 V 705 c 0,-0.18 0,-0.36 0.2,-0.36 0.2,0 0.2,0.18 0.2,0.36 z"
         id="path3216" /></g>    <g
       style="font-style:normal;font-variant:normal;font-weight:normal;font-stretch:normal;letter-spacing:normal;word-spacing:normal;text-anchor:start;fill:none;stroke:#000000;stroke-width:0.26333126;stroke-linecap:butt;stroke-linejoin:miter;stroke-miterlimit:10.43299961;stroke-opacity:1;stroke-dasharray:none;stroke-dashoffset:0"
       ns0:preamble="/home/daniel/.config/inkscape/extensions/tex_preamble.ini"
       ns0:text="$\\left| \\Delta S_{21} \\right|$"
       word-spacing="normal"
       letter-spacing="normal"
       font-size-adjust="none"
       font-stretch="normal"
       font-weight="normal"
       font-variant="normal"
       font-style="normal"
       stroke-miterlimit="10.433"
       xml:space="preserve"
       transform="matrix(3.7974985,0,0,-3.7974985,-532.60394,3093.4779)"
       id="g3348"><path
         id="path3350"
         d="m 225.01,714.22 0,0.03 0,0.03 0,0.04 0,0.01 0,0.02 0,0.01 0,0.02 0,0.02 -0.01,0.01 0,0.01 0,0.02 -0.01,0.01 0,0.01 -0.01,0.02 0,0.01 -0.01,0.01 0,0.01 -0.01,0.01 -0.01,0.01 -0.01,0.01 -0.01,0 -0.01,0.01 -0.01,0 0,0.01 -0.01,0 -0.01,0 0,0 -0.01,0.01 -0.01,0 0,0 -0.01,0 -0.01,0 -0.01,0 -0.01,0 -0.01,0 0,0.01 c -0.2,0 -0.2,-0.18 -0.2,-0.36 V 705 c 0,-0.18 0,-0.36 0.2,-0.36 0.19,0 0.19,0.18 0.19,0.36 z"
         inkscape:connector-curvature="0"
         style="fill:#000000;stroke-width:0" /><path
         id="path3352"
         d="m 230.6,714.06 -0.01,0.01 0,0.01 -0.01,0.01 -0.01,0.01 0,0.01 -0.01,0.01 0,0.01 -0.01,0.01 0,0.01 -0.01,0.01 0,0.01 -0.01,0 -0.01,0.01 0,0.01 -0.01,0 0,0.01 -0.01,0 -0.01,0.01 -0.01,0 0,0.01 -0.01,0 -0.01,0 -0.01,0.01 -0.01,0 -0.01,0 -0.01,0 -0.01,0 -0.01,0.01 -0.02,0 -0.01,0 -0.02,0 -0.01,0 c -0.17,0 -0.19,-0.05 -0.26,-0.18 l -0.06,-0.82 2.68,-5.36 h -5.37 l 2.69,5.36 0.06,0.82 -3.36,-6.74 c -0.05,-0.09 -0.05,-0.11 -0.05,-0.12 0,-0.08 0.06,-0.08 0.22,-0.08 h 6.9 c 0.16,0 0.22,0 0.22,0.08 0,0.01 0,0.03 -0.05,0.12 z"
         inkscape:connector-curvature="0"
         style="fill:#000000;stroke-width:0" /><path
         id="path3354"
         d="m 240.92,714.03 0,0 0,0.01 0,0 0,0 0,0.01 0,0 0,0 -0.01,0.01 0,0 0,0.01 0,0 0,0 0,0.01 -0.01,0 0,0.01 0,0 -0.01,0 0,0.01 0,0 -0.01,0 0,0.01 -0.01,0 0,0 -0.01,0.01 0,0 0,0 -0.01,0 0,0 0,0 -0.01,0 0,0 0,0.01 -0.01,0 0,0 0,0 -0.01,0 0,0 -0.01,0 0,0 c -0.05,0 -0.06,-0.01 -0.18,-0.15 l -0.48,-0.57 c -0.25,0.47 -0.77,0.72 -1.42,0.72 -1.26,0 -2.46,-1.14 -2.46,-2.35 0,-0.8 0.53,-1.26 1.04,-1.41 l 1.06,-0.28 c 0.37,-0.08 0.92,-0.23 0.92,-1.05 0,-0.89 -0.82,-1.83 -1.79,-1.83 -0.64,0 -1.74,0.22 -1.74,1.45 0,0.24 0.04,0.48 0.06,0.54 0,0.04 0.02,0.05 0.02,0.07 0,0.1 -0.07,0.11 -0.12,0.11 -0.05,0 -0.07,-0.01 -0.1,-0.04 -0.04,-0.04 -0.6,-2.3 -0.6,-2.33 0,-0.06 0.05,-0.1 0.11,-0.1 0.05,0 0.06,0.01 0.18,0.14 l 0.48,0.57 c 0.43,-0.57 1.11,-0.71 1.69,-0.71 1.35,0 2.52,1.32 2.52,2.55 0,0.69 -0.33,1.02 -0.48,1.16 -0.23,0.23 -0.38,0.27 -1.27,0.5 -0.22,0.06 -0.57,0.16 -0.66,0.18 -0.27,0.09 -0.61,0.37 -0.61,0.9 0,0.81 0.79,1.65 1.74,1.65 0.83,0 1.43,-0.43 1.43,-1.54 0,-0.32 -0.04,-0.5 -0.04,-0.56 0,-0.01 0,-0.09 0.12,-0.09 0.1,0 0.11,0.02 0.15,0.19 z"
         inkscape:connector-curvature="0"
         style="fill:#000000;stroke-width:0" /><path
         id="path3356"
         d="m 244.13,706.9 h -0.24 c -0.02,-0.16 -0.09,-0.57 -0.18,-0.64 -0.06,-0.04 -0.59,-0.04 -0.69,-0.04 h -1.28 c 0.73,0.65 0.97,0.84 1.39,1.17 0.52,0.41 1,0.84 1,1.5 0,0.84 -0.74,1.36 -1.63,1.36 -0.87,0 -1.45,-0.61 -1.45,-1.25 0,-0.35 0.3,-0.39 0.37,-0.39 0.17,0 0.37,0.12 0.37,0.37 0,0.13 -0.05,0.37 -0.41,0.37 0.21,0.49 0.69,0.65 1.01,0.65 0.7,0 1.06,-0.54 1.06,-1.11 0,-0.6 -0.43,-1.08 -0.65,-1.33 l -1.68,-1.66 c -0.07,-0.06 -0.07,-0.07 -0.07,-0.27 h 2.87 z"
         inkscape:connector-curvature="0"
         style="fill:#000000;stroke-width:0" /><path
         id="path3358"
         d="m 246.92,710.05 0,0.01 0,0.01 0,0.01 0,0.01 0,0 0,0.01 0,0.01 0,0.01 -0.01,0 0,0.01 0,0.01 0,0 0,0.01 0,0 0,0.01 0,0 0,0.01 0,0 0,0.01 -0.01,0.01 0,0.01 0,0 -0.01,0.01 0,0.01 -0.01,0 0,0.01 -0.01,0 0,0 -0.01,0.01 -0.01,0 -0.01,0 -0.01,0 0,0 -0.01,0 0,0 -0.01,0.01 -0.01,0 0,0 -0.01,0 0,0 -0.01,0 -0.01,0 -0.01,0 0,0 -0.01,0 -0.01,0 -0.01,0 -0.01,0 0,0 -0.01,0 c -0.45,-0.44 -1.08,-0.45 -1.37,-0.45 v -0.25 c 0.17,0 0.63,0 1.01,0.2 v -3.55 c 0,-0.23 0,-0.32 -0.7,-0.32 h -0.26 v -0.25 c 0.13,0.01 0.98,0.03 1.24,0.03 0.22,0 1.09,-0.02 1.25,-0.03 v 0.25 h -0.27 c -0.69,0 -0.69,0.09 -0.69,0.32 z"
         inkscape:connector-curvature="0"
         style="fill:#000000;stroke-width:0" /><path
         id="path3360"
         d="m 250.63,714.22 0,0.03 0,0.03 0,0.04 0,0.01 0,0.02 0,0.01 0,0.02 -0.01,0.02 0,0.01 0,0.01 0,0.02 -0.01,0.01 0,0.01 -0.01,0.02 0,0.01 -0.01,0.01 -0.01,0.01 0,0.01 -0.01,0.01 -0.01,0.01 -0.01,0 -0.01,0.01 -0.01,0 0,0.01 -0.01,0 -0.01,0 0,0 -0.01,0.01 -0.01,0 -0.01,0 0,0 -0.01,0 -0.01,0 -0.01,0 -0.01,0 -0.01,0.01 c -0.19,0 -0.19,-0.18 -0.19,-0.36 V 705 c 0,-0.18 0,-0.36 0.19,-0.36 0.2,0 0.2,0.18 0.2,0.36 z"
         inkscape:connector-curvature="0"
         style="fill:#000000;stroke-width:0" /></g>    <g
       style="font-style:normal;font-variant:normal;font-weight:normal;font-stretch:normal;letter-spacing:normal;word-spacing:normal;text-anchor:start;fill:none;stroke:#000000;stroke-width:0.26333126;stroke-linecap:butt;stroke-linejoin:miter;stroke-miterlimit:10.43299961;stroke-opacity:1;stroke-dasharray:none;stroke-dashoffset:0"
       ns0:preamble="/home/daniel/.config/inkscape/extensions/tex_preamble.ini"
       ns0:text="$\\text{Re}\\,S_{21}$"
       word-spacing="normal"
       letter-spacing="normal"
       font-size-adjust="none"
       font-stretch="normal"
       font-weight="normal"
       font-variant="normal"
       font-style="normal"
       stroke-miterlimit="10.433"
       xml:space="preserve"
       transform="matrix(3.7974985,0,0,-3.7974985,-305.39609,3161.3001)"
       id="g3613"><path
         id="path3615"
         d="m 227.76,710.5 0.09,0.03 0.09,0.02 0.09,0.03 0.08,0.03 0.09,0.03 0.08,0.03 0.08,0.04 0.08,0.04 0.08,0.04 0.07,0.04 0.07,0.04 0.07,0.05 0.07,0.04 0.07,0.05 0.06,0.05 0.06,0.05 0.06,0.05 0.05,0.06 0.06,0.05 0.04,0.06 0.05,0.06 0.04,0.06 0.04,0.06 0.03,0.07 0.04,0.06 0.02,0.07 0.03,0.06 0.02,0.07 0.01,0.07 0.01,0.07 0.01,0.07 0,0.07 c 0,0.96 -1.13,1.79 -2.6,1.79 h -3.12 v -0.31 h 0.24 c 0.77,0 0.78,-0.11 0.78,-0.46 v -5.24 c 0,-0.36 -0.01,-0.47 -0.78,-0.47 h -0.24 v -0.31 c 0.36,0.04 1.07,0.04 1.45,0.04 0.39,0 1.1,0 1.45,-0.04 v 0.31 h -0.23 c -0.77,0 -0.79,0.11 -0.79,0.47 v 2.51 0.22 2.58 c 0,0.22 0,0.34 0.22,0.37 0.1,0.02 0.39,0.02 0.59,0.02 0.89,0 2.01,-0.04 2.01,-1.48 0,-0.68 -0.24,-1.49 -1.72,-1.49 h -1.1 v -0.22 h 1.14 c 0.16,0 0.58,0 0.93,-0.33 0.38,-0.36 0.38,-0.67 0.38,-1.34 0,-0.64 0,-1.04 0.41,-1.42 0.4,-0.35 0.95,-0.41 1.25,-0.41 0.78,0 0.94,0.81 0.94,1.09 0,0.06 0,0.17 -0.12,0.17 -0.11,0 -0.11,-0.09 -0.12,-0.16 -0.06,-0.71 -0.41,-0.89 -0.66,-0.89 -0.49,0 -0.57,0.51 -0.71,1.43 l -0.13,0.8 c -0.18,0.64 -0.66,0.96 -1.21,1.15 z"
         inkscape:connector-curvature="0"
         style="fill:#000000;stroke-width:0" /><path
         id="path3617"
         d="m 231.87,709.42 0.01,0.21 c 0.06,1.48 0.89,1.73 1.23,1.73 1.03,0 1.13,-1.34 1.13,-1.73 h -2.36 l -0.01,-0.21 h 2.78 c 0.22,0 0.24,0 0.24,0.21 0,0.98 -0.53,1.95 -1.78,1.95 -1.15,0 -2.07,-1.03 -2.07,-2.27 0,-1.33 1.05,-2.29 2.19,-2.29 1.22,0 1.66,1.1 1.66,1.29 0,0.1 -0.07,0.12 -0.13,0.12 -0.08,0 -0.1,-0.06 -0.12,-0.14 -0.35,-1.03 -1.25,-1.03 -1.35,-1.03 -0.5,0 -0.89,0.3 -1.12,0.67 -0.3,0.48 -0.3,1.13 -0.3,1.49 z"
         inkscape:connector-curvature="0"
         style="fill:#000000;stroke-width:0" /><path
         id="path3619"
         d="m 243.27,714.03 0,0 0,0.01 0,0 0,0 0,0.01 0,0 0,0 0,0.01 0,0 -0.01,0.01 0,0 0,0 0,0.01 0,0 -0.01,0.01 0,0 0,0 -0.01,0.01 0,0 0,0 -0.01,0.01 0,0 -0.01,0 0,0.01 -0.01,0 0,0 0,0 -0.01,0 0,0 0,0 -0.01,0 0,0.01 0,0 -0.01,0 0,0 -0.01,0 0,0 0,0 -0.01,0 c -0.05,0 -0.06,-0.01 -0.18,-0.15 l -0.47,-0.57 c -0.26,0.47 -0.78,0.72 -1.43,0.72 -1.26,0 -2.46,-1.14 -2.46,-2.35 0,-0.8 0.53,-1.26 1.04,-1.41 l 1.06,-0.28 c 0.37,-0.08 0.92,-0.23 0.92,-1.05 0,-0.89 -0.82,-1.83 -1.79,-1.83 -0.64,0 -1.74,0.22 -1.74,1.45 0,0.24 0.05,0.48 0.06,0.54 0.01,0.04 0.02,0.05 0.02,0.07 0,0.1 -0.07,0.11 -0.12,0.11 -0.05,0 -0.07,-0.01 -0.1,-0.04 -0.04,-0.04 -0.6,-2.3 -0.6,-2.33 0,-0.06 0.05,-0.1 0.11,-0.1 0.05,0 0.06,0.01 0.18,0.14 l 0.49,0.57 c 0.42,-0.57 1.1,-0.71 1.68,-0.71 1.35,0 2.53,1.32 2.53,2.55 0,0.69 -0.34,1.02 -0.49,1.16 -0.23,0.23 -0.38,0.27 -1.27,0.5 -0.21,0.06 -0.57,0.16 -0.66,0.18 -0.27,0.09 -0.61,0.37 -0.61,0.9 0,0.81 0.8,1.65 1.74,1.65 0.83,0 1.44,-0.43 1.44,-1.54 0,-0.32 -0.05,-0.5 -0.05,-0.56 0,-0.01 0,-0.09 0.13,-0.09 0.09,0 0.1,0.02 0.14,0.19 z"
         inkscape:connector-curvature="0"
         style="fill:#000000;stroke-width:0" /><path
         id="path3621"
         d="m 246.48,706.9 h -0.24 c -0.02,-0.16 -0.09,-0.57 -0.18,-0.64 -0.05,-0.04 -0.59,-0.04 -0.69,-0.04 h -1.28 c 0.73,0.65 0.98,0.84 1.39,1.17 0.52,0.41 1,0.84 1,1.5 0,0.84 -0.74,1.36 -1.63,1.36 -0.86,0 -1.45,-0.61 -1.45,-1.25 0,-0.35 0.3,-0.39 0.37,-0.39 0.17,0 0.37,0.12 0.37,0.37 0,0.13 -0.05,0.37 -0.41,0.37 0.22,0.49 0.69,0.65 1.02,0.65 0.69,0 1.05,-0.54 1.05,-1.11 0,-0.6 -0.43,-1.08 -0.65,-1.33 l -1.68,-1.66 c -0.07,-0.06 -0.07,-0.07 -0.07,-0.27 h 2.87 z"
         inkscape:connector-curvature="0"
         style="fill:#000000;stroke-width:0" /><path
         id="path3623"
         d="m 249.27,710.05 0,0.01 0,0.01 0,0.01 0,0.01 0,0 0,0.01 0,0.01 0,0.01 0,0 0,0.01 0,0.01 0,0 -0.01,0.01 0,0 0,0.01 0,0 0,0.01 0,0 0,0.01 0,0.01 -0.01,0.01 0,0 0,0.01 -0.01,0.01 0,0 -0.01,0.01 -0.01,0 0,0 -0.01,0.01 -0.01,0 -0.01,0 -0.01,0 0,0 -0.01,0 0,0 -0.01,0.01 0,0 -0.01,0 -0.01,0 0,0 -0.01,0 -0.01,0 0,0 -0.01,0 -0.01,0 -0.01,0 0,0 -0.01,0 -0.01,0 -0.01,0 c -0.45,-0.44 -1.08,-0.45 -1.37,-0.45 v -0.25 c 0.17,0 0.63,0 1.01,0.2 v -3.55 c 0,-0.23 0,-0.32 -0.69,-0.32 h -0.27 v -0.25 c 0.13,0.01 0.98,0.03 1.24,0.03 0.22,0 1.1,-0.02 1.25,-0.03 v 0.25 h -0.27 c -0.69,0 -0.69,0.09 -0.69,0.32 z"
         inkscape:connector-curvature="0"
         style="fill:#000000;stroke-width:0" /></g>    <g
       id="g3761"
       transform="matrix(0,-3.7974985,-3.7974985,0,2750.308,1263.1196)"
       xml:space="preserve"
       stroke-miterlimit="10.433"
       font-style="normal"
       font-variant="normal"
       font-weight="normal"
       font-stretch="normal"
       font-size-adjust="none"
       letter-spacing="normal"
       word-spacing="normal"
       ns0:text="$\\text{Im}\\,S_{21}$"
       ns0:preamble="/home/daniel/.config/inkscape/extensions/tex_preamble.ini"
       style="font-style:normal;font-variant:normal;font-weight:normal;font-stretch:normal;letter-spacing:normal;word-spacing:normal;text-anchor:start;fill:none;stroke:#000000;stroke-width:0.26333126;stroke-linecap:butt;stroke-linejoin:miter;stroke-miterlimit:10.43299961;stroke-opacity:1;stroke-dasharray:none;stroke-dashoffset:0"><path
         style="fill:#000000;stroke-width:0"
         inkscape:connector-curvature="0"
         d="m 225.67,713.14 0,0.03 0,0.03 0,0.03 0,0.03 0.01,0.03 0,0.02 0,0.03 0.01,0.02 0,0.02 0.01,0.02 0.01,0.02 0.01,0.02 0.01,0.02 0.02,0.01 0.02,0.02 0.01,0.01 0.02,0.02 0.03,0.01 0.01,0 0.01,0.01 0.02,0 0.01,0.01 0.02,0 0.01,0.01 0.02,0 0.02,0.01 0.02,0 0.02,0 0.02,0.01 0.02,0 0.02,0 0.02,0 0.02,0.01 0.03,0 0.02,0 0.03,0 0.03,0.01 0.03,0 0.02,0 0.03,0 0.04,0 0.03,0 0.03,0 0.03,0 0.04,0 0.04,0 h 0.25 v 0.31 c -0.34,-0.03 -1.13,-0.03 -1.51,-0.03 -0.38,0 -1.17,0 -1.52,0.03 v -0.31 h 0.26 c 0.79,0 0.82,-0.11 0.82,-0.46 v -5.24 c 0,-0.36 -0.03,-0.47 -0.82,-0.47 h -0.26 v -0.31 c 0.35,0.04 1.14,0.04 1.51,0.04 0.39,0 1.18,0 1.52,-0.04 v 0.31 h -0.25 c -0.79,0 -0.82,0.11 -0.82,0.47 z"
         id="path3763" /><path
         style="fill:#000000;stroke-width:0"
         inkscape:connector-curvature="0"
         d="m 228.12,710.54 v -2.66 c 0,-0.45 -0.11,-0.45 -0.77,-0.45 v -0.31 c 0.35,0.02 0.85,0.04 1.12,0.04 0.26,0 0.78,-0.02 1.12,-0.04 v 0.31 c -0.67,0 -0.78,0 -0.78,0.45 v 1.83 c 0,1.03 0.71,1.59 1.34,1.59 0.63,0 0.74,-0.54 0.74,-1.1 v -2.32 c 0,-0.45 -0.11,-0.45 -0.78,-0.45 v -0.31 c 0.35,0.02 0.86,0.04 1.13,0.04 0.26,0 0.77,-0.02 1.11,-0.04 v 0.31 c -0.66,0 -0.77,0 -0.77,0.45 v 1.83 c 0,1.03 0.7,1.59 1.34,1.59 0.63,0 0.74,-0.54 0.74,-1.1 v -2.32 c 0,-0.45 -0.11,-0.45 -0.78,-0.45 v -0.31 c 0.35,0.02 0.86,0.04 1.12,0.04 0.26,0 0.78,-0.02 1.12,-0.04 v 0.31 c -0.52,0 -0.77,0 -0.78,0.3 v 1.9 c 0,0.85 0,1.16 -0.31,1.52 -0.14,0.17 -0.46,0.37 -1.04,0.37 -0.84,0 -1.27,-0.6 -1.44,-0.98 -0.14,0.87 -0.88,0.98 -1.33,0.98 -0.72,0 -1.19,-0.43 -1.47,-1.05 v 1.05 l -1.4,-0.11 v -0.31 c 0.69,0 0.77,-0.07 0.77,-0.56 z"
         id="path3765" /><path
         style="fill:#000000;stroke-width:0"
         inkscape:connector-curvature="0"
         d="m 243.41,714.03 0,0 0,0.01 0,0 0,0 0,0.01 0,0 0,0 -0.01,0.01 0,0 0,0.01 0,0 0,0 0,0.01 -0.01,0 0,0.01 0,0 -0.01,0 0,0.01 0,0 -0.01,0 0,0.01 -0.01,0 0,0 -0.01,0.01 0,0 0,0 -0.01,0 0,0 0,0 -0.01,0 0,0 0,0.01 -0.01,0 0,0 0,0 -0.01,0 0,0 -0.01,0 0,0 c -0.05,0 -0.06,-0.01 -0.18,-0.15 l -0.48,-0.57 c -0.26,0.47 -0.77,0.72 -1.42,0.72 -1.26,0 -2.46,-1.14 -2.46,-2.35 0,-0.8 0.53,-1.26 1.04,-1.41 l 1.06,-0.28 c 0.37,-0.08 0.92,-0.23 0.92,-1.05 0,-0.89 -0.82,-1.83 -1.79,-1.83 -0.64,0 -1.74,0.22 -1.74,1.45 0,0.24 0.04,0.48 0.05,0.54 0.02,0.04 0.02,0.05 0.02,0.07 0,0.1 -0.06,0.11 -0.11,0.11 -0.05,0 -0.07,-0.01 -0.1,-0.04 -0.04,-0.04 -0.6,-2.3 -0.6,-2.33 0,-0.06 0.05,-0.1 0.11,-0.1 0.05,0 0.06,0.01 0.18,0.14 l 0.49,0.57 c 0.42,-0.57 1.1,-0.71 1.68,-0.71 1.35,0 2.52,1.32 2.52,2.55 0,0.69 -0.33,1.02 -0.48,1.16 -0.23,0.23 -0.38,0.27 -1.27,0.5 -0.22,0.06 -0.57,0.16 -0.66,0.18 -0.27,0.09 -0.61,0.37 -0.61,0.9 0,0.81 0.79,1.65 1.74,1.65 0.83,0 1.43,-0.43 1.43,-1.54 0,-0.32 -0.04,-0.5 -0.04,-0.56 0,-0.01 0,-0.09 0.12,-0.09 0.1,0 0.11,0.02 0.15,0.19 z"
         id="path3767" /><path
         style="fill:#000000;stroke-width:0"
         inkscape:connector-curvature="0"
         d="m 246.62,706.9 h -0.24 c -0.02,-0.16 -0.09,-0.57 -0.18,-0.64 -0.06,-0.04 -0.59,-0.04 -0.69,-0.04 h -1.28 c 0.73,0.65 0.97,0.84 1.39,1.17 0.52,0.41 1,0.84 1,1.5 0,0.84 -0.74,1.36 -1.63,1.36 -0.87,0 -1.45,-0.61 -1.45,-1.25 0,-0.35 0.3,-0.39 0.37,-0.39 0.17,0 0.37,0.12 0.37,0.37 0,0.13 -0.05,0.37 -0.41,0.37 0.21,0.49 0.69,0.65 1.01,0.65 0.7,0 1.06,-0.54 1.06,-1.11 0,-0.6 -0.43,-1.08 -0.65,-1.33 l -1.68,-1.66 c -0.07,-0.06 -0.07,-0.07 -0.07,-0.27 h 2.87 z"
         id="path3769" /><path
         style="fill:#000000;stroke-width:0"
         inkscape:connector-curvature="0"
         d="m 249.41,710.05 0,0.01 0,0.01 0,0.01 0,0.01 0,0 0,0.01 0,0.01 0,0.01 -0.01,0 0,0.01 0,0.01 0,0 0,0.01 0,0 0,0.01 0,0 0,0.01 0,0 0,0.01 -0.01,0.01 0,0.01 0,0 -0.01,0.01 0,0.01 -0.01,0 0,0.01 -0.01,0 0,0 -0.01,0.01 -0.01,0 -0.01,0 -0.01,0 0,0 -0.01,0 0,0 -0.01,0.01 -0.01,0 0,0 -0.01,0 0,0 -0.01,0 -0.01,0 -0.01,0 0,0 -0.01,0 -0.01,0 -0.01,0 -0.01,0 0,0 -0.01,0 c -0.45,-0.44 -1.08,-0.45 -1.37,-0.45 v -0.25 c 0.17,0 0.63,0 1.01,0.2 v -3.55 c 0,-0.23 0,-0.32 -0.69,-0.32 h -0.27 v -0.25 c 0.13,0.01 0.98,0.03 1.24,0.03 0.22,0 1.09,-0.02 1.25,-0.03 v 0.25 h -0.27 c -0.69,0 -0.69,0.09 -0.69,0.32 z"
         id="path3771" /></g>    <g
       style="font-style:normal;font-variant:normal;font-weight:normal;font-stretch:normal;letter-spacing:normal;word-spacing:normal;text-anchor:start;fill:none;stroke:#000000;stroke-width:0.26333126;stroke-linecap:butt;stroke-linejoin:miter;stroke-miterlimit:10.43299961;stroke-opacity:1;stroke-dasharray:none;stroke-dashoffset:0"
       ns0:preamble="/home/daniel/.config/inkscape/extensions/tex_preamble.ini"
       ns0:text="$\\delta y = 1/2Q_l$"
       text-anchor="start"
       word-spacing="normal"
       letter-spacing="normal"
       font-size-adjust="none"
       font-stretch="normal"
       font-weight="normal"
       font-variant="normal"
       font-style="normal"
       fill-opacity="1"
       fill-rule="evenodd"
       fill="none"
       stroke-opacity="1"
       stroke-dashoffset="0"
       stroke-dasharray="none"
       stroke-miterlimit="10.433"
       stroke-linejoin="miter"
       stroke-linecap="butt"
       stroke="black"
       xml:space="preserve"
       transform="matrix(3.7974985,0,0,-3.7974985,-600.29544,2883.4472)"
       id="content"><path
         id="path3071"
         fill="black"
         stroke-width="0"
         d="M226.06,711.47 L225.94,711.44 L225.83,711.4 L225.72,711.36 L225.61,711.31 L225.5,711.26 L225.39,711.2 L225.29,711.14 L225.19,711.07 L225.09,711 L225,710.93 L224.9,710.85 L224.81,710.77 L224.73,710.68 L224.64,710.6 L224.56,710.5 L224.49,710.41 L224.42,710.31 L224.35,710.21 L224.28,710.11 L224.22,710.01 L224.16,709.9 L224.11,709.79 L224.06,709.69 L224.02,709.58 L223.98,709.47 L223.95,709.35 L223.92,709.24 L223.89,709.13 L223.87,709.01 L223.86,708.9 L223.85,708.79 L223.85,708.67 C223.85,707.72,224.49,707.01,225.42,707.01 V707.22 C224.88,707.22,224.47,707.64,224.47,708.4 C224.47,709.02,224.84,710.89,226.18,711.25 H226.18 C226.43,710.79,226.73,710.25,226.73,709.54 C226.73,708.88,226.35,707.22,225.42,707.22 V707.01 C226.59,707.01,227.41,708.57,227.41,709.94 C227.41,710.84,227.01,711.34,226.68,711.78 C226.32,712.23,225.73,712.98,225.73,713.41 C225.73,713.63,225.93,713.87,226.28,713.87 C226.58,713.87,226.77,713.74,226.98,713.6 C227.18,713.48,227.38,713.35,227.53,713.35 C227.78,713.35,227.93,713.59,227.93,713.75 C227.93,713.97,227.77,714,227.41,714.08 C226.89,714.19,226.76,714.19,226.6,714.19 C225.82,714.19,225.46,713.76,225.46,713.16 C225.46,712.63,225.75,712.07,226.06,711.47 Z " /><path
         id="path3073"
         fill="black"
         stroke-width="0"
         d="M233.07,710.91 L233.07,710.92 L233.08,710.92 L233.08,710.93 L233.08,710.93 L233.08,710.95 L233.09,710.96 L233.09,710.97 L233.09,710.98 L233.09,710.99 L233.1,710.99 L233.1,711 L233.1,711.01 L233.1,711.02 L233.1,711.03 L233.1,711.03 L233.11,711.04 L233.11,711.04 L233.11,711.05 L233.11,711.06 L233.11,711.06 L233.11,711.07 L233.11,711.07 L233.11,711.08 L233.11,711.09 L233.11,711.1 L233.11,711.11 L233.11,711.12 L233.11,711.13 L233.11,711.13 L233.11,711.14 C233.11,711.32,232.97,711.41,232.82,711.41 C232.73,711.41,232.57,711.35,232.48,711.2 C232.46,711.15,232.38,710.84,232.34,710.66 C232.27,710.4,232.2,710.14,232.14,709.87 L231.69,708.08 C231.65,707.93,231.22,707.23,230.57,707.23 C230.06,707.23,229.95,707.67,229.95,708.04 C229.95,708.5,230.12,709.11,230.46,709.99 C230.62,710.39,230.66,710.5,230.66,710.7 C230.66,711.15,230.34,711.52,229.84,711.52 C228.9,711.52,228.53,710.08,228.53,709.99 C228.53,709.89,228.63,709.89,228.65,709.89 C228.74,709.89,228.76,709.91,228.8,710.07 C229.07,711,229.47,711.3,229.81,711.3 C229.89,711.3,230.06,711.3,230.06,710.98 C230.06,710.73,229.96,710.47,229.89,710.28 C229.49,709.23,229.31,708.66,229.31,708.2 C229.31,707.31,229.94,707.02,230.53,707.02 C230.91,707.02,231.25,707.18,231.53,707.46 C231.4,706.95,231.28,706.46,230.88,705.93 C230.63,705.59,230.25,705.31,229.79,705.31 C229.65,705.31,229.2,705.34,229.03,705.72 C229.19,705.72,229.32,705.72,229.46,705.84 C229.56,705.93,229.66,706.06,229.66,706.25 C229.66,706.56,229.39,706.6,229.29,706.6 C229.06,706.6,228.74,706.44,228.74,705.95 C228.74,705.46,229.17,705.09,229.79,705.09 C230.82,705.09,231.84,705.99,232.12,707.11 Z " /><path
         id="path3075"
         fill="black"
         stroke-width="0"
         d="M243.08,710.37 L243.11,710.37 L243.14,710.37 L243.17,710.37 L243.18,710.38 L243.2,710.38 L243.21,710.38 L243.23,710.38 L243.24,710.38 L243.25,710.38 L243.27,710.39 L243.28,710.39 L243.29,710.39 L243.31,710.4 L243.32,710.4 L243.33,710.41 L243.34,710.41 L243.35,710.42 L243.36,710.43 L243.37,710.44 L243.38,710.45 L243.39,710.46 L243.39,710.46 L243.39,710.47 L243.4,710.47 L243.4,710.48 L243.4,710.49 L243.41,710.49 L243.41,710.5 L243.41,710.51 L243.41,710.51 L243.41,710.52 L243.42,710.53 L243.42,710.54 L243.42,710.55 L243.42,710.55 L243.42,710.56 L243.42,710.57 C243.42,710.77,243.23,710.77,243.09,710.77 H237.13 C236.99,710.77,236.8,710.77,236.8,710.57 C236.8,710.37,236.99,710.37,237.14,710.37 Z " /><path
         id="path3077"
         fill="black"
         stroke-width="0"
         d="M243.09,708.45 L243.1,708.45 L243.12,708.45 L243.15,708.45 L243.17,708.45 L243.19,708.45 L243.2,708.45 L243.21,708.45 L243.23,708.45 L243.24,708.45 L243.26,708.46 L243.27,708.46 L243.28,708.46 L243.29,708.47 L243.31,708.47 L243.32,708.48 L243.33,708.48 L243.34,708.49 L243.35,708.49 L243.36,708.5 L243.37,708.51 L243.38,708.52 L243.38,708.52 L243.39,708.53 L243.39,708.54 L243.39,708.54 L243.4,708.55 L243.4,708.55 L243.4,708.56 L243.41,708.57 L243.41,708.57 L243.41,708.58 L243.41,708.59 L243.41,708.59 L243.42,708.6 L243.42,708.61 L243.42,708.62 L243.42,708.63 L243.42,708.64 L243.42,708.65 C243.42,708.84,243.23,708.84,243.08,708.84 H237.14 C236.99,708.84,236.8,708.84,236.8,708.65 C236.8,708.45,236.99,708.45,237.13,708.45 Z " /><path
         id="path3079"
         fill="black"
         stroke-width="0"
         d="M249.69,713.48 L249.69,713.49 L249.69,713.5 L249.69,713.52 L249.69,713.53 L249.69,713.53 L249.69,713.54 L249.69,713.55 L249.69,713.56 L249.69,713.57 L249.69,713.58 L249.69,713.59 L249.69,713.6 L249.69,713.6 L249.69,713.61 L249.69,713.62 L249.69,713.62 L249.69,713.63 L249.68,713.64 L249.68,713.65 L249.68,713.66 L249.68,713.67 L249.67,713.68 L249.67,713.69 L249.67,713.69 L249.66,713.7 L249.66,713.71 L249.65,713.71 L249.64,713.72 L249.63,713.72 L249.63,713.73 L249.62,713.73 L249.62,713.73 L249.61,713.73 L249.6,713.73 L249.6,713.73 L249.59,713.73 L249.59,713.74 L249.58,713.74 L249.57,713.74 L249.57,713.74 L249.56,713.74 L249.55,713.74 L249.54,713.74 L249.54,713.74 L249.53,713.74 L249.52,713.74 L249.51,713.74 L249.5,713.74 L249.49,713.74 L249.48,713.74 L249.47,713.74 L249.46,713.74 C248.84,713.1,247.97,713.1,247.65,713.1 V712.8 C247.85,712.8,248.44,712.8,248.95,713.05 V707.91 C248.95,707.55,248.92,707.43,248.03,707.43 H247.71 V707.12 C248.06,707.16,248.92,707.16,249.32,707.16 C249.72,707.16,250.59,707.16,250.93,707.12 V707.43 H250.62 C249.72,707.43,249.69,707.54,249.69,707.91 Z " /><path
         id="path3081"
         fill="black"
         stroke-width="0"
         d="M256.11,714.2 L256.11,714.2 L256.12,714.21 L256.12,714.22 L256.12,714.22 L256.12,714.23 L256.12,714.23 L256.13,714.24 L256.13,714.25 L256.13,714.26 L256.14,714.27 L256.14,714.28 L256.14,714.29 L256.15,714.29 L256.15,714.3 L256.15,714.31 L256.15,714.32 L256.15,714.32 L256.15,714.33 L256.15,714.33 L256.16,714.34 L256.16,714.34 L256.16,714.35 L256.16,714.35 L256.16,714.35 L256.16,714.36 L256.16,714.36 L256.16,714.36 L256.16,714.37 L256.16,714.37 L256.16,714.37 L256.16,714.37 L256.16,714.37 L256.16,714.37 L256.16,714.38 L256.16,714.38 C256.16,714.49,256.07,714.58,255.96,714.58 C255.89,714.58,255.82,714.55,255.79,714.49 L252.34,705.02 C252.29,704.89,252.29,704.85,252.29,704.84 C252.29,704.73,252.38,704.64,252.49,704.64 C252.62,704.64,252.65,704.71,252.71,704.88 Z " /><path
         id="path3083"
         fill="black"
         stroke-width="0"
         d="M257.99,707.89 L259.04,708.91 C260.6,710.28,261.19,710.82,261.19,711.81 C261.19,712.95,260.3,713.74,259.08,713.74 C257.96,713.74,257.22,712.83,257.22,711.94 C257.22,711.39,257.72,711.39,257.75,711.39 C257.92,711.39,258.27,711.51,258.27,711.91 C258.27,712.17,258.09,712.43,257.74,712.43 C257.66,712.43,257.64,712.43,257.61,712.42 C257.84,713.07,258.38,713.43,258.95,713.43 C259.86,713.43,260.29,712.63,260.29,711.81 C260.29,711.02,259.79,710.23,259.24,709.62 L257.33,707.49 C257.22,707.38,257.22,707.36,257.22,707.12 H260.91 L261.19,708.85 H260.94 C260.89,708.55,260.82,708.12,260.73,707.97 C260.65,707.89,260,707.89,259.78,707.89 Z " /><path
         id="path3085"
         fill="black"
         stroke-width="0"
         d="M266.06,707.18 L266.21,707.24 L266.35,707.31 L266.49,707.38 L266.64,707.46 L266.78,707.54 L266.91,707.63 L267.05,707.73 L267.18,707.83 L267.32,707.94 L267.44,708.05 L267.57,708.17 L267.69,708.29 L267.81,708.42 L267.93,708.55 L268.04,708.68 L268.14,708.82 L268.25,708.96 L268.34,709.11 L268.44,709.26 L268.52,709.42 L268.61,709.57 L268.68,709.73 L268.75,709.9 L268.82,710.06 L268.87,710.23 L268.92,710.4 L268.97,710.57 L269,710.75 L269.03,710.92 L269.05,711.1 L269.06,711.28 L269.07,711.46 C269.07,713.05,268.01,714.13,266.53,714.13 L266.47,713.88 C267.47,713.88,268.19,713.1,268.19,711.77 C268.19,710.78,267.68,708.46,266.01,707.52 C265.96,707.87,265.86,708.59,265.14,708.59 V708.38 C265.56,708.38,265.74,708.14,265.74,707.53 C265.74,707.38,265.73,707.37,265.64,707.33 C265.38,707.22,265.08,707.16,264.8,707.16 H264.8 C264.66,707.16,264.34,707.16,264.34,707.58 C264.34,707.98,264.72,708.38,265.14,708.38 V708.59 C264.61,708.59,264.12,708.1,264.12,707.58 C264.12,707.38,264.18,707.27,264.18,707.26 H264.18 C263.41,707.57,263.07,708.35,263.07,709.24 C263.07,709.93,263.33,711.34,264.08,712.41 C264.81,713.42,265.74,713.88,266.47,713.88 L266.53,714.13 C264.38,714.13,262.19,711.87,262.19,709.56 C262.19,707.91,263.31,706.91,264.74,706.91 C264.99,706.91,265.33,706.95,265.72,707.05 C265.68,706.44,265.68,706.42,265.68,706.29 C265.68,705.97,265.68,705.2,266.5,705.2 C267.68,705.2,268.16,707.02,268.16,707.12 C268.16,707.19,268.09,707.22,268.05,707.22 C267.97,707.22,267.95,707.17,267.93,707.11 C267.7,706.41,267.12,706.16,266.77,706.16 C266.31,706.16,266.16,706.43,266.06,707.18 Z " /><path
         id="path3087"
         fill="black"
         stroke-width="0"
         d="M271.55,710.25 L271.55,710.25 L271.55,710.25 L271.55,710.25 L271.55,710.25 L271.55,710.25 L271.55,710.25 L271.55,710.26 L271.55,710.26 L271.55,710.26 L271.55,710.26 L271.55,710.27 L271.55,710.27 L271.55,710.27 L271.56,710.28 L271.56,710.28 L271.56,710.29 L271.56,710.29 L271.56,710.3 L271.56,710.31 L271.56,710.31 L271.56,710.32 L271.57,710.32 L271.57,710.32 L271.57,710.33 L271.57,710.33 L271.57,710.34 L271.57,710.34 L271.57,710.34 L271.57,710.35 L271.57,710.35 L271.57,710.35 L271.57,710.35 L271.57,710.35 L271.57,710.35 L271.57,710.36 L271.57,710.36 L271.57,710.36 L271.57,710.36 L271.57,710.36 L271.57,710.36 L271.57,710.36 C271.57,710.39,271.55,710.46,271.46,710.46 C271.32,710.46,270.74,710.4,270.57,710.39 C270.52,710.38,270.42,710.37,270.42,710.23 C270.42,710.13,270.52,710.13,270.6,710.13 C270.93,710.13,270.93,710.08,270.93,710.03 C270.93,709.98,270.92,709.93,270.9,709.87 L270.04,706.44 C270.02,706.37,270.01,706.29,270.01,706.22 C270.01,705.78,270.41,705.56,270.74,705.56 C270.91,705.56,271.12,705.62,271.3,705.93 C271.45,706.19,271.55,706.6,271.55,706.62 C271.55,706.72,271.45,706.72,271.43,706.72 C271.34,706.72,271.32,706.67,271.3,706.55 C271.2,706.2,271.07,705.76,270.77,705.76 C270.58,705.76,270.54,705.93,270.54,706.1 C270.54,706.17,270.56,706.3,270.58,706.38 Z " /></g>  </g>
</svg>
